<svg xmlns="http://www.w3.org/2000/svg" viewBox="0 0 24 24" fill="none"><path d="M20.9688 12C20.9688 12.5625 20.5 13 19.9688 13H18.9688L19 18C19 18.0938 19 18.1875 19 18.25V18.7812C19 19.4688 18.4375 20.0312 17.75 20.0312H17.25C17.1875 20.0312 17.1562 20.0312 17.125 20C17.0938 20.0312 17.0312 20.0312 17 20.0312L16 20H15.25C14.5312 20 14 19.4688 14 18.75V18V16C14 15.4688 13.5312 15 13 15H11C10.4375 15 10 15.4688 10 16V18V18.75C10 19.4688 9.4375 20 8.75 20H8H7C6.9375 20 6.90625 20 6.84375 20C6.8125 20 6.78125 20 6.75 20H6.25C5.53125 20 5 19.4688 5 18.75V15.25C5 15.25 5 15.2188 5 15.1875V13H4C3.4375 13 3 12.5625 3 12C3 11.7188 3.09375 11.4688 3.3125 11.25L11.3125 4.25C11.5312 4.03125 11.7812 4 12 4C12.2188 4 12.4688 4.0625 12.6562 4.21875L20.625 11.25C20.875 11.4688 21 11.7188 20.9688 12Z" fill="currentColor"/></svg>
