<svg preserveAspectRatio="none" width="100%" height="100%" overflow="visible" style="display: block;" viewBox="0 0 1154 1153" fill="none" xmlns="http://www.w3.org/2000/svg">
<path id="Vector" d="M990.13 405.533C1051.86 338.4 1050.15 233.941 985.018 168.863C919.882 103.784 815.33 102.082 748.136 163.755C744.278 72.6587 669.143 0 577 0C484.89 0 409.755 72.6587 405.897 163.755C338.703 102.082 234.15 103.784 169.014 168.863C103.877 233.941 102.173 338.4 163.902 405.533C72.7238 409.388 0 484.456 0 576.484C0 668.512 72.7238 743.58 163.902 747.466C102.173 814.6 103.877 919.059 169.014 984.137C234.15 1049.22 338.703 1050.92 405.897 989.245C409.755 1080.34 484.89 1153 577 1153C669.11 1153 744.245 1080.34 748.104 989.245C815.297 1050.92 919.85 1049.22 984.986 984.137C1050.12 919.059 1051.83 814.6 990.098 747.466C1081.28 743.612 1154 668.544 1154 576.516C1154 484.488 1081.28 409.42 990.098 405.533H990.13ZM860.051 153.99C902.457 153.99 943.384 160.254 982.028 171.85C993.635 210.428 999.904 251.35 999.904 293.719C999.904 331.622 994.889 368.369 985.501 403.317C957.948 342.158 886.542 313.57 824.139 339.427C816.712 342.511 809.735 346.237 803.273 350.477C807.549 343.989 811.246 337.051 814.333 329.63C840.182 267.251 811.568 195.909 750.386 168.413C785.366 159.033 822.145 154.022 860.083 154.022L860.051 153.99ZM801.859 674.551C798.065 670.76 793.982 667.452 789.738 664.529C794.818 665.46 800.058 666.006 805.395 666.006C853.492 666.006 892.747 628.135 894.901 580.595C934.993 626.208 965.407 680.557 982.929 740.4C982.961 740.528 982.993 740.689 983.057 740.817C983.475 742.231 983.861 743.612 984.247 745.025C982.993 745.732 981.707 746.439 980.421 747.145C980.292 747.209 980.164 747.306 980.035 747.37C925.251 777.307 865.259 794.267 804.559 798.186C836.709 763.078 835.874 708.567 801.859 674.583V674.551ZM349.473 798.154C288.773 794.235 228.781 777.307 173.997 747.338C173.868 747.274 173.74 747.177 173.611 747.113C172.325 746.406 171.071 745.7 169.785 744.993C170.171 743.612 170.557 742.199 170.975 740.817C171.007 740.657 171.071 740.528 171.103 740.368C188.625 680.525 219.039 626.208 259.131 580.563C261.285 628.103 300.508 665.974 348.637 665.974C354.006 665.974 359.214 665.428 364.294 664.497C360.05 667.42 355.967 670.728 352.174 674.519C318.159 708.503 317.323 763.013 349.473 798.122V798.154ZM352.174 478.449C355.967 482.24 360.05 485.548 364.294 488.471C359.214 487.54 353.974 486.994 348.637 486.994C300.54 486.994 261.285 524.865 259.131 572.404C219.039 526.792 188.625 472.442 171.103 412.632C171.071 412.472 171.007 412.311 170.975 412.15C170.557 410.769 170.171 409.388 169.785 407.975C171.039 407.268 172.325 406.561 173.611 405.855C173.74 405.79 173.868 405.694 173.997 405.63C228.781 375.693 288.773 358.732 349.473 354.814C317.323 389.922 318.159 444.433 352.174 478.417V478.449ZM751.126 580.081C747.332 578.508 743.506 577.351 739.648 576.548C743.506 575.745 747.364 574.589 751.126 573.015C782.89 559.877 798.258 523.901 786.105 492.037C825.521 514.489 860.919 543.078 891.108 576.516C860.951 609.922 825.553 638.51 786.169 660.963C798.226 629.099 782.858 593.219 751.158 580.081H751.126ZM691.294 626.369C689.365 624.441 687.307 622.771 685.121 621.261C687.693 621.743 690.362 622 693.094 622C717.529 622 737.494 602.759 738.587 578.604C759.485 602.374 775.206 630.833 783.983 662.152C755.562 678.116 724.312 687.11 692.644 689.166C708.977 671.306 708.559 643.618 691.262 626.336L691.294 626.369ZM461.388 689.198C429.752 687.174 398.47 678.148 370.049 662.184C378.826 630.866 394.548 602.406 415.445 578.636C416.538 602.791 436.471 622.032 460.938 622.032C463.67 622.032 466.307 621.743 468.911 621.293C466.757 622.771 464.667 624.473 462.738 626.401C445.441 643.682 445.023 671.371 461.356 689.23L461.388 689.198ZM367.927 660.963C328.511 638.51 293.114 609.922 262.925 576.484C293.114 543.045 328.543 514.425 367.959 492.004C355.774 523.901 371.174 559.877 402.939 573.015C406.732 574.589 410.558 575.745 414.416 576.548C410.558 577.351 406.7 578.508 402.939 580.081C371.206 593.219 355.839 629.131 367.927 660.963ZM462.77 526.728C464.699 528.655 466.757 530.325 468.943 531.835C466.371 531.353 463.703 531.096 460.97 531.096C436.536 531.096 416.57 550.337 415.477 574.492C394.58 550.722 378.858 522.263 370.081 490.944C398.502 474.98 429.752 465.986 461.42 463.93C445.088 481.79 445.506 509.479 462.802 526.76L462.77 526.728ZM692.676 463.898C724.312 465.954 755.594 474.948 784.015 490.912C775.238 522.231 759.517 550.69 738.619 574.46C737.526 550.305 717.593 531.064 693.127 531.064C690.394 531.064 687.758 531.353 685.153 531.803C687.307 530.325 689.397 528.623 691.326 526.696C708.623 509.414 709.041 481.726 692.709 463.866L692.676 463.898ZM665.542 578.347C663.613 577.544 661.652 576.966 659.69 576.548C661.652 576.131 663.613 575.552 665.542 574.749C681.681 568.068 689.494 549.823 683.353 533.634C703.35 545.037 721.355 559.556 736.69 576.548C721.355 593.54 703.383 608.059 683.353 619.462C689.494 603.273 681.681 585.028 665.542 578.347ZM635.128 601.892C634.163 600.928 633.102 600.061 632.009 599.29C633.327 599.515 634.677 599.676 636.06 599.676C648.502 599.676 658.629 589.879 659.176 577.608C669.818 589.686 677.791 604.173 682.26 620.073C667.824 628.199 651.91 632.761 635.835 633.821C644.13 624.73 643.937 610.661 635.128 601.892ZM518.262 633.821C502.186 632.793 486.272 628.199 471.837 620.073C476.305 604.14 484.279 589.686 494.921 577.608C495.467 589.879 505.627 599.676 518.037 599.676C519.419 599.676 520.769 599.547 522.087 599.29C520.994 600.061 519.933 600.896 518.969 601.892C510.192 610.661 509.967 624.763 518.262 633.821ZM470.743 619.462C450.746 608.059 432.742 593.54 417.406 576.548C432.742 559.556 450.714 545.037 470.743 533.634C464.603 549.823 472.415 568.068 488.555 574.749C490.484 575.552 492.445 576.131 494.406 576.548C492.445 576.966 490.484 577.544 488.555 578.347C472.415 585.028 464.603 603.273 470.743 619.462ZM518.937 551.204C519.901 552.168 520.962 553.035 522.055 553.806C520.737 553.581 519.387 553.421 518.004 553.421C505.562 553.421 495.435 563.218 494.888 575.488C484.247 563.41 476.273 548.924 471.804 533.024C486.24 524.897 502.154 520.336 518.229 519.276C509.935 528.366 510.128 542.435 518.937 551.204ZM635.803 519.276C651.878 520.303 667.792 524.897 682.228 533.024C677.759 548.956 669.786 563.41 659.144 575.488C658.597 563.218 648.438 553.421 636.028 553.421C634.645 553.421 633.295 553.549 631.977 553.806C633.07 553.035 634.131 552.2 635.095 551.204C643.872 542.435 644.097 528.334 635.803 519.276ZM606.225 605.682C606.225 605.682 606.225 605.779 606.225 605.843C605.774 614.194 603.428 622.45 599.216 629.966C590.921 627.653 583.43 623.446 577.193 617.856C577.161 617.824 577.129 617.792 577.064 617.76C577.032 617.792 577 617.824 576.936 617.856C570.699 623.446 563.208 627.621 554.913 629.966C550.701 622.482 548.354 614.194 547.904 605.843C547.904 605.779 547.904 605.747 547.904 605.682C547.84 605.682 547.808 605.682 547.743 605.682C539.384 605.233 531.122 602.888 523.598 598.68C525.913 590.393 530.125 582.908 535.719 576.677C535.751 576.645 535.783 576.612 535.816 576.548C535.783 576.516 535.751 576.484 535.719 576.42C530.125 570.188 525.945 562.704 523.598 554.416C531.089 550.209 539.384 547.864 547.743 547.414C547.808 547.414 547.84 547.414 547.904 547.414C547.904 547.35 547.904 547.318 547.904 547.253C548.354 538.902 550.701 530.647 554.913 523.13C563.208 525.443 570.699 529.651 576.936 535.24C576.968 535.272 577 535.304 577.064 535.336C577.096 535.304 577.129 535.272 577.193 535.24C583.43 529.651 590.921 525.475 599.216 523.13C603.428 530.614 605.774 538.902 606.225 547.253C606.225 547.318 606.225 547.35 606.225 547.414C606.289 547.414 606.321 547.414 606.385 547.414C614.744 547.864 623.007 550.209 630.53 554.416C628.215 562.704 624.004 570.188 618.41 576.42C618.377 576.452 618.345 576.484 618.313 576.548C618.345 576.58 618.377 576.612 618.41 576.677C624.004 582.908 628.183 590.393 630.53 598.68C623.039 602.888 614.744 605.233 606.385 605.682C606.321 605.682 606.289 605.682 606.225 605.682ZM532.054 575.649C533.018 576.066 534.015 576.355 535.044 576.548C534.047 576.741 533.051 577.062 532.054 577.448C523.856 580.852 519.901 590.103 523.02 598.359C512.86 592.577 503.697 585.189 495.917 576.548C503.697 567.907 512.86 560.52 523.02 554.738C519.901 562.961 523.856 572.244 532.054 575.649ZM622.01 577.448C621.046 577.03 620.049 576.741 619.02 576.548C620.017 576.355 621.014 576.034 622.01 575.649C630.209 572.244 634.163 562.993 631.045 554.738C641.204 560.52 650.367 567.907 658.147 576.548C650.367 585.189 641.204 592.577 631.045 598.359C634.163 590.136 630.209 580.852 622.01 577.448ZM630.691 553.806C627.058 545.776 617.702 542.018 609.504 545.422C608.539 545.84 607.607 546.322 606.739 546.868C607.286 546.001 607.8 545.101 608.186 544.105C611.594 535.914 607.832 526.567 599.795 522.937C611.079 519.854 622.782 518.601 634.388 519.211C634.999 530.807 633.745 542.499 630.659 553.806H630.691ZM577.932 531.61C577.514 532.574 577.225 533.57 577.032 534.597C576.839 533.602 576.518 532.606 576.132 531.61C572.724 523.419 563.465 519.468 555.202 522.584C560.989 512.434 568.384 503.279 577.032 495.506C585.681 503.279 593.075 512.434 598.862 522.584C590.632 519.468 581.34 523.419 577.932 531.61ZM545.879 544.105C546.297 545.069 546.779 546.001 547.325 546.868C546.457 546.322 545.557 545.808 544.593 545.422C536.394 542.018 527.039 545.776 523.406 553.806C520.319 542.532 519.065 530.839 519.676 519.243C531.282 518.633 542.985 519.886 554.27 522.97C546.232 526.599 542.471 535.947 545.879 544.138V544.105ZM523.373 599.29C527.006 607.321 536.362 611.079 544.56 607.674C545.525 607.256 546.457 606.774 547.293 606.228C546.747 607.096 546.232 607.995 545.846 608.959C542.439 617.15 546.2 626.497 554.238 630.127C542.953 633.21 531.25 634.463 519.644 633.853C519.033 622.257 520.287 610.565 523.373 599.29ZM576.132 621.486C576.55 620.522 576.839 619.527 577.032 618.499C577.225 619.495 577.547 620.49 577.932 621.486C581.34 629.677 590.6 633.628 598.862 630.512C593.075 640.663 585.681 649.817 577.032 657.591C568.384 649.817 560.989 640.663 555.202 630.512C563.433 633.628 572.724 629.677 576.132 621.486ZM608.186 608.959C607.768 607.995 607.286 607.064 606.739 606.228C607.607 606.774 608.507 607.288 609.504 607.674C617.702 611.079 627.058 607.321 630.691 599.29C633.777 610.565 635.031 622.257 634.42 633.885C622.814 634.495 611.111 633.243 599.827 630.159C607.864 626.529 611.626 617.182 608.218 608.991L608.186 608.959ZM682.549 531.771C675.444 515.967 656.99 508.611 640.85 515.26C638.921 516.063 637.121 517.027 635.449 518.119C636.542 516.449 637.507 514.65 638.31 512.723C644.998 496.598 637.603 478.192 621.785 471.061C644.001 464.99 666.988 462.549 689.847 463.738C691.037 486.576 688.593 509.543 682.517 531.739L682.549 531.771ZM634.356 517.83C625.257 509.511 611.176 509.735 602.399 518.537C601.434 519.5 600.566 520.56 599.795 521.653C600.02 520.336 600.18 518.986 600.18 517.605C600.18 505.174 590.375 495.056 578.093 494.51C590.182 483.878 604.681 475.912 620.596 471.447C628.73 485.869 633.295 501.769 634.356 517.83ZM578.833 488.118C578.029 490.045 577.45 492.004 577.032 493.964C576.614 492.004 576.035 490.045 575.232 488.118C568.544 471.993 550.283 464.187 534.079 470.322C545.493 450.343 560.025 432.355 577.032 417.033C594.04 432.355 608.572 450.311 619.985 470.322C603.781 464.187 585.52 471.993 578.833 488.118ZM575.971 494.51C563.69 495.056 553.884 505.206 553.884 517.605C553.884 518.986 554.013 520.336 554.27 521.653C553.498 520.56 552.662 519.5 551.666 518.537C542.889 509.768 528.775 509.543 519.708 517.83C520.737 501.769 525.335 485.869 533.436 471.447C549.383 475.912 563.851 483.878 575.939 494.51H575.971ZM515.722 512.755C516.525 514.682 517.49 516.481 518.583 518.151C516.911 517.059 515.111 516.096 513.182 515.293C497.042 508.611 478.62 515.999 471.483 531.803C465.407 509.607 462.963 486.64 464.153 463.802C487.012 462.613 509.999 465.055 532.215 471.125C516.397 478.224 509.034 496.662 515.69 512.787L515.722 512.755ZM471.515 621.293C478.62 637.097 497.075 644.453 513.214 637.804C515.143 637.001 516.943 636.037 518.615 634.945C517.522 636.615 516.558 638.414 515.754 640.341C509.067 656.466 516.461 674.872 532.279 682.003C510.063 688.074 487.076 690.515 464.217 689.327C463.027 666.488 465.471 643.521 471.547 621.325L471.515 621.293ZM519.708 635.266C528.775 643.554 542.889 643.361 551.666 634.56C552.63 633.596 553.498 632.536 554.27 631.444C554.045 632.761 553.884 634.11 553.884 635.491C553.884 647.922 563.69 658.04 575.971 658.586C563.883 669.219 549.383 677.185 533.469 681.65C525.335 667.227 520.769 651.327 519.708 635.266ZM575.232 664.979C576.035 663.051 576.614 661.092 577.032 659.132C577.45 661.092 578.029 663.051 578.833 664.979C585.52 681.104 603.781 688.909 619.985 682.774C608.572 702.753 594.04 720.741 577.032 736.063C560.025 720.741 545.493 702.785 534.079 682.774C550.283 688.909 568.544 681.104 575.232 664.979ZM578.093 658.586C590.375 658.04 600.18 647.89 600.18 635.491C600.18 634.11 600.052 632.761 599.795 631.444C600.566 632.536 601.402 633.596 602.399 634.56C611.176 643.329 625.29 643.554 634.356 635.266C633.327 651.327 628.73 667.227 620.596 681.65C604.649 677.185 590.182 669.219 578.093 658.586ZM638.343 640.341C637.539 638.414 636.574 636.615 635.481 634.945C637.153 636.037 638.953 637.001 640.882 637.804C657.022 644.485 675.444 637.097 682.581 621.293C688.658 643.489 691.101 666.456 689.912 689.294C667.053 690.483 644.065 688.042 621.85 681.971C637.667 674.872 645.03 656.434 638.375 640.309L638.343 640.341ZM784.626 488.503C770.641 457.442 734.343 442.891 702.611 456.028C698.817 457.602 695.281 459.498 692.001 461.65C694.155 458.341 696.052 454.808 697.628 451.05C710.777 419.314 696.181 383.016 665.027 369.043C708.784 357.062 754.083 352.244 799.094 354.589C801.409 399.559 796.618 444.786 784.626 488.503ZM689.783 461.007C671.907 444.69 644.194 445.107 626.897 462.388C624.968 464.316 623.296 466.372 621.785 468.556C622.267 465.986 622.525 463.32 622.525 460.59C622.525 436.177 603.267 416.23 579.09 415.138C602.881 394.259 631.366 378.551 662.713 369.782C678.691 398.178 687.693 429.4 689.751 461.039L689.783 461.007ZM580.569 402.61C578.993 406.401 577.836 410.223 577.032 414.078C576.228 410.223 575.071 406.369 573.496 402.61C560.346 370.874 524.338 355.52 492.413 367.662C514.886 328.249 543.499 292.851 577 262.689C610.468 292.851 639.114 328.249 661.555 367.63C629.662 355.52 593.686 370.874 580.537 402.578L580.569 402.61ZM574.942 415.138C550.765 416.23 531.507 436.145 531.507 460.59C531.507 463.32 531.797 465.954 532.247 468.556C530.768 466.404 529.064 464.316 527.135 462.388C509.838 445.107 482.125 444.69 464.249 461.007C466.307 429.4 475.309 398.146 491.288 369.75C522.634 378.519 551.119 394.227 574.91 415.106L574.942 415.138ZM456.437 451.05C458.012 454.84 459.909 458.373 462.063 461.65C458.752 459.465 455.215 457.57 451.453 456.028C419.721 442.891 383.391 457.442 369.406 488.535C357.414 444.818 352.591 399.559 354.938 354.589C399.949 352.276 445.281 357.062 489.037 369.043C457.851 382.984 443.287 419.281 456.437 451.017V451.05ZM369.374 664.497C383.359 695.622 419.657 710.206 451.421 697.068C455.215 695.494 458.752 693.599 462.031 691.447C459.845 694.755 457.948 698.288 456.405 702.047C443.255 733.751 457.787 769.984 488.876 783.956C445.152 795.906 399.884 800.724 354.906 798.379C352.591 753.409 357.382 708.182 369.374 664.497ZM464.281 692.057C482.157 708.375 509.87 707.957 527.167 690.676C529.096 688.748 530.768 686.693 532.279 684.508C531.797 687.078 531.54 689.744 531.54 692.475C531.54 716.887 550.798 736.834 574.975 737.926C551.183 758.805 522.698 774.513 491.352 783.282C475.373 754.887 466.371 723.664 464.313 692.025L464.281 692.057ZM573.496 750.486C575.071 746.696 576.228 742.873 577.032 739.019C577.836 742.873 578.993 746.728 580.569 750.486C593.718 782.19 629.63 797.544 661.523 785.466C639.05 824.815 610.468 860.181 577.032 890.311C543.596 860.181 514.982 824.815 492.509 785.466C524.402 797.576 560.378 782.222 573.528 750.486H573.496ZM579.122 737.959C603.299 736.866 622.557 716.951 622.557 692.507C622.557 689.776 622.268 687.142 621.817 684.54C623.296 686.693 625 688.781 626.929 690.708C644.226 707.989 671.94 708.407 689.815 692.089C687.79 723.697 678.755 754.951 662.777 783.346C631.43 774.577 602.945 758.87 579.154 737.991L579.122 737.959ZM697.628 702.015C696.052 698.224 694.155 694.691 692.001 691.414C695.313 693.567 698.849 695.462 702.611 697.036C734.343 710.173 770.641 695.622 784.626 664.529C796.586 708.214 801.409 753.441 799.062 798.379C754.083 800.692 708.848 795.906 665.124 783.956C696.213 769.951 710.745 733.718 697.595 702.015H697.628ZM805.395 486.994C800.026 486.994 794.818 487.54 789.738 488.471C793.982 485.548 798.065 482.24 801.859 478.449C835.874 444.465 836.709 389.955 804.559 354.846C865.259 358.765 925.251 375.725 980.035 405.662C980.164 405.726 980.292 405.823 980.421 405.887C981.707 406.593 982.961 407.3 984.247 408.007C983.861 409.42 983.443 410.801 983.057 412.215C983.025 412.343 982.961 412.504 982.929 412.632C965.407 472.475 934.993 526.792 894.901 572.437C892.747 524.897 853.524 487.026 805.395 487.026V486.994ZM747.814 173.456C747.814 173.456 747.975 173.713 748.039 173.841C778.003 228.576 794.979 288.515 798.901 349.16C763.761 317.039 709.202 317.874 675.187 351.859C671.393 355.649 668.082 359.728 665.156 363.968C666.088 358.893 666.635 353.657 666.635 348.325C666.635 300.271 628.73 261.051 581.147 258.899C626.801 218.844 681.199 188.457 741.095 170.95C741.223 170.918 741.384 170.886 741.513 170.822C742.927 170.404 744.31 170.019 745.724 169.633C746.432 170.886 747.139 172.171 747.846 173.456H747.814ZM478.106 77.7661C508.102 47.7967 541.474 23.3202 577 4.24003C612.526 23.3202 645.898 47.7967 675.894 77.7661C702.707 104.555 725.18 134.075 743.281 165.426C680.524 141.656 609.793 171.882 583.944 234.262C580.858 241.682 578.575 249.23 577 256.843C575.425 249.263 573.142 241.714 570.056 234.262C544.207 171.882 473.476 141.656 410.719 165.426C428.82 134.075 451.261 104.555 478.106 77.7661ZM405.993 173.873C405.993 173.873 406.154 173.616 406.218 173.488C406.925 172.203 407.633 170.95 408.34 169.666C409.755 170.051 411.137 170.469 412.552 170.854C412.68 170.886 412.841 170.95 412.97 170.983C472.865 188.489 527.231 218.876 572.917 258.931C525.335 261.083 487.429 300.271 487.429 348.357C487.429 353.722 487.976 358.925 488.908 364C485.983 359.76 482.671 355.681 478.878 351.891C444.863 317.906 390.304 317.071 355.163 349.192C359.086 288.547 376.029 228.608 406.025 173.873H405.993ZM154.128 293.719C154.128 251.35 160.397 210.46 172.004 171.85C210.616 160.254 251.575 153.99 293.982 153.99C331.919 153.99 368.699 159.001 403.678 168.381C342.464 195.909 313.85 267.251 339.731 329.598C342.818 337.018 346.547 343.989 350.791 350.445C344.297 346.173 337.352 342.479 329.926 339.395C267.49 313.57 196.084 342.158 168.564 403.285C159.176 368.337 154.16 331.59 154.16 293.687L154.128 293.719ZM77.8357 675.29C47.8395 645.32 23.3411 611.978 4.24383 576.484C23.3411 540.99 47.8395 507.648 77.8357 477.678C104.649 450.889 134.195 428.436 165.574 410.352C141.782 473.053 172.036 543.72 234.472 569.546C241.898 572.629 249.454 574.91 257.073 576.484C249.486 578.058 241.93 580.338 234.472 583.422C172.036 609.248 141.782 679.915 165.574 742.616C134.195 724.532 104.649 702.111 77.8357 675.29ZM293.982 999.01C251.575 999.01 210.648 992.746 172.004 981.15C160.397 942.572 154.128 901.65 154.128 859.281C154.128 821.378 159.144 784.631 168.531 749.683C196.084 810.842 267.49 839.43 329.893 813.572C337.32 810.489 344.297 806.763 350.759 802.523C346.483 809.011 342.786 815.949 339.699 823.369C313.85 885.749 342.464 957.091 403.646 984.587C368.667 993.967 331.887 998.978 293.949 998.978L293.982 999.01ZM406.218 979.544C406.218 979.544 406.057 979.255 405.993 979.126C376.029 924.391 359.054 864.453 355.131 803.807C390.272 835.929 444.83 835.094 478.845 801.109C482.639 797.319 485.951 793.24 488.876 788.999C487.944 794.075 487.397 799.31 487.397 804.643C487.397 852.696 525.302 891.917 572.885 894.069C527.231 934.124 472.833 964.511 412.937 982.017C412.809 982.049 412.648 982.114 412.519 982.146C411.105 982.563 409.722 982.949 408.308 983.334C407.6 982.082 406.893 980.797 406.186 979.544H406.218ZM675.894 1075.2C645.898 1105.17 612.526 1129.65 577 1148.73C541.474 1129.65 508.102 1105.17 478.106 1075.2C451.293 1048.41 428.82 1018.89 410.719 987.542C473.476 1011.31 544.207 981.086 570.056 918.706C573.142 911.286 575.425 903.737 577 896.125C578.575 903.705 580.858 911.254 583.944 918.706C609.793 981.086 680.524 1011.31 743.281 987.542C725.18 1018.89 702.74 1048.41 675.894 1075.2ZM748.039 979.126C748.039 979.126 747.878 979.416 747.814 979.544C747.107 980.797 746.4 982.082 745.692 983.334C744.278 982.949 742.863 982.531 741.481 982.146C741.352 982.114 741.191 982.082 741.063 982.017C681.167 964.511 626.801 934.124 581.115 894.069C628.698 891.917 666.603 852.728 666.603 804.643C666.603 799.278 666.056 794.075 665.124 788.999C668.049 793.24 671.361 797.319 675.155 801.109C709.17 835.094 763.728 835.929 798.869 803.807C794.946 864.453 778.003 924.391 748.007 979.126H748.039ZM999.904 859.281C999.904 901.65 993.635 942.54 982.028 981.15C943.416 992.746 902.457 999.01 860.051 999.01C822.113 999.01 785.333 993.999 750.354 984.619C811.568 957.091 840.182 885.749 814.301 823.402C811.214 815.982 807.485 809.011 803.241 802.555C809.735 806.827 816.68 810.521 824.107 813.605C886.542 839.43 957.948 810.842 985.469 749.715C994.856 784.663 999.872 821.41 999.872 859.313L999.904 859.281ZM1076.16 675.29C1049.35 702.079 1019.8 724.532 988.426 742.616C1012.22 679.915 981.964 609.248 919.528 583.422C912.102 580.338 904.547 578.058 896.927 576.484C904.514 574.91 912.07 572.629 919.528 569.546C981.964 543.72 1012.22 473.053 988.426 410.352C1019.8 428.436 1049.35 450.857 1076.16 477.678C1106.16 507.648 1130.66 540.99 1149.76 576.484C1130.66 611.978 1106.16 645.32 1076.16 675.29Z" fill="var(--fill-0, #FDF7E6)"/>
</svg>
