<svg width="456" height="395" viewBox="0 0 456 395" fill="none" xmlns="http://www.w3.org/2000/svg">
<g id="section">
<g id="bg" opacity="0.4" clip-path="url(#clip0_47214_16545)">
<path id="Vector" d="M348.363 266.604C388.909 222.469 387.79 153.796 345.005 111.013C302.221 68.2295 233.546 67.1103 189.41 107.655C186.876 47.767 137.523 0 77 0C16.4977 0 -32.8545 47.767 -35.3886 107.655C-79.5247 67.1103 -148.2 68.2295 -190.984 111.013C-233.769 153.796 -234.888 222.469 -194.342 266.604C-254.232 269.138 -302 318.489 -302 378.989C-302 439.49 -254.232 488.841 -194.342 491.396C-234.888 535.531 -233.769 604.204 -190.984 646.987C-148.2 689.771 -79.5247 690.89 -35.3886 650.345C-32.8545 710.233 16.4977 758 77 758C137.502 758 186.854 710.233 189.389 650.345C233.525 690.89 302.2 689.771 344.984 646.987C387.769 604.204 388.888 535.531 348.342 491.396C408.232 488.862 456 439.511 456 379.011C456 318.51 408.232 269.159 348.342 266.604H348.363ZM262.921 101.236C290.775 101.236 317.658 105.353 343.041 112.977C350.665 138.338 354.783 165.242 354.783 193.095C354.783 218.013 351.488 242.171 345.322 265.147C327.224 224.94 280.322 206.146 239.332 223.145C234.454 225.172 229.871 227.622 225.627 230.409C228.435 226.144 230.864 221.582 232.891 216.704C249.87 175.695 231.075 128.793 190.888 110.717C213.864 104.551 238.023 101.257 262.942 101.257L262.921 101.236ZM224.697 443.46C222.206 440.968 219.524 438.793 216.736 436.872C220.073 437.484 223.515 437.843 227.02 437.843C258.612 437.843 284.397 412.946 285.812 381.692C312.146 411.679 332.123 447.409 343.633 486.75C343.654 486.835 343.675 486.94 343.717 487.025C343.991 487.954 344.245 488.862 344.498 489.791C343.675 490.256 342.83 490.72 341.985 491.185C341.901 491.227 341.816 491.29 341.732 491.333C305.747 511.014 266.342 522.164 226.471 524.74C247.589 501.659 247.04 465.823 224.697 443.481V443.46ZM-72.4502 524.719C-112.321 522.143 -151.726 511.014 -187.711 491.312C-187.795 491.269 -187.88 491.206 -187.964 491.164C-188.809 490.699 -189.633 490.235 -190.477 489.77C-190.224 488.862 -189.97 487.933 -189.696 487.025C-189.675 486.919 -189.633 486.835 -189.611 486.729C-178.102 447.388 -158.125 411.679 -131.791 381.671C-130.376 412.925 -104.613 437.822 -72.9993 437.822C-69.4726 437.822 -66.0515 437.463 -62.715 436.85C-65.5025 438.772 -68.1844 440.947 -70.6763 443.439C-93.0189 465.781 -93.568 501.617 -72.4502 524.698V524.719ZM-70.6763 314.54C-68.1844 317.032 -65.5025 319.207 -62.715 321.128C-66.0515 320.516 -69.4937 320.157 -72.9993 320.157C-104.591 320.157 -130.376 345.054 -131.791 376.308C-158.125 346.321 -178.102 310.591 -189.611 271.271C-189.633 271.165 -189.675 271.06 -189.696 270.954C-189.97 270.046 -190.224 269.138 -190.477 268.209C-189.654 267.744 -188.809 267.28 -187.964 266.815C-187.88 266.773 -187.795 266.71 -187.711 266.667C-151.726 246.986 -112.321 235.836 -72.4502 233.26C-93.568 256.341 -93.0189 292.177 -70.6763 314.519V314.54ZM191.374 381.355C188.882 380.32 186.369 379.56 183.835 379.032C186.369 378.504 188.903 377.744 191.374 376.709C212.238 368.072 222.332 344.421 214.35 323.472C240.24 338.233 263.491 357.028 283.32 379.011C263.512 400.972 240.261 419.767 214.392 434.528C222.311 413.579 212.217 389.991 191.395 381.355H191.374ZM152.074 411.784C150.806 410.517 149.455 409.419 148.019 408.427C149.708 408.743 151.461 408.912 153.256 408.912C169.306 408.912 182.42 396.263 183.138 380.383C196.864 396.01 207.191 414.72 212.956 435.309C194.288 445.804 173.761 451.717 152.96 453.068C163.688 441.327 163.414 423.124 152.052 411.763L152.074 411.784ZM1.06061 453.09C-19.7192 451.759 -40.2668 445.825 -58.9349 435.33C-53.1697 414.741 -42.8431 396.031 -29.1166 380.404C-28.3986 396.284 -15.3056 408.934 0.764954 408.934C2.55997 408.934 4.29163 408.743 6.00217 408.448C4.58728 409.419 3.21463 410.538 1.94754 411.805C-9.41379 423.166 -9.68829 441.369 1.03952 453.111L1.06061 453.09ZM-60.3286 434.528C-86.219 419.767 -109.47 400.972 -129.299 378.989C-109.47 357.006 -86.1979 338.191 -60.3075 323.451C-68.3111 344.421 -58.1958 368.072 -37.3315 376.709C-34.8395 377.744 -32.3265 378.504 -29.7924 379.032C-32.3265 379.56 -34.8607 380.32 -37.3315 381.355C-58.1746 389.991 -68.2689 413.6 -60.3286 434.528ZM1.96869 346.279C3.23575 347.546 4.58728 348.644 6.02328 349.637C4.33386 349.32 2.58109 349.151 0.786102 349.151C-15.2634 349.151 -28.3775 361.8 -29.0955 377.68C-42.8221 362.053 -53.1486 343.344 -58.9137 322.754C-40.2457 312.259 -19.7192 306.346 1.08173 304.995C-9.64609 316.736 -9.37158 334.939 1.98978 346.3L1.96869 346.279ZM152.982 304.974C173.761 306.325 194.309 312.238 212.977 322.733C207.212 343.323 196.885 362.032 183.159 377.659C182.441 361.779 169.348 349.13 153.277 349.13C151.482 349.13 149.751 349.32 148.04 349.615C149.455 348.644 150.828 347.525 152.095 346.258C163.456 334.897 163.731 316.694 153.003 304.953L152.982 304.974ZM135.158 380.214C133.891 379.686 132.603 379.306 131.315 379.032C132.603 378.757 133.891 378.377 135.158 377.849C145.759 373.457 150.891 361.462 146.857 350.819C159.993 358.316 171.819 367.861 181.892 379.032C171.819 390.203 160.014 399.748 146.857 407.244C150.891 396.601 145.759 384.607 135.158 380.214ZM115.181 395.693C114.547 395.06 113.85 394.489 113.132 393.983C113.998 394.13 114.885 394.236 115.793 394.236C123.966 394.236 130.618 387.795 130.977 379.729C137.967 387.669 143.204 397.192 146.139 407.645C136.658 412.988 126.204 415.987 115.645 416.684C121.094 410.707 120.967 401.458 115.181 395.693ZM38.4179 416.684C27.859 416.008 17.4057 412.988 7.92386 407.645C10.8592 397.171 16.0965 387.669 23.0864 379.729C23.4454 387.795 30.1186 394.236 38.2701 394.236C39.1781 394.236 40.0651 394.152 40.9309 393.983C40.2129 394.489 39.516 395.038 38.8825 395.693C33.1173 401.458 32.9695 410.729 38.4179 416.684ZM7.20587 407.244C-5.92938 399.748 -17.7553 390.203 -27.8284 379.032C-17.7553 367.861 -5.9505 358.316 7.20587 350.819C3.17236 361.462 8.30402 373.457 18.9051 377.849C20.1722 378.377 21.4604 378.757 22.7485 379.032C21.4604 379.306 20.1722 379.686 18.9051 380.214C8.30402 384.607 3.17236 396.601 7.20587 407.244ZM38.8614 362.37C39.4949 363.004 40.1918 363.574 40.9098 364.081C40.0439 363.933 39.157 363.827 38.2489 363.827C30.0764 363.827 23.4243 370.268 23.0653 378.335C16.0753 370.395 10.8381 360.871 7.90277 350.418C17.3846 345.075 27.8379 342.077 38.3968 341.38C32.9484 347.356 33.0751 356.605 38.8614 362.37ZM115.624 341.38C126.183 342.056 136.636 345.075 146.118 350.418C143.183 360.892 137.946 370.395 130.956 378.335C130.597 370.268 123.924 363.827 115.772 363.827C114.864 363.827 113.977 363.912 113.111 364.081C113.829 363.574 114.526 363.025 115.16 362.37C120.925 356.605 121.073 347.335 115.624 341.38ZM96.196 398.185C96.196 398.185 96.196 398.248 96.196 398.29C95.9004 403.781 94.3588 409.208 91.5923 414.149C86.144 412.629 81.2235 409.863 77.1267 406.188C77.1056 406.167 77.0845 406.146 77.0422 406.125C77.0211 406.146 77 406.167 76.9577 406.188C72.8609 409.863 67.9405 412.608 62.4921 414.149C59.7257 409.229 58.1841 403.781 57.8884 398.29C57.8884 398.248 57.8884 398.227 57.8884 398.185C57.8462 398.185 57.8251 398.185 57.7828 398.185C52.2922 397.889 46.865 396.348 41.9234 393.581C43.4439 388.133 46.2103 383.213 49.8848 379.116C49.9059 379.095 49.9271 379.074 49.9482 379.032C49.9271 379.011 49.9059 378.989 49.8848 378.947C46.2103 374.85 43.465 369.93 41.9234 364.482C46.8438 361.716 52.2922 360.174 57.7828 359.878C57.8251 359.878 57.8462 359.878 57.8884 359.878C57.8884 359.836 57.8884 359.815 57.8884 359.773C58.1841 354.282 59.7257 348.855 62.4921 343.914C67.9405 345.434 72.8609 348.201 76.9577 351.875C76.9789 351.896 77 351.917 77.0422 351.938C77.0634 351.917 77.0844 351.896 77.1267 351.875C81.2235 348.201 86.144 345.455 91.5923 343.914C94.3588 348.834 95.9004 354.282 96.196 359.773C96.196 359.815 96.196 359.836 96.196 359.878C96.2383 359.878 96.2594 359.878 96.3016 359.878C101.792 360.174 107.219 361.716 112.161 364.482C110.641 369.93 107.874 374.85 104.2 378.947C104.179 378.968 104.157 378.989 104.136 379.032C104.157 379.053 104.179 379.074 104.2 379.116C107.874 383.213 110.619 388.133 112.161 393.581C107.241 396.348 101.792 397.889 96.3016 398.185C96.2594 398.185 96.2383 398.185 96.196 398.185ZM47.4774 378.44C48.1109 378.715 48.7656 378.905 49.4413 379.032C48.7867 379.158 48.132 379.37 47.4774 379.623C42.0924 381.861 39.4949 387.943 41.5433 393.37C34.8701 389.569 28.8515 384.712 23.7411 379.032C28.8515 373.351 34.8701 368.494 41.5433 364.693C39.4949 370.099 42.0924 376.202 47.4774 378.44ZM106.565 379.623C105.931 379.348 105.277 379.158 104.601 379.032C105.256 378.905 105.91 378.694 106.565 378.44C111.95 376.202 114.547 370.12 112.499 364.693C119.172 368.494 125.191 373.351 130.301 379.032C125.191 384.712 119.172 389.569 112.499 393.37C114.547 387.964 111.95 381.861 106.565 379.623ZM112.267 364.081C109.88 358.801 103.735 356.331 98.35 358.569C97.7165 358.844 97.1041 359.16 96.5339 359.519C96.8929 358.949 97.2308 358.358 97.4842 357.703C99.7227 352.318 97.2519 346.173 91.9725 343.787C99.3848 341.76 107.072 340.936 114.695 341.338C115.096 348.961 114.273 356.647 112.245 364.081H112.267ZM77.6124 349.489C77.3379 350.122 77.1478 350.777 77.0211 351.453C76.8944 350.798 76.6832 350.143 76.4298 349.489C74.1913 344.104 68.1094 341.507 62.6822 343.555C66.4834 336.882 71.3404 330.863 77.0211 325.753C82.7018 330.863 87.5589 336.882 91.3601 343.555C85.9539 341.507 79.8509 344.104 77.6124 349.489ZM56.558 357.703C56.8325 358.337 57.1493 358.949 57.5083 359.519C56.9381 359.16 56.3468 358.823 55.7133 358.569C50.3283 356.331 44.183 358.801 41.7967 364.081C39.7694 356.669 38.9458 348.982 39.347 341.359C46.9706 340.957 54.6574 341.781 62.0698 343.808C56.7903 346.195 54.3195 352.34 56.558 357.724V357.703ZM41.7756 393.983C44.1619 399.262 50.3072 401.733 55.6922 399.494C56.3257 399.22 56.9381 398.903 57.4872 398.544C57.1282 399.114 56.7903 399.705 56.5369 400.339C54.2984 405.724 56.7692 411.869 62.0486 414.255C54.6363 416.282 46.9495 417.106 39.326 416.705C38.9247 409.081 39.7483 401.395 41.7756 393.983ZM76.4298 408.575C76.7043 407.941 76.8944 407.286 77.0211 406.611C77.1478 407.265 77.359 407.92 77.6124 408.575C79.8509 413.959 85.9328 416.557 91.3601 414.508C87.5589 421.181 82.7018 427.2 77.0211 432.31C71.3404 427.2 66.4834 421.181 62.6822 414.508C68.0883 416.557 74.1913 413.959 76.4298 408.575ZM97.4842 400.339C97.2097 399.705 96.8929 399.093 96.5339 398.544C97.1041 398.903 97.6954 399.241 98.35 399.494C103.735 401.733 109.88 399.262 112.267 393.983C114.294 401.395 115.117 409.081 114.716 416.726C107.093 417.127 99.4059 416.303 91.9936 414.276C97.273 411.89 99.7438 405.745 97.5053 400.36L97.4842 400.339ZM146.33 349.594C141.663 339.205 129.541 334.369 118.94 338.74C117.673 339.268 116.49 339.902 115.392 340.62C116.11 339.521 116.744 338.339 117.272 337.072C121.664 326.471 116.807 314.371 106.417 309.683C121.009 305.692 136.109 304.087 151.123 304.868C151.905 319.883 150.3 334.981 146.308 349.573L146.33 349.594ZM114.674 340.43C108.698 334.96 99.4481 335.108 93.683 340.894C93.0494 341.528 92.4793 342.224 91.9725 342.942C92.1203 342.077 92.2259 341.19 92.2259 340.282C92.2259 332.109 85.785 325.457 77.718 325.098C85.6583 318.109 95.1823 312.872 105.636 309.936C110.978 319.418 113.977 329.871 114.674 340.43ZM78.2037 320.896C77.6758 322.163 77.2956 323.451 77.0211 324.739C76.7466 323.451 76.3665 322.163 75.8385 320.896C71.446 310.295 59.4511 305.164 48.8078 309.197C56.3046 296.062 65.8498 284.237 77.0211 274.164C88.1924 284.237 97.7376 296.041 105.234 309.197C94.5911 305.164 82.5962 310.295 78.2037 320.896ZM76.3242 325.098C68.2572 325.457 61.8163 332.13 61.8163 340.282C61.8163 341.19 61.9008 342.077 62.0698 342.942C61.5629 342.224 61.0139 341.528 60.3592 340.894C54.5941 335.129 45.3234 334.981 39.3682 340.43C40.0439 329.871 43.0638 319.418 48.3855 309.936C58.8599 312.872 68.3628 318.109 76.3031 325.098H76.3242ZM36.7496 337.093C37.2775 338.36 37.9111 339.543 38.6291 340.641C37.5309 339.923 36.3483 339.289 35.0813 338.761C24.4802 334.369 12.3797 339.226 7.69156 349.615C3.70032 335.024 2.09537 319.925 2.87671 304.91C17.8914 304.129 32.9906 305.734 47.583 309.725C37.193 314.392 32.3571 326.513 36.7285 337.114L36.7496 337.093ZM7.71271 408.448C12.3797 418.837 24.5013 423.673 35.1024 419.302C36.3695 418.774 37.5521 418.141 38.6502 417.423C37.9322 418.521 37.2986 419.703 36.7707 420.97C32.3782 431.571 37.2353 443.671 47.6252 448.359C33.0329 452.35 17.9337 453.955 2.91898 453.174C2.1376 438.16 3.74255 423.061 7.73383 408.469L7.71271 408.448ZM39.3682 417.634C45.3234 423.082 54.5941 422.955 60.3592 417.169C60.9927 416.536 61.5629 415.839 62.0698 415.121C61.9219 415.987 61.8163 416.874 61.8163 417.782C61.8163 425.954 68.2572 432.606 76.3242 432.965C68.3839 439.955 58.8598 445.192 48.4066 448.127C43.0638 438.645 40.0651 428.192 39.3682 417.634ZM75.8385 437.167C76.3665 435.9 76.7466 434.612 77.0211 433.324C77.2956 434.612 77.6758 435.9 78.2037 437.167C82.5962 447.768 94.5911 452.899 105.234 448.866C97.7376 462.001 88.1924 473.827 77.0211 483.899C65.8498 473.827 56.3046 462.022 48.8078 448.866C59.4511 452.899 71.446 447.768 75.8385 437.167ZM77.718 432.965C85.785 432.606 92.2259 425.933 92.2259 417.782C92.2259 416.874 92.1414 415.987 91.9725 415.121C92.4793 415.839 93.0283 416.536 93.683 417.169C99.4481 422.934 108.719 423.082 114.674 417.634C113.998 428.192 110.978 438.645 105.636 448.127C95.1612 445.192 85.6583 439.955 77.718 432.965ZM117.293 420.97C116.765 419.703 116.131 418.521 115.413 417.423C116.511 418.141 117.694 418.774 118.961 419.302C129.562 423.694 141.662 418.837 146.351 408.448C150.342 423.04 151.947 438.139 151.165 453.153C136.151 453.934 121.052 452.329 106.459 448.338C116.849 443.671 121.685 431.55 117.314 420.949L117.293 420.97ZM213.378 321.15C204.192 300.729 180.35 291.163 159.507 299.8C157.015 300.835 154.692 302.081 152.538 303.496C153.953 301.321 155.199 298.998 156.234 296.527C164.871 275.663 155.283 251.801 134.82 242.615C163.562 234.738 193.316 231.571 222.881 233.112C224.402 262.676 221.255 292.409 213.378 321.15ZM151.081 303.073C139.34 292.346 121.136 292.62 109.775 303.981C108.508 305.248 107.41 306.6 106.417 308.036C106.734 306.346 106.903 304.594 106.903 302.799C106.903 286.75 94.2532 273.636 78.3726 272.918C93.9998 259.192 112.71 248.866 133.3 243.101C143.795 261.768 149.708 282.294 151.06 303.094L151.081 303.073ZM79.3441 264.682C78.3093 267.174 77.549 269.687 77.0211 272.221C76.4932 269.687 75.7329 267.153 74.6982 264.682C66.061 243.819 42.4091 233.725 21.4392 241.707C36.2005 215.796 54.9953 192.525 77 172.696C98.9836 192.525 117.799 215.796 132.54 241.686C111.591 233.725 87.9601 243.819 79.3229 264.661L79.3441 264.682ZM75.6485 272.918C59.7679 273.636 47.1184 286.729 47.1184 302.799C47.1184 304.594 47.3085 306.325 47.6041 308.036C46.6327 306.621 45.5135 305.248 44.2464 303.981C32.8851 292.62 14.6815 292.346 2.94006 303.073C4.2916 282.294 10.2046 261.747 20.7001 243.079C41.2899 248.844 60.0002 259.171 75.6273 272.897L75.6485 272.918ZM-2.19153 296.527C-1.15674 299.019 0.0892029 301.342 1.50409 303.496C-0.671021 302.06 -2.99399 300.814 -5.46475 299.8C-26.308 291.163 -50.171 300.729 -59.3572 321.171C-67.2341 292.43 -70.4018 262.676 -68.8602 233.112C-39.2954 231.592 -9.51935 234.738 19.2219 242.615C-1.26233 251.78 -10.8287 275.642 -2.19153 296.506V296.527ZM-59.3784 436.85C-50.1921 457.313 -26.3502 466.9 -5.48587 458.263C-2.99399 457.228 -0.671021 455.983 1.483 454.568C0.0469971 456.743 -1.19897 459.066 -2.21262 461.536C-10.8498 482.379 -1.30457 506.199 19.1163 515.385C-9.60385 523.241 -39.3376 526.408 -68.8813 524.867C-70.4018 495.303 -67.2553 465.57 -59.3784 436.85ZM2.96121 454.969C14.7027 465.696 32.9062 465.422 44.2675 454.061C45.5345 452.794 46.6327 451.442 47.6252 450.006C47.3084 451.696 47.1395 453.448 47.1395 455.243C47.1395 471.292 59.789 484.406 75.6696 485.124C60.0424 498.85 41.3322 509.177 20.7423 514.942C10.2468 496.274 4.33386 475.748 2.98233 454.948L2.96121 454.969ZM74.6982 493.381C75.7329 490.889 76.4932 488.376 77.0211 485.842C77.549 488.376 78.3093 490.91 79.3441 493.381C87.9812 514.224 111.57 524.318 132.518 516.378C117.757 542.246 98.9836 565.496 77.0211 585.304C55.0587 565.496 36.2639 542.246 21.5026 516.378C42.4514 524.339 66.0821 514.245 74.7193 493.381H74.6982ZM78.3938 485.145C94.2743 484.427 106.924 471.335 106.924 455.265C106.924 453.47 106.734 451.738 106.438 450.027C107.41 451.442 108.529 452.815 109.796 454.082C121.157 465.443 139.361 465.718 151.102 454.99C149.772 475.769 143.838 496.316 133.342 514.984C112.752 509.219 94.042 498.893 78.4149 485.166L78.3938 485.145ZM156.234 461.515C155.199 459.023 153.953 456.701 152.538 454.547C154.713 455.961 157.036 457.207 159.507 458.242C180.35 466.879 204.192 457.313 213.378 436.872C221.234 465.591 224.402 495.324 222.86 524.867C193.316 526.387 163.604 523.241 134.884 515.385C155.305 506.178 164.85 482.358 156.213 461.515H156.234ZM227.02 320.157C223.494 320.157 220.073 320.516 216.736 321.128C219.524 319.207 222.206 317.032 224.697 314.54C247.04 292.198 247.589 256.362 226.471 233.281C266.342 235.857 305.747 247.007 341.732 266.688C341.816 266.731 341.901 266.794 341.985 266.836C342.83 267.301 343.654 267.765 344.498 268.23C344.245 269.159 343.97 270.067 343.717 270.996C343.696 271.081 343.654 271.186 343.633 271.271C332.123 310.612 312.146 346.321 285.812 376.329C284.397 345.075 258.634 320.178 227.02 320.178V320.157ZM189.199 114.033C189.199 114.033 189.304 114.202 189.346 114.286C209.028 150.27 220.178 189.674 222.755 229.543C199.673 208.426 163.836 208.975 141.494 231.317C139.002 233.809 136.827 236.491 134.905 239.278C135.517 235.942 135.876 232.5 135.876 228.994C135.876 197.403 110.978 171.619 79.7242 170.204C109.711 143.871 145.443 123.894 184.785 112.385C184.869 112.364 184.975 112.343 185.059 112.301C185.989 112.026 186.897 111.773 187.826 111.52C188.29 112.343 188.755 113.188 189.22 114.033H189.199ZM12.0419 51.1246C31.7447 31.4223 53.6649 15.331 77 2.78746C100.335 15.331 122.255 31.4223 141.958 51.1246C159.57 68.7363 174.332 88.143 186.221 108.753C144.999 93.1266 98.5401 112.998 81.5614 154.007C79.5341 158.885 78.0348 163.848 77 168.853C75.9652 163.869 74.4659 158.907 72.4385 154.007C55.4599 112.998 9.00089 93.1266 -32.2209 108.753C-20.3316 88.143 -5.59146 68.7363 12.0419 51.1246ZM-35.3253 114.307C-35.3253 114.307 -35.2197 114.138 -35.1774 114.054C-34.7128 113.209 -34.2482 112.385 -33.7837 111.541C-32.8545 111.794 -31.9464 112.069 -31.0172 112.322C-30.9327 112.343 -30.8272 112.385 -30.7427 112.407C8.59964 123.915 44.3097 143.892 74.318 170.225C43.0638 171.64 18.166 197.403 18.166 229.015C18.166 232.542 18.525 235.963 19.1374 239.299C17.2157 236.512 15.0406 233.83 12.5487 231.338C-9.79391 208.996 -45.6307 208.447 -68.7124 229.564C-66.136 189.695 -55.007 150.291 -35.3041 114.307H-35.3253ZM-200.762 193.095C-200.762 165.242 -196.644 138.36 -189.02 112.977C-163.658 105.353 -136.754 101.236 -108.899 101.236C-83.9805 101.236 -59.8218 104.53 -36.8457 110.696C-77.0539 128.793 -95.8487 175.695 -78.8489 216.683C-76.8216 221.561 -74.3719 226.144 -71.5844 230.388C-75.8502 227.579 -80.4116 225.151 -85.2898 223.124C-126.3 206.146 -173.203 224.94 -191.28 265.126C-197.446 242.15 -200.74 217.992 -200.74 193.074L-200.762 193.095ZM-250.874 443.946C-270.577 424.243 -286.669 402.324 -299.212 378.989C-286.669 355.655 -270.577 333.735 -250.874 314.033C-233.262 296.421 -213.855 281.66 -193.244 269.772C-208.871 310.992 -188.999 357.45 -147.988 374.428C-143.11 376.455 -138.147 377.955 -133.143 378.989C-138.126 380.024 -143.089 381.523 -147.988 383.551C-188.999 400.529 -208.871 446.987 -193.244 488.207C-213.855 476.318 -233.262 461.579 -250.874 443.946ZM-108.899 656.764C-136.754 656.764 -163.637 652.647 -189.02 645.023C-196.644 619.662 -200.762 592.758 -200.762 564.905C-200.762 539.987 -197.467 515.828 -191.301 492.853C-173.203 533.06 -126.3 551.854 -85.3109 534.855C-80.4327 532.828 -75.8502 530.378 -71.6055 527.591C-74.4142 531.856 -76.8427 536.418 -78.87 541.296C-95.8487 582.305 -77.0539 629.206 -36.8668 647.283C-59.8429 653.449 -84.0016 656.743 -108.921 656.743L-108.899 656.764ZM-35.1774 643.967C-35.1774 643.967 -35.283 643.777 -35.3253 643.693C-55.007 607.709 -66.1571 568.305 -68.7335 528.435C-45.6518 549.553 -9.81503 549.004 12.5275 526.662C15.0194 524.17 17.1945 521.488 19.1163 518.7C18.5039 522.037 18.1449 525.479 18.1449 528.984C18.1449 560.576 43.0427 586.36 74.2969 587.775C44.3098 614.108 8.57855 634.085 -30.7638 645.593C-30.8483 645.615 -30.9539 645.657 -31.0383 645.678C-31.9675 645.952 -32.8756 646.206 -33.8048 646.459C-34.2694 645.636 -34.734 644.791 -35.1985 643.967H-35.1774ZM141.958 706.854C122.255 726.557 100.335 742.648 77 755.191C53.6649 742.648 31.7447 726.557 12.0419 706.854C-5.57034 689.243 -20.3316 669.836 -32.2209 649.226C9.00089 664.852 55.4599 644.981 72.4385 603.972C74.4659 599.094 75.9652 594.131 77 589.126C78.0348 594.11 79.5341 599.072 81.5614 603.972C98.5401 644.981 144.999 664.852 186.221 649.226C174.332 669.836 159.591 689.243 141.958 706.854ZM189.346 643.693C189.346 643.693 189.241 643.883 189.199 643.967C188.734 644.791 188.269 645.636 187.805 646.459C186.876 646.206 185.946 645.931 185.038 645.678C184.954 645.657 184.848 645.636 184.764 645.593C145.421 634.085 109.711 614.108 79.7031 587.775C110.957 586.36 135.855 560.597 135.855 528.984C135.855 525.458 135.496 522.037 134.884 518.7C136.805 521.488 138.981 524.17 141.472 526.662C163.815 549.004 199.652 549.553 222.733 528.435C220.157 568.305 209.028 607.709 189.325 643.693H189.346ZM354.783 564.905C354.783 592.758 350.665 619.64 343.041 645.023C317.679 652.647 290.775 656.764 262.921 656.764C238.002 656.764 213.843 653.47 190.867 647.304C231.075 629.206 249.87 582.305 232.87 541.317C230.843 536.439 228.393 531.856 225.605 527.612C229.871 530.42 234.433 532.849 239.311 534.876C280.322 551.854 327.224 533.06 345.301 492.874C351.467 515.85 354.762 540.008 354.762 564.926L354.783 564.905ZM404.874 443.946C387.262 461.557 367.855 476.318 347.244 488.207C362.871 446.987 342.999 400.529 301.988 383.551C297.11 381.523 292.148 380.024 287.143 378.989C292.126 377.955 297.089 376.455 301.988 374.428C342.999 357.45 362.871 310.992 347.244 269.772C367.855 281.66 387.262 296.4 404.874 314.033C424.577 333.735 440.669 355.655 453.212 378.989C440.669 402.324 424.577 424.243 404.874 443.946Z" fill="#FDF7E6"/>
</g>
</g>
<defs>
<clipPath id="clip0_47214_16545">
<rect width="1440" height="520" fill="white" transform="translate(0 -125)"/>
</clipPath>
</defs>
</svg>
