<svg width="816" height="1327" viewBox="0 0 816 1327" fill="none" xmlns="http://www.w3.org/2000/svg">
<rect width="816" height="1327" fill="#FAFAFA"/>
<g id="&#229;&#186;&#167;&#232;&#171;&#135;&#230;&#156;&#131;&#229;&#190;&#161;&#230;&#155;&#184;e&#232;&#172;&#155;&#231;&#190;&#169;">
<rect width="3598" height="7956" transform="translate(-834 -1946)" fill="black" fill-opacity="0.7"/>
<g id="&#229;&#186;&#167;&#232;&#171;&#135;&#230;&#156;&#131;&#229;&#190;&#161;&#230;&#155;&#184;e&#232;&#172;&#155;&#231;&#190;&#169;_1440px">
<rect width="1440" height="3102" transform="translate(0 -998)" fill="white"/>
<g id="section">
<g id="bg" opacity="0.4" clip-path="url(#clip0_47214_16545)">
<path id="Vector" d="M584.112 574.359C671.462 479.277 669.051 331.331 576.878 239.161C484.705 146.99 336.755 144.579 241.67 231.927C236.211 102.907 129.889 0 -0.5 0C-130.843 0 -237.165 102.907 -242.625 231.927C-337.709 144.579 -485.659 146.99 -577.832 239.161C-670.005 331.331 -672.417 479.277 -585.066 574.359C-714.09 579.818 -817 686.137 -817 816.477C-817 946.817 -714.09 1053.14 -585.066 1058.64C-672.417 1153.72 -670.005 1301.67 -577.832 1393.84C-485.659 1486.01 -337.709 1488.42 -242.625 1401.07C-237.165 1530.09 -130.843 1633 -0.5 1633C129.843 1633 236.165 1530.09 241.625 1401.07C336.709 1488.42 484.659 1486.01 576.832 1393.84C669.005 1301.67 671.417 1153.72 584.066 1058.64C713.09 1053.18 816 946.862 816 816.523C816 686.183 713.09 579.864 584.066 574.359H584.112ZM400.039 218.097C460.047 218.097 517.962 226.969 572.647 243.392C589.071 298.03 597.942 355.989 597.942 415.995C597.942 469.678 590.845 521.723 577.56 571.22C538.571 484.6 437.526 444.11 349.22 480.733C338.711 485.1 328.839 490.378 319.694 496.383C325.745 487.193 330.977 477.366 335.344 466.857C371.923 378.508 331.432 277.467 244.855 238.524C294.354 225.24 346.4 218.143 400.084 218.143L400.039 218.097ZM317.692 955.37C312.324 950.002 306.546 945.316 300.541 941.176C307.729 942.495 315.145 943.268 322.697 943.268C390.758 943.268 446.307 889.631 449.355 822.3C506.088 886.902 549.126 963.877 573.921 1048.63C573.966 1048.81 574.012 1049.04 574.103 1049.22C574.694 1051.23 575.24 1053.18 575.786 1055.18C574.012 1056.18 572.192 1057.18 570.372 1058.19C570.19 1058.28 570.008 1058.41 569.826 1058.5C492.302 1100.9 407.409 1124.93 321.514 1130.48C367.009 1080.75 365.826 1003.55 317.692 955.415V955.37ZM-322.469 1130.43C-408.363 1124.88 -493.257 1100.9 -570.781 1058.46C-570.963 1058.37 -571.145 1058.23 -571.327 1058.14C-573.146 1057.14 -574.921 1056.14 -576.741 1055.14C-576.195 1053.18 -575.649 1051.18 -575.057 1049.22C-575.012 1049 -574.921 1048.81 -574.875 1048.59C-550.08 963.832 -507.042 886.902 -450.31 822.255C-447.262 889.586 -391.758 943.223 -323.651 943.223C-316.054 943.223 -308.684 942.45 -301.495 941.13C-307.501 945.27 -313.279 949.956 -318.647 955.324C-366.781 1003.46 -367.964 1080.66 -322.469 1130.38V1130.43ZM-318.647 677.63C-313.279 682.998 -307.501 687.684 -301.495 691.824C-308.684 690.505 -316.099 689.732 -323.651 689.732C-391.712 689.732 -447.262 743.369 -450.31 810.699C-507.042 746.098 -550.08 669.123 -574.875 584.413C-574.921 584.186 -575.012 583.958 -575.057 583.731C-575.649 581.775 -576.195 579.818 -576.741 577.817C-574.966 576.816 -573.146 575.815 -571.327 574.814C-571.145 574.723 -570.963 574.587 -570.781 574.496C-493.257 532.095 -408.363 508.075 -322.469 502.524C-367.964 552.249 -366.781 629.452 -318.647 677.585V677.63ZM245.901 821.573C240.533 819.343 235.119 817.706 229.66 816.568C235.119 815.431 240.578 813.793 245.901 811.564C290.85 792.957 312.597 742.004 295.4 696.874C351.177 728.674 401.267 769.164 443.987 816.523C401.312 863.836 351.222 904.326 295.491 936.126C312.552 890.996 290.805 840.179 245.947 821.573H245.901ZM161.235 887.129C158.505 884.399 155.594 882.034 152.5 879.896C156.14 880.578 159.916 880.942 163.783 880.942C198.359 880.942 226.611 853.691 228.158 819.48C257.73 853.145 279.977 893.453 292.397 937.809C252.18 960.42 207.958 973.158 163.146 976.07C186.257 950.775 185.666 911.559 161.189 887.084L161.235 887.129ZM-164.1 976.115C-208.867 973.249 -253.134 960.465 -293.352 937.855C-280.932 893.498 -258.685 853.191 -229.113 819.525C-227.566 853.737 -199.359 880.987 -164.737 880.987C-160.87 880.987 -157.14 880.578 -153.454 879.941C-156.503 882.034 -159.46 884.445 -162.19 887.174C-186.666 911.65 -187.257 950.866 -164.146 976.16L-164.1 976.115ZM-296.354 936.126C-352.131 904.326 -402.221 863.836 -444.941 816.477C-402.221 769.118 -352.086 728.583 -296.309 696.828C-313.552 742.004 -291.759 792.957 -246.81 811.564C-241.442 813.793 -236.028 815.431 -230.569 816.568C-236.028 817.706 -241.487 819.343 -246.81 821.573C-291.714 840.179 -313.461 891.042 -296.354 936.126ZM-162.144 746.007C-159.414 748.737 -156.503 751.103 -153.409 753.241C-157.049 752.558 -160.825 752.194 -164.692 752.194C-199.268 752.194 -227.52 779.445 -229.067 813.657C-258.639 779.991 -280.886 739.684 -293.306 695.327C-253.089 672.717 -208.867 659.979 -164.055 657.067C-187.166 682.362 -186.575 721.577 -162.099 746.053L-162.144 746.007ZM163.191 657.021C207.958 659.933 252.225 672.671 292.443 695.282C280.023 739.638 257.776 779.946 228.204 813.611C226.657 779.4 198.45 752.149 163.828 752.149C159.961 752.149 156.23 752.558 152.545 753.195C155.594 751.103 158.551 748.691 161.28 745.962C185.757 721.486 186.348 682.271 163.237 656.976L163.191 657.021ZM124.793 819.116C122.064 817.979 119.288 817.16 116.513 816.568C119.288 815.977 122.064 815.158 124.793 814.021C147.632 804.558 158.687 778.717 149.998 755.789C178.296 771.939 203.773 792.502 225.474 816.568C203.773 840.634 178.341 861.198 149.998 877.348C158.687 854.419 147.632 828.579 124.793 819.116ZM81.755 852.463C80.3902 851.098 78.8889 849.87 77.342 848.778C79.2073 849.096 81.118 849.324 83.0743 849.324C100.681 849.324 115.012 835.448 115.785 818.07C130.844 835.175 142.127 855.693 148.451 878.212C128.023 889.722 105.503 896.182 82.756 897.684C94.4937 884.809 94.2206 864.883 81.755 852.463ZM-83.6195 897.684C-106.367 896.228 -128.887 889.722 -149.314 878.212C-142.991 855.647 -131.708 835.175 -116.649 818.07C-115.875 835.448 -101.499 849.324 -83.938 849.324C-81.9817 849.324 -80.0709 849.142 -78.2056 848.778C-79.7524 849.87 -81.2538 851.052 -82.6187 852.463C-95.0388 864.883 -95.3572 884.854 -83.6195 897.684ZM-150.861 877.348C-179.159 861.198 -204.636 840.634 -226.338 816.568C-204.636 792.502 -179.205 771.939 -150.861 755.789C-159.551 778.717 -148.495 804.558 -125.657 814.021C-122.927 815.158 -120.152 815.977 -117.377 816.568C-120.152 817.16 -122.927 817.979 -125.657 819.116C-148.495 828.579 -159.551 854.419 -150.861 877.348ZM-82.6641 780.674C-81.2993 782.038 -79.798 783.267 -78.2511 784.359C-80.1164 784.04 -82.0272 783.813 -83.9835 783.813C-101.59 783.813 -115.921 797.688 -116.694 815.067C-131.753 797.961 -143.036 777.444 -149.36 754.924C-128.933 743.414 -106.413 736.954 -83.665 735.453C-95.4027 748.328 -95.1298 768.254 -82.6641 780.674ZM82.7104 735.453C105.458 736.909 127.978 743.414 148.405 754.924C142.081 777.489 130.799 797.961 115.74 815.067C114.966 797.688 100.59 783.813 83.0289 783.813C81.0726 783.813 79.1619 783.995 77.2966 784.359C78.8434 783.267 80.3447 782.084 81.7095 780.674C94.1296 768.254 94.4481 748.282 82.7104 735.453ZM40.855 857.831C40.855 857.831 40.855 857.968 40.855 858.059C40.218 869.887 36.8969 881.579 30.9371 892.224C19.1993 888.949 8.59894 882.989 -0.227051 875.073C-0.272583 875.028 -0.317993 874.982 -0.408997 874.937C-0.454468 874.982 -0.500061 875.028 -0.591064 875.073C-9.41711 882.989 -20.0174 888.903 -31.7551 892.224C-37.715 881.624 -41.0361 869.887 -41.6731 858.059C-41.6731 857.968 -41.6731 857.922 -41.6731 857.831C-41.7641 857.831 -41.8096 857.831 -41.9006 857.831C-53.7293 857.194 -65.4215 853.873 -76.0674 847.913C-72.7917 836.176 -66.8318 825.576 -58.9157 816.75C-58.8702 816.705 -58.8246 816.659 -58.7792 816.568C-58.8246 816.523 -58.8702 816.477 -58.9157 816.386C-66.8318 807.56 -72.7462 796.96 -76.0674 785.223C-65.467 779.263 -53.7293 775.942 -41.9006 775.305C-41.8096 775.305 -41.7641 775.305 -41.6731 775.305C-41.6731 775.214 -41.6731 775.169 -41.6731 775.078C-41.0361 763.249 -37.715 751.558 -31.7551 740.912C-20.0174 744.188 -9.41711 750.147 -0.591064 758.063C-0.545532 758.109 -0.5 758.154 -0.408997 758.2C-0.363525 758.154 -0.318054 758.109 -0.227051 758.063C8.59894 750.147 19.1993 744.233 30.9371 740.912C36.8969 751.512 40.218 763.249 40.855 775.078C40.855 775.169 40.855 775.214 40.855 775.305C40.946 775.305 40.9915 775.305 41.0825 775.305C52.9112 775.942 64.6034 779.263 75.2493 785.223C71.9736 796.96 66.0138 807.56 58.0977 816.386C58.0521 816.432 58.0067 816.477 57.9612 816.568C58.0067 816.614 58.0521 816.659 58.0977 816.75C66.0138 825.576 71.9281 836.176 75.2493 847.913C64.6489 853.873 52.9112 857.194 41.0825 857.831C40.9915 857.831 40.946 857.831 40.855 857.831ZM-64.1022 815.294C-62.7373 815.886 -61.327 816.295 -59.8712 816.568C-61.2815 816.841 -62.6918 817.296 -64.1022 817.842C-75.7034 822.664 -81.2993 835.767 -76.8863 847.458C-91.2627 839.27 -104.229 828.806 -115.239 816.568C-104.229 804.33 -91.2627 793.867 -76.8863 785.678C-81.2993 797.324 -75.7034 810.472 -64.1022 815.294ZM63.1931 817.842C61.8282 817.251 60.4178 816.841 58.962 816.568C60.3723 816.295 61.7827 815.84 63.1931 815.294C74.7943 810.472 80.3902 797.37 75.9772 785.678C90.3536 793.867 103.32 804.33 114.33 816.568C103.32 828.806 90.3536 839.27 75.9772 847.458C80.3902 835.812 74.7943 822.664 63.1931 817.842ZM75.4767 784.359C70.3358 772.985 57.0967 767.662 45.4955 772.485C44.1306 773.076 42.8113 773.759 41.5829 774.532C42.3563 773.304 43.0842 772.03 43.6302 770.619C48.4526 759.018 43.1298 745.78 31.756 740.639C47.7247 736.272 64.285 734.497 80.7087 735.362C81.5731 751.785 79.7988 768.345 75.4312 784.359H75.4767ZM0.819336 752.922C0.227905 754.287 -0.18158 755.697 -0.45459 757.153C-0.727539 755.743 -1.18243 754.333 -1.72839 752.922C-6.55084 741.321 -19.6534 735.726 -31.3456 740.139C-23.1566 725.763 -12.6927 712.797 -0.45459 701.787C11.7836 712.797 22.2475 725.763 30.4366 740.139C18.7899 735.726 5.64178 741.321 0.819336 752.922ZM-44.5393 770.619C-43.9479 771.984 -43.2654 773.304 -42.492 774.532C-43.7203 773.759 -44.9943 773.031 -46.3591 772.485C-57.9603 767.662 -71.1994 772.985 -76.3403 784.359C-80.7078 768.39 -82.4822 751.831 -81.6178 735.407C-65.194 734.543 -48.6339 736.317 -32.665 740.685C-44.0388 745.825 -49.3618 759.064 -44.5393 770.665V770.619ZM-76.3858 848.778C-71.2449 860.151 -58.0058 865.474 -46.4045 860.652C-45.0397 860.06 -43.7203 859.378 -42.5375 858.604C-43.3109 859.833 -44.0388 861.107 -44.5848 862.471C-49.4072 874.072 -44.0844 887.311 -32.7106 892.452C-48.6793 896.819 -65.2395 898.594 -81.6632 897.729C-82.5276 881.306 -80.7534 864.746 -76.3858 848.778ZM-1.72839 880.214C-1.13696 878.849 -0.727539 877.439 -0.45459 875.983C-0.18158 877.393 0.273376 878.804 0.819336 880.214C5.64178 891.815 18.7444 897.411 30.4366 892.998C22.2475 907.374 11.7836 920.34 -0.45459 931.349C-12.6927 920.34 -23.1566 907.374 -31.3456 892.998C-19.6989 897.411 -6.55084 891.815 -1.72839 880.214ZM43.6302 862.471C43.0388 861.107 42.3563 859.787 41.5829 858.604C42.8113 859.378 44.0851 860.106 45.4955 860.652C57.0967 865.474 70.3358 860.151 75.4767 848.778C79.8442 864.746 81.6185 881.306 80.7542 897.775C64.3304 898.639 47.7703 896.865 31.8015 892.497C43.1752 887.357 48.4981 874.118 43.6756 862.517L43.6302 862.471ZM148.86 753.15C138.806 730.767 112.692 720.349 89.8531 729.766C87.1234 730.903 84.5757 732.268 82.21 733.815C83.7568 731.449 85.1216 728.902 86.259 726.172C95.722 703.334 85.2581 677.266 62.8746 667.167C94.3116 658.568 126.841 655.111 159.188 656.794C160.871 689.14 157.413 721.668 148.815 753.104L148.86 753.15ZM80.6631 733.406C67.788 721.623 47.8612 721.941 35.441 734.406C34.0762 735.771 32.8478 737.272 31.756 738.819C32.0745 736.954 32.3019 735.043 32.3019 733.087C32.3019 715.481 18.4259 701.15 1.04681 700.377C18.153 685.319 38.6712 674.036 61.1912 667.713C72.7015 688.139 79.1618 710.659 80.6631 733.406ZM2.09314 691.324C0.95575 694.053 0.136841 696.829 -0.45459 699.604C-1.04602 696.829 -1.86493 694.053 -3.00226 691.324C-12.4653 668.486 -38.3065 657.431 -61.236 666.12C-45.0853 637.823 -24.5215 612.347 -0.45459 590.646C23.6123 612.347 44.1761 637.778 60.3268 666.12C37.3973 657.431 11.5561 668.486 2.09314 691.324ZM-1.95587 700.377C-19.335 701.15 -33.211 715.526 -33.211 733.087C-33.211 735.043 -33.029 736.954 -32.665 738.819C-33.757 737.272 -34.9398 735.771 -36.3502 734.406C-48.7703 721.987 -68.7427 721.668 -81.5723 733.406C-80.1164 710.659 -73.6106 688.139 -62.1458 667.713C-39.5803 674.036 -19.1075 685.319 -2.0014 700.377H-1.95587ZM-87.2136 726.218C-86.0762 728.947 -84.7114 731.495 -83.1646 733.86C-85.5303 732.314 -88.0781 730.949 -90.8078 729.812C-113.646 720.349 -139.715 730.812 -149.815 753.195C-158.413 721.759 -161.871 689.231 -160.188 656.885C-127.841 655.202 -95.3118 658.659 -63.8747 667.258C-86.2583 677.312 -96.6766 703.425 -87.2592 726.263L-87.2136 726.218ZM-149.769 879.941C-139.715 902.324 -113.601 912.742 -90.7622 903.325C-88.0325 902.188 -85.4849 900.823 -83.1191 899.276C-84.666 901.642 -86.0308 904.189 -87.1682 906.919C-96.6311 929.757 -86.1672 955.825 -63.7837 965.924C-95.2208 974.523 -127.75 977.98 -160.097 976.297C-161.78 943.951 -158.322 911.423 -149.724 879.987L-149.769 879.941ZM-81.5723 899.731C-68.7427 911.468 -48.7703 911.195 -36.3502 898.73C-34.9854 897.365 -33.757 895.864 -32.665 894.317C-32.9835 896.182 -33.211 898.093 -33.211 900.049C-33.211 917.655 -19.335 931.986 -1.95587 932.759C-19.062 947.818 -39.5803 959.1 -62.1004 965.424C-73.6107 944.997 -80.0709 922.478 -81.5723 899.731ZM-3.00226 941.813C-1.86493 939.083 -1.04602 936.308 -0.45459 933.533C0.136841 936.308 0.95575 939.083 2.09314 941.813C11.5561 964.651 37.3973 975.706 60.3268 967.016C44.1761 995.313 23.6123 1020.79 -0.45459 1042.49C-24.5215 1020.79 -45.0853 995.359 -61.236 967.016C-38.3065 975.706 -12.4653 964.651 -3.00226 941.813ZM1.04681 932.759C18.4259 931.986 32.3019 917.61 32.3019 900.049C32.3019 898.093 32.1199 896.182 31.756 894.317C32.8478 895.864 34.0307 897.365 35.441 898.73C47.8612 911.15 67.8335 911.468 80.6631 899.731C79.2073 922.478 72.7015 944.997 61.1912 965.424C38.6257 959.1 18.153 947.818 1.04681 932.759ZM86.3046 906.919C85.1672 904.189 83.8024 901.642 82.2555 899.276C84.6213 900.823 87.1689 902.188 89.8987 903.325C112.737 912.788 138.806 902.324 148.906 879.941C157.504 911.377 160.962 943.905 159.279 976.251C126.932 977.935 94.4026 974.477 62.9656 965.879C85.3491 955.825 95.7675 929.711 86.35 906.873L86.3046 906.919ZM293.307 691.87C273.517 647.877 222.153 627.268 177.249 645.875C171.881 648.105 166.876 650.789 162.236 653.837C165.284 649.151 167.968 644.147 170.197 638.824C188.805 593.876 168.15 542.468 124.065 522.678C185.984 505.709 250.087 498.885 313.78 502.206C317.056 565.897 310.277 629.953 293.307 691.87ZM159.097 652.927C133.801 629.816 94.5847 630.408 70.1083 654.883C67.3786 657.613 65.0128 660.524 62.8746 663.618C63.5569 659.979 63.921 656.203 63.921 652.336C63.921 617.76 36.6694 589.509 2.45709 587.962C36.1235 558.391 76.4322 536.144 120.79 523.725C143.401 563.941 156.139 608.161 159.051 652.973L159.097 652.927ZM4.54993 570.219C2.32068 575.588 0.6828 581.001 -0.45459 586.461C-1.59192 581.001 -3.22974 575.542 -5.45898 570.219C-24.0665 525.271 -75.0209 503.525 -120.198 520.722C-88.3965 464.901 -47.9059 414.767 -0.5 372.048C46.8604 414.767 87.3964 464.901 119.152 520.677C74.0209 503.525 23.1119 525.271 4.50446 570.174L4.54993 570.219ZM-3.41168 587.962C-37.624 589.509 -64.8755 617.715 -64.8755 652.336C-64.8755 656.203 -64.4661 659.933 -63.8292 663.618C-65.9219 660.57 -68.3331 657.613 -71.0629 654.883C-95.5392 630.408 -134.756 629.816 -160.051 652.927C-157.14 608.161 -144.401 563.896 -121.79 523.679C-77.4322 536.099 -37.1235 558.345 -3.45721 587.916L-3.41168 587.962ZM-171.107 638.824C-168.877 644.192 -166.193 649.196 -163.145 653.837C-167.831 650.743 -172.835 648.059 -178.158 645.875C-223.062 627.268 -274.471 647.877 -294.262 691.915C-311.231 629.998 -318.056 565.897 -314.734 502.206C-251.041 498.93 -186.893 505.709 -124.975 522.678C-169.105 542.423 -189.714 593.831 -171.107 638.778V638.824ZM-294.307 941.13C-274.517 985.214 -223.153 1005.87 -178.204 987.261C-172.835 985.032 -167.831 982.348 -163.19 979.299C-166.284 983.985 -168.968 988.99 -171.152 994.312C-189.759 1039.21 -169.196 1090.53 -125.202 1110.32C-187.075 1127.25 -251.132 1134.07 -314.78 1130.75C-318.056 1067.06 -311.277 1003 -294.307 941.13ZM-160.006 980.164C-134.71 1003.27 -95.4938 1002.68 -71.0174 978.208C-68.2877 975.478 -65.9219 972.566 -63.7837 969.473C-64.4661 973.112 -64.8301 976.888 -64.8301 980.755C-64.8301 1015.33 -37.5786 1043.58 -3.36627 1045.13C-37.0326 1074.7 -77.3412 1096.95 -121.699 1109.37C-144.31 1069.15 -157.049 1024.93 -159.96 980.118L-160.006 980.164ZM-5.45898 1062.92C-3.22974 1057.55 -1.59192 1052.14 -0.45459 1046.68C0.6828 1052.14 2.32068 1057.59 4.54993 1062.92C23.1574 1107.82 73.9753 1129.57 119.106 1112.46C87.3054 1168.19 46.8603 1218.28 -0.45459 1260.95C-47.7695 1218.28 -88.26 1168.19 -120.061 1112.46C-74.93 1129.61 -24.021 1107.86 -5.41351 1062.92H-5.45898ZM2.50269 1045.17C36.715 1043.63 63.9664 1015.42 63.9664 980.801C63.9664 976.934 63.5571 973.203 62.9201 969.518C65.0129 972.566 67.4241 975.524 70.1537 978.253C94.6301 1002.73 133.847 1003.32 159.142 980.209C156.276 1024.98 143.492 1069.24 120.881 1109.46C76.5231 1097.04 36.2145 1074.79 2.54816 1045.22L2.50269 1045.17ZM170.197 994.267C167.968 988.899 165.284 983.894 162.236 979.254C166.922 982.302 171.926 984.986 177.249 987.215C222.153 1005.82 273.517 985.214 293.307 941.176C310.231 1003.05 317.056 1067.1 313.734 1130.75C250.087 1134.02 186.075 1127.25 124.202 1110.32C168.196 1090.49 188.759 1039.17 170.152 994.267H170.197ZM322.697 689.732C315.099 689.732 307.729 690.505 300.541 691.824C306.546 687.684 312.324 682.998 317.692 677.63C365.826 629.498 367.009 552.295 321.514 502.57C407.409 508.12 492.302 532.141 569.826 574.541C570.008 574.632 570.19 574.769 570.372 574.86C572.192 575.861 573.966 576.861 575.786 577.862C575.24 579.864 574.649 581.82 574.103 583.822C574.057 584.004 573.966 584.231 573.921 584.413C549.126 669.168 506.088 746.098 449.355 810.745C446.307 743.414 390.803 689.777 322.697 689.777V689.732ZM241.215 245.667C241.215 245.667 241.443 246.03 241.534 246.212C283.935 323.734 307.957 408.625 313.507 494.518C263.781 449.024 186.576 450.207 138.442 498.339C133.073 503.707 128.387 509.485 124.247 515.49C125.567 508.302 126.34 500.887 126.34 493.335C126.34 425.276 72.7015 369.728 5.36877 366.68C69.9718 309.949 146.949 266.912 231.707 242.118C231.889 242.073 232.116 242.027 232.298 241.936C234.3 241.345 236.256 240.799 238.258 240.253C239.259 242.027 240.26 243.847 241.261 245.667H241.215ZM-140.443 110.14C-97.9959 67.6948 -50.7721 33.0285 -0.5 6.00518C49.772 33.0285 96.9959 67.6948 139.443 110.14C177.386 148.082 209.187 189.891 234.8 234.293C145.994 200.628 45.905 243.437 9.3269 331.786C4.95935 342.295 1.72925 352.986 -0.5 363.768C-2.72931 353.032 -5.95947 342.341 -10.327 331.786C-46.905 243.437 -146.994 200.628 -235.8 234.293C-210.187 189.891 -178.431 148.082 -140.443 110.14ZM-242.488 246.258C-242.488 246.258 -242.261 245.894 -242.17 245.712C-241.169 243.892 -240.168 242.118 -239.167 240.298C-237.165 240.844 -235.209 241.436 -233.207 241.982C-233.025 242.027 -232.798 242.118 -232.616 242.163C-147.859 266.958 -70.9264 309.995 -6.27795 366.726C-73.6106 369.774 -127.249 425.276 -127.249 493.38C-127.249 500.978 -126.476 508.348 -125.156 515.536C-129.297 509.531 -133.983 503.753 -139.351 498.385C-187.485 450.252 -264.69 449.069 -314.416 494.563C-308.866 408.671 -284.89 323.779 -242.443 246.258H-242.488ZM-598.897 415.995C-598.897 355.989 -590.025 298.075 -573.601 243.392C-518.962 226.969 -461.001 218.097 -400.993 218.097C-347.309 218.097 -295.263 225.194 -245.764 238.478C-332.387 277.467 -372.877 378.508 -336.254 466.812C-331.886 477.321 -326.609 487.193 -320.603 496.337C-329.793 490.287 -339.62 485.055 -350.13 480.688C-438.481 444.11 -539.526 484.6 -578.469 571.175C-591.754 521.677 -598.851 469.633 -598.851 415.95L-598.897 415.995ZM-706.856 956.416C-749.303 913.97 -783.971 866.748 -810.995 816.477C-783.971 766.207 -749.303 718.984 -706.856 676.538C-668.914 638.596 -627.104 606.796 -582.7 581.183C-616.367 669.987 -573.556 770.074 -485.204 806.651C-474.695 811.018 -464.004 814.248 -453.221 816.477C-463.958 818.706 -474.65 821.936 -485.204 826.304C-573.556 862.881 -616.367 962.967 -582.7 1051.77C-627.104 1026.16 -668.914 994.403 -706.856 956.416ZM-400.993 1414.9C-461.001 1414.9 -518.916 1406.03 -573.601 1389.61C-590.025 1334.97 -598.897 1277.01 -598.897 1217C-598.897 1163.32 -591.799 1111.28 -578.515 1061.78C-539.526 1148.4 -438.481 1188.89 -350.175 1152.27C-339.666 1147.9 -329.793 1142.62 -320.649 1136.62C-326.7 1145.81 -331.932 1155.63 -336.299 1166.14C-372.877 1254.49 -332.387 1355.53 -245.809 1394.48C-295.308 1407.76 -347.354 1414.86 -401.039 1414.86L-400.993 1414.9ZM-242.17 1387.33C-242.17 1387.33 -242.397 1386.92 -242.488 1386.74C-284.89 1309.22 -308.911 1224.33 -314.462 1138.44C-264.735 1183.93 -187.53 1182.75 -139.396 1134.62C-134.028 1129.25 -129.342 1123.47 -125.202 1117.46C-126.521 1124.65 -127.295 1132.07 -127.295 1139.62C-127.295 1207.68 -73.6561 1263.23 -6.32336 1266.27C-70.9264 1323.01 -147.904 1366.04 -232.661 1390.84C-232.843 1390.88 -233.071 1390.97 -233.253 1391.02C-235.255 1391.61 -237.211 1392.16 -239.213 1392.7C-240.214 1390.93 -241.214 1389.11 -242.215 1387.33H-242.17ZM139.443 1522.81C96.9959 1565.26 49.772 1599.93 -0.5 1626.95C-50.7721 1599.93 -97.9959 1565.26 -140.443 1522.81C-178.386 1484.87 -210.187 1443.06 -235.8 1398.66C-146.994 1432.33 -46.905 1389.52 -10.327 1301.17C-5.95947 1290.66 -2.72931 1279.97 -0.5 1269.19C1.72925 1279.92 4.95935 1290.61 9.3269 1301.17C45.905 1389.52 145.994 1432.33 234.8 1398.66C209.187 1443.06 177.431 1484.87 139.443 1522.81ZM241.534 1386.74C241.534 1386.74 241.306 1387.15 241.215 1387.33C240.214 1389.11 239.214 1390.93 238.213 1392.7C236.211 1392.16 234.209 1391.56 232.253 1391.02C232.071 1390.97 231.843 1390.93 231.661 1390.84C146.904 1366.04 69.9718 1323.01 5.3233 1266.27C72.656 1263.23 126.295 1207.72 126.295 1139.62C126.295 1132.02 125.521 1124.65 124.202 1117.46C128.342 1123.47 133.028 1129.25 138.396 1134.62C186.53 1182.75 263.735 1183.93 313.461 1138.44C307.911 1224.33 283.935 1309.22 241.488 1386.74H241.534ZM597.942 1217C597.942 1277.01 589.071 1334.92 572.647 1389.61C518.007 1406.03 460.047 1414.9 400.039 1414.9C346.354 1414.9 294.308 1407.81 244.809 1394.52C331.432 1355.53 371.923 1254.49 335.299 1166.19C330.932 1155.68 325.654 1145.81 319.649 1136.66C328.839 1142.71 338.666 1147.95 349.175 1152.31C437.526 1188.89 538.571 1148.4 577.515 1061.83C590.799 1111.32 597.896 1163.37 597.896 1217.05L597.942 1217ZM705.856 956.416C667.914 994.358 626.104 1026.16 581.7 1051.77C615.367 962.967 572.556 862.881 484.204 826.304C473.695 821.936 463.004 818.706 452.221 816.477C462.958 814.248 473.65 811.018 484.204 806.651C572.556 770.074 615.367 669.987 581.7 581.183C626.104 606.796 667.914 638.551 705.856 676.538C748.303 718.984 782.97 766.207 809.995 816.477C782.97 866.748 748.303 913.97 705.856 956.416Z" fill="#FDF7E6"/>
</g>
</g>
</g>
</g>
<defs>
<clipPath id="clip0_47214_16545">
<rect width="1440" height="1913" fill="white" transform="translate(0 -586)"/>
</clipPath>
</defs>
</svg>
