<svg width="577" height="641" viewBox="0 0 577 641" fill="none" xmlns="http://www.w3.org/2000/svg">
<path d="M413.13 405.533C474.859 338.4 473.155 233.941 408.018 168.863C342.882 103.784 238.33 102.082 171.136 163.755C167.278 72.6587 92.1425 0 0 0C-92.1104 0 -167.245 72.6587 -171.103 163.755C-238.297 102.082 -342.85 103.784 -407.986 168.863C-473.123 233.941 -474.827 338.4 -413.098 405.533C-504.276 409.388 -577 484.456 -577 576.484C-577 668.512 -504.276 743.58 -413.098 747.466C-474.827 814.6 -473.123 919.059 -407.986 984.137C-342.85 1049.22 -238.297 1050.92 -171.103 989.245C-167.245 1080.34 -92.1104 1153 0 1153C92.1104 1153 167.245 1080.34 171.104 989.245C238.297 1050.92 342.85 1049.22 407.986 984.137C473.123 919.059 474.827 814.6 413.098 747.466C504.276 743.612 577 668.544 577 576.516C577 484.488 504.276 409.42 413.098 405.533H413.13ZM283.051 153.99C325.457 153.99 366.384 160.254 405.029 171.85C416.635 210.428 422.904 251.35 422.904 293.719C422.904 331.622 417.889 368.369 408.501 403.317C380.948 342.158 309.542 313.57 247.139 339.427C239.712 342.511 232.736 346.237 226.273 350.477C230.549 343.989 234.246 337.051 237.333 329.63C263.182 267.251 234.568 195.909 173.386 168.413C208.366 159.033 245.145 154.022 283.083 154.022L283.051 153.99ZM224.859 674.551C221.065 670.76 216.982 667.452 212.738 664.529C217.818 665.46 223.058 666.006 228.395 666.006C276.492 666.006 315.747 628.135 317.901 580.595C357.993 626.208 388.407 680.557 405.929 740.4C405.961 740.528 405.993 740.689 406.057 740.817C406.475 742.231 406.861 743.612 407.247 745.025C405.993 745.732 404.707 746.439 403.421 747.145C403.292 747.209 403.164 747.306 403.035 747.37C348.251 777.307 288.259 794.267 227.559 798.186C259.709 763.078 258.874 708.567 224.859 674.583V674.551ZM-227.527 798.154C-288.227 794.235 -348.219 777.307 -403.003 747.338C-403.132 747.274 -403.26 747.177 -403.389 747.113C-404.675 746.406 -405.929 745.7 -407.215 744.993C-406.829 743.612 -406.443 742.199 -406.025 740.817C-405.993 740.657 -405.929 740.528 -405.897 740.368C-388.375 680.525 -357.961 626.208 -317.869 580.563C-315.715 628.103 -276.492 665.974 -228.363 665.974C-222.994 665.974 -217.786 665.428 -212.706 664.497C-216.95 667.42 -221.033 670.728 -224.826 674.519C-258.841 708.503 -259.677 763.013 -227.527 798.122V798.154ZM-224.826 478.449C-221.033 482.24 -216.95 485.548 -212.706 488.471C-217.786 487.54 -223.026 486.994 -228.363 486.994C-276.46 486.994 -315.715 524.865 -317.869 572.404C-357.961 526.792 -388.375 472.443 -405.897 412.632C-405.929 412.472 -405.993 412.311 -406.025 412.15C-406.443 410.769 -406.829 409.388 -407.215 407.975C-405.961 407.268 -404.675 406.561 -403.389 405.855C-403.26 405.79 -403.132 405.694 -403.003 405.63C-348.219 375.693 -288.227 358.732 -227.527 354.814C-259.677 389.922 -258.841 444.433 -224.826 478.417V478.449ZM174.126 580.081C170.332 578.508 166.506 577.351 162.648 576.548C166.506 575.745 170.364 574.589 174.126 573.015C205.89 559.877 221.258 523.901 209.105 492.037C248.521 514.489 283.919 543.078 314.108 576.516C283.951 609.922 248.553 638.51 209.169 660.963C221.226 629.099 205.858 593.219 174.158 580.081H174.126ZM114.294 626.369C112.365 624.441 110.307 622.771 108.121 621.261C110.693 621.743 113.362 622 116.094 622C140.529 622 160.494 602.759 161.587 578.604C182.485 602.374 198.206 630.833 206.983 662.152C178.562 678.116 147.312 687.11 115.644 689.166C131.977 671.306 131.559 643.618 114.262 626.336L114.294 626.369ZM-115.612 689.198C-147.248 687.174 -178.53 678.148 -206.951 662.184C-198.174 630.866 -182.452 602.406 -161.555 578.636C-160.462 602.791 -140.529 622.032 -116.062 622.032C-113.33 622.032 -110.693 621.743 -108.089 621.293C-110.243 622.771 -112.333 624.473 -114.262 626.401C-131.559 643.682 -131.977 671.371 -115.644 689.23L-115.612 689.198ZM-209.073 660.963C-248.489 638.51 -283.886 609.922 -314.076 576.484C-283.886 543.045 -248.457 514.425 -209.041 492.004C-221.226 523.901 -205.826 559.877 -174.061 573.015C-170.268 574.589 -166.442 575.745 -162.584 576.548C-166.442 577.351 -170.3 578.508 -174.061 580.081C-205.794 593.219 -221.161 629.131 -209.073 660.963ZM-114.23 526.728C-112.301 528.655 -110.243 530.325 -108.057 531.835C-110.629 531.353 -113.297 531.096 -116.03 531.096C-140.464 531.096 -160.43 550.337 -161.523 574.492C-182.42 550.722 -198.142 522.263 -206.919 490.944C-178.498 474.98 -147.248 465.986 -115.58 463.93C-131.912 481.79 -131.494 509.479 -114.198 526.76L-114.23 526.728ZM115.676 463.898C147.312 465.954 178.594 474.948 207.015 490.912C198.238 522.231 182.517 550.69 161.619 574.46C160.526 550.305 140.593 531.064 116.127 531.064C113.394 531.064 110.758 531.353 108.153 531.803C110.307 530.325 112.397 528.623 114.326 526.696C131.623 509.414 132.041 481.726 115.709 463.866L115.676 463.898ZM88.5417 578.347C86.6127 577.544 84.6516 576.966 82.6904 576.548C84.6516 576.131 86.6127 575.552 88.5417 574.749C104.681 568.068 112.494 549.823 106.353 533.634C126.35 545.037 144.355 559.556 159.69 576.548C144.355 593.54 126.383 608.059 106.353 619.462C112.494 603.273 104.681 585.028 88.5417 578.347ZM58.1276 601.892C57.1631 600.928 56.1021 600.061 55.009 599.29C56.3272 599.515 57.6775 599.676 59.0599 599.676C71.5021 599.676 81.6294 589.879 82.176 577.608C92.8177 589.686 100.791 604.173 105.26 620.073C90.8244 628.199 74.91 632.761 58.8349 633.821C67.1296 624.73 66.9367 610.661 58.1276 601.892ZM-58.7385 633.821C-74.8136 632.793 -90.7279 628.199 -105.163 620.073C-100.695 604.14 -92.7212 589.686 -82.0795 577.608C-81.533 589.879 -71.3735 599.676 -58.9635 599.676C-57.5811 599.676 -56.2307 599.547 -54.9125 599.29C-56.0056 600.061 -57.0667 600.896 -58.0311 601.892C-66.8081 610.661 -67.0332 624.763 -58.7385 633.821ZM-106.257 619.462C-126.254 608.059 -144.258 593.54 -159.594 576.548C-144.258 559.556 -126.286 545.037 -106.257 533.634C-112.397 549.823 -104.585 568.068 -88.4453 574.749C-86.5162 575.552 -84.5551 576.131 -82.5939 576.548C-84.5551 576.966 -86.5162 577.544 -88.4453 578.347C-104.585 585.028 -112.397 603.273 -106.257 619.462ZM-58.0633 551.204C-57.0988 552.168 -56.0378 553.035 -54.9447 553.806C-56.2629 553.581 -57.6132 553.421 -58.9957 553.421C-71.4378 553.421 -81.5652 563.218 -82.1117 575.488C-92.7534 563.41 -100.727 548.924 -105.196 533.024C-90.7601 524.897 -74.8457 520.336 -58.7706 519.276C-67.0653 528.366 -66.8725 542.435 -58.0633 551.204ZM58.8027 519.276C74.8779 520.303 90.7922 524.897 105.228 533.024C100.759 548.956 92.7856 563.41 82.1439 575.488C81.5973 563.218 71.4378 553.421 59.0278 553.421C57.6454 553.421 56.2951 553.549 54.9769 553.806C56.07 553.035 57.131 552.2 58.0955 551.204C66.8725 542.435 67.0975 528.334 58.8027 519.276ZM29.2245 605.682C29.2245 605.682 29.2245 605.779 29.2245 605.843C28.7745 614.194 26.4275 622.45 22.2158 629.966C13.9211 627.653 6.42999 623.445 0.192871 617.856C0.160706 617.824 0.128601 617.792 0.0643311 617.76C0.0321655 617.792 -6.10352e-05 617.824 -0.0643311 617.856C-6.30145 623.445 -13.7924 627.621 -22.0872 629.966C-26.2988 622.482 -28.6459 614.194 -29.0959 605.843C-29.0959 605.779 -29.0959 605.747 -29.0959 605.682C-29.1602 605.682 -29.1924 605.682 -29.2567 605.682C-37.6158 605.233 -45.8784 602.888 -53.4016 598.68C-51.0867 590.393 -46.875 582.908 -41.2809 576.677C-41.2487 576.645 -41.2166 576.612 -41.1844 576.548C-41.2166 576.516 -41.2487 576.484 -41.2809 576.42C-46.875 570.188 -51.0546 562.704 -53.4016 554.416C-45.9105 550.209 -37.6158 547.864 -29.2567 547.414C-29.1924 547.414 -29.1602 547.414 -29.0959 547.414C-29.0959 547.35 -29.0959 547.318 -29.0959 547.253C-28.6459 538.902 -26.2988 530.647 -22.0872 523.13C-13.7924 525.443 -6.30145 529.651 -0.0643311 535.24C-0.0321655 535.272 6.10352e-05 535.304 0.0643311 535.336C0.0964966 535.304 0.128601 535.272 0.192871 535.24C6.42999 529.651 13.9211 525.475 22.2158 523.13C26.4275 530.614 28.7745 538.902 29.2245 547.253C29.2245 547.318 29.2245 547.35 29.2245 547.414C29.2888 547.414 29.321 547.414 29.3853 547.414C37.7444 547.864 46.007 550.209 53.5302 554.416C51.2153 562.704 47.0037 570.188 41.4095 576.42C41.3774 576.452 41.3452 576.484 41.313 576.548C41.3452 576.58 41.3774 576.612 41.4095 576.677C47.0037 582.908 51.1832 590.393 53.5302 598.68C46.0391 602.888 37.7444 605.233 29.3853 605.682C29.321 605.682 29.2888 605.682 29.2245 605.682ZM-44.946 575.649C-43.9815 576.066 -42.9849 576.355 -41.9561 576.548C-42.9527 576.741 -43.9493 577.062 -44.946 577.448C-53.1443 580.852 -57.0988 590.103 -53.9802 598.359C-64.1397 592.577 -73.3025 585.189 -81.0829 576.548C-73.3025 567.907 -64.1397 560.52 -53.9802 554.738C-57.0988 562.961 -53.1443 572.244 -44.946 575.649ZM45.0103 577.448C44.0458 577.03 43.0491 576.741 42.0203 576.548C43.017 576.355 44.0137 576.034 45.0103 575.649C53.2086 572.244 57.1631 562.993 54.0446 554.738C64.204 560.52 73.3668 567.907 81.1472 576.548C73.3668 585.189 64.204 592.577 54.0446 598.359C57.1631 590.135 53.2086 580.852 45.0103 577.448ZM53.6909 553.806C50.0579 545.776 40.7021 542.018 32.5038 545.422C31.5394 545.84 30.607 546.322 29.739 546.868C30.2855 546.001 30.7999 545.101 31.1857 544.105C34.5936 535.914 30.832 526.567 22.7945 522.937C34.0792 519.854 45.782 518.601 57.3882 519.211C57.999 530.807 56.7452 542.499 53.6588 553.806H53.6909ZM0.932373 531.61C0.514404 532.574 0.225037 533.57 0.0321655 534.597C-0.160706 533.602 -0.482239 532.606 -0.868042 531.61C-4.27594 523.419 -13.5352 519.468 -21.7978 522.584C-16.0107 512.434 -8.61627 503.279 0.0321655 495.506C8.6806 503.279 16.0751 512.434 21.8622 522.584C13.6317 519.468 4.34027 523.419 0.932373 531.61ZM-31.1215 544.105C-30.7035 545.069 -30.2212 546.001 -29.6746 546.868C-30.5427 546.322 -31.4429 545.808 -32.4074 545.422C-40.6057 542.018 -49.9614 545.776 -53.5944 553.806C-56.6808 542.531 -57.9347 530.839 -57.3239 519.243C-45.7177 518.633 -34.015 519.886 -22.7302 522.97C-30.7678 526.599 -34.5294 535.947 -31.1215 544.138V544.105ZM-53.6266 599.29C-49.9936 607.321 -40.6379 611.079 -32.4396 607.674C-31.4751 607.256 -30.5427 606.774 -29.7068 606.228C-30.2534 607.096 -30.7678 607.995 -31.1536 608.959C-34.5615 617.15 -30.7999 626.497 -22.7624 630.127C-34.0471 633.21 -45.7498 634.463 -57.356 633.853C-57.9668 622.257 -56.713 610.565 -53.6266 599.29ZM-0.868042 621.486C-0.450073 620.522 -0.160706 619.527 0.0321655 618.499C0.225037 619.495 0.54657 620.49 0.932373 621.486C4.34027 629.677 13.5995 633.628 21.8622 630.512C16.0751 640.663 8.6806 649.817 0.0321655 657.591C-8.61627 649.817 -16.0107 640.663 -21.7978 630.512C-13.5673 633.628 -4.27594 629.677 -0.868042 621.486ZM31.1857 608.959C30.7678 607.995 30.2855 607.063 29.739 606.228C30.607 606.774 31.5072 607.288 32.5038 607.674C40.7021 611.079 50.0579 607.321 53.6909 599.29C56.7773 610.565 58.0311 622.257 57.4203 633.885C45.8141 634.495 34.1114 633.243 22.8267 630.159C30.8642 626.529 34.6257 617.182 31.2178 608.991L31.1857 608.959ZM105.549 531.771C98.444 515.967 79.9897 508.611 63.8503 515.26C61.9213 516.063 60.1209 517.027 58.4491 518.119C59.5422 516.449 60.5067 514.65 61.3105 512.723C67.9977 496.598 60.6031 478.192 44.7852 471.061C67.001 464.99 89.9885 462.549 112.847 463.738C114.037 486.576 111.593 509.543 105.517 531.739L105.549 531.771ZM57.356 517.83C48.2574 509.511 34.1757 509.735 25.3987 518.537C24.4342 519.5 23.5661 520.56 22.7945 521.653C23.0195 520.336 23.1803 518.986 23.1803 517.605C23.1803 505.174 13.3745 495.056 1.09314 494.51C13.1816 483.878 27.6813 475.912 43.5957 471.447C51.7297 485.869 56.295 501.769 57.356 517.83ZM1.83252 488.118C1.02875 490.045 0.450134 492.004 0.0321655 493.964C-0.385803 492.004 -0.964478 490.045 -1.76825 488.118C-8.45551 471.993 -26.7168 464.187 -42.9205 470.322C-31.5072 450.343 -16.9753 432.355 0.0321655 417.033C17.0396 432.355 31.5715 450.311 42.9848 470.322C26.7811 464.187 8.51978 471.993 1.83252 488.118ZM-1.02881 494.51C-13.3102 495.056 -23.116 505.206 -23.116 517.605C-23.116 518.986 -22.9874 520.336 -22.7302 521.653C-23.5018 520.56 -24.3378 519.5 -25.3344 518.537C-34.1115 509.768 -48.2253 509.543 -57.2917 517.83C-56.2629 501.769 -51.6654 485.869 -43.5635 471.447C-27.617 475.912 -13.1495 483.878 -1.06097 494.51H-1.02881ZM-61.2783 512.755C-60.4745 514.682 -59.51 516.481 -58.4169 518.151C-60.0887 517.059 -61.8892 516.096 -63.8182 515.293C-79.9576 508.611 -98.3797 515.999 -105.517 531.803C-111.593 509.607 -114.037 486.64 -112.847 463.802C-89.9885 462.613 -67.0011 465.055 -44.7853 471.125C-60.6032 478.224 -67.9656 496.662 -61.3105 512.787L-61.2783 512.755ZM-105.485 621.293C-98.3796 637.097 -79.9254 644.453 -63.786 637.804C-61.857 637.001 -60.0566 636.037 -58.3848 634.945C-59.4779 636.615 -60.4424 638.414 -61.2462 640.341C-67.9334 656.466 -60.5389 674.872 -44.7209 682.003C-66.9367 688.074 -89.9242 690.515 -112.783 689.327C-113.973 666.488 -111.529 643.521 -105.453 621.325L-105.485 621.293ZM-57.2917 635.266C-48.2253 643.554 -34.1115 643.361 -25.3344 634.56C-24.3699 633.596 -23.5018 632.536 -22.7302 631.444C-22.9553 632.761 -23.116 634.11 -23.116 635.491C-23.116 647.922 -13.3102 658.04 -1.02881 658.586C-13.1173 669.219 -27.6171 677.185 -43.5314 681.65C-51.6655 667.227 -56.2307 651.327 -57.2917 635.266ZM-1.76825 664.979C-0.964478 663.051 -0.385803 661.092 0.0321655 659.132C0.450134 661.092 1.02875 663.051 1.83252 664.979C8.51978 681.104 26.7811 688.909 42.9848 682.774C31.5715 702.753 17.0396 720.741 0.0321655 736.063C-16.9753 720.741 -31.5072 702.785 -42.9205 682.774C-26.7168 688.909 -8.45551 681.104 -1.76825 664.979ZM1.09314 658.586C13.3745 658.04 23.1803 647.89 23.1803 635.491C23.1803 634.11 23.0517 632.761 22.7945 631.444C23.5661 632.536 24.402 633.596 25.3987 634.56C34.1757 643.329 48.2896 643.554 57.356 635.266C56.3271 651.327 51.7297 667.227 43.5957 681.65C27.6492 677.185 13.1816 669.219 1.09314 658.586ZM61.3427 640.341C60.5389 638.414 59.5743 636.615 58.4813 634.945C60.1531 636.037 61.9535 637.001 63.8825 637.804C80.0219 644.485 98.444 637.097 105.581 621.293C111.658 643.489 114.101 666.456 112.912 689.294C90.0527 690.483 67.0654 688.042 44.8495 681.971C60.6675 674.872 68.0298 656.434 61.3748 640.309L61.3427 640.341ZM207.626 488.503C193.641 457.442 157.343 442.891 125.611 456.028C121.817 457.602 118.281 459.498 115.001 461.65C117.155 458.341 119.052 454.808 120.628 451.05C133.777 419.314 119.181 383.016 88.0273 369.043C131.784 357.062 177.083 352.244 222.094 354.589C224.409 399.559 219.618 444.786 207.626 488.503ZM112.783 461.007C94.9075 444.69 67.194 445.107 49.8972 462.388C47.9681 464.316 46.2963 466.372 44.7852 468.556C45.2675 465.986 45.5247 463.32 45.5247 460.59C45.5247 436.177 26.2667 416.23 2.08972 415.138C25.8809 394.259 54.3661 378.551 85.7125 369.782C101.691 398.178 110.693 429.4 112.751 461.039L112.783 461.007ZM3.56873 402.61C1.99335 406.401 0.835938 410.223 0.0321655 414.078C-0.771606 410.223 -1.92896 406.369 -3.50433 402.61C-16.6537 370.874 -52.662 355.52 -84.5872 367.662C-62.1142 328.249 -33.5005 292.851 0 262.689C33.4684 292.851 62.1143 328.249 84.5551 367.63C52.6621 355.52 16.686 370.874 3.53656 402.578L3.56873 402.61ZM-2.05762 415.138C-26.2346 416.23 -45.4926 436.145 -45.4926 460.59C-45.4926 463.32 -45.2031 465.954 -44.7531 468.556C-46.2319 466.404 -47.936 464.316 -49.865 462.388C-67.1618 445.107 -94.8753 444.69 -112.751 461.007C-110.693 429.4 -101.691 398.146 -85.7125 369.75C-54.366 378.519 -25.8809 394.227 -2.08978 415.106L-2.05762 415.138ZM-120.563 451.05C-118.988 454.84 -117.091 458.373 -114.937 461.65C-118.248 459.465 -121.785 457.57 -125.547 456.028C-157.279 442.891 -193.609 457.442 -207.594 488.535C-219.586 444.818 -224.409 399.559 -222.062 354.589C-177.051 352.276 -131.719 357.062 -87.963 369.043C-119.149 382.984 -133.713 419.281 -120.563 451.017V451.05ZM-207.626 664.497C-193.641 695.622 -157.343 710.206 -125.579 697.068C-121.785 695.494 -118.248 693.599 -114.969 691.447C-117.155 694.755 -119.052 698.288 -120.595 702.047C-133.745 733.751 -119.213 769.984 -88.1237 783.956C-131.848 795.906 -177.116 800.724 -222.094 798.379C-224.409 753.409 -219.618 708.182 -207.626 664.497ZM-112.719 692.057C-94.8431 708.375 -67.1296 707.957 -49.8328 690.676C-47.9038 688.748 -46.232 686.693 -44.7209 684.508C-45.2032 687.078 -45.4604 689.744 -45.4604 692.474C-45.4604 716.887 -26.2024 736.834 -2.02545 737.926C-25.8166 758.805 -54.3017 774.513 -85.6482 783.282C-101.627 754.887 -110.629 723.664 -112.687 692.025L-112.719 692.057ZM-3.50433 750.486C-1.92896 746.695 -0.771606 742.873 0.0321655 739.019C0.835938 742.873 1.99335 746.728 3.56873 750.486C16.7181 782.19 52.6299 797.544 84.5229 785.466C62.0499 824.815 33.4684 860.181 0.0321655 890.311C-33.4041 860.181 -62.0178 824.815 -84.4908 785.466C-52.5978 797.576 -16.6216 782.222 -3.47223 750.486H-3.50433ZM2.12195 737.958C26.2989 736.866 45.5568 716.951 45.5568 692.507C45.5568 689.776 45.2675 687.142 44.8174 684.54C46.2963 686.693 48.0002 688.781 49.9293 690.708C67.2261 707.989 94.9396 708.407 112.815 692.089C110.79 723.697 101.755 754.951 85.7768 783.346C54.4304 774.577 25.9452 758.87 2.15405 737.991L2.12195 737.958ZM120.628 702.015C119.052 698.224 117.155 694.691 115.001 691.414C118.313 693.567 121.849 695.462 125.611 697.036C157.343 710.173 193.641 695.622 207.626 664.529C219.586 708.214 224.409 753.441 222.062 798.379C177.083 800.692 131.848 795.906 88.1238 783.956C119.213 769.951 133.745 733.718 120.595 702.015H120.628ZM228.395 486.994C223.026 486.994 217.818 487.54 212.738 488.471C216.982 485.548 221.065 482.24 224.859 478.449C258.874 444.465 259.709 389.955 227.559 354.846C288.259 358.765 348.251 375.725 403.035 405.662C403.164 405.726 403.292 405.823 403.421 405.887C404.707 406.593 405.961 407.3 407.247 408.007C406.861 409.42 406.443 410.801 406.057 412.215C406.025 412.343 405.961 412.504 405.929 412.632C388.407 472.475 357.993 526.792 317.901 572.437C315.747 524.897 276.524 487.026 228.395 487.026V486.994ZM170.814 173.456C170.814 173.456 170.975 173.713 171.039 173.841C201.003 228.576 217.979 288.515 221.901 349.16C186.761 317.039 132.202 317.874 98.1868 351.858C94.3931 355.649 91.0815 359.728 88.1559 363.968C89.0883 358.893 89.6348 353.657 89.6348 348.325C89.6348 300.271 51.7297 261.051 4.14734 258.899C49.8007 218.844 104.199 188.457 164.095 170.95C164.223 170.918 164.384 170.886 164.513 170.822C165.927 170.404 167.31 170.019 168.724 169.633C169.432 170.886 170.139 172.171 170.846 173.456H170.814ZM-98.894 77.7661C-68.8979 47.7967 -35.526 23.3202 0 4.24003C35.526 23.3202 68.8979 47.7967 98.8941 77.7661C125.707 104.555 148.18 134.075 166.281 165.426C103.524 141.656 32.7932 171.882 6.94446 234.262C3.85803 241.682 1.57538 249.23 0 256.843C-1.57538 249.263 -3.85803 241.714 -6.94446 234.262C-32.7932 171.882 -103.524 141.656 -166.281 165.426C-148.18 134.075 -125.739 104.555 -98.894 77.7661ZM-171.007 173.873C-171.007 173.873 -170.846 173.616 -170.782 173.488C-170.075 172.203 -169.367 170.95 -168.66 169.666C-167.245 170.051 -165.863 170.469 -164.448 170.854C-164.32 170.886 -164.159 170.95 -164.03 170.983C-104.135 188.489 -49.7686 218.876 -4.08307 258.931C-51.6654 261.083 -89.5705 300.271 -89.5705 348.357C-89.5705 353.722 -89.0239 358.925 -88.0916 364C-91.0172 359.76 -94.3287 355.681 -98.1225 351.891C-132.137 317.906 -186.696 317.071 -221.837 349.192C-217.914 288.547 -200.971 228.608 -170.975 173.873H-171.007ZM-422.872 293.719C-422.872 251.35 -416.603 210.46 -404.996 171.85C-366.384 160.254 -325.425 153.99 -283.018 153.99C-245.081 153.99 -208.301 159.001 -173.322 168.381C-234.536 195.909 -263.15 267.251 -237.269 329.598C-234.182 337.018 -230.453 343.989 -226.209 350.445C-232.703 346.173 -239.648 342.479 -247.074 339.395C-309.51 313.57 -380.916 342.158 -408.436 403.285C-417.824 368.337 -422.84 331.59 -422.84 293.687L-422.872 293.719ZM-499.164 675.289C-529.16 645.32 -553.659 611.978 -572.756 576.484C-553.659 540.99 -529.16 507.648 -499.164 477.678C-472.351 450.889 -442.805 428.436 -411.426 410.352C-435.218 473.053 -404.964 543.72 -342.528 569.546C-335.102 572.629 -327.546 574.91 -319.927 576.484C-327.514 578.058 -335.07 580.338 -342.528 583.422C-404.964 609.248 -435.218 679.915 -411.426 742.616C-442.805 724.532 -472.351 702.111 -499.164 675.289ZM-283.018 999.01C-325.425 999.01 -366.352 992.746 -404.996 981.15C-416.603 942.572 -422.872 901.65 -422.872 859.281C-422.872 821.378 -417.856 784.631 -408.469 749.683C-380.916 810.842 -309.51 839.43 -247.107 813.572C-239.68 810.489 -232.703 806.763 -226.241 802.523C-230.517 809.011 -234.214 815.949 -237.301 823.369C-263.15 885.749 -234.536 957.091 -173.354 984.587C-208.333 993.966 -245.113 998.978 -283.051 998.978L-283.018 999.01ZM-170.782 979.544C-170.782 979.544 -170.943 979.255 -171.007 979.126C-200.971 924.391 -217.946 864.453 -221.869 803.807C-186.728 835.929 -132.17 835.094 -98.1546 801.109C-94.3609 797.319 -91.0494 793.24 -88.1237 789C-89.0561 794.075 -89.6026 799.31 -89.6026 804.643C-89.6026 852.696 -51.6975 891.917 -4.11517 894.069C-49.7685 934.124 -104.167 964.511 -164.063 982.017C-164.191 982.049 -164.352 982.114 -164.481 982.146C-165.895 982.564 -167.278 982.949 -168.692 983.334C-169.4 982.082 -170.107 980.797 -170.814 979.544H-170.782ZM98.8941 1075.2C68.8979 1105.17 35.526 1129.65 0 1148.73C-35.526 1129.65 -68.8979 1105.17 -98.894 1075.2C-125.707 1048.41 -148.18 1018.89 -166.281 987.542C-103.524 1011.31 -32.7932 981.086 -6.94446 918.706C-3.85803 911.286 -1.57538 903.737 0 896.125C1.57538 903.705 3.85803 911.254 6.94446 918.706C32.7932 981.086 103.524 1011.31 166.281 987.542C148.18 1018.89 125.74 1048.41 98.8941 1075.2ZM171.039 979.126C171.039 979.126 170.878 979.416 170.814 979.544C170.107 980.797 169.399 982.082 168.692 983.334C167.278 982.949 165.863 982.531 164.481 982.146C164.352 982.114 164.191 982.082 164.063 982.017C104.167 964.511 49.8007 934.124 4.11523 894.069C51.6976 891.917 89.6027 852.728 89.6027 804.643C89.6027 799.278 89.0562 794.075 88.1238 789C91.0494 793.24 94.3609 797.319 98.1546 801.109C132.17 835.094 186.728 835.929 221.869 803.807C217.946 864.453 201.003 924.391 171.007 979.126H171.039ZM422.904 859.281C422.904 901.65 416.635 942.54 405.029 981.15C366.416 992.746 325.457 999.01 283.051 999.01C245.113 999.01 208.333 993.999 173.354 984.619C234.568 957.091 263.182 885.749 237.301 823.402C234.214 815.982 230.485 809.011 226.241 802.555C232.735 806.827 239.68 810.521 247.107 813.605C309.542 839.43 380.948 810.842 408.469 749.715C417.856 784.663 422.872 821.41 422.872 859.313L422.904 859.281ZM499.164 675.289C472.351 702.079 442.805 724.532 411.426 742.616C435.217 679.915 404.964 609.248 342.528 583.422C335.102 580.338 327.547 578.058 319.927 576.484C327.514 574.91 335.07 572.629 342.528 569.546C404.964 543.72 435.217 473.053 411.426 410.352C442.805 428.436 472.351 450.857 499.164 477.678C529.161 507.648 553.659 540.99 572.756 576.484C553.659 611.978 529.161 645.32 499.164 675.289Z" fill="#FDF7E6" fill-opacity="0.4"/>
</svg>
