<svg preserveAspectRatio="none" width="100%" height="100%" overflow="visible" style="display: block;" viewBox="0 0 990 990" fill="none" xmlns="http://www.w3.org/2000/svg">
<path id="Vector" d="M849.419 348.203C902.375 290.56 900.913 200.868 845.033 144.99C789.154 89.1124 699.46 87.6506 641.815 140.605C638.505 62.387 574.048 0 495 0C415.98 0 351.523 62.387 348.213 140.605C290.568 87.6506 200.874 89.1124 144.994 144.99C89.1149 200.868 87.6531 290.56 140.609 348.203C62.3887 351.513 0 415.968 0 494.986C0 574.004 62.3887 638.46 140.609 641.797C87.6531 699.44 89.1149 789.132 144.994 845.01C200.874 900.888 290.568 902.349 348.213 849.395C351.523 927.613 415.98 990 495 990C574.02 990 638.477 927.613 641.787 849.395C699.432 902.349 789.126 900.888 845.006 845.01C900.885 789.132 902.347 699.44 849.391 641.797C927.611 638.487 990 574.032 990 495.014C990 415.996 927.611 351.54 849.391 348.203H849.419ZM737.825 132.221C774.205 132.221 809.315 137.599 842.468 147.555C852.425 180.679 857.803 215.817 857.803 252.196C857.803 284.741 853.501 316.293 845.447 346.3C821.81 293.787 760.552 269.24 707.017 291.443C700.645 294.09 694.66 297.29 689.117 300.93C692.785 295.359 695.957 289.402 698.604 283.031C720.78 229.469 696.233 168.213 643.745 144.604C673.754 136.551 705.307 132.248 737.853 132.248L737.825 132.221ZM687.903 579.189C684.648 575.935 681.146 573.094 677.505 570.584C681.863 571.384 686.358 571.853 690.937 571.853C732.198 571.853 765.875 539.336 767.723 498.517C802.117 537.681 828.209 584.347 843.24 635.729C843.268 635.84 843.295 635.977 843.351 636.088C843.709 637.301 844.04 638.487 844.371 639.701C843.296 640.308 842.192 640.914 841.089 641.521C840.979 641.576 840.868 641.659 840.758 641.714C793.76 667.419 742.293 681.982 690.22 685.346C717.801 655.201 717.084 608.397 687.903 579.217V579.189ZM299.808 685.319C247.734 681.954 196.268 667.419 149.27 641.687C149.159 641.631 149.049 641.549 148.939 641.494C147.835 640.887 146.76 640.28 145.656 639.673C145.987 638.487 146.318 637.274 146.677 636.088C146.704 635.95 146.76 635.84 146.787 635.702C161.819 584.319 187.911 537.681 222.305 498.489C224.153 539.308 257.802 571.825 299.091 571.825C303.697 571.825 308.165 571.356 312.523 570.557C308.882 573.066 305.379 575.907 302.125 579.162C272.944 608.342 272.227 655.146 299.808 685.291V685.319ZM302.125 410.811C305.379 414.065 308.882 416.906 312.523 419.416C308.165 418.616 303.669 418.147 299.091 418.147C257.829 418.147 224.153 450.664 222.305 491.483C187.911 452.319 161.819 405.653 146.787 354.298C146.76 354.16 146.704 354.023 146.677 353.885C146.318 352.699 145.987 351.513 145.656 350.299C146.732 349.692 147.835 349.086 148.939 348.479C149.049 348.424 149.159 348.341 149.27 348.286C196.268 322.581 247.734 308.018 299.808 304.654C272.227 334.799 272.944 381.603 302.125 410.783V410.811ZM644.38 498.075C641.125 496.724 637.843 495.731 634.533 495.041C637.843 494.352 641.153 493.359 644.38 492.008C671.63 480.727 684.814 449.837 674.388 422.477C708.203 441.756 738.57 466.303 764.468 495.014C738.597 523.697 708.23 548.244 674.443 567.523C684.786 540.163 671.603 509.356 644.407 498.075H644.38ZM593.051 537.819C591.396 536.164 589.631 534.73 587.756 533.433C589.962 533.847 592.251 534.068 594.596 534.068C615.557 534.068 632.685 517.547 633.623 496.807C651.551 517.216 665.038 541.652 672.568 568.543C648.186 582.251 621.377 589.973 594.21 591.738C608.221 576.404 607.862 552.629 593.024 537.791L593.051 537.819ZM395.818 591.766C368.678 590.028 341.842 582.278 317.46 568.571C324.989 541.68 338.477 517.244 356.404 496.834C357.342 517.575 374.443 534.095 395.432 534.095C397.776 534.095 400.038 533.847 402.272 533.461C400.424 534.73 398.631 536.191 396.976 537.846C382.138 552.684 381.779 576.459 395.79 591.794L395.818 591.766ZM315.639 567.523C281.825 548.244 251.458 523.697 225.559 494.986C251.458 466.275 281.852 441.701 315.667 422.45C305.214 449.837 318.425 480.727 345.675 492.008C348.93 493.359 352.212 494.352 355.522 495.041C352.212 495.731 348.902 496.724 345.675 498.075C318.453 509.356 305.269 540.191 315.639 567.523ZM397.004 452.264C398.659 453.919 400.424 455.353 402.3 456.649C400.093 456.236 397.804 456.015 395.459 456.015C374.498 456.015 357.37 472.536 356.432 493.276C338.504 472.867 325.017 448.43 317.487 421.539C341.869 407.832 368.678 400.109 395.846 398.344C381.834 413.679 382.193 437.453 397.032 452.292L397.004 452.264ZM594.237 398.317C621.377 400.082 648.214 407.804 672.595 421.512C665.066 448.403 651.579 472.839 633.651 493.249C632.713 472.508 615.613 455.987 594.623 455.987C592.279 455.987 590.017 456.236 587.783 456.622C589.631 455.353 591.424 453.891 593.079 452.237C607.917 437.398 608.276 413.624 594.265 398.289L594.237 398.317ZM570.959 496.586C569.304 495.896 567.621 495.4 565.939 495.041C567.621 494.683 569.304 494.186 570.959 493.497C584.804 487.76 591.507 472.094 586.239 458.194C603.394 467.985 618.84 480.451 631.996 495.041C618.84 509.631 603.422 522.098 586.239 531.889C591.507 517.988 584.804 502.323 570.959 496.586ZM544.867 516.802C544.039 515.975 543.129 515.23 542.191 514.568C543.322 514.761 544.481 514.899 545.667 514.899C556.341 514.899 565.029 506.487 565.498 495.952C574.627 506.322 581.467 518.761 585.301 532.413C572.917 539.391 559.264 543.307 545.474 544.217C552.59 536.412 552.424 524.332 544.867 516.802ZM444.609 544.217C430.819 543.335 417.166 539.391 404.782 532.413C408.616 518.733 415.456 506.322 424.585 495.952C425.054 506.487 433.77 514.899 444.416 514.899C445.602 514.899 446.76 514.789 447.891 514.568C446.954 515.23 446.043 515.947 445.216 516.802C437.686 524.332 437.493 536.44 444.609 544.217ZM403.844 531.889C386.689 522.098 371.243 509.631 358.087 495.041C371.243 480.451 386.661 467.985 403.844 458.194C398.576 472.094 405.278 487.76 419.124 493.497C420.779 494.186 422.461 494.683 424.144 495.041C422.461 495.4 420.779 495.896 419.124 496.586C405.278 502.323 398.576 517.988 403.844 531.889ZM445.188 473.28C446.016 474.108 446.926 474.853 447.864 475.514C446.733 475.321 445.574 475.183 444.388 475.183C433.715 475.183 425.026 483.595 424.558 494.131C415.428 483.761 408.588 471.322 404.754 457.67C417.138 450.692 430.791 446.776 444.582 445.865C437.466 453.671 437.631 465.751 445.188 473.28ZM545.446 445.865C559.237 446.748 572.889 450.692 585.273 457.67C581.44 471.35 574.599 483.761 565.47 494.131C565.001 483.595 556.285 475.183 545.639 475.183C544.453 475.183 543.295 475.294 542.164 475.514C543.102 474.853 544.012 474.135 544.839 473.28C552.369 465.751 552.562 453.643 545.446 445.865ZM520.071 520.057C520.071 520.057 520.071 520.14 520.071 520.195C519.685 527.366 517.672 534.454 514.059 540.908C506.943 538.922 500.516 535.309 495.165 530.51C495.138 530.482 495.11 530.455 495.055 530.427C495.028 530.455 495 530.482 494.945 530.51C489.594 535.309 483.168 538.894 476.052 540.908C472.439 534.481 470.425 527.366 470.039 520.195C470.039 520.14 470.039 520.112 470.039 520.057C469.984 520.057 469.956 520.057 469.901 520.057C462.73 519.671 455.642 517.657 449.188 514.044C451.173 506.929 454.787 500.502 459.586 495.152C459.613 495.124 459.641 495.097 459.668 495.041C459.641 495.014 459.613 494.986 459.586 494.931C454.787 489.58 451.201 483.154 449.188 476.038C455.614 472.425 462.73 470.412 469.901 470.026C469.956 470.026 469.984 470.026 470.039 470.026C470.039 469.971 470.039 469.943 470.039 469.888C470.425 462.717 472.439 455.629 476.052 449.175C483.168 451.161 489.594 454.774 494.945 459.573C494.972 459.601 495 459.628 495.055 459.656C495.083 459.628 495.11 459.601 495.165 459.573C500.516 454.774 506.943 451.188 514.059 449.175C517.672 455.601 519.685 462.717 520.071 469.888C520.071 469.943 520.071 469.971 520.071 470.026C520.126 470.026 520.154 470.026 520.209 470.026C527.38 470.412 534.469 472.425 540.923 476.038C538.937 483.154 535.324 489.58 530.525 494.931C530.497 494.959 530.469 494.986 530.442 495.041C530.469 495.069 530.497 495.097 530.525 495.152C535.324 500.502 538.909 506.929 540.923 514.044C534.496 517.657 527.38 519.671 520.209 520.057C520.154 520.057 520.126 520.057 520.071 520.057ZM456.441 494.269C457.269 494.628 458.124 494.876 459.006 495.041C458.151 495.207 457.296 495.483 456.441 495.814C449.408 498.737 446.016 506.68 448.691 513.768C439.975 508.804 432.115 502.461 425.44 495.041C432.115 487.622 439.975 481.279 448.691 476.314C446.016 483.375 449.408 491.346 456.441 494.269ZM533.614 495.814C532.786 495.455 531.931 495.207 531.049 495.041C531.904 494.876 532.759 494.6 533.614 494.269C540.647 491.346 544.039 483.402 541.364 476.314C550.08 481.279 557.94 487.622 564.615 495.041C557.94 502.461 550.08 508.804 541.364 513.768C544.039 506.708 540.647 498.737 533.614 495.814ZM541.061 475.514C537.944 468.619 529.918 465.392 522.885 468.316C522.057 468.674 521.257 469.088 520.513 469.557C520.982 468.812 521.423 468.04 521.754 467.185C524.677 460.152 521.45 452.126 514.555 449.01C524.236 446.362 534.276 445.286 544.232 445.81C544.757 455.767 543.681 465.806 541.033 475.514H541.061ZM495.8 456.456C495.441 457.284 495.193 458.139 495.028 459.021C494.862 458.166 494.586 457.311 494.255 456.456C491.332 449.423 483.388 446.031 476.3 448.706C481.265 439.991 487.608 432.13 495.028 425.456C502.447 432.13 508.791 439.991 513.755 448.706C506.694 446.031 498.723 449.423 495.8 456.456ZM468.301 467.185C468.66 468.013 469.074 468.812 469.543 469.557C468.798 469.088 468.026 468.647 467.198 468.316C460.165 465.392 452.139 468.619 449.022 475.514C446.374 465.834 445.299 455.794 445.823 445.838C455.779 445.314 465.819 446.389 475.5 449.037C468.605 452.154 465.378 460.18 468.301 467.213V467.185ZM448.995 514.568C452.111 521.463 460.137 524.69 467.171 521.767C467.998 521.408 468.798 520.995 469.515 520.526C469.046 521.27 468.605 522.043 468.274 522.87C465.35 529.903 468.577 537.929 475.472 541.046C465.791 543.693 455.752 544.769 445.795 544.245C445.271 534.288 446.347 524.249 448.995 514.568ZM494.255 533.626C494.614 532.799 494.862 531.944 495.028 531.061C495.193 531.916 495.469 532.771 495.8 533.626C498.723 540.659 506.667 544.052 513.755 541.377C508.791 550.092 502.447 557.952 495.028 564.627C487.608 557.952 481.265 550.092 476.3 541.377C483.361 544.052 491.332 540.659 494.255 533.626ZM521.754 522.87C521.395 522.043 520.982 521.243 520.513 520.526C521.257 520.995 522.03 521.436 522.885 521.767C529.918 524.69 537.944 521.463 541.061 514.568C543.708 524.249 544.784 534.288 544.26 544.272C534.303 544.796 524.264 543.721 514.583 541.073C521.478 537.957 524.705 529.931 521.781 522.898L521.754 522.87ZM585.549 456.594C579.454 443.025 563.622 436.709 549.776 442.418C548.121 443.107 546.577 443.935 545.143 444.873C546.08 443.438 546.908 441.894 547.597 440.239C553.334 426.394 546.991 410.59 533.421 404.467C552.479 399.254 572.2 397.158 591.81 398.179C592.831 417.789 590.734 437.509 585.522 456.567L585.549 456.594ZM544.205 444.624C536.399 437.481 524.319 437.674 516.789 445.231C515.962 446.058 515.217 446.969 514.555 447.906C514.748 446.776 514.886 445.617 514.886 444.431C514.886 433.758 506.474 425.07 495.938 424.601C506.308 415.472 518.747 408.632 532.4 404.798C539.378 417.182 543.295 430.834 544.205 444.624ZM496.572 419.112C495.883 420.767 495.386 422.45 495.028 424.132C494.669 422.45 494.173 420.767 493.483 419.112C487.746 405.267 472.08 398.565 458.179 403.833C467.97 386.678 480.437 371.233 495.028 358.077C509.618 371.233 522.085 386.65 531.876 403.833C517.975 398.565 502.309 405.267 496.572 419.112ZM494.117 424.601C483.581 425.07 475.169 433.785 475.169 444.431C475.169 445.617 475.279 446.776 475.5 447.906C474.838 446.969 474.121 446.058 473.266 445.231C465.736 437.702 453.628 437.509 445.85 444.624C446.733 430.834 450.677 417.182 457.627 404.798C471.308 408.632 483.719 415.472 494.09 424.601H494.117ZM442.43 440.267C443.12 441.921 443.947 443.466 444.885 444.9C443.451 443.962 441.906 443.135 440.251 442.445C426.405 436.709 410.601 443.052 404.478 456.622C399.266 437.564 397.169 417.844 398.19 398.234C417.8 397.214 437.521 399.31 456.579 404.522C443.009 410.618 436.693 426.449 442.403 440.294L442.43 440.267ZM404.506 533.461C410.602 547.031 426.433 553.346 440.279 547.637C441.934 546.948 443.478 546.12 444.913 545.183C443.975 546.617 443.147 548.161 442.458 549.816C436.721 563.662 443.065 579.465 456.635 585.588C437.576 590.801 417.855 592.897 398.245 591.876C397.225 572.267 399.321 552.547 404.534 533.488L404.506 533.461ZM445.85 545.458C453.628 552.574 465.736 552.409 473.266 544.852C474.093 544.024 474.838 543.114 475.5 542.176C475.307 543.307 475.169 544.466 475.169 545.651C475.169 556.325 483.581 565.013 494.117 565.482C483.747 574.611 471.308 581.451 457.655 585.285C450.677 572.901 446.76 559.249 445.85 545.458ZM493.483 570.97C494.173 569.316 494.669 567.633 495.028 565.951C495.386 567.633 495.883 569.316 496.572 570.97C502.309 584.816 517.975 591.518 531.876 586.25C522.085 603.405 509.618 618.85 495.028 632.006C480.437 618.85 467.97 603.433 458.179 586.25C472.08 591.518 487.746 584.816 493.483 570.97ZM495.938 565.482C506.474 565.013 514.886 556.298 514.886 545.651C514.886 544.466 514.776 543.307 514.555 542.176C515.217 543.114 515.934 544.024 516.789 544.852C524.319 552.381 536.427 552.574 544.205 545.458C543.322 559.249 539.378 572.901 532.4 585.285C518.72 581.451 506.308 574.611 495.938 565.482ZM547.625 549.816C546.935 548.161 546.108 546.617 545.17 545.183C546.604 546.12 548.149 546.948 549.804 547.637C563.65 553.374 579.454 547.031 585.577 533.461C590.79 552.519 592.886 572.239 591.865 591.849C572.255 592.869 552.534 590.773 533.476 585.56C547.046 579.465 553.362 563.634 547.653 549.789L547.625 549.816ZM673.119 419.443C661.122 392.773 629.982 380.279 602.76 391.56C599.505 392.911 596.471 394.538 593.658 396.386C595.506 393.545 597.133 390.511 598.485 387.285C609.765 360.035 597.244 328.869 570.517 316.872C608.055 306.584 646.917 302.447 685.531 304.46C687.517 343.073 683.407 381.906 673.119 419.443ZM591.755 395.835C576.42 381.824 552.645 382.182 537.806 397.02C536.151 398.675 534.717 400.44 533.421 402.316C533.834 400.109 534.055 397.82 534.055 395.476C534.055 374.515 517.534 357.387 496.793 356.45C517.203 338.522 541.64 325.036 568.532 317.506C582.239 341.887 589.962 368.695 591.727 395.862L591.755 395.835ZM498.062 345.693C496.71 348.948 495.717 352.23 495.028 355.539C494.338 352.23 493.345 348.92 491.994 345.693C480.713 318.444 449.822 305.26 422.434 315.686C441.713 281.845 466.26 251.451 495 225.553C523.712 251.451 548.287 281.845 567.539 315.658C540.178 305.26 509.315 318.444 498.034 345.666L498.062 345.693ZM493.235 356.45C472.494 357.387 455.973 374.487 455.973 395.476C455.973 397.82 456.221 400.082 456.607 402.316C455.338 400.468 453.876 398.675 452.222 397.02C437.383 382.182 413.608 381.824 398.273 395.835C400.038 368.695 407.761 341.86 421.468 317.478C448.36 325.008 472.797 338.495 493.207 356.422L493.235 356.45ZM391.57 387.285C392.922 390.539 394.549 393.573 396.397 396.386C393.556 394.511 390.522 392.883 387.295 391.56C360.073 380.279 328.906 392.773 316.908 419.471C306.62 381.934 302.483 343.073 304.497 304.46C343.11 302.475 382 306.584 419.538 316.872C392.784 328.842 380.29 360.008 391.57 387.257V387.285ZM316.881 570.557C328.878 597.282 360.018 609.804 387.268 598.523C390.522 597.172 393.556 595.544 396.37 593.697C394.494 596.537 392.867 599.571 391.543 602.798C380.262 630.02 392.729 661.131 419.4 673.128C381.889 683.388 343.055 687.525 304.469 685.512C302.483 646.899 306.593 608.066 316.881 570.557ZM398.3 594.221C413.635 608.231 437.41 607.873 452.249 593.035C453.904 591.38 455.338 589.615 456.635 587.739C456.221 589.946 456 592.235 456 594.579C456 615.54 472.521 632.668 493.262 633.605C472.852 651.533 448.415 665.02 421.524 672.549C407.816 648.168 400.093 621.36 398.328 594.193L398.3 594.221ZM491.994 644.389C493.345 641.135 494.338 637.853 495.028 634.543C495.717 637.853 496.71 641.163 498.062 644.389C509.342 671.611 540.15 684.795 567.511 674.425C548.232 708.211 523.712 738.577 495.028 764.447C466.343 738.577 441.796 708.211 422.517 674.425C449.877 684.822 480.741 671.639 492.021 644.389H491.994ZM496.82 633.633C517.561 632.695 534.083 615.595 534.083 594.607C534.083 592.262 533.834 590.001 533.448 587.767C534.717 589.615 536.179 591.407 537.834 593.062C552.672 607.901 576.447 608.259 591.782 594.248C590.045 621.387 582.295 648.223 568.587 672.604C541.695 665.075 517.258 651.588 496.848 633.661L496.82 633.633ZM598.485 602.771C597.133 599.516 595.506 596.482 593.658 593.669C596.499 595.517 599.533 597.144 602.76 598.496C629.982 609.776 661.122 597.282 673.119 570.584C683.38 608.094 687.517 646.927 685.503 685.512C646.917 687.498 608.111 683.388 570.6 673.128C597.271 661.103 609.738 629.992 598.457 602.771H598.485ZM690.937 418.147C686.331 418.147 681.863 418.616 677.505 419.416C681.146 416.906 684.648 414.065 687.903 410.811C717.084 381.631 717.801 334.827 690.22 304.681C742.293 308.046 793.76 322.608 840.758 348.313C840.868 348.369 840.979 348.451 841.089 348.506C842.192 349.113 843.268 349.72 844.371 350.327C844.04 351.54 843.682 352.726 843.351 353.94C843.323 354.05 843.268 354.188 843.24 354.298C828.209 405.681 802.117 452.319 767.723 491.511C765.875 450.692 732.226 418.175 690.937 418.175V418.147ZM641.539 148.934C641.539 148.934 641.677 149.155 641.732 149.265C667.438 196.262 682.001 247.728 685.366 299.799C655.219 272.219 608.414 272.936 579.233 302.116C575.978 305.371 573.138 308.873 570.628 312.514C571.428 308.156 571.896 303.661 571.896 299.082C571.896 257.822 539.378 224.146 498.558 222.298C537.723 187.906 584.391 161.814 635.774 146.783C635.885 146.756 636.023 146.728 636.133 146.673C637.347 146.314 638.533 145.983 639.746 145.652C640.353 146.728 640.96 147.831 641.567 148.934H641.539ZM410.16 66.7722C435.893 41.0397 464.523 20.0234 495 3.64062C525.477 20.0234 554.107 41.0397 579.84 66.7722C602.843 89.7743 622.122 115.121 637.65 142.039C583.811 121.63 523.133 147.583 500.958 201.144C498.31 207.515 496.351 213.997 495 220.533C493.649 214.024 491.69 207.543 489.042 201.144C466.867 147.583 406.189 121.63 352.35 142.039C367.878 115.121 387.13 89.7743 410.16 66.7722ZM348.296 149.293C348.296 149.293 348.433 149.072 348.489 148.962C349.095 147.859 349.702 146.783 350.309 145.68C351.523 146.011 352.709 146.369 353.922 146.7C354.032 146.728 354.17 146.783 354.281 146.811C405.664 161.842 452.304 187.933 491.497 222.326C450.677 224.174 418.159 257.822 418.159 299.11C418.159 303.716 418.628 308.184 419.427 312.542C416.918 308.901 414.077 305.398 410.822 302.144C381.641 272.964 334.836 272.247 304.69 299.827C308.055 247.755 322.59 196.29 348.323 149.293H348.296ZM132.224 252.196C132.224 215.817 137.603 180.707 147.559 147.555C180.685 137.599 215.823 132.221 252.203 132.221C284.748 132.221 316.301 136.523 346.31 144.577C293.795 168.213 269.248 229.469 291.451 283.003C294.098 289.374 297.298 295.359 300.939 300.903C295.367 297.234 289.41 294.063 283.038 291.415C229.476 269.24 168.218 293.787 144.608 346.272C136.555 316.265 132.252 284.713 132.252 252.168L132.224 252.196ZM66.7741 579.824C41.0408 554.091 20.024 525.463 3.64072 494.986C20.024 464.51 41.0408 435.881 66.7741 410.149C89.7768 387.147 115.124 367.868 142.043 352.34C121.633 406.177 147.587 466.854 201.15 489.029C207.521 491.677 214.003 493.635 220.539 494.986C214.03 496.338 207.549 498.296 201.15 500.944C147.587 523.118 121.633 583.795 142.043 637.632C115.124 622.104 89.7768 602.853 66.7741 579.824ZM252.203 857.779C215.823 857.779 180.712 852.401 147.559 842.445C137.603 809.321 132.224 774.183 132.224 737.804C132.224 705.26 136.527 673.707 144.581 643.7C168.218 696.213 229.476 720.76 283.011 698.557C289.382 695.91 295.367 692.71 300.911 689.07C297.243 694.641 294.071 700.598 291.423 706.969C269.248 760.531 293.795 821.787 346.282 845.396C316.274 853.449 284.721 857.752 252.175 857.752L252.203 857.779ZM348.489 841.066C348.489 841.066 348.351 840.817 348.296 840.707C322.59 793.71 308.027 742.245 304.662 690.173C334.808 717.753 381.614 717.036 410.795 687.856C414.049 684.602 416.89 681.099 419.4 677.458C418.6 681.816 418.131 686.312 418.131 690.89C418.131 732.15 450.649 765.826 491.47 767.674C452.304 802.067 405.637 828.158 354.253 843.189C354.143 843.217 354.005 843.272 353.895 843.3C352.681 843.658 351.495 843.989 350.281 844.32C349.675 843.244 349.068 842.141 348.461 841.066H348.489ZM579.84 923.2C554.107 948.933 525.477 969.949 495 986.332C464.523 969.949 435.893 948.933 410.16 923.2C387.157 900.198 367.878 874.852 352.35 847.933C406.189 868.343 466.867 842.39 489.042 788.828C491.69 782.457 493.649 775.976 495 769.439C496.351 775.948 498.31 782.43 500.958 788.828C523.133 842.39 583.811 868.343 637.65 847.933C622.122 874.852 602.87 900.198 579.84 923.2ZM641.732 840.707C641.732 840.707 641.594 840.955 641.539 841.066C640.932 842.141 640.325 843.244 639.719 844.32C638.505 843.989 637.291 843.631 636.105 843.3C635.995 843.272 635.857 843.244 635.747 843.189C584.363 828.158 537.723 802.067 498.53 767.674C539.351 765.826 571.869 732.178 571.869 690.89C571.869 686.284 571.4 681.816 570.6 677.458C573.11 681.099 575.951 684.602 579.205 687.856C608.386 717.036 655.192 717.753 685.338 690.173C681.973 742.245 667.438 793.71 641.704 840.707H641.732ZM857.803 737.804C857.803 774.183 852.425 809.293 842.468 842.445C809.343 852.401 774.205 857.779 737.825 857.779C705.279 857.779 673.726 853.477 643.718 845.423C696.232 821.787 720.78 760.531 698.577 706.997C695.929 700.626 692.73 694.641 689.089 689.097C694.66 692.766 700.618 695.937 706.989 698.585C760.552 720.76 821.81 696.213 845.419 643.728C853.473 673.735 857.776 705.287 857.776 737.832L857.803 737.804ZM923.226 579.824C900.223 602.826 874.876 622.104 847.957 637.632C868.367 583.795 842.413 523.118 788.85 500.944C782.479 498.296 775.997 496.338 769.461 494.986C775.97 493.635 782.451 491.677 788.85 489.029C842.413 466.854 868.367 406.177 847.957 352.34C874.876 367.868 900.223 387.119 923.226 410.149C948.959 435.881 969.976 464.51 986.359 494.986C969.976 525.463 948.959 554.091 923.226 579.824Z" fill="var(--fill-0, #FDF7E6)"/>
</svg>
