<svg width="1440" height="1420" viewBox="0 0 1440 1420" fill="none" xmlns="http://www.w3.org/2000/svg">
<rect width="1440" height="1420" fill="#FAFAFA"/>
<g id="&#231;&#164;&#190;&#230;&#156;&#131;&#232;&#161;&#140;&#229;&#139;&#149;">
<rect width="3971" height="11312" transform="translate(-834 -3301.33)" fill="black" fill-opacity="0.7"/>
<g id="&#231;&#164;&#190;&#230;&#156;&#131;&#232;&#161;&#140;&#229;&#139;&#149;_1440px">
<rect width="1440" height="6841" transform="translate(0 -2353.33)" fill="white"/>
<g id="section-peace">
<rect width="1440" height="1414.71" transform="translate(0 4.71289)" fill="white"/>
<g id="bg" opacity="0.4" clip-path="url(#clip0_47214_20484)">
<path id="Vector" d="M2062.21 491.773C2146.89 399.602 2144.55 256.186 2055.2 166.838C1965.85 77.4898 1822.43 75.1525 1730.26 159.826C1724.96 34.7561 1621.9 -65 1495.5 -65C1369.15 -65 1266.08 34.7561 1260.79 159.826C1168.62 75.1525 1025.2 77.4898 935.845 166.838C846.494 256.186 844.156 399.602 928.832 491.773C803.759 497.065 704 600.129 704 726.478C704 852.827 803.759 955.891 928.832 961.227C844.156 1053.4 846.494 1196.81 935.845 1286.16C1025.2 1375.51 1168.62 1377.85 1260.79 1293.17C1266.08 1418.24 1369.15 1518 1495.5 1518C1621.85 1518 1724.92 1418.24 1730.21 1293.17C1822.38 1377.85 1965.8 1375.51 2055.16 1286.16C2144.51 1196.81 2146.84 1053.4 2062.17 961.227C2187.24 955.935 2287 852.871 2287 726.522C2287 600.173 2187.24 497.109 2062.17 491.773H2062.21ZM1883.77 146.419C1941.95 146.419 1998.09 155.019 2051.1 170.94C2067.02 223.905 2075.62 280.089 2075.62 338.258C2075.62 390.297 2068.74 440.749 2055.86 488.73C2018.07 404.762 1920.11 365.512 1834.51 401.014C1824.32 405.247 1814.76 410.363 1805.89 416.184C1811.76 407.276 1816.83 397.75 1821.06 387.563C1856.52 301.919 1817.27 203.971 1733.34 166.221C1781.33 153.343 1831.78 146.464 1883.82 146.464L1883.77 146.419ZM1803.95 861.118C1798.75 855.914 1793.14 851.372 1787.32 847.358C1794.29 848.637 1801.48 849.387 1808.8 849.387C1874.78 849.387 1928.63 797.392 1931.58 732.123C1986.58 794.746 2028.3 869.365 2052.33 951.525C2052.38 951.701 2052.42 951.922 2052.51 952.098C2053.08 954.038 2053.61 955.935 2054.14 957.875C2052.42 958.845 2050.66 959.815 2048.89 960.786C2048.72 960.874 2048.54 961.006 2048.36 961.094C1973.21 1002.2 1890.92 1025.48 1807.65 1030.86C1851.76 982.66 1850.61 907.821 1803.95 861.162V861.118ZM1183.39 1030.82C1100.12 1025.44 1017.83 1002.2 942.68 961.05C942.504 960.962 942.328 960.83 942.151 960.742C940.387 959.771 938.667 958.801 936.903 957.831C937.432 955.935 937.962 953.994 938.535 952.098C938.579 951.877 938.667 951.701 938.711 951.48C962.747 869.321 1004.47 794.746 1059.46 732.079C1062.42 797.348 1116.22 849.343 1182.24 849.343C1189.61 849.343 1196.75 848.593 1203.72 847.314C1197.9 851.327 1192.3 855.87 1187.09 861.074C1140.43 907.732 1139.29 982.572 1183.39 1030.77V1030.82ZM1187.09 591.882C1192.3 597.086 1197.9 601.628 1203.72 605.642C1196.75 604.363 1189.56 603.613 1182.24 603.613C1116.27 603.613 1062.42 655.608 1059.46 720.877C1004.47 658.254 962.747 583.635 938.711 501.519C938.667 501.299 938.579 501.078 938.535 500.858C937.962 498.962 937.432 497.065 936.903 495.125C938.623 494.155 940.387 493.184 942.151 492.214C942.328 492.126 942.504 491.994 942.68 491.906C1017.83 450.804 1100.12 427.518 1183.39 422.138C1139.29 470.34 1140.43 545.179 1187.09 591.838V591.882ZM1734.36 731.417C1729.15 729.256 1723.9 727.669 1718.61 726.566C1723.9 725.464 1729.2 723.876 1734.36 721.715C1777.93 703.678 1799.01 654.285 1782.34 610.537C1836.41 641.363 1884.97 680.613 1926.38 726.522C1885.01 772.387 1836.45 811.637 1782.43 842.463C1798.97 798.715 1777.89 749.454 1734.4 731.417H1734.36ZM1652.28 794.966C1649.64 792.32 1646.81 790.027 1643.82 787.955C1647.34 788.616 1651 788.969 1654.75 788.969C1688.27 788.969 1715.66 762.552 1717.16 729.389C1745.82 762.023 1767.39 801.097 1779.43 844.095C1740.44 866.013 1697.58 878.361 1654.14 881.184C1676.54 856.664 1675.97 818.649 1652.24 794.922L1652.28 794.966ZM1336.91 881.228C1293.51 878.449 1250.6 866.057 1211.61 844.139C1223.65 801.141 1245.22 762.067 1273.89 729.433C1275.39 762.596 1302.73 789.013 1336.29 789.013C1340.04 789.013 1343.66 788.616 1347.23 787.999C1344.27 790.027 1341.41 792.365 1338.76 795.011C1315.03 818.737 1314.46 856.752 1336.86 881.272L1336.91 881.228ZM1208.7 842.463C1154.64 811.637 1106.08 772.387 1064.67 726.478C1106.08 680.569 1154.68 641.275 1208.75 610.493C1192.03 654.285 1213.16 703.678 1256.73 721.715C1261.94 723.876 1267.18 725.464 1272.48 726.566C1267.18 727.669 1261.89 729.256 1256.73 731.417C1213.2 749.454 1192.12 798.759 1208.7 842.463ZM1338.81 658.166C1341.45 660.812 1344.27 663.105 1347.27 665.178C1343.74 664.516 1340.08 664.163 1336.34 664.163C1302.82 664.163 1275.43 690.58 1273.93 723.744C1245.26 691.109 1223.7 652.036 1211.66 609.037C1250.65 587.119 1293.51 574.771 1336.95 571.948C1314.55 596.469 1315.12 634.484 1338.85 658.21L1338.81 658.166ZM1654.18 571.904C1697.58 574.727 1740.49 587.075 1779.47 608.993C1767.43 651.992 1745.87 691.065 1717.2 723.7C1715.7 690.536 1688.36 664.119 1654.8 664.119C1651.05 664.119 1647.43 664.516 1643.86 665.134C1646.81 663.105 1649.68 660.768 1652.33 658.122C1676.05 634.395 1676.63 596.38 1654.22 571.86L1654.18 571.904ZM1616.96 729.036C1614.31 727.933 1611.62 727.139 1608.93 726.566C1611.62 725.993 1614.31 725.199 1616.96 724.096C1639.1 714.923 1649.81 689.874 1641.39 667.647C1668.82 683.303 1693.52 703.237 1714.55 726.566C1693.52 749.896 1668.87 769.829 1641.39 785.485C1649.81 763.258 1639.1 738.209 1616.96 729.036ZM1575.24 761.362C1573.91 760.039 1572.46 758.848 1570.96 757.79C1572.77 758.098 1574.62 758.319 1576.52 758.319C1593.58 758.319 1607.48 744.868 1608.22 728.021C1622.82 744.603 1633.76 764.493 1639.89 786.323C1620.09 797.48 1598.26 803.743 1576.21 805.198C1587.59 792.717 1587.32 773.401 1575.24 761.362ZM1414.93 805.198C1392.87 803.787 1371.04 797.48 1351.24 786.323C1357.37 764.449 1368.31 744.603 1382.91 728.021C1383.66 744.868 1397.59 758.319 1414.62 758.319C1416.51 758.319 1418.37 758.142 1420.17 757.79C1418.67 758.848 1417.22 759.995 1415.9 761.362C1403.86 773.401 1403.55 792.762 1414.93 805.198ZM1349.74 785.485C1322.31 769.829 1297.61 749.896 1276.58 726.566C1297.61 703.237 1322.27 683.303 1349.74 667.647C1341.32 689.874 1352.04 714.923 1374.18 724.096C1376.82 725.199 1379.51 725.993 1382.2 726.566C1379.51 727.139 1376.82 727.933 1374.18 729.036C1352.04 738.209 1341.32 763.258 1349.74 785.485ZM1415.85 691.771C1417.17 693.094 1418.63 694.284 1420.13 695.343C1418.32 695.034 1416.47 694.813 1414.57 694.813C1397.51 694.813 1383.61 708.264 1382.86 725.111C1368.27 708.529 1357.33 688.639 1351.2 666.81C1371 655.652 1392.83 649.39 1414.88 647.934C1403.5 660.415 1403.77 679.731 1415.85 691.771ZM1576.16 647.934C1598.21 649.346 1620.04 655.652 1639.85 666.81C1633.72 688.684 1622.78 708.529 1608.18 725.111C1607.43 708.264 1593.49 694.813 1576.47 694.813C1574.58 694.813 1572.72 694.99 1570.91 695.343C1572.41 694.284 1573.87 693.138 1575.19 691.771C1587.23 679.731 1587.54 660.371 1576.16 647.934ZM1535.59 766.566C1535.59 766.566 1535.59 766.698 1535.59 766.786C1534.97 778.252 1531.75 789.586 1525.97 799.906C1514.6 796.731 1504.32 790.953 1495.76 783.28C1495.72 783.236 1495.68 783.192 1495.59 783.148C1495.54 783.192 1495.5 783.236 1495.41 783.28C1486.86 790.953 1476.58 796.686 1465.2 799.906C1459.42 789.63 1456.2 778.252 1455.59 766.786C1455.59 766.698 1455.59 766.654 1455.59 766.566C1455.5 766.566 1455.46 766.566 1455.37 766.566C1443.9 765.948 1432.57 762.729 1422.25 756.952C1425.42 745.574 1431.2 735.298 1438.87 726.743C1438.92 726.698 1438.96 726.654 1439.01 726.566C1438.96 726.522 1438.92 726.478 1438.87 726.39C1431.2 717.834 1425.47 707.559 1422.25 696.181C1432.52 690.403 1443.9 687.184 1455.37 686.567C1455.46 686.567 1455.5 686.567 1455.59 686.567C1455.59 686.478 1455.59 686.434 1455.59 686.346C1456.2 674.88 1459.42 663.546 1465.2 653.226C1476.58 656.402 1486.86 662.179 1495.41 669.852C1495.46 669.896 1495.5 669.941 1495.59 669.985C1495.63 669.941 1495.68 669.896 1495.76 669.852C1504.32 662.179 1514.6 656.446 1525.97 653.226C1531.75 663.502 1534.97 674.88 1535.59 686.346C1535.59 686.434 1535.59 686.478 1535.59 686.567C1535.68 686.567 1535.72 686.567 1535.81 686.567C1547.28 687.184 1558.61 690.403 1568.93 696.181C1565.75 707.559 1559.98 717.834 1552.3 726.39C1552.26 726.434 1552.22 726.478 1552.17 726.566C1552.22 726.61 1552.26 726.654 1552.3 726.743C1559.98 735.298 1565.71 745.574 1568.93 756.952C1558.65 762.729 1547.28 765.948 1535.81 766.566C1535.72 766.566 1535.68 766.566 1535.59 766.566ZM1433.85 725.331C1435.17 725.905 1436.54 726.302 1437.95 726.566C1436.58 726.831 1435.21 727.272 1433.85 727.801C1422.6 732.476 1417.17 745.177 1421.45 756.511C1407.52 748.572 1394.95 738.429 1384.27 726.566C1394.95 714.703 1407.52 704.56 1421.45 696.622C1417.17 707.911 1422.6 720.657 1433.85 725.331ZM1557.24 727.801C1555.92 727.228 1554.55 726.831 1553.14 726.566C1554.51 726.302 1555.88 725.86 1557.24 725.331C1568.49 720.657 1573.91 707.956 1569.64 696.622C1583.57 704.56 1596.14 714.703 1606.81 726.566C1596.14 738.429 1583.57 748.572 1569.64 756.511C1573.91 745.221 1568.49 732.476 1557.24 727.801ZM1569.15 695.343C1564.17 684.318 1551.33 679.158 1540.09 683.832C1538.76 684.406 1537.49 685.067 1536.29 685.817C1537.04 684.626 1537.75 683.391 1538.28 682.024C1542.95 670.779 1537.79 657.945 1526.77 652.962C1542.25 648.728 1558.3 647.008 1574.22 647.846C1575.06 663.767 1573.34 679.819 1569.11 695.343H1569.15ZM1496.78 664.869C1496.21 666.192 1495.81 667.559 1495.54 668.97C1495.28 667.603 1494.84 666.236 1494.31 664.869C1489.63 653.623 1476.93 648.199 1465.6 652.477C1473.54 638.541 1483.68 625.972 1495.54 615.3C1507.41 625.972 1517.55 638.541 1525.49 652.477C1514.2 648.199 1501.45 653.623 1496.78 664.869ZM1452.81 682.024C1453.38 683.347 1454.04 684.626 1454.79 685.817C1453.6 685.067 1452.37 684.362 1451.05 683.832C1439.8 679.158 1426.97 684.318 1421.98 695.343C1417.75 679.863 1416.03 663.811 1416.87 647.89C1432.79 647.052 1448.84 648.772 1464.32 653.006C1453.29 657.989 1448.13 670.823 1452.81 682.068V682.024ZM1421.94 757.79C1426.92 768.815 1439.75 773.974 1451 769.3C1452.32 768.727 1453.6 768.065 1454.75 767.315C1454 768.506 1453.29 769.741 1452.77 771.064C1448.09 782.31 1453.25 795.143 1464.28 800.126C1448.8 804.36 1432.74 806.08 1416.82 805.242C1415.98 789.322 1417.7 773.269 1421.94 757.79ZM1494.31 788.263C1494.88 786.94 1495.28 785.573 1495.54 784.162C1495.81 785.529 1496.25 786.896 1496.78 788.263C1501.45 799.509 1514.16 804.933 1525.49 800.656C1517.55 814.591 1507.41 827.16 1495.54 837.833C1483.68 827.16 1473.54 814.591 1465.6 800.656C1476.89 804.933 1489.63 799.509 1494.31 788.263ZM1538.28 771.064C1537.71 769.741 1537.04 768.462 1536.29 767.315C1537.49 768.065 1538.72 768.771 1540.09 769.3C1551.33 773.974 1564.17 768.815 1569.15 757.79C1573.38 773.269 1575.1 789.322 1574.27 805.286C1558.35 806.124 1542.29 804.404 1526.81 800.17C1537.84 795.187 1543 782.354 1538.32 771.108L1538.28 771.064ZM1640.29 665.09C1630.54 643.392 1605.23 633.293 1583.09 642.422C1580.44 643.524 1577.97 644.847 1575.68 646.347C1577.18 644.053 1578.5 641.584 1579.6 638.938C1588.78 616.799 1578.63 591.529 1556.93 581.739C1587.41 573.404 1618.94 570.052 1650.3 571.684C1651.93 603.04 1648.58 634.572 1640.24 665.045L1640.29 665.09ZM1574.18 645.95C1561.7 634.528 1542.38 634.836 1530.34 646.92C1529.02 648.243 1527.83 649.698 1526.77 651.198C1527.08 649.39 1527.3 647.537 1527.3 645.641C1527.3 628.574 1513.85 614.682 1497 613.933C1513.58 599.335 1533.47 588.398 1555.3 582.268C1566.46 602.069 1572.72 623.899 1574.18 645.95ZM1498.01 605.156C1496.91 607.802 1496.12 610.493 1495.54 613.183C1494.97 610.493 1494.18 607.802 1493.07 605.156C1483.9 583.018 1458.85 572.301 1436.62 580.725C1452.28 553.294 1472.21 528.597 1495.54 507.561C1518.87 528.597 1538.81 553.25 1554.46 580.725C1532.24 572.301 1507.19 583.018 1498.01 605.156ZM1494.09 613.933C1477.24 614.682 1463.79 628.618 1463.79 645.641C1463.79 647.537 1463.97 649.39 1464.32 651.198C1463.26 649.698 1462.11 648.243 1460.75 646.92C1448.71 634.88 1429.35 634.572 1416.91 645.95C1418.32 623.899 1424.63 602.069 1435.74 582.268C1457.62 588.398 1477.46 599.335 1494.04 613.933H1494.09ZM1411.44 638.982C1412.54 641.628 1413.87 644.098 1415.37 646.391C1413.07 644.891 1410.6 643.568 1407.96 642.466C1385.82 633.293 1360.55 643.436 1350.76 665.134C1342.42 634.66 1339.07 603.128 1340.7 571.772C1372.06 570.14 1403.59 573.492 1434.07 581.827C1412.37 591.573 1402.27 616.887 1411.4 639.026L1411.44 638.982ZM1350.8 787.999C1360.55 809.696 1385.86 819.795 1408 810.666C1410.65 809.564 1413.12 808.241 1415.41 806.741C1413.91 809.035 1412.59 811.504 1411.49 814.15C1402.31 836.289 1412.46 861.559 1434.15 871.349C1403.68 879.684 1372.15 883.036 1340.79 881.404C1339.16 850.049 1342.51 818.516 1350.85 788.043L1350.8 787.999ZM1416.91 807.182C1429.35 818.561 1448.71 818.296 1460.75 806.212C1462.07 804.889 1463.26 803.434 1464.32 801.934C1464.01 803.743 1463.79 805.595 1463.79 807.491C1463.79 824.558 1477.24 838.45 1494.09 839.2C1477.51 853.797 1457.62 864.734 1435.79 870.864C1424.63 851.063 1418.37 829.233 1416.91 807.182ZM1493.07 847.976C1494.18 845.33 1494.97 842.64 1495.54 839.949C1496.12 842.64 1496.91 845.33 1498.01 847.976C1507.19 870.114 1532.24 880.831 1554.46 872.408C1538.81 899.838 1518.87 924.535 1495.54 945.571C1472.21 924.535 1452.28 899.882 1436.62 872.408C1458.85 880.831 1483.9 870.114 1493.07 847.976ZM1497 839.2C1513.85 838.45 1527.3 824.514 1527.3 807.491C1527.3 805.595 1527.12 803.743 1526.77 801.934C1527.83 803.434 1528.97 804.889 1530.34 806.212C1542.38 818.252 1561.74 818.561 1574.18 807.182C1572.77 829.233 1566.46 851.063 1555.3 870.864C1533.43 864.734 1513.58 853.797 1497 839.2ZM1579.65 814.15C1578.54 811.504 1577.22 809.035 1575.72 806.741C1578.02 808.241 1580.48 809.564 1583.13 810.666C1605.27 819.839 1630.54 809.696 1640.33 787.999C1648.67 818.472 1652.02 850.004 1650.39 881.36C1619.03 882.992 1587.5 879.64 1557.02 871.305C1578.72 861.559 1588.82 836.245 1579.69 814.106L1579.65 814.15ZM1780.31 605.686C1761.13 563.04 1711.34 543.062 1667.81 561.1C1662.6 563.261 1657.75 565.863 1653.25 568.817C1656.21 564.275 1658.81 559.424 1660.97 554.264C1679.01 510.692 1658.99 460.859 1616.25 441.675C1676.27 425.225 1738.41 418.61 1800.16 421.829C1803.33 483.57 1796.76 545.664 1780.31 605.686ZM1650.21 567.935C1625.69 545.532 1587.67 546.105 1563.95 569.832C1561.3 572.478 1559.01 575.3 1556.93 578.299C1557.6 574.771 1557.95 571.111 1557.95 567.362C1557.95 533.845 1531.53 506.459 1498.37 504.959C1531 476.294 1570.08 454.729 1613.08 442.689C1634.99 481.674 1647.34 524.54 1650.17 567.979L1650.21 567.935ZM1500.4 487.76C1498.23 492.964 1496.65 498.212 1495.54 503.504C1494.44 498.212 1492.85 492.92 1490.69 487.76C1472.66 444.188 1423.26 423.108 1379.47 439.778C1410.29 385.667 1449.55 337.067 1495.5 295.657C1541.41 337.067 1580.71 385.667 1611.49 439.734C1567.74 423.108 1518.39 444.188 1500.35 487.716L1500.4 487.76ZM1492.68 504.959C1459.51 506.459 1433.1 533.801 1433.1 567.362C1433.1 571.111 1433.49 574.727 1434.11 578.299C1432.08 575.344 1429.74 572.478 1427.1 569.832C1403.37 546.105 1365.35 545.532 1340.83 567.935C1343.66 524.54 1356.01 481.63 1377.92 442.645C1420.92 454.684 1460 476.25 1492.63 504.915L1492.68 504.959ZM1330.12 554.264C1332.28 559.468 1334.88 564.319 1337.84 568.817C1333.29 565.819 1328.44 563.217 1323.28 561.1C1279.75 543.062 1229.92 563.04 1210.73 605.73C1194.28 545.709 1187.67 483.57 1190.89 421.829C1252.63 418.654 1314.81 425.225 1374.84 441.675C1332.06 460.814 1312.08 510.648 1330.12 554.22V554.264ZM1210.69 847.314C1229.87 890.048 1279.66 910.07 1323.24 892.032C1328.44 889.872 1333.29 887.27 1337.79 884.315C1334.79 888.857 1332.19 893.708 1330.07 898.868C1312.04 942.396 1331.97 992.141 1374.62 1011.33C1314.64 1027.73 1252.54 1034.35 1190.84 1031.13C1187.67 969.385 1194.24 907.291 1210.69 847.314ZM1340.88 885.153C1365.4 907.556 1403.41 906.983 1427.14 883.256C1429.79 880.61 1432.08 877.788 1434.15 874.789C1433.49 878.317 1433.14 881.977 1433.14 885.726C1433.14 919.243 1459.56 946.629 1492.72 948.129C1460.09 976.794 1421.01 998.36 1378.01 1010.4C1356.09 971.414 1343.74 928.548 1340.92 885.109L1340.88 885.153ZM1490.69 965.372C1492.85 960.168 1494.44 954.92 1495.54 949.628C1496.65 954.92 1498.23 960.212 1500.4 965.372C1518.43 1008.9 1567.7 1029.98 1611.44 1013.4C1580.62 1067.42 1541.41 1115.98 1495.54 1157.34C1449.68 1115.98 1410.43 1067.42 1379.6 1013.4C1423.35 1030.02 1472.7 1008.94 1490.74 965.372H1490.69ZM1498.41 948.173C1531.58 946.673 1557.99 919.331 1557.99 885.77C1557.99 882.022 1557.6 878.405 1556.98 874.833C1559.01 877.788 1561.34 880.654 1563.99 883.301C1587.72 907.027 1625.73 907.6 1650.25 885.197C1647.48 928.592 1635.08 971.502 1613.16 1010.49C1570.16 998.448 1531.09 976.882 1498.45 948.217L1498.41 948.173ZM1660.97 898.824C1658.81 893.62 1656.21 888.769 1653.25 884.271C1657.8 887.225 1662.65 889.827 1667.81 891.988C1711.34 910.026 1761.13 890.048 1780.31 847.358C1796.72 907.336 1803.33 969.429 1800.11 1031.13C1738.41 1034.3 1676.36 1027.73 1616.38 1011.33C1659.03 992.097 1678.96 942.352 1660.93 898.824H1660.97ZM1808.8 603.613C1801.44 603.613 1794.29 604.363 1787.32 605.642C1793.14 601.628 1798.75 597.086 1803.95 591.882C1850.61 545.223 1851.76 470.384 1807.65 422.182C1890.92 427.562 1973.21 450.848 2048.36 491.95C2048.54 492.038 2048.72 492.17 2048.89 492.258C2050.66 493.229 2052.38 494.199 2054.14 495.169C2053.61 497.109 2053.04 499.006 2052.51 500.946C2052.46 501.123 2052.38 501.343 2052.33 501.519C2028.3 583.679 1986.58 658.254 1931.58 720.921C1928.63 655.652 1874.82 603.657 1808.8 603.657V603.613ZM1729.81 173.145C1729.81 173.145 1730.03 173.497 1730.12 173.674C1771.23 248.822 1794.51 331.114 1799.89 414.376C1751.69 370.275 1676.85 371.422 1630.19 418.081C1624.98 423.285 1620.44 428.885 1616.43 434.707C1617.71 427.739 1618.46 420.55 1618.46 413.23C1618.46 347.255 1566.46 293.408 1501.19 290.453C1563.81 235.459 1638.43 193.74 1720.6 169.705C1720.77 169.661 1720.99 169.617 1721.17 169.528C1723.11 168.955 1725.01 168.426 1726.95 167.897C1727.92 169.617 1728.89 171.381 1729.86 173.145H1729.81ZM1359.84 41.7682C1400.99 0.622055 1446.77 -32.9828 1495.5 -59.1787C1544.23 -32.9828 1590.01 0.622055 1631.16 41.7682C1667.94 78.5483 1698.77 119.077 1723.6 162.119C1637.51 129.485 1540.48 170.984 1505.03 256.627C1500.79 266.815 1497.66 277.178 1495.5 287.63C1493.34 277.223 1490.21 266.859 1485.97 256.627C1450.52 170.984 1353.49 129.485 1267.4 162.119C1292.23 119.077 1323.02 78.5483 1359.84 41.7682ZM1260.92 173.718C1260.92 173.718 1261.14 173.365 1261.23 173.189C1262.2 171.425 1263.17 169.705 1264.14 167.941C1266.08 168.47 1267.98 169.043 1269.92 169.572C1270.09 169.617 1270.31 169.705 1270.49 169.749C1352.65 193.784 1427.23 235.503 1489.9 290.497C1424.63 293.452 1372.63 347.255 1372.63 413.274C1372.63 420.639 1373.38 427.783 1374.66 434.751C1370.65 428.929 1366.1 423.329 1360.9 418.125C1314.24 371.466 1239.4 370.319 1191.2 414.42C1196.58 331.158 1219.82 248.866 1260.97 173.718H1260.92ZM915.425 338.258C915.425 280.089 924.025 223.949 939.946 170.94C992.913 155.019 1049.1 146.419 1107.27 146.419C1159.31 146.419 1209.76 153.299 1257.75 166.177C1173.78 203.971 1134.52 301.919 1170.03 387.519C1174.26 397.706 1179.38 407.276 1185.2 416.14C1176.29 410.275 1166.76 405.203 1156.58 400.97C1070.93 365.512 972.979 404.762 935.227 488.686C922.349 440.704 915.469 390.253 915.469 338.214L915.425 338.258ZM810.771 862.132C769.624 820.986 736.018 775.209 709.821 726.478C736.018 677.746 769.624 631.97 810.771 590.824C847.552 554.044 888.082 523.217 931.126 498.388C898.49 584.473 939.99 681.495 1025.64 716.952C1035.82 721.186 1046.19 724.317 1056.64 726.478C1046.23 728.639 1035.87 731.77 1025.64 736.004C939.99 771.461 898.49 868.483 931.126 954.568C888.082 929.739 847.552 898.956 810.771 862.132ZM1107.27 1306.58C1049.1 1306.58 992.957 1297.98 939.946 1282.06C924.025 1229.1 915.425 1172.91 915.425 1114.74C915.425 1062.7 922.305 1012.25 935.183 964.27C972.979 1048.24 1070.93 1087.49 1156.53 1051.99C1166.72 1047.75 1176.29 1042.64 1185.15 1036.82C1179.29 1045.72 1174.22 1055.25 1169.98 1065.44C1134.52 1151.08 1173.78 1249.03 1257.7 1286.78C1209.72 1299.66 1159.27 1306.54 1107.23 1306.54L1107.27 1306.58ZM1261.23 1279.86C1261.23 1279.86 1261.01 1279.46 1260.92 1279.28C1219.82 1204.13 1196.53 1121.84 1191.15 1038.58C1239.36 1082.68 1314.2 1081.53 1360.86 1034.88C1366.06 1029.67 1370.6 1024.07 1374.62 1018.25C1373.34 1025.22 1372.59 1032.41 1372.59 1039.73C1372.59 1105.7 1424.58 1159.55 1489.85 1162.5C1427.23 1217.5 1352.61 1259.22 1270.45 1283.25C1270.27 1283.3 1270.05 1283.38 1269.87 1283.43C1267.93 1284 1266.04 1284.53 1264.1 1285.06C1263.13 1283.34 1262.16 1281.58 1261.19 1279.86H1261.23ZM1631.16 1411.19C1590.01 1452.33 1544.23 1485.94 1495.5 1512.13C1446.77 1485.94 1400.99 1452.33 1359.84 1411.19C1323.06 1374.41 1292.23 1333.88 1267.4 1290.84C1353.49 1323.47 1450.52 1281.97 1485.97 1196.33C1490.21 1186.14 1493.34 1175.78 1495.5 1165.33C1497.66 1175.73 1500.79 1186.1 1505.03 1196.33C1540.48 1281.97 1637.51 1323.47 1723.6 1290.84C1698.77 1333.88 1667.98 1374.41 1631.16 1411.19ZM1730.12 1279.28C1730.12 1279.28 1729.9 1279.68 1729.81 1279.86C1728.84 1281.58 1727.87 1283.34 1726.9 1285.06C1724.96 1284.53 1723.02 1283.96 1721.13 1283.43C1720.95 1283.38 1720.73 1283.34 1720.55 1283.25C1638.39 1259.22 1563.81 1217.5 1501.15 1162.5C1566.42 1159.55 1618.41 1105.75 1618.41 1039.73C1618.41 1032.36 1617.66 1025.22 1616.38 1018.25C1620.4 1024.07 1624.94 1029.67 1630.14 1034.88C1676.8 1081.53 1751.64 1082.68 1799.85 1038.58C1794.47 1121.84 1771.23 1204.13 1730.08 1279.28H1730.12ZM2075.62 1114.74C2075.62 1172.91 2067.02 1229.05 2051.1 1282.06C1998.13 1297.98 1941.95 1306.58 1883.77 1306.58C1831.73 1306.58 1781.28 1299.7 1733.3 1286.82C1817.27 1249.03 1856.52 1151.08 1821.02 1065.48C1816.78 1055.29 1811.67 1045.72 1805.85 1036.86C1814.75 1042.73 1824.28 1047.8 1834.47 1052.03C1920.11 1087.49 2018.07 1048.24 2055.82 964.314C2068.69 1012.3 2075.57 1062.75 2075.57 1114.79L2075.62 1114.74ZM2180.23 862.132C2143.45 898.912 2102.92 929.739 2059.87 954.568C2092.51 868.483 2051.01 771.461 1965.36 736.004C1955.18 731.77 1944.81 728.639 1934.36 726.478C1944.77 724.317 1955.13 721.186 1965.36 716.952C2051.01 681.495 2092.51 584.473 2059.87 498.388C2102.92 523.217 2143.45 554 2180.23 590.824C2221.38 631.97 2254.98 677.746 2281.18 726.478C2254.98 775.209 2221.38 820.986 2180.23 862.132Z" fill="#FDF7E6"/>
</g>
</g>
</g>
</g>
<defs>
<clipPath id="clip0_47214_20484">
<rect width="1440" height="1420" fill="white"/>
</clipPath>
</defs>
</svg>
