<svg width="573" height="841" viewBox="0 0 573 841" fill="none" xmlns="http://www.w3.org/2000/svg">
<g clip-path="url(#clip0_48421_10901)">
<path d="M410.266 403.071C471.567 336.345 469.875 232.52 405.19 167.837C340.505 103.154 236.677 101.462 169.949 162.761C166.118 72.2176 91.5038 0 0 0C-91.4718 0 -166.086 72.2176 -169.917 162.761C-236.645 101.462 -340.473 103.154 -405.158 167.837C-469.843 232.52 -471.535 336.345 -410.234 403.071C-500.78 406.903 -573 481.515 -573 572.984C-573 664.453 -500.78 739.065 -410.234 742.929C-471.535 809.655 -469.843 913.48 -405.158 978.163C-340.473 1042.85 -236.645 1044.54 -169.917 983.239C-166.086 1073.78 -91.4718 1146 0 1146C91.4719 1146 166.086 1073.78 169.917 983.239C236.646 1044.54 340.473 1042.85 405.158 978.163C469.843 913.48 471.535 809.655 410.234 742.929C500.78 739.097 573 664.485 573 573.016C573 481.547 500.78 406.935 410.234 403.071H410.266ZM281.088 153.055C323.201 153.055 363.844 159.281 402.221 170.807C413.746 209.15 419.972 249.824 419.972 291.935C419.972 329.609 414.992 366.133 405.669 400.869C378.307 340.081 307.396 311.666 245.425 337.367C238.05 340.432 231.122 344.135 224.705 348.35C228.951 341.9 232.623 335.004 235.688 327.629C261.357 265.628 232.942 194.719 172.184 167.39C206.921 158.068 243.446 153.087 281.12 153.087L281.088 153.055ZM223.3 670.456C219.532 666.688 215.478 663.4 211.263 660.494C216.308 661.42 221.512 661.963 226.812 661.963C274.575 661.963 313.558 624.322 315.698 577.071C355.511 622.406 385.714 676.426 403.115 735.905C403.147 736.032 403.178 736.192 403.242 736.32C403.657 737.725 404.041 739.097 404.424 740.502C403.179 741.205 401.901 741.907 400.624 742.609C400.497 742.673 400.369 742.769 400.241 742.833C345.837 772.588 286.26 789.445 225.982 793.34C257.909 758.445 257.079 704.266 223.3 670.487V670.456ZM-225.95 793.308C-286.229 789.413 -345.805 772.588 -400.209 742.801C-400.337 742.737 -400.465 742.641 -400.592 742.577C-401.869 741.875 -403.115 741.173 -404.392 740.47C-404.009 739.097 -403.625 737.693 -403.21 736.32C-403.178 736.16 -403.115 736.032 -403.083 735.873C-385.682 676.394 -355.479 622.406 -315.666 577.039C-313.526 624.29 -274.575 661.931 -226.78 661.931C-221.448 661.931 -216.276 661.388 -211.231 660.463C-215.446 663.368 -219.5 666.656 -223.268 670.424C-257.047 704.202 -257.877 758.381 -225.95 793.277V793.308ZM-223.268 475.544C-219.5 479.312 -215.446 482.6 -211.231 485.506C-216.276 484.58 -221.48 484.037 -226.78 484.037C-274.543 484.037 -313.526 521.678 -315.666 568.929C-355.479 523.594 -385.682 469.574 -403.083 410.127C-403.115 409.968 -403.178 409.808 -403.21 409.648C-403.625 408.275 -404.009 406.903 -404.392 405.498C-403.147 404.795 -401.869 404.093 -400.592 403.391C-400.465 403.327 -400.337 403.231 -400.209 403.167C-345.805 373.412 -286.229 356.555 -225.95 352.66C-257.877 387.555 -257.047 441.734 -223.268 475.513V475.544ZM172.918 576.56C169.151 574.995 165.352 573.846 161.52 573.048C165.352 572.25 169.183 571.1 172.918 569.536C204.463 556.478 219.724 520.72 207.655 489.049C246.798 511.366 281.95 539.781 311.93 573.016C281.982 606.219 246.83 634.634 207.719 656.951C219.692 625.28 204.431 589.618 172.95 576.56H172.918ZM113.502 622.566C111.586 620.65 109.543 618.99 107.372 617.49C109.926 617.968 112.576 618.224 115.29 618.224C139.554 618.224 159.381 599.1 160.467 575.091C181.22 598.717 196.832 627.004 205.548 658.132C177.324 673.999 146.291 682.939 114.843 684.982C131.062 667.231 130.647 639.71 113.47 622.534L113.502 622.566ZM-114.811 685.014C-146.227 683.003 -177.293 674.031 -205.516 658.164C-196.8 627.036 -181.188 598.749 -160.435 575.123C-159.349 599.132 -139.554 618.256 -115.258 618.256C-112.544 618.256 -109.926 617.968 -107.34 617.521C-109.479 618.99 -111.554 620.682 -113.47 622.598C-130.647 639.774 -131.062 667.295 -114.843 685.046L-114.811 685.014ZM-207.623 656.951C-246.766 634.634 -281.918 606.219 -311.898 572.984C-281.918 539.749 -246.734 511.302 -207.592 489.017C-219.692 520.72 -204.399 556.478 -172.855 569.536C-169.087 571.1 -165.288 572.25 -161.457 573.048C-165.288 573.846 -169.119 574.995 -172.855 576.56C-204.367 589.618 -219.628 625.312 -207.623 656.951ZM-113.438 523.53C-111.522 525.445 -109.479 527.106 -107.308 528.606C-109.862 528.127 -112.512 527.872 -115.226 527.872C-139.491 527.872 -159.317 546.996 -160.403 571.005C-181.156 547.379 -196.768 519.092 -205.484 487.964C-177.261 472.096 -146.227 463.157 -114.779 461.114C-130.998 478.865 -130.583 506.385 -113.406 523.562L-113.438 523.53ZM114.875 461.082C146.291 463.125 177.356 472.065 205.58 487.932C196.864 519.06 181.252 547.347 160.499 570.973C159.413 546.964 139.618 527.84 115.322 527.84C112.608 527.84 109.99 528.127 107.404 528.574C109.543 527.106 111.618 525.414 113.534 523.498C130.711 506.322 131.126 478.801 114.907 461.05L114.875 461.082ZM87.9279 574.836C86.0123 574.038 84.0647 573.463 82.1171 573.048C84.0647 572.633 86.0123 572.058 87.9279 571.26C103.955 564.619 111.714 546.485 105.616 530.394C125.474 541.728 143.354 556.159 158.583 573.048C143.354 589.937 125.506 604.368 105.616 615.702C111.714 599.611 103.955 581.476 87.9279 574.836ZM57.7246 598.238C56.7668 597.28 55.7132 596.418 54.6277 595.652C55.9367 595.875 57.2776 596.035 58.6505 596.035C71.0064 596.035 81.0635 586.297 81.6063 574.102C92.1743 586.106 100.092 600.505 104.53 616.308C90.1948 624.386 74.3907 628.919 58.4271 629.973C66.6643 620.938 66.4727 606.954 57.7246 598.238ZM-58.3312 629.973C-74.2949 628.951 -90.099 624.386 -104.434 616.308C-99.9965 600.473 -92.0784 586.106 -81.5105 574.102C-80.9677 586.297 -70.8787 596.035 -58.5547 596.035C-57.1819 596.035 -55.8409 595.907 -54.5319 595.652C-55.6174 596.418 -56.671 597.248 -57.6288 598.238C-66.345 606.954 -66.5685 620.97 -58.3312 629.973ZM-105.52 615.702C-125.379 604.368 -143.258 589.937 -158.487 573.048C-143.258 556.159 -125.411 541.728 -105.52 530.394C-111.618 546.485 -103.86 564.619 -87.8321 571.26C-85.9164 572.058 -83.9689 572.633 -82.0213 573.048C-83.9689 573.463 -85.9164 574.038 -87.8321 574.836C-103.86 581.476 -111.618 599.611 -105.52 615.702ZM-57.6608 547.858C-56.7029 548.816 -55.6494 549.678 -54.5638 550.444C-55.8729 550.221 -57.2138 550.061 -58.5867 550.061C-70.9426 550.061 -80.9997 559.798 -81.5424 571.994C-92.1104 559.99 -100.028 545.591 -104.466 529.788C-90.1309 521.71 -74.3268 517.177 -58.3632 516.123C-66.6004 525.158 -66.4088 539.142 -57.6608 547.858ZM58.3951 516.123C74.3587 517.145 90.1628 521.71 104.498 529.788C100.06 545.623 92.1423 559.99 81.5744 571.994C81.0316 559.798 70.9426 550.061 58.6186 550.061C57.2457 550.061 55.9048 550.189 54.5958 550.444C55.6813 549.678 56.7349 548.848 57.6926 547.858C66.4088 539.142 66.6323 525.126 58.3951 516.123ZM29.022 602.005C29.022 602.005 29.022 602.101 29.022 602.165C28.575 610.466 26.2443 618.671 22.0618 626.142C13.8246 623.843 6.38544 619.661 0.191528 614.105C0.159607 614.073 0.127747 614.041 0.0639038 614.01C0.0319824 614.041 0 614.073 -0.0638428 614.105C-6.25775 619.661 -13.6968 623.811 -21.9341 626.142C-26.1166 618.703 -28.4473 610.466 -28.8943 602.165C-28.8943 602.101 -28.8943 602.069 -28.8943 602.005C-28.9581 602.005 -28.9901 602.005 -29.0539 602.005C-37.355 601.558 -45.5604 599.228 -53.0314 595.045C-50.7326 586.808 -46.5501 579.369 -40.9948 573.176C-40.9628 573.144 -40.9308 573.112 -40.8989 573.048C-40.9308 573.016 -40.9628 572.984 -40.9948 572.92C-46.5501 566.727 -50.7007 559.288 -53.0314 551.051C-45.5923 546.868 -37.355 544.538 -29.0539 544.091C-28.9901 544.091 -28.9581 544.091 -28.8943 544.091C-28.8943 544.027 -28.8943 543.995 -28.8943 543.931C-28.4473 535.63 -26.1166 527.425 -21.9341 519.954C-13.6968 522.253 -6.25775 526.435 -0.0638428 531.99C-0.0319214 532.022 6.10352e-05 532.054 0.0639038 532.086C0.0958252 532.054 0.127686 532.022 0.191528 531.99C6.38544 526.435 13.8246 522.285 22.0618 519.954C26.2443 527.393 28.575 535.63 29.022 543.931C29.022 543.995 29.022 544.027 29.022 544.091C29.0858 544.091 29.1177 544.091 29.1816 544.091C37.4827 544.538 45.688 546.868 53.1591 551.051C50.8603 559.288 46.6778 566.727 41.1224 572.92C41.0905 572.952 41.0586 572.984 41.0267 573.048C41.0586 573.08 41.0905 573.112 41.1224 573.176C46.6778 579.369 50.8284 586.808 53.1591 595.045C45.72 599.228 37.4827 601.558 29.1816 602.005C29.1177 602.005 29.0858 602.005 29.022 602.005ZM-44.6344 572.154C-43.6766 572.569 -42.6869 572.856 -41.6652 573.048C-42.655 573.239 -43.6447 573.559 -44.6344 573.942C-52.7759 577.326 -56.7029 586.521 -53.606 594.726C-63.695 588.979 -72.7943 581.636 -80.5208 573.048C-72.7943 564.46 -63.695 557.117 -53.606 551.37C-56.7029 559.543 -52.7759 568.77 -44.6344 572.154ZM44.6983 573.942C43.7405 573.527 42.7507 573.239 41.729 573.048C42.7188 572.856 43.7086 572.537 44.6983 572.154C52.8397 568.77 56.7668 559.575 53.6699 551.37C63.7589 557.117 72.8582 564.46 80.5846 573.048C72.8582 581.636 63.7589 588.979 53.6699 594.726C56.7668 586.553 52.8397 577.326 44.6983 573.942ZM53.3186 550.444C49.7108 542.462 40.42 538.727 32.2786 542.111C31.3207 542.526 30.3948 543.005 29.5328 543.548C30.0756 542.686 30.5864 541.792 30.9695 540.802C34.3538 532.661 30.6183 523.37 22.6365 519.763C33.843 516.698 45.4645 515.453 56.9903 516.059C57.5969 527.585 56.3517 539.206 53.2867 550.444H53.3186ZM0.925903 528.383C0.510864 529.341 0.223511 530.33 0.0319214 531.352C-0.159607 530.362 -0.478943 529.372 -0.862061 528.383C-4.24634 520.242 -13.4414 516.315 -21.6467 519.411C-15.8998 509.323 -8.55652 500.224 0.0319214 492.497C8.62036 500.224 15.9637 509.323 21.7106 519.411C13.5372 516.315 4.31018 520.242 0.925903 528.383ZM-30.9057 540.802C-30.4907 541.76 -30.0117 542.686 -29.4689 543.548C-30.3309 543.005 -31.2249 542.494 -32.1827 542.111C-40.3242 538.727 -49.6151 542.462 -53.2229 550.444C-56.2879 539.238 -57.5331 527.617 -56.9265 516.091C-45.4007 515.484 -33.7792 516.73 -22.5726 519.795C-30.5545 523.402 -34.29 532.693 -30.9057 540.834V540.802ZM-53.2548 595.652C-49.647 603.633 -40.3561 607.369 -32.2147 603.985C-31.2568 603.57 -30.331 603.091 -29.5009 602.548C-30.0436 603.41 -30.5544 604.304 -30.9376 605.262C-34.3219 613.403 -30.5864 622.694 -22.6046 626.301C-33.8111 629.366 -45.4326 630.611 -56.9584 630.005C-57.565 618.479 -56.3198 606.858 -53.2548 595.652ZM-0.862061 617.713C-0.447021 616.755 -0.159607 615.766 0.0319214 614.744C0.223511 615.734 0.542786 616.723 0.925903 617.713C4.31018 625.854 13.5053 629.781 21.7106 626.684C15.9637 636.773 8.62036 645.872 0.0319214 653.598C-8.55652 645.872 -15.8998 636.773 -21.6467 626.684C-13.4733 629.781 -4.24634 625.854 -0.862061 617.713ZM30.9695 605.262C30.5545 604.304 30.0756 603.378 29.5328 602.548C30.3948 603.091 31.2888 603.602 32.2786 603.985C40.42 607.369 49.7108 603.633 53.3186 595.652C56.3836 606.858 57.6288 618.479 57.0222 630.037C45.4965 630.643 33.8749 629.398 22.6685 626.333C30.6503 622.725 34.3857 613.435 31.0014 605.294L30.9695 605.262ZM104.818 528.542C97.7615 512.835 79.4352 505.523 63.4077 512.132C61.492 512.93 59.7041 513.888 58.0439 514.974C59.1294 513.313 60.0872 511.526 60.8854 509.61C67.5263 493.583 60.183 475.289 44.4748 468.201C66.5366 462.167 89.3646 459.741 112.065 460.922C113.246 483.622 110.82 506.449 104.785 528.51L104.818 528.542ZM56.9584 514.686C47.9229 506.417 33.9387 506.641 25.2225 515.389C24.2647 516.346 23.4027 517.4 22.6365 518.486C22.86 517.177 23.0196 515.836 23.0196 514.463C23.0196 502.107 13.2817 492.05 1.08551 491.508C13.0902 480.94 27.4894 473.022 43.2935 468.585C51.371 482.92 55.9047 498.723 56.9584 514.686ZM1.81982 485.154C1.02167 487.07 0.44696 489.017 0.0319214 490.965C-0.383118 489.017 -0.957825 487.07 -1.75604 485.154C-8.39691 469.127 -26.5316 461.369 -42.623 467.467C-31.2888 447.609 -16.8576 429.73 0.0319214 414.501C16.9215 429.73 31.3526 447.577 42.6868 467.467C26.5955 461.369 8.46069 469.127 1.81982 485.154ZM-1.02167 491.508C-13.2179 492.05 -22.9557 502.139 -22.9557 514.463C-22.9557 515.836 -22.8281 517.177 -22.5726 518.486C-23.3389 517.4 -24.169 516.346 -25.1588 515.389C-33.8749 506.673 -47.8911 506.449 -56.8945 514.686C-55.8729 498.723 -51.3073 482.92 -43.2615 468.585C-27.4256 473.022 -13.0583 480.94 -1.05365 491.508H-1.02167ZM-60.8535 509.642C-60.0553 511.558 -59.0975 513.345 -58.012 515.006C-59.6722 513.92 -61.4602 512.962 -63.3758 512.164C-79.4034 505.523 -97.6977 512.867 -104.786 528.574C-110.82 506.513 -113.246 483.686 -112.065 460.986C-89.3647 459.805 -66.5366 462.231 -44.4748 468.265C-60.183 475.321 -67.4944 493.647 -60.8855 509.674L-60.8535 509.642ZM-104.754 617.521C-97.6976 633.229 -79.3713 640.54 -63.3438 633.932C-61.4282 633.133 -59.6403 632.176 -57.98 631.09C-59.0656 632.75 -60.0234 634.538 -60.8216 636.454C-67.4625 652.481 -60.1192 670.775 -44.4109 677.862C-66.4727 683.897 -89.3008 686.323 -112.001 685.142C-113.182 662.442 -110.756 639.615 -104.722 617.553L-104.754 617.521ZM-56.8945 631.409C-47.8911 639.646 -33.8749 639.455 -25.1588 630.707C-24.2009 629.749 -23.3389 628.696 -22.5726 627.61C-22.7961 628.919 -22.9557 630.26 -22.9557 631.633C-22.9557 643.988 -13.2179 654.045 -1.02167 654.588C-13.0264 665.156 -27.4256 673.073 -43.2296 677.511C-51.3073 663.176 -55.8409 647.373 -56.8945 631.409ZM-1.75604 660.941C-0.957825 659.026 -0.383118 657.078 0.0319214 655.131C0.44696 657.078 1.02167 659.026 1.81982 660.941C8.46069 676.969 26.5955 684.727 42.6868 678.629C31.3526 698.487 16.9215 716.366 0.0319214 731.595C-16.8576 716.366 -31.2888 698.519 -42.623 678.629C-26.5316 684.727 -8.39691 676.969 -1.75604 660.941ZM1.08551 654.588C13.2817 654.045 23.0196 643.957 23.0196 631.633C23.0196 630.26 22.8919 628.919 22.6365 627.61C23.4027 628.696 24.2328 629.749 25.2225 630.707C33.9387 639.423 47.9548 639.646 56.9584 631.409C55.9366 647.373 51.371 663.176 43.2935 677.511C27.4575 673.073 13.0902 665.156 1.08551 654.588ZM60.9174 636.454C60.1192 634.538 59.1614 632.75 58.0759 631.09C59.7361 632.176 61.524 633.133 63.4396 633.932C79.4672 640.572 97.7615 633.229 104.849 617.521C110.884 639.583 113.31 662.41 112.129 685.11C89.4285 686.291 66.6004 683.865 44.5386 677.831C60.2469 670.775 67.5582 652.449 60.9493 636.422L60.9174 636.454ZM206.187 485.537C192.298 454.665 156.252 440.202 124.74 453.26C120.973 454.824 117.461 456.708 114.204 458.847C116.343 455.559 118.227 452.047 119.791 448.311C132.85 416.768 118.355 380.691 87.4171 366.803C130.87 354.894 175.856 350.105 220.554 352.436C222.853 397.133 218.096 442.086 206.187 485.537ZM112.001 458.208C94.2495 441.99 66.7281 442.405 49.5512 459.581C47.6356 461.497 45.9753 463.54 44.4748 465.711C44.9537 463.157 45.2092 460.507 45.2092 457.793C45.2092 433.529 26.0846 413.703 2.07526 412.617C25.7015 391.865 53.9892 376.253 85.1183 367.537C100.986 395.76 109.926 426.793 111.969 458.24L112.001 458.208ZM3.54395 400.166C1.97949 403.933 0.830139 407.733 0.0319214 411.564C-0.766235 407.733 -1.91559 403.902 -3.48004 400.166C-16.5383 368.623 -52.297 353.362 -84.0008 365.43C-61.6836 326.256 -33.2682 291.073 0 261.095C33.2364 291.073 61.6836 326.256 83.9689 365.398C52.297 353.362 16.5703 368.623 3.51202 400.134L3.54395 400.166ZM-2.04333 412.617C-26.0527 413.703 -45.1772 433.497 -45.1772 457.793C-45.1772 460.507 -44.8898 463.125 -44.4428 465.711C-45.9115 463.572 -47.6036 461.497 -49.5193 459.581C-66.6962 442.405 -94.2176 441.99 -111.969 458.208C-109.926 426.793 -100.986 395.728 -85.1183 367.505C-53.9891 376.221 -25.7015 391.833 -2.07526 412.586L-2.04333 412.617ZM-119.728 448.311C-118.163 452.079 -116.279 455.59 -114.14 458.847C-117.429 456.676 -120.941 454.792 -124.676 453.26C-156.189 440.202 -192.266 454.665 -206.155 485.569C-218.064 442.118 -222.853 397.133 -220.522 352.436C-175.824 350.137 -130.806 354.894 -87.3532 366.803C-118.323 380.659 -132.786 416.736 -119.728 448.279V448.311ZM-206.187 660.463C-192.298 691.399 -156.252 705.894 -124.708 692.836C-120.941 691.272 -117.429 689.388 -114.172 687.249C-116.343 690.537 -118.227 694.049 -119.759 697.784C-132.818 729.296 -118.387 765.309 -87.5128 779.197C-130.934 791.074 -175.888 795.863 -220.554 793.532C-222.853 748.835 -218.096 703.883 -206.187 660.463ZM-111.937 687.855C-94.1857 704.074 -66.6643 703.659 -49.4874 686.483C-47.5718 684.567 -45.9115 682.524 -44.4109 680.353C-44.8898 682.907 -45.1453 685.557 -45.1453 688.27C-45.1453 712.535 -26.0208 732.361 -2.01141 733.446C-25.6377 754.199 -53.9253 769.811 -85.0544 778.527C-100.922 750.304 -109.862 719.271 -111.905 687.823L-111.937 687.855ZM-3.48004 745.93C-1.91559 742.162 -0.766235 738.363 0.0319214 734.532C0.830139 738.363 1.97949 742.194 3.54395 745.93C16.6022 777.441 52.265 792.702 83.937 780.698C61.6197 819.807 33.2364 854.959 0.0319214 884.906C-33.1725 854.959 -61.5879 819.807 -83.9051 780.698C-52.2332 792.734 -16.5064 777.473 -3.44812 745.93H-3.48004ZM2.10718 733.478C26.1166 732.393 45.241 712.598 45.241 688.302C45.241 685.589 44.9537 682.971 44.5067 680.385C45.9754 682.524 47.6675 684.599 49.5831 686.515C66.7601 703.691 94.2814 704.106 112.033 687.887C110.022 719.303 101.05 750.367 85.1821 778.59C54.053 769.874 25.7653 754.262 2.1391 733.51L2.10718 733.478ZM119.791 697.753C118.227 693.985 116.343 690.473 114.204 687.217C117.493 689.356 121.005 691.24 124.74 692.804C156.252 705.862 192.298 691.399 206.187 660.494C218.064 703.914 222.853 748.867 220.522 793.532C175.856 795.831 130.934 791.074 87.5128 779.197C118.387 765.277 132.818 729.264 119.759 697.753H119.791ZM226.812 484.037C221.48 484.037 216.308 484.58 211.263 485.506C215.478 482.6 219.532 479.312 223.3 475.544C257.079 441.766 257.909 387.587 225.982 352.691C286.26 356.587 345.837 373.444 400.241 403.199C400.369 403.263 400.497 403.359 400.624 403.423C401.901 404.125 403.147 404.827 404.424 405.53C404.041 406.935 403.625 408.307 403.242 409.712C403.21 409.84 403.147 409.999 403.115 410.127C385.714 469.606 355.511 523.594 315.698 568.961C313.558 521.71 274.607 484.069 226.812 484.069V484.037ZM169.63 172.403C169.63 172.403 169.79 172.658 169.853 172.786C199.61 227.189 216.467 286.763 220.363 347.041C185.466 315.114 131.285 315.944 97.506 349.722C93.7386 353.49 90.4501 357.544 87.5447 361.759C88.4706 356.714 89.0134 351.51 89.0134 346.21C89.0134 298.448 51.3711 259.466 4.11859 257.327C49.4554 217.515 103.477 187.312 162.957 169.913C163.085 169.881 163.245 169.849 163.372 169.785C164.777 169.37 166.15 168.987 167.555 168.604C168.257 169.849 168.959 171.126 169.662 172.403H169.63ZM-98.2085 77.2939C-68.4203 47.5066 -35.2797 23.1786 0 4.21429C35.2797 23.1786 68.4203 47.5066 98.2085 77.2939C124.836 103.921 147.153 133.261 165.128 164.421C102.806 140.796 32.5659 170.838 6.8963 232.84C3.8313 240.215 1.56445 247.717 0 255.284C-1.56445 247.749 -3.8313 240.247 -6.89636 232.84C-32.5659 170.838 -102.806 140.796 -165.128 164.421C-147.153 133.261 -124.868 103.921 -98.2085 77.2939ZM-169.822 172.818C-169.822 172.818 -169.662 172.562 -169.598 172.435C-168.896 171.158 -168.193 169.913 -167.491 168.636C-166.086 169.019 -164.713 169.434 -163.308 169.817C-163.181 169.849 -163.021 169.913 -162.893 169.945C-103.413 187.344 -49.4235 217.547 -4.05481 257.359C-51.3073 259.498 -88.9496 298.448 -88.9496 346.242C-88.9496 351.574 -88.4068 356.746 -87.4809 361.791C-90.3863 357.576 -93.6748 353.522 -97.4423 349.754C-131.221 315.976 -185.402 315.146 -220.299 347.072C-216.404 286.795 -199.578 227.221 -169.79 172.818H-169.822ZM-419.94 291.935C-419.94 249.824 -413.714 209.182 -402.189 170.807C-363.844 159.281 -323.169 153.055 -281.056 153.055C-243.382 153.055 -206.857 158.036 -172.12 167.358C-232.91 194.719 -261.325 265.628 -235.624 327.597C-232.559 334.972 -228.855 341.9 -224.641 348.318C-231.09 344.071 -237.986 340.4 -245.362 337.335C-307.365 311.666 -378.275 340.081 -405.605 400.837C-414.928 366.101 -419.908 329.577 -419.908 291.904L-419.94 291.935ZM-495.704 671.19C-525.492 641.402 -549.821 608.263 -568.786 572.984C-549.821 537.705 -525.492 504.566 -495.704 474.778C-469.076 448.152 -439.735 425.835 -408.574 407.86C-432.2 470.181 -402.157 540.419 -340.154 566.088C-332.779 569.153 -325.276 571.42 -317.709 572.984C-325.244 574.548 -332.747 576.815 -340.154 579.88C-402.157 605.549 -432.2 675.787 -408.574 738.108C-439.735 720.133 -469.076 697.848 -495.704 671.19ZM-281.056 992.945C-323.169 992.945 -363.812 986.719 -402.189 975.194C-413.714 936.85 -419.94 896.176 -419.94 854.065C-419.94 816.391 -414.96 779.867 -405.637 745.131C-378.275 805.919 -307.365 834.334 -245.394 808.633C-238.018 805.568 -231.09 801.865 -224.673 797.651C-228.919 804.1 -232.591 810.996 -235.656 818.371C-261.325 880.372 -232.91 951.28 -172.152 978.609C-206.889 987.932 -243.414 992.913 -281.088 992.913L-281.056 992.945ZM-169.598 973.597C-169.598 973.597 -169.758 973.31 -169.822 973.182C-199.578 918.779 -216.435 859.205 -220.331 798.928C-185.434 830.854 -131.253 830.024 -97.4742 796.246C-93.7068 792.478 -90.4182 788.424 -87.5128 784.209C-88.4388 789.254 -88.9815 794.458 -88.9815 799.758C-88.9815 847.52 -51.3391 886.502 -4.08667 888.641C-49.4235 928.453 -103.445 958.656 -162.925 976.056C-163.053 976.087 -163.213 976.151 -163.34 976.183C-164.745 976.598 -166.118 976.981 -167.523 977.365C-168.225 976.119 -168.928 974.842 -169.63 973.597H-169.598ZM98.2085 1068.67C68.4203 1098.46 35.2797 1122.79 0 1141.75C-35.2797 1122.79 -68.4203 1098.46 -98.2085 1068.67C-124.836 1042.05 -147.153 1012.71 -165.128 981.547C-102.806 1005.17 -32.5659 975.13 -6.89636 913.129C-3.8313 905.754 -1.56445 898.251 0 890.684C1.56445 898.219 3.8313 905.722 6.8963 913.129C32.5659 975.13 102.806 1005.17 165.128 981.547C147.153 1012.71 124.868 1042.05 98.2085 1068.67ZM169.853 973.182C169.853 973.182 169.694 973.469 169.63 973.597C168.928 974.842 168.225 976.119 167.523 977.365C166.118 976.981 164.713 976.566 163.34 976.183C163.213 976.151 163.053 976.119 162.925 976.056C103.445 958.656 49.4554 928.453 4.08667 888.641C51.3392 886.502 88.9814 847.552 88.9814 799.758C88.9814 794.426 88.4387 789.254 87.5128 784.209C90.4182 788.424 93.7067 792.478 97.4741 796.246C131.253 830.024 185.434 830.854 220.331 798.928C216.435 859.205 199.61 918.779 169.822 973.182H169.853ZM419.972 854.065C419.972 896.176 413.746 936.818 402.221 975.194C363.876 986.719 323.201 992.945 281.088 992.945C243.414 992.945 206.889 987.964 172.152 978.642C232.942 951.281 261.357 880.372 235.656 818.403C232.591 811.028 228.887 804.1 224.673 797.682C231.122 801.929 238.018 805.6 245.393 808.665C307.396 834.334 378.307 805.919 405.637 745.163C414.96 779.899 419.94 816.423 419.94 854.096L419.972 854.065ZM495.704 671.19C469.077 697.816 439.735 720.133 408.574 738.108C432.2 675.787 402.157 605.549 340.154 579.88C332.779 576.815 325.276 574.548 317.709 572.984C325.244 571.42 332.747 569.153 340.154 566.088C402.157 540.419 432.2 470.181 408.574 407.86C439.735 425.835 469.077 448.12 495.704 474.778C525.492 504.566 549.821 537.705 568.786 572.984C549.821 608.263 525.492 641.402 495.704 671.19Z" fill="#FDF7E6"/>
</g>
<defs>
<clipPath id="clip0_48421_10901">
<rect width="1440" height="1453" fill="white" transform="translate(0 -612)"/>
</clipPath>
</defs>
</svg>
