<svg preserveAspectRatio="none" width="100%" height="100%" overflow="visible" style="display: block;" viewBox="0 0 1078 1078" fill="none" xmlns="http://www.w3.org/2000/svg">
<path id="Vector" d="M924.922 379.154C982.586 316.388 980.994 218.723 920.147 157.878C859.301 97.0335 761.634 95.4418 698.865 153.103C695.261 67.9325 625.074 0 539 0C452.956 0 382.769 67.9325 379.165 153.103C316.396 95.4418 218.729 97.0335 157.883 157.878C97.0362 218.723 95.4445 316.388 153.108 379.154C67.9344 382.758 0 452.943 0 538.985C0 625.027 67.9344 695.212 153.108 698.846C95.4445 761.613 97.0362 859.277 157.883 920.122C218.729 980.967 316.396 982.558 379.165 924.897C382.769 1010.07 452.956 1078 539 1078C625.044 1078 695.231 1010.07 698.835 924.897C761.604 982.558 859.271 980.967 920.117 920.122C980.964 859.277 982.556 761.613 924.892 698.846C1010.07 695.242 1078 625.057 1078 539.015C1078 452.973 1010.07 382.788 924.892 379.154H924.922ZM803.409 143.974C843.023 143.974 881.255 149.83 917.354 160.671C928.196 196.74 934.052 235.001 934.052 274.613C934.052 310.051 929.367 344.407 920.598 377.082C894.86 319.901 828.156 293.173 769.863 317.349C762.925 320.232 756.408 323.715 750.371 327.68C754.366 321.613 757.82 315.126 760.703 308.189C784.849 249.867 758.12 183.165 700.967 157.458C733.643 148.689 768.001 144.004 803.439 144.004L803.409 143.974ZM749.05 630.673C745.506 627.129 741.692 624.036 737.728 621.303C742.473 622.174 747.368 622.684 752.354 622.684C797.283 622.684 833.953 587.277 835.965 542.829C873.416 585.475 901.827 636.289 918.195 692.238C918.225 692.359 918.255 692.509 918.315 692.629C918.706 693.95 919.066 695.242 919.426 696.563C918.255 697.224 917.054 697.884 915.853 698.545C915.732 698.605 915.612 698.695 915.492 698.755C864.316 726.745 808.275 742.602 751.573 746.266C781.606 713.441 780.825 662.477 749.05 630.703V630.673ZM326.457 746.236C269.755 742.572 213.714 726.745 162.538 698.725C162.418 698.665 162.298 698.575 162.178 698.515C160.976 697.854 159.805 697.194 158.604 696.533C158.964 695.242 159.324 693.92 159.715 692.629C159.745 692.479 159.805 692.359 159.835 692.208C176.203 636.259 204.614 585.475 242.065 542.799C244.077 587.247 280.717 622.654 325.676 622.654C330.692 622.654 335.557 622.144 340.303 621.273C336.338 624.006 332.524 627.099 328.98 630.643C297.205 662.417 296.424 713.381 326.457 746.206V746.236ZM328.98 447.327C332.524 450.871 336.338 453.964 340.303 456.697C335.557 455.826 330.662 455.316 325.676 455.316C280.747 455.316 244.077 490.723 242.065 535.171C204.614 492.525 176.203 441.711 159.835 385.792C159.805 385.641 159.745 385.491 159.715 385.341C159.324 384.05 158.964 382.758 158.604 381.437C159.775 380.776 160.976 380.116 162.178 379.455C162.298 379.395 162.418 379.305 162.538 379.245C213.714 351.255 269.755 335.398 326.457 331.734C296.424 364.559 297.205 415.523 328.98 447.297V447.327ZM701.658 542.349C698.114 540.877 694.54 539.796 690.936 539.045C694.54 538.294 698.144 537.213 701.658 535.742C731.331 523.458 745.686 489.823 734.334 460.031C771.154 481.023 804.22 507.752 832.421 539.015C804.25 570.248 771.184 596.977 734.394 617.969C745.656 588.177 731.301 554.632 701.688 542.349H701.658ZM645.767 585.625C643.965 583.823 642.043 582.261 640.001 580.85C642.403 581.3 644.896 581.54 647.449 581.54C670.274 581.54 688.924 563.551 689.945 540.967C709.467 563.191 724.153 589.799 732.352 619.08C705.803 634.006 676.611 642.415 647.028 644.337C662.285 627.64 661.895 601.752 645.737 585.595L645.767 585.625ZM431.002 644.367C401.449 642.475 372.227 634.036 345.678 619.11C353.877 589.829 368.563 563.221 388.085 540.997C389.106 563.581 407.726 581.57 430.581 581.57C433.134 581.57 435.597 581.3 438.029 580.88C436.017 582.261 434.065 583.853 432.263 585.655C416.105 601.812 415.715 627.7 430.972 644.397L431.002 644.367ZM343.696 617.969C306.876 596.977 273.81 570.248 245.609 538.985C273.81 507.722 306.906 480.963 343.726 460.001C332.344 489.823 346.73 523.458 376.402 535.742C379.946 537.213 383.52 538.294 387.124 539.045C383.52 539.796 379.916 540.877 376.402 542.349C346.76 554.632 332.404 588.208 343.696 617.969ZM432.293 492.465C434.095 494.267 436.017 495.829 438.06 497.24C435.657 496.79 433.164 496.55 430.611 496.55C407.786 496.55 389.136 514.539 388.115 537.123C368.593 514.899 353.907 488.291 345.708 459.01C372.258 444.084 401.449 435.675 431.032 433.753C415.775 450.451 416.166 476.338 432.323 492.495L432.293 492.465ZM647.058 433.723C676.611 435.645 705.833 444.054 732.382 458.98C724.183 488.261 709.497 514.869 689.975 537.093C688.954 514.509 670.334 496.52 647.479 496.52C644.926 496.52 642.463 496.79 640.031 497.21C642.043 495.829 643.995 494.237 645.797 492.435C661.955 476.278 662.345 450.39 647.088 433.693L647.058 433.723ZM621.711 540.727C619.909 539.976 618.077 539.435 616.245 539.045C618.077 538.655 619.909 538.114 621.711 537.363C636.787 531.117 644.085 514.058 638.349 498.922C657.029 509.584 673.848 523.158 688.173 539.045C673.848 554.932 657.059 568.507 638.349 579.168C644.085 564.032 636.787 546.974 621.711 540.727ZM593.299 562.74C592.398 561.839 591.407 561.029 590.386 560.308C591.618 560.518 592.879 560.668 594.17 560.668C605.793 560.668 615.253 551.508 615.764 540.036C625.705 551.328 633.153 564.873 637.328 579.738C623.843 587.337 608.977 591.601 593.96 592.592C601.709 584.093 601.528 570.939 593.299 562.74ZM484.13 592.592C469.114 591.631 454.247 587.337 440.762 579.738C444.937 564.843 452.385 551.328 462.326 540.036C462.837 551.508 472.327 560.668 483.92 560.668C485.211 560.668 486.473 560.548 487.704 560.308C486.683 561.029 485.692 561.809 484.791 562.74C476.592 570.939 476.381 584.123 484.13 592.592ZM439.741 579.168C421.061 568.507 404.243 554.932 389.917 539.045C404.243 523.158 421.031 509.584 439.741 498.922C434.005 514.058 441.303 531.117 456.38 537.363C458.182 538.114 460.014 538.655 461.846 539.045C460.014 539.435 458.182 539.976 456.38 540.727C441.303 546.974 434.005 564.032 439.741 579.168ZM484.761 515.35C485.662 516.251 486.653 517.062 487.674 517.782C486.442 517.572 485.181 517.422 483.89 517.422C472.267 517.422 462.807 526.582 462.296 538.054C452.355 526.762 444.907 513.218 440.732 498.352C454.217 490.754 469.083 486.489 484.1 485.498C476.351 493.997 476.532 507.151 484.761 515.35ZM593.93 485.498C608.947 486.459 623.813 490.754 637.298 498.352C633.123 513.248 625.675 526.762 615.734 538.054C615.223 526.582 605.733 517.422 594.14 517.422C592.849 517.422 591.588 517.542 590.356 517.782C591.377 517.062 592.368 516.281 593.269 515.35C601.468 507.151 601.679 493.967 593.93 485.498ZM566.3 566.284C566.3 566.284 566.3 566.374 566.3 566.434C565.879 574.243 563.687 581.961 559.753 588.988C552.004 586.826 545.007 582.892 539.18 577.666C539.15 577.636 539.12 577.606 539.06 577.576C539.03 577.606 539 577.636 538.94 577.666C533.114 582.892 526.116 586.796 518.367 588.988C514.433 581.991 512.241 574.243 511.82 566.434C511.82 566.374 511.82 566.344 511.82 566.284C511.76 566.284 511.73 566.284 511.67 566.284C503.862 565.864 496.143 563.671 489.115 559.737C491.278 551.989 495.212 544.991 500.438 539.165C500.468 539.135 500.498 539.105 500.528 539.045C500.498 539.015 500.468 538.985 500.438 538.925C495.212 533.099 491.308 526.101 489.115 518.353C496.113 514.419 503.862 512.226 511.67 511.806C511.73 511.806 511.76 511.806 511.82 511.806C511.82 511.746 511.82 511.716 511.82 511.656C512.241 503.847 514.433 496.129 518.367 489.102C526.116 491.264 533.114 495.198 538.94 500.424C538.97 500.454 539 500.484 539.06 500.514C539.09 500.484 539.12 500.454 539.18 500.424C545.007 495.198 552.004 491.294 559.753 489.102C563.687 496.099 565.879 503.847 566.3 511.656C566.3 511.716 566.3 511.746 566.3 511.806C566.36 511.806 566.39 511.806 566.45 511.806C574.259 512.226 581.977 514.419 589.005 518.353C586.842 526.101 582.908 533.099 577.682 538.925C577.652 538.955 577.622 538.985 577.592 539.045C577.622 539.075 577.652 539.105 577.682 539.165C582.908 544.991 586.812 551.989 589.005 559.737C582.007 563.671 574.259 565.864 566.45 566.284C566.39 566.284 566.36 566.284 566.3 566.284ZM497.014 538.204C497.915 538.595 498.846 538.865 499.807 539.045C498.876 539.225 497.945 539.526 497.014 539.886C489.356 543.069 485.662 551.719 488.575 559.437C479.084 554.031 470.525 547.124 463.257 539.045C470.525 530.966 479.084 524.059 488.575 518.653C485.662 526.342 489.356 535.021 497.014 538.204ZM581.046 539.886C580.145 539.496 579.214 539.225 578.253 539.045C579.184 538.865 580.115 538.565 581.046 538.204C588.704 535.021 592.398 526.372 589.485 518.653C598.976 524.059 607.535 530.966 614.803 539.045C607.535 547.124 598.976 554.031 589.485 559.437C592.398 551.749 588.704 543.069 581.046 539.886ZM589.155 517.782C585.761 510.274 577.022 506.761 569.363 509.944C568.462 510.334 567.591 510.785 566.78 511.295C567.291 510.485 567.772 509.644 568.132 508.713C571.315 501.055 567.802 492.315 560.293 488.922C570.835 486.039 581.767 484.867 592.609 485.438C593.179 496.279 592.008 507.211 589.125 517.782H589.155ZM539.871 497.03C539.481 497.931 539.21 498.862 539.03 499.823C538.85 498.892 538.55 497.961 538.189 497.03C535.006 489.372 526.356 485.678 518.638 488.591C524.044 479.101 530.951 470.542 539.03 463.274C547.109 470.542 554.016 479.101 559.422 488.591C551.734 485.678 543.054 489.372 539.871 497.03ZM509.928 508.713C510.319 509.614 510.769 510.485 511.28 511.295C510.469 510.785 509.628 510.304 508.727 509.944C501.068 506.761 492.329 510.274 488.935 517.782C486.052 507.241 484.881 496.309 485.451 485.468C496.293 484.897 507.225 486.069 517.767 488.952C510.259 492.345 506.745 501.085 509.928 508.743V508.713ZM488.905 560.308C492.299 567.816 501.038 571.329 508.697 568.146C509.598 567.756 510.469 567.305 511.25 566.795C510.739 567.606 510.259 568.446 509.898 569.347C506.715 577.006 510.229 585.745 517.737 589.139C507.195 592.022 496.263 593.193 485.421 592.622C484.851 581.781 486.022 570.849 488.905 560.308ZM538.189 581.06C538.58 580.159 538.85 579.228 539.03 578.267C539.21 579.198 539.511 580.129 539.871 581.06C543.054 588.718 551.704 592.412 559.422 589.499C554.016 598.989 547.109 607.548 539.03 614.816C530.951 607.548 524.044 598.989 518.638 589.499C526.326 592.412 535.006 588.718 538.189 581.06ZM568.132 569.347C567.741 568.446 567.291 567.575 566.78 566.795C567.591 567.305 568.432 567.786 569.363 568.146C577.022 571.329 585.761 567.816 589.155 560.308C592.038 570.849 593.209 581.781 592.639 592.652C581.797 593.223 570.865 592.052 560.323 589.169C567.832 585.775 571.345 577.036 568.162 569.377L568.132 569.347ZM637.598 497.18C630.961 482.405 613.722 475.527 598.645 481.744C596.843 482.495 595.161 483.396 593.6 484.417C594.621 482.855 595.522 481.173 596.273 479.371C602.52 464.295 595.612 447.087 580.836 440.42C601.588 434.744 623.062 432.461 644.415 433.573C645.527 454.925 643.244 476.398 637.568 497.15L637.598 497.18ZM592.579 484.147C584.079 476.368 570.925 476.578 562.726 484.807C561.825 485.708 561.014 486.699 560.293 487.72C560.504 486.489 560.654 485.228 560.654 483.936C560.654 472.314 551.494 462.854 540.021 462.343C551.313 452.403 564.858 444.955 579.725 440.78C587.323 454.265 591.588 469.13 592.579 484.147ZM540.712 456.367C539.961 458.169 539.42 460.001 539.03 461.833C538.64 460.001 538.099 458.169 537.348 456.367C531.101 441.291 514.043 433.993 498.906 439.729C509.568 421.049 523.143 404.231 539.03 389.906C554.917 404.231 568.492 421.019 579.154 439.729C564.017 433.993 546.959 441.291 540.712 456.367ZM538.039 462.343C526.566 462.854 517.406 472.344 517.406 483.936C517.406 485.228 517.527 486.489 517.767 487.72C517.046 486.699 516.265 485.708 515.334 484.807C507.135 476.608 493.951 476.398 485.481 484.147C486.442 469.13 490.737 454.265 498.305 440.78C513.202 444.955 526.717 452.403 538.009 462.343H538.039ZM481.757 479.401C482.508 481.203 483.409 482.885 484.43 484.447C482.869 483.426 481.187 482.525 479.385 481.774C464.308 475.527 447.099 482.435 440.432 497.21C434.756 476.458 432.473 454.985 433.585 433.633C454.938 432.521 476.411 434.804 497.164 440.48C482.388 447.117 475.511 464.355 481.727 479.431L481.757 479.401ZM440.462 580.88C447.099 595.655 464.338 602.533 479.415 596.316C481.217 595.565 482.899 594.664 484.46 593.643C483.439 595.205 482.538 596.887 481.787 598.689C475.541 613.765 482.448 630.973 497.224 637.64C476.472 643.316 454.998 645.599 433.645 644.488C432.533 623.135 434.816 601.662 440.492 580.91L440.462 580.88ZM485.481 593.944C493.951 601.692 507.135 601.512 515.334 593.283C516.235 592.382 517.046 591.391 517.767 590.37C517.557 591.601 517.406 592.862 517.406 594.154C517.406 605.776 526.566 615.236 538.039 615.747C526.747 625.687 513.202 633.135 498.335 637.31C490.737 623.826 486.473 608.96 485.481 593.944ZM537.348 621.723C538.099 619.921 538.64 618.089 539.03 616.257C539.42 618.089 539.961 619.921 540.712 621.723C546.959 636.799 564.017 644.097 579.154 638.361C568.492 657.041 554.917 673.859 539.03 688.184C523.143 673.859 509.568 657.071 498.906 638.361C514.043 644.097 531.101 636.799 537.348 621.723ZM540.021 615.747C551.494 615.236 560.654 605.746 560.654 594.154C560.654 592.862 560.534 591.601 560.293 590.37C561.014 591.391 561.795 592.382 562.726 593.283C570.925 601.482 584.109 601.692 592.579 593.944C591.618 608.96 587.323 623.826 579.725 637.31C564.828 633.135 551.313 625.687 540.021 615.747ZM596.303 598.689C595.552 596.887 594.651 595.205 593.63 593.643C595.192 594.664 596.873 595.565 598.675 596.316C613.752 602.563 630.961 595.655 637.628 580.88C643.304 601.632 645.587 623.105 644.475 644.458C623.122 645.569 601.649 643.286 580.896 637.61C595.672 630.973 602.55 613.735 596.333 598.659L596.303 598.689ZM732.952 456.727C719.888 427.686 685.981 414.082 656.338 426.365C652.795 427.836 649.491 429.608 646.428 431.62C648.44 428.527 650.212 425.224 651.683 421.71C663.967 392.038 650.332 358.102 621.23 345.038C662.105 333.836 704.421 329.331 746.467 331.524C748.63 373.569 744.155 415.854 732.952 456.727ZM644.355 431.02C627.657 415.764 601.769 416.154 585.611 432.311C583.809 434.113 582.247 436.035 580.836 438.077C581.286 435.675 581.527 433.182 581.527 430.629C581.527 407.805 563.537 389.155 540.952 388.134C563.176 368.613 589.786 353.928 619.068 345.729C633.994 372.277 642.403 401.468 644.325 431.05L644.355 431.02ZM542.334 376.422C540.862 379.965 539.781 383.539 539.03 387.143C538.279 383.539 537.198 379.935 535.726 376.422C523.443 346.75 489.806 332.395 459.984 343.747C480.976 306.897 507.706 273.802 539 245.602C570.264 273.802 597.024 306.897 617.986 343.717C588.194 332.395 554.587 346.75 542.304 376.392L542.334 376.422ZM537.078 388.134C514.493 389.155 496.504 407.775 496.504 430.629C496.504 433.182 496.774 435.645 497.194 438.077C495.813 436.065 494.221 434.113 492.419 432.311C476.261 416.154 450.373 415.764 433.675 431.02C435.597 401.468 444.006 372.247 458.932 345.699C488.214 353.898 514.824 368.583 537.048 388.104L537.078 388.134ZM426.377 421.71C427.848 425.254 429.62 428.557 431.632 431.62C428.539 429.578 425.235 427.806 421.722 426.365C392.079 414.082 358.142 427.686 345.078 456.757C333.875 415.884 329.371 373.569 331.563 331.524C373.609 329.361 415.955 333.836 456.83 345.038C427.698 358.072 414.093 392.008 426.377 421.68V421.71ZM345.048 621.273C358.112 650.374 392.019 664.008 421.692 651.725C425.235 650.254 428.539 648.482 431.602 646.47C429.56 649.563 427.788 652.866 426.347 656.38C414.063 686.022 427.638 719.898 456.68 732.962C415.835 744.134 373.549 748.639 331.533 746.446C329.371 704.401 333.845 662.116 345.048 621.273ZM433.705 647.04C450.403 662.297 476.291 661.906 492.449 645.749C494.251 643.947 495.813 642.025 497.224 639.983C496.774 642.385 496.534 644.878 496.534 647.431C496.534 670.255 514.523 688.905 537.108 689.926C514.884 709.447 488.274 724.133 458.992 732.331C444.066 705.783 435.657 676.592 433.735 647.01L433.705 647.04ZM535.726 701.669C537.198 698.125 538.279 694.551 539.03 690.947C539.781 694.551 540.862 698.155 542.334 701.669C554.617 731.31 588.164 745.665 617.956 734.373C596.963 771.163 570.264 804.228 539.03 832.398C507.796 804.228 481.067 771.163 460.074 734.373C489.866 745.696 523.473 731.34 535.756 701.669H535.726ZM540.982 689.956C563.567 688.935 581.557 670.315 581.557 647.461C581.557 644.908 581.286 642.445 580.866 640.013C582.247 642.025 583.839 643.977 585.641 645.779C601.799 661.936 627.687 662.327 644.385 647.07C642.493 676.622 634.054 705.843 619.128 732.391C589.846 724.193 563.237 709.507 541.012 689.986L540.982 689.956ZM651.683 656.35C650.212 652.806 648.44 649.503 646.428 646.44C649.521 648.452 652.825 650.224 656.338 651.695C685.981 663.978 719.888 650.374 732.952 621.303C744.125 662.146 748.629 704.432 746.437 746.446C704.421 748.609 662.165 744.134 621.32 732.962C650.362 719.868 663.937 685.992 651.653 656.35H651.683ZM752.354 455.316C747.338 455.316 742.473 455.826 737.728 456.697C741.692 453.964 745.506 450.871 749.05 447.327C780.825 415.553 781.606 364.589 751.573 331.764C808.275 335.428 864.316 351.285 915.492 379.275C915.612 379.335 915.732 379.425 915.853 379.485C917.054 380.146 918.225 380.806 919.426 381.467C919.066 382.788 918.676 384.08 918.315 385.401C918.285 385.521 918.225 385.671 918.195 385.792C901.827 441.741 873.416 492.525 835.965 535.201C833.953 490.754 797.313 455.346 752.354 455.346V455.316ZM698.565 162.173C698.565 162.173 698.715 162.413 698.775 162.533C726.766 213.708 742.623 269.748 746.287 326.448C713.461 296.416 662.495 297.197 630.72 328.971C627.176 332.515 624.083 336.329 621.35 340.293C622.221 335.548 622.732 330.653 622.732 325.667C622.732 280.739 587.323 244.07 542.874 242.058C585.521 204.608 636.337 176.198 692.288 159.831C692.408 159.8 692.558 159.77 692.678 159.71C694 159.32 695.291 158.96 696.613 158.599C697.273 159.77 697.934 160.972 698.595 162.173H698.565ZM446.619 72.7076C474.64 44.6877 505.814 21.8033 539 3.96423C572.186 21.8033 603.36 44.6877 631.381 72.7076C656.429 97.7543 677.421 125.354 694.33 154.665C635.706 132.441 569.634 160.701 545.487 219.024C542.604 225.961 540.472 233.019 539 240.136C537.528 233.049 535.396 225.991 532.513 219.024C508.366 160.701 442.294 132.441 383.67 154.665C400.579 125.354 421.541 97.7543 446.619 72.7076ZM379.255 162.563C379.255 162.563 379.405 162.323 379.465 162.203C380.126 161.002 380.787 159.831 381.448 158.629C382.769 158.99 384.06 159.38 385.382 159.74C385.502 159.77 385.652 159.831 385.772 159.861C441.724 176.228 492.509 204.638 535.186 242.088C490.737 244.1 455.328 280.739 455.328 325.697C455.328 330.713 455.839 335.578 456.71 340.323C453.977 336.359 450.884 332.545 447.34 329.001C415.565 297.227 364.599 296.446 331.773 326.478C335.437 269.778 351.265 213.738 379.285 162.563H379.255ZM143.978 274.613C143.978 235.001 149.834 196.77 160.676 160.671C196.745 149.83 235.007 143.974 274.621 143.974C310.059 143.974 344.417 148.659 377.093 157.428C319.91 183.165 293.181 249.867 317.357 308.159C320.241 315.096 323.724 321.613 327.689 327.65C321.622 323.655 315.135 320.202 308.197 317.319C249.874 293.173 183.171 319.901 157.462 377.052C148.693 344.377 144.008 310.021 144.008 274.583L143.978 274.613ZM72.7096 631.364C44.6889 603.344 21.8039 572.17 3.96434 538.985C21.8039 505.8 44.6889 474.626 72.7096 446.606C97.757 421.56 125.357 400.567 154.669 383.659C132.445 442.282 160.706 508.352 219.03 532.498C225.967 535.381 233.025 537.513 240.143 538.985C233.055 540.457 225.997 542.589 219.03 545.472C160.706 569.618 132.445 635.688 154.669 694.311C125.357 677.403 97.757 656.44 72.7096 631.364ZM274.621 934.026C235.007 934.026 196.775 928.17 160.676 917.329C149.834 881.26 143.978 842.999 143.978 803.387C143.978 767.949 148.663 733.593 157.432 700.918C183.17 758.099 249.874 784.827 308.167 760.651C315.105 757.768 321.622 754.285 327.659 750.32C323.664 756.387 320.211 762.874 317.327 769.811C293.181 828.133 319.91 894.835 377.063 920.542C344.387 929.311 310.029 933.996 274.591 933.996L274.621 934.026ZM379.465 915.827C379.465 915.827 379.315 915.557 379.255 915.437C351.264 864.262 335.407 808.222 331.743 751.522C364.569 781.554 415.535 780.773 447.31 748.999C450.854 745.455 453.947 741.641 456.68 737.677C455.809 742.422 455.298 747.317 455.298 752.303C455.298 797.23 490.707 833.9 535.156 835.912C492.509 873.362 441.694 901.772 385.742 918.139C385.622 918.17 385.472 918.23 385.352 918.26C384.03 918.65 382.739 919.01 381.417 919.371C380.757 918.2 380.096 916.998 379.435 915.827H379.465ZM631.381 1005.26C603.36 1033.28 572.186 1056.17 539 1074.01C505.814 1056.17 474.64 1033.28 446.619 1005.26C421.571 980.216 400.579 952.616 383.67 923.305C442.294 945.529 508.366 917.269 532.513 858.946C535.396 852.009 537.528 844.951 539 837.834C540.472 844.921 542.604 851.979 545.487 858.946C569.634 917.269 635.706 945.529 694.33 923.305C677.421 952.616 656.459 980.216 631.381 1005.26ZM698.775 915.437C698.775 915.437 698.625 915.707 698.565 915.827C697.904 916.998 697.243 918.2 696.583 919.371C695.261 919.01 693.94 918.62 692.648 918.26C692.528 918.23 692.378 918.2 692.258 918.139C636.307 901.772 585.521 873.362 542.844 835.912C587.293 833.9 622.702 797.26 622.702 752.303C622.702 747.287 622.191 742.422 621.32 737.677C624.053 741.641 627.146 745.455 630.69 748.999C662.465 780.773 713.431 781.554 746.257 751.522C742.593 808.222 726.766 864.262 698.745 915.437H698.775ZM934.052 803.387C934.052 842.999 928.196 881.23 917.354 917.329C881.285 928.17 843.023 934.026 803.409 934.026C767.971 934.026 733.613 929.341 700.937 920.572C758.12 894.835 784.849 828.133 760.673 769.841C757.79 762.904 754.306 756.387 750.341 750.35C756.408 754.345 762.895 757.798 769.833 760.681C828.157 784.827 894.86 758.099 920.568 700.948C929.337 733.623 934.022 767.979 934.022 803.417L934.052 803.387ZM1005.29 631.364C980.243 656.41 952.643 677.403 923.331 694.311C945.555 635.688 917.294 569.618 858.97 545.472C852.033 542.589 844.975 540.457 837.857 538.985C844.945 537.513 852.003 535.381 858.97 532.498C917.294 508.352 945.555 442.282 923.331 383.659C952.643 400.567 980.243 421.53 1005.29 446.606C1033.31 474.626 1056.2 505.8 1074.04 538.985C1056.2 572.17 1033.31 603.344 1005.29 631.364Z" fill="var(--fill-0, #FDF7E6)"/>
</svg>
