<svg preserveAspectRatio="none" width="100%" height="100%" overflow="visible" style="display: block;" viewBox="0 0 1440 520" fill="none" xmlns="http://www.w3.org/2000/svg">
<g id="bg" opacity="0.4" clip-path="url(#clip0_0_18)">
<path id="Vector" d="M231.267 408.211C265.822 370.598 264.868 312.072 228.405 275.61C191.943 239.148 133.415 238.194 95.8004 272.748C93.6407 221.709 51.5807 181 6.98864e-06 181C-51.5626 181 -93.6227 221.709 -95.7824 272.748C-133.397 238.194 -191.925 239.148 -228.387 275.61C-264.85 312.072 -265.804 370.598 -231.249 408.211C-282.29 410.371 -323 452.43 -323 503.991C-323 555.552 -282.29 597.611 -231.249 599.789C-265.804 637.402 -264.85 695.928 -228.387 732.39C-191.925 768.852 -133.397 769.806 -95.7824 735.252C-93.6227 786.291 -51.5626 827 6.98864e-06 827C51.5627 827 93.6227 786.291 95.7824 735.252C133.397 769.806 191.925 768.852 228.387 732.39C264.85 695.928 265.804 637.402 231.249 599.789C282.29 597.629 323 555.57 323 504.009C323 452.448 282.29 410.389 231.249 408.211H231.267ZM158.449 267.277C182.188 267.277 205.099 270.787 226.732 277.284C233.229 298.898 236.738 321.826 236.738 345.564C236.738 366.8 233.931 387.389 228.675 406.97C213.252 372.703 173.279 356.686 138.346 371.174C134.189 372.901 130.283 374.989 126.666 377.365C129.06 373.729 131.129 369.842 132.857 365.685C147.327 330.735 131.309 290.763 97.0602 275.358C116.641 270.103 137.23 267.295 158.467 267.295L158.449 267.277ZM125.874 558.936C123.75 556.812 121.465 554.958 119.089 553.321C121.933 553.843 124.866 554.148 127.854 554.148C154.778 554.148 176.753 532.93 177.959 506.295C200.401 531.85 217.427 562.301 227.236 595.829C227.254 595.901 227.272 595.991 227.308 596.063C227.542 596.855 227.758 597.629 227.974 598.421C227.272 598.817 226.552 599.213 225.832 599.609C225.76 599.645 225.688 599.699 225.616 599.735C194.948 616.508 161.365 626.01 127.386 628.206C145.383 608.535 144.915 577.994 125.874 558.954V558.936ZM-127.368 628.188C-161.347 625.992 -194.93 616.508 -225.598 599.717C-225.67 599.681 -225.742 599.627 -225.814 599.591C-226.534 599.195 -227.236 598.799 -227.956 598.403C-227.74 597.629 -227.524 596.837 -227.29 596.063C-227.272 595.973 -227.236 595.901 -227.218 595.811C-217.409 562.283 -200.383 531.85 -177.941 506.277C-176.735 532.912 -154.778 554.13 -127.836 554.13C-124.83 554.13 -121.915 553.825 -119.071 553.303C-121.447 554.94 -123.732 556.794 -125.856 558.918C-144.897 577.958 -145.365 608.499 -127.368 628.17V628.188ZM-125.856 449.064C-123.732 451.188 -121.447 453.042 -119.071 454.679C-121.915 454.157 -124.848 453.852 -127.836 453.852C-154.76 453.852 -176.735 475.07 -177.941 501.705C-200.383 476.15 -217.409 445.699 -227.218 412.189C-227.236 412.099 -227.272 412.009 -227.29 411.919C-227.524 411.145 -227.74 410.371 -227.956 409.579C-227.254 409.183 -226.534 408.787 -225.814 408.391C-225.742 408.355 -225.67 408.301 -225.598 408.265C-194.93 391.492 -161.347 381.99 -127.368 379.794C-145.365 399.465 -144.897 430.006 -125.856 449.046V449.064ZM97.4741 506.007C95.3504 505.125 93.2087 504.477 91.049 504.027C93.2087 503.577 95.3684 502.929 97.4741 502.047C115.256 494.687 123.858 474.53 117.055 456.677C139.12 469.257 158.935 485.274 175.835 504.009C158.953 522.726 139.138 538.743 117.091 551.323C123.84 533.47 115.238 513.367 97.4921 506.007H97.4741ZM63.9809 531.94C62.901 530.86 61.7492 529.925 60.5254 529.079C61.9652 529.349 63.459 529.493 64.9887 529.493C78.6668 529.493 89.8432 518.713 90.4551 505.179C102.153 518.497 110.954 534.442 115.868 551.989C99.9578 560.933 82.4643 565.972 64.7368 567.124C73.8795 557.118 73.6455 541.605 63.9629 531.922L63.9809 531.94ZM-64.7188 567.142C-82.4283 566.008 -99.9398 560.951 -115.85 552.007C-110.936 534.46 -102.135 518.515 -90.4371 505.197C-89.8252 518.73 -78.6668 529.511 -64.9707 529.511C-63.441 529.511 -61.9652 529.349 -60.5074 529.097C-61.7132 529.925 -62.8831 530.878 -63.9629 531.958C-73.6455 541.641 -73.8795 557.154 -64.7368 567.16L-64.7188 567.142ZM-117.037 551.323C-139.102 538.743 -158.917 522.726 -175.817 503.991C-158.917 485.256 -139.084 469.221 -117.019 456.659C-123.84 474.53 -115.22 494.687 -97.4381 502.047C-95.3144 502.929 -93.1727 503.577 -91.013 504.027C-93.1727 504.477 -95.3324 505.125 -97.4381 506.007C-115.202 513.367 -123.804 533.488 -117.037 551.323ZM-63.9449 476.114C-62.865 477.194 -61.7132 478.129 -60.4894 478.975C-61.9292 478.705 -63.423 478.561 -64.9527 478.561C-78.6308 478.561 -89.8072 489.341 -90.4191 502.875C-102.117 489.557 -110.918 473.612 -115.831 456.065C-99.9218 447.121 -82.4283 442.082 -64.7008 440.93C-73.8435 450.936 -73.6095 466.449 -63.9269 476.132L-63.9449 476.114ZM64.7548 440.912C82.4642 442.064 99.9758 447.103 115.885 456.047C110.972 473.594 102.171 489.539 90.4731 502.857C89.8612 489.323 78.7028 478.543 65.0067 478.543C63.477 478.543 62.0012 478.705 60.5434 478.957C61.7492 478.129 62.919 477.176 63.9989 476.096C73.6815 466.413 73.9155 450.9 64.7728 440.894L64.7548 440.912ZM49.5649 505.035C48.4851 504.585 47.3873 504.261 46.2894 504.027C47.3873 503.793 48.4851 503.469 49.5649 503.019C58.5997 499.276 62.973 489.054 59.5355 479.983C70.7299 486.372 80.8085 494.507 89.3933 504.027C80.8085 513.547 70.7479 521.682 59.5355 528.071C62.973 519 58.5997 508.778 49.5649 505.035ZM32.5394 518.227C31.9994 517.687 31.4055 517.201 30.7936 516.769C31.5315 516.895 32.2874 516.985 33.0613 516.985C40.0263 516.985 45.6955 511.496 46.0014 504.621C51.9586 511.388 56.422 519.504 58.9236 528.413C50.8428 532.966 41.934 535.522 32.9353 536.116C37.5787 531.022 37.4707 523.14 32.5394 518.227ZM-32.8813 536.116C-41.88 535.54 -50.7888 532.966 -58.8696 528.413C-56.368 519.486 -51.9046 511.388 -45.9474 504.621C-45.6415 511.496 -39.9543 516.985 -33.0073 516.985C-32.2334 516.985 -31.4775 516.913 -30.7396 516.769C-31.3515 517.201 -31.9455 517.669 -32.4854 518.227C-37.3987 523.14 -37.5247 531.04 -32.8813 536.116ZM-59.4815 528.071C-70.6759 521.682 -80.7545 513.547 -89.3393 504.027C-80.7545 494.507 -70.6939 486.372 -59.4815 479.983C-62.9191 489.054 -58.5457 499.276 -49.5109 503.019C-48.4311 503.469 -47.3333 503.793 -46.2354 504.027C-47.3333 504.261 -48.4311 504.585 -49.5109 505.035C-58.5457 508.778 -62.9191 519 -59.4815 528.071ZM-32.5034 489.827C-31.9634 490.367 -31.3695 490.853 -30.7576 491.285C-31.4955 491.159 -32.2514 491.069 -33.0253 491.069C-39.9903 491.069 -45.6595 496.558 -45.9655 503.433C-51.9226 496.666 -56.386 488.55 -58.8876 479.641C-50.8068 475.088 -41.898 472.532 -32.8993 471.938C-37.5426 477.032 -37.4347 484.914 -32.5034 489.827ZM32.9173 471.938C41.916 472.514 50.8248 475.088 58.9056 479.641C56.404 488.568 51.9406 496.666 45.9835 503.433C45.6775 496.558 39.9903 491.069 33.0433 491.069C32.2694 491.069 31.5135 491.141 30.7756 491.285C31.3876 490.853 31.9814 490.385 32.5214 489.827C37.4347 484.914 37.5606 477.014 32.9173 471.938ZM16.3597 520.35C16.3597 520.35 16.3597 520.404 16.3597 520.44C16.1077 525.119 14.7939 529.745 12.4362 533.956C7.7929 532.66 3.59948 530.303 0.107982 527.171C0.0899843 527.153 0.0720092 527.135 0.0360143 527.117C0.0180169 527.135 -5.44873e-06 527.153 -0.0360003 527.171C-3.5275 530.303 -7.72089 532.642 -12.3642 533.956C-14.7219 529.763 -16.0357 525.119 -16.2877 520.44C-16.2877 520.404 -16.2877 520.386 -16.2877 520.35C-16.3237 520.35 -16.3417 520.35 -16.3777 520.35C-21.057 520.098 -25.6824 518.784 -29.8938 516.427C-28.5979 511.784 -26.2403 507.59 -23.1087 504.099C-23.0907 504.081 -23.0727 504.063 -23.0547 504.027C-23.0727 504.009 -23.0907 503.991 -23.1087 503.955C-26.2403 500.464 -28.5799 496.27 -29.8938 491.627C-25.7003 489.27 -21.057 487.956 -16.3777 487.704C-16.3417 487.704 -16.3237 487.704 -16.2877 487.704C-16.2877 487.668 -16.2877 487.65 -16.2877 487.614C-16.0357 482.935 -14.7219 478.309 -12.3642 474.098C-7.72089 475.394 -3.5275 477.751 -0.0360003 480.883C-0.0180029 480.901 1.9426e-05 480.919 0.0360143 480.937C0.0540117 480.919 0.0719869 480.901 0.107982 480.883C3.59948 477.751 7.7929 475.412 12.4362 474.098C14.7939 478.291 16.1077 482.935 16.3597 487.614C16.3597 487.65 16.3597 487.668 16.3597 487.704C16.3957 487.704 16.4137 487.704 16.4497 487.704C21.129 487.956 25.7543 489.27 29.9657 491.627C28.6699 496.27 26.3123 500.464 23.1807 503.955C23.1627 503.973 23.1447 503.991 23.1267 504.027C23.1447 504.045 23.1627 504.063 23.1807 504.099C26.3123 507.59 28.6519 511.784 29.9657 516.427C25.7723 518.784 21.129 520.098 16.4497 520.35C16.4137 520.35 16.3957 520.35 16.3597 520.35ZM-25.1604 503.523C-24.6205 503.757 -24.0626 503.919 -23.4867 504.027C-24.0446 504.135 -24.6025 504.315 -25.1604 504.531C-29.7498 506.439 -31.9635 511.622 -30.2177 516.247C-35.9049 513.007 -41.0342 508.868 -45.3895 504.027C-41.0342 499.186 -35.9049 495.047 -30.2177 491.807C-31.9635 496.414 -29.7498 501.615 -25.1604 503.523ZM25.1964 504.531C24.6565 504.297 24.0986 504.135 23.5226 504.027C24.0806 503.919 24.6385 503.739 25.1964 503.523C29.7858 501.615 31.9994 496.432 30.2537 491.807C35.9409 495.047 41.0702 499.186 45.4255 504.027C41.0702 508.868 35.9409 513.007 30.2537 516.247C31.9994 511.64 29.7858 506.439 25.1964 504.531ZM30.0557 491.285C28.022 486.786 22.7847 484.68 18.1954 486.588C17.6555 486.822 17.1336 487.092 16.6476 487.398C16.9536 486.912 17.2415 486.408 17.4575 485.85C19.3652 481.261 17.2595 476.024 12.7602 473.99C19.0773 472.262 25.6284 471.561 32.1254 471.902C32.4674 478.399 31.7655 484.95 30.0377 491.285H30.0557ZM0.521924 478.849C0.287958 479.389 0.125972 479.947 0.017987 480.523C-0.0899976 479.965 -0.269957 479.407 -0.485927 478.849C-2.39365 474.26 -7.57691 472.046 -12.2022 473.792C-8.96271 468.105 -4.82332 462.976 0.017987 458.621C4.8593 462.976 8.99873 468.105 12.2383 473.792C7.63092 472.046 2.42965 474.26 0.521924 478.849ZM-17.4215 485.85C-17.1876 486.39 -16.9176 486.912 -16.6116 487.398C-17.0976 487.092 -17.6015 486.804 -18.1414 486.588C-22.7308 484.68 -27.968 486.786 -30.0017 491.285C-31.7295 484.968 -32.4314 478.417 -32.0894 471.92C-25.5924 471.579 -19.0413 472.28 -12.7242 474.008C-17.2235 476.042 -19.3293 481.279 -17.4215 485.868V485.85ZM-30.0197 516.769C-27.986 521.268 -22.7488 523.374 -18.1594 521.466C-17.6195 521.232 -17.0976 520.962 -16.6296 520.656C-16.9356 521.142 -17.2235 521.646 -17.4395 522.186C-19.3472 526.775 -17.2416 532.012 -12.7422 534.046C-19.0593 535.774 -25.6103 536.475 -32.1074 536.134C-32.4494 529.637 -31.7475 523.086 -30.0197 516.769ZM-0.485927 529.205C-0.25196 528.665 -0.0899976 528.107 0.017987 527.531C0.125972 528.089 0.305955 528.647 0.521924 529.205C2.42965 533.794 7.61293 536.008 12.2383 534.262C8.99873 539.949 4.8593 545.078 0.017987 549.433C-4.82332 545.078 -8.96271 539.949 -12.2022 534.262C-7.5949 536.008 -2.39365 533.794 -0.485927 529.205ZM17.4575 522.186C17.2235 521.646 16.9536 521.124 16.6476 520.656C17.1336 520.962 17.6375 521.25 18.1954 521.466C22.7847 523.374 28.022 521.268 30.0557 516.769C31.7835 523.086 32.4854 529.637 32.1434 536.152C25.6463 536.493 19.0953 535.792 12.7782 534.064C17.2775 532.03 19.3832 526.793 17.4755 522.204L17.4575 522.186ZM59.0856 478.939C55.1082 470.085 44.7776 465.963 35.7429 469.689C34.6631 470.139 33.6552 470.679 32.7193 471.291C33.3312 470.355 33.8712 469.347 34.3211 468.267C38.0646 459.233 33.9252 448.92 25.0704 444.925C37.5066 441.524 50.3748 440.156 63.171 440.822C63.8369 453.618 62.4691 466.485 59.0676 478.921L59.0856 478.939ZM32.1074 471.129C27.0141 466.467 19.1313 466.593 14.218 471.525C13.678 472.064 13.1921 472.658 12.7602 473.27C12.8862 472.532 12.9761 471.776 12.9761 471.003C12.9761 464.038 7.48694 458.369 0.611919 458.063C7.37895 452.106 15.4958 447.643 24.4045 445.141C28.9579 453.222 31.5135 462.13 32.1074 471.129ZM1.02584 454.481C0.575902 455.561 0.251954 456.659 0.017987 457.757C-0.21598 456.659 -0.539928 455.561 -0.989864 454.481C-4.73333 445.447 -14.9559 441.074 -24.0266 444.511C-17.6375 433.317 -9.50266 423.239 0.017987 414.654C9.53863 423.239 17.6735 433.299 24.0626 444.511C14.9919 441.074 4.7693 445.447 1.02584 454.481ZM-0.575921 458.063C-7.45094 458.369 -12.9402 464.056 -12.9402 471.003C-12.9402 471.776 -12.8682 472.532 -12.7242 473.27C-13.1561 472.658 -13.6241 472.064 -14.182 471.525C-19.0953 466.611 -26.9962 466.485 -32.0714 471.129C-31.4955 462.13 -28.9219 453.222 -24.3865 445.141C-15.4598 447.643 -7.36096 452.106 -0.593925 458.063H-0.575921ZM-34.3031 468.285C-33.8532 469.365 -33.3132 470.373 -32.7013 471.309C-33.6372 470.697 -34.6451 470.157 -35.7249 469.707C-44.7596 465.963 -55.0722 470.103 -59.0676 478.957C-62.4691 466.521 -63.8369 453.654 -63.171 440.858C-50.3748 440.192 -37.5067 441.56 -25.0704 444.961C-33.9252 448.938 -38.0466 459.269 -34.3211 468.303L-34.3031 468.285ZM-59.0496 529.097C-55.0721 537.951 -44.7416 542.073 -35.7069 538.347C-34.6271 537.897 -33.6192 537.357 -32.6834 536.745C-33.2953 537.681 -33.8352 538.689 -34.2851 539.769C-38.0286 548.803 -33.8892 559.116 -25.0344 563.111C-37.4707 566.512 -50.3388 567.88 -63.135 567.214C-63.8009 554.418 -62.4331 541.551 -59.0316 529.115L-59.0496 529.097ZM-32.0714 536.925C-26.9962 541.569 -19.0953 541.461 -14.182 536.529C-13.6421 535.99 -13.1561 535.396 -12.7242 534.784C-12.8502 535.522 -12.9402 536.277 -12.9402 537.051C-12.9402 544.016 -7.45094 549.685 -0.575921 549.991C-7.34296 555.948 -15.4598 560.411 -24.3685 562.913C-28.9219 554.832 -31.4775 545.924 -32.0714 536.925ZM-0.989864 553.573C-0.539928 552.493 -0.21598 551.395 0.017987 550.297C0.251954 551.395 0.575902 552.493 1.02584 553.573C4.7693 562.607 14.9919 566.98 24.0626 563.543C17.6735 574.737 9.53863 584.815 0.017987 593.4C-9.50266 584.815 -17.6375 574.755 -24.0266 563.543C-14.9559 566.98 -4.73333 562.607 -0.989864 553.573ZM0.611919 549.991C7.48694 549.685 12.9761 543.998 12.9761 537.051C12.9761 536.277 12.9042 535.522 12.7602 534.784C13.1921 535.396 13.66 535.99 14.218 536.529C19.1313 541.443 27.0321 541.569 32.1074 536.925C31.5315 545.924 28.9579 554.832 24.4045 562.913C15.4778 560.411 7.37895 555.948 0.611919 549.991ZM34.3391 539.769C33.8892 538.689 33.3493 537.681 32.7374 536.745C33.6732 537.357 34.6811 537.897 35.7609 538.347C44.7956 542.091 55.1081 537.951 59.1036 529.097C62.5051 541.533 63.8729 554.4 63.207 567.196C50.4108 567.862 37.5427 566.494 25.1064 563.093C33.9612 559.116 38.0826 548.785 34.3571 539.751L34.3391 539.769ZM116.227 454.697C108.399 437.294 88.0795 429.142 70.316 436.502C68.1923 437.384 66.2126 438.446 64.3769 439.652C65.5827 437.798 66.6445 435.819 67.5264 433.713C74.8873 415.932 66.7165 395.595 49.277 387.767C73.7715 381.054 99.1299 378.354 124.326 379.668C125.622 404.864 122.94 430.204 116.227 454.697ZM63.135 439.292C53.1285 430.15 37.6146 430.384 27.932 440.066C26.8522 441.146 25.9163 442.298 25.0704 443.521C25.3404 442.082 25.4844 440.588 25.4844 439.058C25.4844 425.38 14.7039 414.204 1.16982 413.592C14.4879 401.894 30.4337 393.094 47.9812 388.181C56.9259 404.09 61.9652 421.583 63.117 439.31L63.135 439.292ZM1.99773 406.574C1.11585 408.697 0.467923 410.839 0.017987 412.998C-0.431949 410.839 -1.07983 408.679 -1.96171 406.574C-9.32266 388.793 -29.4798 380.19 -47.3513 386.993C-34.771 364.911 -18.7533 345.078 6.98864e-06 328.179C18.7353 345.078 34.7711 364.911 47.3333 386.975C29.4798 380.19 9.34068 388.793 1.97972 406.556L1.99773 406.574ZM-1.15183 413.592C-14.6859 414.204 -25.4664 425.362 -25.4664 439.058C-25.4664 440.588 -25.3044 442.064 -25.0524 443.521C-25.8803 442.315 -26.8342 441.146 -27.914 440.066C-37.5966 430.384 -53.1105 430.15 -63.117 439.292C-61.9652 421.583 -56.9259 404.072 -47.9812 388.163C-30.4337 393.076 -14.4879 401.876 -1.16983 413.574L-1.15183 413.592ZM-67.4904 433.713C-66.6085 435.837 -65.5467 437.816 -64.3408 439.652C-66.1946 438.428 -68.1743 437.366 -70.28 436.502C-88.0435 429.142 -108.381 437.294 -116.209 454.715C-122.922 430.222 -125.622 404.864 -124.308 379.668C-99.1119 378.372 -73.7355 381.054 -49.241 387.767C-66.6985 395.577 -74.8513 415.914 -67.4904 433.695V433.713ZM-116.227 553.303C-108.399 570.742 -88.0795 578.912 -70.298 571.551C-68.1743 570.67 -66.1945 569.608 -64.3588 568.402C-65.5826 570.256 -66.6445 572.235 -67.5084 574.341C-74.8693 592.104 -66.7345 612.405 -49.331 620.233C-73.8075 626.928 -99.1479 629.628 -124.326 628.314C-125.622 603.118 -122.941 577.778 -116.227 553.303ZM-63.099 568.744C-53.0924 577.886 -37.5787 577.652 -27.896 567.97C-26.8162 566.89 -25.8803 565.738 -25.0344 564.515C-25.3044 565.954 -25.4484 567.448 -25.4484 568.978C-25.4484 582.656 -14.6679 593.832 -1.13385 594.444C-14.4519 606.142 -30.3977 614.942 -47.9452 619.855C-56.8899 603.946 -61.9292 586.453 -63.081 568.726L-63.099 568.744ZM-1.96171 601.48C-1.07983 599.357 -0.431949 597.215 0.017987 595.056C0.467923 597.215 1.11585 599.375 1.99773 601.48C9.35868 619.243 29.4618 627.846 47.3152 621.079C34.735 643.125 18.7353 662.94 0.017987 679.821C-18.6993 662.94 -34.7171 643.125 -47.2973 621.079C-29.4438 627.864 -9.30468 619.261 -1.94373 601.48H-1.96171ZM1.18785 594.462C14.7219 593.85 25.5024 582.692 25.5024 568.996C25.5024 567.466 25.3404 565.99 25.0884 564.533C25.9163 565.738 26.8702 566.908 27.95 567.988C37.6326 577.67 53.1464 577.904 63.153 568.762C62.0192 586.471 56.9619 603.982 48.0171 619.891C30.4696 614.978 14.5239 606.178 1.20583 594.48L1.18785 594.462ZM67.5264 574.323C66.6445 572.199 65.5827 570.22 64.3769 568.384C66.2306 569.59 68.2103 570.652 70.316 571.534C88.0795 578.894 108.399 570.742 116.227 553.321C122.922 577.796 125.622 603.136 124.308 628.314C99.1299 629.61 73.8075 626.928 49.331 620.233C66.7345 612.387 74.8693 592.086 67.5084 574.323H67.5264ZM127.854 453.852C124.848 453.852 121.933 454.157 119.089 454.679C121.465 453.042 123.75 451.188 125.874 449.064C144.915 430.024 145.383 399.483 127.386 379.812C161.365 382.008 194.948 391.51 225.616 408.283C225.688 408.319 225.76 408.373 225.832 408.409C226.552 408.805 227.254 409.201 227.974 409.597C227.758 410.389 227.524 411.163 227.308 411.955C227.29 412.027 227.254 412.117 227.236 412.189C217.427 445.717 200.401 476.15 177.959 501.723C176.753 475.088 154.796 453.87 127.854 453.87V453.852ZM95.6204 278.183C95.6204 278.183 95.7104 278.327 95.7464 278.399C112.52 309.066 122.023 342.648 124.218 376.627C104.547 358.63 74.0054 359.098 54.9642 378.138C52.8405 380.262 50.9867 382.548 49.349 384.923C49.8709 382.08 50.1769 379.146 50.1769 376.159C50.1769 349.235 28.9579 327.261 2.32165 326.055C27.878 303.613 58.3297 286.588 91.8589 276.78C91.9309 276.762 92.0209 276.744 92.0929 276.708C92.8848 276.474 93.6586 276.258 94.4505 276.042C94.8465 276.744 95.2425 277.464 95.6384 278.183H95.6204ZM-55.3601 224.571C-38.5685 207.779 -19.8872 194.066 6.98864e-06 183.376C19.8872 194.066 38.5685 207.779 55.3601 224.571C70.37 239.58 82.9502 256.119 93.0827 273.684C57.9517 260.366 18.3574 277.302 3.88745 312.252C2.1597 316.409 0.881881 320.638 6.98864e-06 324.903C-0.881867 320.656 -2.15971 316.427 -3.88746 312.252C-18.3574 277.302 -57.9517 260.366 -93.0827 273.684C-82.9502 256.119 -70.388 239.58 -55.3601 224.571ZM-95.7284 278.417C-95.7284 278.417 -95.6384 278.273 -95.6024 278.201C-95.2065 277.482 -94.8105 276.78 -94.4146 276.06C-93.6227 276.276 -92.8488 276.51 -92.0569 276.726C-91.9849 276.744 -91.8949 276.78 -91.8229 276.798C-58.2937 286.606 -27.86 303.631 -2.28568 326.073C-28.9219 327.279 -50.1409 349.235 -50.1409 376.177C-50.1409 379.182 -49.8349 382.098 -49.313 384.941C-50.9507 382.566 -52.8045 380.28 -54.9282 378.156C-73.9695 359.116 -104.511 358.648 -124.182 376.645C-121.987 342.666 -112.502 309.084 -95.7104 278.417H-95.7284ZM-236.72 345.564C-236.72 321.826 -233.211 298.916 -226.714 277.284C-205.099 270.787 -182.17 267.277 -158.431 267.277C-137.194 267.277 -116.605 270.085 -97.0242 275.34C-131.291 290.763 -147.309 330.735 -132.821 365.667C-131.093 369.824 -129.006 373.729 -126.63 377.347C-130.265 374.953 -134.153 372.883 -138.31 371.156C-173.261 356.686 -213.234 372.703 -228.639 406.952C-233.895 387.371 -236.702 366.782 -236.702 345.546L-236.72 345.564ZM-279.428 559.35C-296.22 542.558 -309.934 523.878 -320.624 503.991C-309.934 484.104 -296.22 465.424 -279.428 448.632C-264.418 433.623 -247.879 421.043 -230.313 410.911C-243.631 446.041 -226.696 485.634 -191.745 500.104C-187.587 501.831 -183.358 503.109 -179.092 503.991C-183.34 504.873 -187.569 506.151 -191.745 507.878C-226.696 522.348 -243.631 561.941 -230.313 597.071C-247.879 586.939 -264.418 574.377 -279.428 559.35ZM-158.431 740.723C-182.17 740.723 -205.081 737.213 -226.714 730.716C-233.211 709.102 -236.72 686.174 -236.72 662.436C-236.72 641.2 -233.913 620.611 -228.657 601.03C-213.234 635.297 -173.261 651.314 -138.328 636.826C-134.171 635.099 -130.265 633.011 -126.648 630.635C-129.042 634.271 -131.111 638.158 -132.839 642.315C-147.309 677.265 -131.291 717.237 -97.0422 732.642C-116.623 737.897 -137.212 740.705 -158.449 740.705L-158.431 740.723ZM-95.6024 729.817C-95.6024 729.817 -95.6924 729.655 -95.7284 729.583C-112.502 698.916 -122.005 665.334 -124.2 631.355C-104.529 649.352 -73.9875 648.884 -54.9462 629.844C-52.8225 627.72 -50.9687 625.434 -49.331 623.059C-49.8529 625.902 -50.1588 628.836 -50.1588 631.823C-50.1588 658.747 -28.9399 680.721 -2.30366 681.927C-27.86 704.369 -58.3117 721.394 -91.8409 731.202C-91.9129 731.22 -92.0029 731.256 -92.0749 731.274C-92.8668 731.508 -93.6407 731.724 -94.4326 731.94C-94.8285 731.238 -95.2245 730.518 -95.6204 729.817H-95.6024ZM55.3601 783.411C38.5685 800.203 19.8872 813.916 6.98864e-06 824.606C-19.8872 813.916 -38.5685 800.203 -55.3601 783.411C-70.37 768.402 -82.9502 751.863 -93.0827 734.298C-57.9517 747.616 -18.3574 730.68 -3.88746 695.73C-2.15971 691.573 -0.881867 687.344 6.98864e-06 683.079C0.881881 687.326 2.1597 691.555 3.88745 695.73C18.3574 730.68 57.9517 747.616 93.0827 734.298C82.9502 751.863 70.388 768.402 55.3601 783.411ZM95.7464 729.583C95.7464 729.583 95.6564 729.745 95.6204 729.817C95.2245 730.518 94.8285 731.238 94.4326 731.94C93.6407 731.724 92.8488 731.49 92.0749 731.274C92.0029 731.256 91.9129 731.238 91.8409 731.202C58.3117 721.394 27.878 704.369 2.30367 681.927C28.9399 680.721 50.1588 658.765 50.1588 631.823C50.1588 628.818 49.8529 625.902 49.331 623.059C50.9688 625.434 52.8225 627.72 54.9462 629.844C73.9875 648.884 104.529 649.352 124.2 631.355C122.005 665.334 112.52 698.916 95.7284 729.583H95.7464ZM236.738 662.436C236.738 686.174 233.229 709.084 226.732 730.716C205.117 737.213 182.188 740.723 158.449 740.723C137.212 740.723 116.623 737.915 97.0422 732.66C131.309 717.237 147.327 677.265 132.839 642.333C131.111 638.176 129.024 634.271 126.648 630.653C130.283 633.047 134.171 635.117 138.328 636.844C173.279 651.314 213.252 635.297 228.657 601.048C233.913 620.629 236.72 641.218 236.72 662.454L236.738 662.436ZM279.428 559.35C264.418 574.359 247.879 586.939 230.313 597.071C243.631 561.941 226.696 522.348 191.745 507.878C187.587 506.151 183.358 504.873 179.093 503.991C183.34 503.109 187.569 501.831 191.745 500.104C226.696 485.634 243.631 446.041 230.313 410.911C247.879 421.043 264.418 433.605 279.428 448.632C296.22 465.424 309.934 484.104 320.624 503.991C309.934 523.878 296.22 542.558 279.428 559.35Z" fill="var(--fill-0, #FDF7E6)"/>
</g>
<defs>
<clipPath id="clip0_0_18">
<rect width="1440" height="520" fill="white"/>
</clipPath>
</defs>
</svg>
