<svg preserveAspectRatio="none" width="100%" height="100%" overflow="visible" style="display: block;" viewBox="0 0 1562 1562" fill="none" xmlns="http://www.w3.org/2000/svg">
<path id="Vector" d="M1340.19 549.387C1423.75 458.439 1421.44 316.926 1333.27 228.763C1245.11 140.6 1103.59 138.293 1012.64 221.844C1007.42 98.4328 905.72 0 781 0C656.324 0 554.624 98.4328 549.402 221.844C458.452 138.293 316.934 140.6 228.769 228.763C140.603 316.926 138.297 458.439 221.85 549.387C98.4355 554.609 0 656.305 0 780.978C0 905.651 98.4355 1007.35 221.85 1012.61C138.297 1103.56 140.603 1245.07 228.769 1333.24C316.934 1421.4 458.452 1423.71 549.402 1340.16C554.624 1463.57 656.324 1562 781 1562C905.676 1562 1007.38 1463.57 1012.6 1340.16C1103.55 1423.71 1245.07 1421.4 1333.23 1333.24C1421.4 1245.07 1423.7 1103.56 1340.15 1012.61C1463.56 1007.39 1562 905.694 1562 781.022C1562 656.349 1463.56 554.652 1340.15 549.387H1340.19ZM1164.12 208.615C1221.52 208.615 1276.92 217.1 1329.23 232.81C1344.94 285.072 1353.42 340.511 1353.42 397.909C1353.42 449.257 1346.63 499.039 1333.93 546.384C1296.63 463.53 1199.98 424.801 1115.52 459.832C1105.46 464.009 1096.02 469.057 1087.27 474.801C1093.06 466.011 1098.06 456.611 1102.24 446.559C1137.23 362.052 1098.5 265.403 1015.69 228.153C1063.03 215.447 1112.82 208.658 1164.17 208.658L1164.12 208.615ZM1085.36 913.832C1080.22 908.697 1074.7 904.215 1068.95 900.255C1075.83 901.517 1082.92 902.257 1090.14 902.257C1155.25 902.257 1208.38 850.952 1211.3 786.548C1265.56 848.341 1306.73 921.969 1330.45 1003.04C1330.49 1003.21 1330.53 1003.43 1330.62 1003.61C1331.19 1005.52 1331.71 1007.39 1332.23 1009.31C1330.53 1010.26 1328.79 1011.22 1327.05 1012.18C1326.88 1012.26 1326.7 1012.4 1326.53 1012.48C1252.38 1053.04 1171.17 1076.02 1089.01 1081.32C1132.53 1033.76 1131.4 959.915 1085.36 913.875V913.832ZM473.03 1081.28C390.87 1075.97 309.667 1053.04 235.514 1012.44C235.34 1012.35 235.166 1012.22 234.992 1012.13C233.251 1011.18 231.554 1010.22 229.813 1009.26C230.336 1007.39 230.858 1005.48 231.424 1003.61C231.467 1003.39 231.554 1003.21 231.598 1003C255.314 921.926 296.481 848.341 350.747 786.505C353.663 850.908 406.754 902.213 471.899 902.213C479.166 902.213 486.216 901.473 493.091 900.212C487.347 904.171 481.82 908.654 476.685 913.788C430.644 959.828 429.513 1033.67 473.03 1081.24V1081.28ZM476.685 648.168C481.82 653.303 487.347 657.785 493.091 661.745C486.216 660.483 479.122 659.743 471.899 659.743C406.797 659.743 353.663 711.048 350.747 775.452C296.481 713.659 255.314 640.031 231.598 559.004C231.554 558.786 231.467 558.569 231.424 558.351C230.858 556.48 230.336 554.609 229.813 552.694C231.511 551.737 233.251 550.78 234.992 549.822C235.166 549.735 235.34 549.605 235.514 549.518C309.667 508.961 390.87 485.985 473.03 480.676C429.513 528.238 430.644 602.085 476.685 648.124V648.168ZM1016.69 785.852C1011.55 783.72 1006.37 782.153 1001.15 781.065C1006.37 779.977 1011.6 778.411 1016.69 776.278C1059.68 758.481 1080.48 709.743 1064.03 666.575C1117.39 696.993 1165.3 735.722 1206.16 781.022C1165.34 826.278 1117.43 865.007 1064.12 895.425C1080.44 852.257 1059.64 803.65 1016.73 785.852H1016.69ZM935.703 848.558C933.092 845.947 930.307 843.685 927.348 841.639C930.829 842.292 934.441 842.64 938.14 842.64C971.213 842.64 998.237 816.574 999.716 783.85C1028 816.052 1049.28 854.607 1061.16 897.035C1022.69 918.662 980.395 930.847 937.531 933.632C959.637 909.437 959.072 871.926 935.659 848.515L935.703 848.558ZM624.513 933.675C581.692 930.934 539.35 918.706 500.881 897.078C512.761 854.65 534.041 816.095 562.327 783.894C563.807 816.618 590.787 842.684 623.904 842.684C627.602 842.684 631.171 842.292 634.696 841.683C631.78 843.684 628.951 845.991 626.34 848.602C602.928 872.013 602.363 909.524 624.469 933.719L624.513 933.675ZM498.009 895.425C444.657 865.007 396.745 826.278 355.882 780.978C396.745 735.678 444.7 696.906 498.052 666.532C481.559 709.743 502.404 758.481 545.399 776.278C550.534 778.411 555.712 779.977 560.934 781.065C555.712 782.153 550.49 783.72 545.399 785.852C502.447 803.65 481.646 852.301 498.009 895.425ZM626.384 713.572C628.995 716.183 631.78 718.446 634.739 720.491C631.258 719.839 627.646 719.49 623.947 719.49C590.874 719.49 563.85 745.556 562.37 778.28C534.084 746.079 512.805 707.523 500.924 665.096C539.393 643.468 581.692 631.284 624.556 628.499C602.45 652.694 603.015 690.204 626.427 713.616L626.384 713.572ZM937.574 628.455C980.395 631.24 1022.74 643.425 1061.21 665.052C1049.33 707.48 1028.05 746.035 999.76 778.237C998.28 745.513 971.3 719.447 938.183 719.447C934.484 719.447 930.916 719.838 927.391 720.448C930.307 718.446 933.135 716.14 935.747 713.529C959.159 690.117 959.724 652.607 937.618 628.412L937.574 628.455ZM900.846 783.502C898.235 782.414 895.58 781.631 892.926 781.065C895.58 780.5 898.235 779.716 900.846 778.628C922.691 769.577 933.266 744.86 924.954 722.928C952.022 738.376 976.391 758.045 997.149 781.065C976.391 804.085 952.065 823.754 924.954 839.202C933.266 817.27 922.691 792.553 900.846 783.502ZM859.679 815.399C858.373 814.094 856.937 812.919 855.458 811.874C857.242 812.179 859.069 812.397 860.941 812.397C877.782 812.397 891.49 799.124 892.229 782.501C906.634 798.863 917.426 818.489 923.475 840.029C903.936 851.039 882.395 857.218 860.636 858.654C871.864 846.339 871.602 827.279 859.679 815.399ZM701.494 858.654C679.736 857.261 658.195 851.039 638.656 840.029C644.705 818.445 655.497 798.863 669.901 782.501C670.641 799.124 684.392 812.397 701.19 812.397C703.061 812.397 704.889 812.223 706.673 811.874C705.193 812.919 703.757 814.05 702.452 815.399C690.572 827.279 690.267 846.383 701.494 858.654ZM637.176 839.202C610.109 823.754 585.739 804.085 564.981 781.065C585.739 758.045 610.065 738.376 637.176 722.928C628.864 744.86 639.439 769.577 661.285 778.628C663.896 779.716 666.55 780.5 669.205 781.065C666.55 781.631 663.896 782.414 661.285 783.502C639.439 792.553 628.864 817.27 637.176 839.202ZM702.408 746.731C703.714 748.037 705.15 749.212 706.629 750.256C704.845 749.951 703.017 749.734 701.146 749.734C684.305 749.734 670.597 763.006 669.857 779.629C655.453 763.267 644.661 743.642 638.612 722.101C658.151 711.092 679.692 704.913 701.451 703.477C690.223 715.792 690.485 734.851 702.408 746.731ZM860.593 703.477C882.351 704.869 903.892 711.092 923.431 722.101C917.382 743.685 906.59 763.267 892.186 779.629C891.446 763.006 877.695 749.734 860.897 749.734C859.026 749.734 857.198 749.908 855.414 750.256C856.894 749.212 858.33 748.08 859.635 746.731C871.515 734.851 871.82 715.748 860.593 703.477ZM820.557 820.534C820.557 820.534 820.557 820.665 820.557 820.752C819.948 832.066 816.771 843.249 811.07 853.432C799.843 850.299 789.703 844.598 781.261 837.027C781.218 836.983 781.174 836.94 781.087 836.896C781.044 836.94 781 836.983 780.913 837.027C772.471 844.598 762.331 850.255 751.104 853.432C745.403 843.293 742.226 832.066 741.617 820.752C741.617 820.665 741.617 820.621 741.617 820.534C741.53 820.534 741.486 820.534 741.399 820.534C730.085 819.925 718.901 816.748 708.718 811.048C711.851 799.821 717.552 789.681 725.124 781.239C725.168 781.196 725.211 781.152 725.255 781.065C725.211 781.022 725.168 780.978 725.124 780.891C717.552 772.449 711.895 762.31 708.718 751.083C718.858 745.382 730.085 742.206 741.399 741.596C741.486 741.596 741.53 741.596 741.617 741.596C741.617 741.509 741.617 741.466 741.617 741.379C742.226 730.065 745.403 718.881 751.104 708.698C762.331 711.832 772.471 717.532 780.913 725.104C780.956 725.147 781 725.191 781.087 725.234C781.131 725.191 781.174 725.147 781.261 725.104C789.703 717.532 799.843 711.875 811.07 708.698C816.771 718.838 819.948 730.065 820.557 741.379C820.557 741.466 820.557 741.509 820.557 741.596C820.644 741.596 820.687 741.596 820.775 741.596C832.089 742.206 843.273 745.382 853.456 751.083C850.323 762.31 844.622 772.449 837.05 780.891C837.006 780.935 836.963 780.978 836.919 781.065C836.963 781.109 837.006 781.152 837.05 781.239C844.622 789.681 850.279 799.821 853.456 811.048C843.316 816.748 832.089 819.925 820.775 820.534C820.687 820.534 820.644 820.534 820.557 820.534ZM720.163 779.847C721.469 780.413 722.818 780.804 724.21 781.065C722.861 781.326 721.512 781.761 720.163 782.284C709.066 786.896 703.714 799.429 707.935 810.612C694.183 802.78 681.781 792.771 671.25 781.065C681.781 769.359 694.183 759.351 707.935 751.518C703.714 762.658 709.066 775.234 720.163 779.847ZM841.924 782.284C840.618 781.718 839.269 781.326 837.877 781.065C839.226 780.804 840.575 780.369 841.924 779.847C853.021 775.234 858.373 762.702 854.152 751.518C867.903 759.351 880.306 769.359 890.837 781.065C880.306 792.771 867.903 802.78 854.152 810.612C858.373 799.472 853.021 786.896 841.924 782.284ZM853.673 750.256C848.756 739.377 836.092 734.286 824.996 738.898C823.69 739.464 822.428 740.117 821.253 740.857C821.993 739.682 822.689 738.463 823.211 737.114C827.824 726.018 822.733 713.355 811.854 708.437C827.128 704.26 842.968 702.563 858.678 703.39C859.505 719.099 857.808 734.939 853.63 750.256H853.673ZM782.262 720.187C781.696 721.492 781.305 722.841 781.043 724.234C780.782 722.885 780.347 721.536 779.825 720.187C775.212 709.09 762.679 703.738 751.495 707.959C759.329 694.208 769.337 681.806 781.043 671.275C792.75 681.806 802.758 694.208 810.592 707.959C799.451 703.738 786.875 709.09 782.262 720.187ZM738.875 737.114C739.441 738.42 740.094 739.682 740.834 740.857C739.659 740.117 738.44 739.421 737.135 738.898C726.038 734.286 713.375 739.377 708.457 750.256C704.279 734.982 702.582 719.142 703.409 703.433C719.119 702.606 734.959 704.303 750.233 708.481C739.354 713.398 734.263 726.061 738.875 737.158V737.114ZM708.414 811.874C713.331 822.753 725.994 827.845 737.091 823.232C738.397 822.666 739.659 822.014 740.79 821.274C740.05 822.449 739.354 823.667 738.832 824.973C734.219 836.069 739.311 848.732 750.19 853.65C734.915 857.827 719.075 859.524 703.366 858.697C702.539 842.988 704.236 827.149 708.414 811.874ZM779.825 841.944C780.391 840.638 780.782 839.289 781.043 837.897C781.305 839.246 781.74 840.595 782.262 841.944C786.875 853.04 799.408 858.393 810.592 854.172C802.758 867.923 792.75 880.325 781.043 890.856C769.337 880.325 759.329 867.923 751.495 854.172C762.636 858.393 775.212 853.04 779.825 841.944ZM823.211 824.973C822.646 823.667 821.993 822.405 821.253 821.274C822.428 822.014 823.647 822.71 824.996 823.232C836.092 827.845 848.756 822.753 853.673 811.874C857.851 827.149 859.548 842.988 858.721 858.741C843.012 859.568 827.172 857.871 811.897 853.693C822.776 848.776 827.868 836.113 823.255 825.016L823.211 824.973ZM923.866 720.404C914.249 698.994 889.27 689.029 867.425 698.037C864.814 699.125 862.377 700.43 860.114 701.91C861.593 699.647 862.899 697.21 863.987 694.599C873.038 672.754 863.03 647.82 841.619 638.159C871.689 629.935 902.804 626.628 933.745 628.238C935.355 659.177 932.047 690.291 923.823 720.361L923.866 720.404ZM858.634 701.518C846.319 690.248 827.259 690.552 815.378 702.476C814.073 703.781 812.898 705.217 811.854 706.697C812.158 704.913 812.376 703.085 812.376 701.214C812.376 684.373 799.103 670.666 782.48 669.926C798.842 655.522 818.468 644.73 840.009 638.682C851.019 658.22 857.198 679.76 858.634 701.518ZM783.48 661.266C782.392 663.877 781.609 666.532 781.043 669.186C780.478 666.532 779.694 663.877 778.607 661.266C769.555 639.421 744.837 628.847 722.905 637.158C738.353 610.092 758.023 585.723 781.043 564.966C804.064 585.723 823.734 610.048 839.182 637.158C817.25 628.847 792.532 639.421 783.48 661.266ZM779.607 669.926C762.984 670.666 749.711 684.417 749.711 701.214C749.711 703.085 749.885 704.913 750.233 706.697C749.189 705.217 748.058 703.781 746.709 702.476C734.828 690.596 715.724 690.291 703.453 701.518C704.845 679.76 711.068 658.22 722.034 638.682C743.619 644.73 763.201 655.522 779.564 669.926H779.607ZM698.057 694.643C699.144 697.254 700.45 699.691 701.93 701.953C699.667 700.474 697.23 699.168 694.619 698.081C672.773 689.029 647.838 699.038 638.177 720.448C629.952 690.378 626.645 659.264 628.255 628.325C659.196 626.715 690.31 630.022 720.381 638.246C698.97 647.863 689.005 672.841 698.013 694.686L698.057 694.643ZM638.221 841.683C647.838 863.093 672.817 873.058 694.662 864.05C697.273 862.962 699.71 861.657 701.973 860.177C700.493 862.44 699.188 864.877 698.1 867.488C689.049 889.333 699.057 914.267 720.468 923.928C690.398 932.152 659.283 935.459 628.342 933.849C626.732 902.909 630.039 871.796 638.264 841.726L638.221 841.683ZM703.453 860.612C715.724 871.839 734.828 871.578 746.709 859.655C748.014 858.349 749.189 856.913 750.233 855.434C749.929 857.218 749.711 859.046 749.711 860.917C749.711 877.757 762.984 891.465 779.607 892.205C763.245 906.608 743.619 917.4 722.078 923.449C711.068 903.91 704.889 882.37 703.453 860.612ZM778.607 900.864C779.694 898.253 780.478 895.599 781.043 892.944C781.609 895.599 782.392 898.253 783.48 900.864C792.532 922.709 817.25 933.284 839.182 924.972C823.734 952.039 804.064 976.408 781.043 997.165C758.023 976.408 738.353 952.082 722.905 924.972C744.837 933.284 769.555 922.709 778.607 900.864ZM782.48 892.205C799.103 891.465 812.376 877.714 812.376 860.917C812.376 859.046 812.202 857.218 811.854 855.434C812.898 856.913 814.029 858.349 815.378 859.655C827.259 871.535 846.362 871.839 858.634 860.612C857.242 882.37 851.019 903.91 840.009 923.449C818.425 917.4 798.842 906.608 782.48 892.205ZM864.03 867.488C862.943 864.877 861.637 862.44 860.157 860.177C862.42 861.657 864.857 862.962 867.468 864.05C889.314 873.101 914.249 863.093 923.91 841.683C932.135 871.752 935.442 902.866 933.832 933.806C902.891 935.416 871.776 932.109 841.706 923.884C863.117 914.267 873.082 889.289 864.074 867.444L864.03 867.488ZM1062.03 661.788C1043.1 619.709 993.972 599.996 951.021 617.794C945.886 619.926 941.099 622.494 936.66 625.409C939.576 620.927 942.143 616.14 944.276 611.049C962.074 568.055 942.318 518.882 900.15 499.953C959.376 483.722 1020.69 477.194 1081.62 480.371C1084.75 541.293 1078.26 602.563 1062.03 661.788ZM933.658 624.539C909.462 602.433 871.951 602.999 848.538 626.41C845.927 629.021 843.664 631.806 841.619 634.765C842.272 631.284 842.62 627.672 842.62 623.973C842.62 590.901 816.553 563.878 783.829 562.398C816.031 534.113 854.587 512.834 897.016 500.954C918.644 539.422 930.829 581.719 933.614 624.582L933.658 624.539ZM785.83 545.427C783.698 550.562 782.131 555.74 781.043 560.962C779.956 555.74 778.389 550.518 776.257 545.427C758.458 502.433 709.719 481.633 666.507 498.082C696.925 444.688 735.655 396.734 781 355.872C826.301 396.734 865.075 444.688 895.45 498.038C852.281 481.633 803.585 502.434 785.787 545.384L785.83 545.427ZM778.215 562.398C745.49 563.878 719.423 590.858 719.423 623.973C719.423 627.672 719.815 631.24 720.424 634.765C718.423 631.85 716.116 629.021 713.505 626.41C690.093 602.999 652.581 602.433 628.386 624.539C631.171 581.719 643.356 539.378 664.984 500.91C707.413 512.79 745.969 534.07 778.171 562.355L778.215 562.398ZM617.811 611.049C619.943 616.184 622.511 620.971 625.427 625.409C620.944 622.45 616.158 619.883 611.066 617.794C568.115 599.996 518.94 619.709 500.011 661.832C483.779 602.607 477.251 541.293 480.428 480.371C541.352 477.238 602.711 483.722 661.937 499.953C619.726 518.839 600.013 568.012 617.811 611.005V611.049ZM499.967 900.212C518.897 942.378 568.028 962.134 611.022 944.337C616.157 942.204 620.944 939.637 625.383 936.721C622.424 941.203 619.856 945.99 617.768 951.081C599.969 994.032 619.639 1043.12 661.72 1062.05C602.537 1078.23 541.265 1084.76 480.384 1081.59C477.251 1020.66 483.735 959.393 499.967 900.212ZM628.429 937.548C652.625 959.654 690.136 959.088 713.549 935.677C716.16 933.066 718.422 930.281 720.468 927.322C719.815 930.803 719.467 934.415 719.467 938.114C719.467 971.186 745.534 998.209 778.258 999.689C746.056 1027.97 707.5 1049.25 665.071 1061.13C643.443 1022.67 631.258 980.368 628.473 937.505L628.429 937.548ZM776.257 1016.7C778.389 1011.57 779.956 1006.39 781.043 1001.17C782.131 1006.39 783.698 1011.61 785.83 1016.7C803.629 1059.65 852.237 1080.45 895.406 1064.09C864.988 1117.4 826.301 1165.31 781.043 1206.13C735.786 1165.31 697.056 1117.4 666.637 1064.09C709.806 1080.5 758.502 1059.7 776.3 1016.7H776.257ZM783.872 999.732C816.597 998.253 842.664 971.273 842.664 938.157C842.664 934.458 842.272 930.89 841.663 927.365C843.665 930.281 845.971 933.109 848.582 935.72C871.994 959.132 909.506 959.698 933.701 937.592C930.96 980.411 918.731 1022.75 897.103 1061.22C854.674 1049.34 816.118 1028.06 783.916 999.776L783.872 999.732ZM944.276 951.038C942.143 945.903 939.576 941.116 936.66 936.678C941.143 939.593 945.929 942.161 951.021 944.293C993.972 962.091 1043.1 942.378 1062.03 900.255C1078.22 959.437 1084.75 1020.71 1081.57 1081.59C1020.69 1084.72 959.463 1078.23 900.28 1062.05C942.361 1043.07 962.031 993.988 944.232 951.038H944.276ZM1090.14 659.743C1082.88 659.743 1075.83 660.483 1068.95 661.745C1074.7 657.785 1080.22 653.303 1085.36 648.168C1131.4 602.128 1132.53 528.282 1089.01 480.719C1171.17 486.028 1252.38 509.004 1326.53 549.561C1326.7 549.648 1326.88 549.779 1327.05 549.866C1328.79 550.823 1330.49 551.78 1332.23 552.738C1331.71 554.652 1331.14 556.524 1330.62 558.438C1330.58 558.612 1330.49 558.83 1330.45 559.004C1306.73 640.074 1265.56 713.659 1211.3 775.495C1208.38 711.092 1155.29 659.787 1090.14 659.787V659.743ZM1012.21 234.985C1012.21 234.985 1012.42 235.333 1012.51 235.508C1053.07 309.658 1076.05 390.859 1081.35 473.017C1033.79 429.501 959.942 430.632 913.901 476.672C908.766 481.807 904.284 487.334 900.324 493.078C901.586 486.202 902.325 479.109 902.325 471.885C902.325 406.786 851.019 353.653 786.614 350.737C848.408 296.473 922.039 255.307 1003.11 231.591C1003.28 231.548 1003.5 231.504 1003.68 231.417C1005.59 230.851 1007.46 230.329 1009.38 229.807C1010.33 231.504 1011.29 233.245 1012.25 234.985H1012.21ZM647.142 105.352C687.743 64.7515 732.914 31.5925 781 5.74409C829.086 31.5925 874.257 64.7515 914.858 105.352C951.152 141.644 981.57 181.635 1006.07 224.106C921.125 191.905 825.387 232.853 790.4 317.361C786.222 327.413 783.132 337.639 781 347.952C778.868 337.683 775.778 327.456 771.6 317.361C736.613 232.853 640.875 191.905 555.93 224.106C580.43 181.635 610.805 141.644 647.142 105.352ZM549.533 235.551C549.533 235.551 549.75 235.203 549.838 235.029C550.795 233.288 551.752 231.591 552.71 229.85C554.624 230.373 556.496 230.938 558.41 231.461C558.584 231.504 558.802 231.591 558.976 231.635C640.048 255.351 713.636 296.517 775.473 350.781C711.068 353.696 659.762 406.786 659.762 471.929C659.762 479.196 660.501 486.246 661.763 493.121C657.803 487.377 653.321 481.851 648.186 476.716C602.145 430.676 528.297 429.545 480.733 473.06C486.042 390.902 508.975 309.702 549.576 235.551H549.533ZM208.621 397.909C208.621 340.511 217.106 285.116 232.816 232.81C285.08 217.1 340.521 208.615 397.92 208.615C449.27 208.615 499.053 215.403 546.4 228.11C463.543 265.403 424.813 362.052 459.844 446.516C464.022 456.568 469.07 466.011 474.814 474.757C466.024 468.97 456.624 463.966 446.572 459.788C362.062 424.801 265.41 463.53 228.16 546.341C215.453 498.996 208.664 449.214 208.664 397.865L208.621 397.909ZM105.355 914.833C64.7533 874.233 31.5934 829.063 5.74425 780.978C31.5934 732.893 64.7533 687.724 105.355 647.124C141.648 610.831 181.64 580.414 224.113 555.914C191.91 640.857 232.86 736.592 317.37 771.579C327.422 775.756 337.649 778.846 347.962 780.978C337.692 783.11 327.466 786.2 317.37 790.378C232.86 825.364 191.91 921.099 224.113 1006.04C181.64 981.543 141.648 951.169 105.355 914.833ZM397.92 1353.39C340.521 1353.39 285.124 1344.9 232.816 1329.19C217.106 1276.93 208.621 1221.49 208.621 1164.09C208.621 1112.74 215.409 1062.96 228.116 1015.62C265.41 1098.47 362.062 1137.2 446.528 1102.17C456.581 1097.99 466.024 1092.94 474.771 1087.2C468.983 1095.99 463.978 1105.39 459.801 1115.44C424.813 1199.95 463.543 1296.6 546.356 1333.85C499.01 1346.55 449.226 1353.34 397.876 1353.34L397.92 1353.39ZM549.838 1327.01C549.838 1327.01 549.62 1326.62 549.533 1326.45C508.975 1252.3 485.998 1171.1 480.689 1088.94C528.253 1132.46 602.101 1131.32 648.142 1085.28C653.277 1080.15 657.76 1074.62 661.72 1068.88C660.458 1075.75 659.718 1082.85 659.718 1090.07C659.718 1155.17 711.025 1208.3 775.43 1211.22C713.636 1265.48 640.005 1306.65 558.933 1330.37C558.759 1330.41 558.541 1330.5 558.367 1330.54C556.452 1331.11 554.581 1331.63 552.666 1332.15C551.709 1330.45 550.751 1328.71 549.794 1327.01H549.838ZM914.858 1456.6C874.257 1497.2 829.086 1530.36 781 1556.21C732.914 1530.36 687.743 1497.2 647.142 1456.6C610.848 1420.31 580.43 1380.32 555.93 1337.85C640.875 1370.05 736.613 1329.1 771.6 1244.6C775.778 1234.54 778.868 1224.32 781 1214C783.132 1224.27 786.222 1234.5 790.4 1244.6C825.387 1329.1 921.125 1370.05 1006.07 1337.85C981.57 1380.32 951.195 1420.31 914.858 1456.6ZM1012.51 1326.45C1012.51 1326.45 1012.29 1326.84 1012.21 1327.01C1011.25 1328.71 1010.29 1330.45 1009.33 1332.15C1007.42 1331.63 1005.5 1331.06 1003.63 1330.54C1003.46 1330.5 1003.24 1330.45 1003.07 1330.37C921.995 1306.65 848.408 1265.48 786.57 1211.22C850.975 1208.3 902.282 1155.21 902.282 1090.07C902.282 1082.8 901.542 1075.75 900.28 1068.88C904.24 1074.62 908.722 1080.15 913.857 1085.28C959.898 1131.32 1033.75 1132.46 1081.31 1088.94C1076 1171.1 1053.07 1252.3 1012.47 1326.45H1012.51ZM1353.42 1164.09C1353.42 1221.49 1344.94 1276.88 1329.23 1329.19C1276.96 1344.9 1221.52 1353.39 1164.12 1353.39C1112.77 1353.39 1062.99 1346.6 1015.64 1333.89C1098.5 1296.6 1137.23 1199.95 1102.2 1115.48C1098.02 1105.43 1092.97 1095.99 1087.23 1087.24C1096.02 1093.03 1105.42 1098.03 1115.47 1102.21C1199.98 1137.2 1296.63 1098.47 1333.88 1015.66C1346.59 1063 1353.38 1112.79 1353.38 1164.13L1353.42 1164.09ZM1456.65 914.833C1420.35 951.125 1380.36 981.543 1337.89 1006.04C1370.09 921.099 1329.14 825.364 1244.63 790.378C1234.58 786.2 1224.35 783.11 1214.04 780.978C1224.31 778.846 1234.53 775.756 1244.63 771.579C1329.14 736.592 1370.09 640.857 1337.89 555.914C1380.36 580.414 1420.35 610.788 1456.65 647.124C1497.25 687.724 1530.41 732.893 1556.26 780.978C1530.41 829.063 1497.25 874.233 1456.65 914.833Z" fill="var(--fill-0, #FDF7E6)"/>
</svg>
