<svg preserveAspectRatio="none" width="100%" height="100%" overflow="visible" style="display: block;" viewBox="0 0 1577 1577" fill="none" xmlns="http://www.w3.org/2000/svg">
<path id="Vector" d="M1353.06 554.663C1437.42 462.841 1435.09 319.969 1346.08 230.959C1257.07 141.95 1114.19 139.621 1022.37 223.974C1017.09 99.378 914.417 0 788.5 0C662.626 0 559.951 99.378 554.678 223.974C462.854 139.621 319.978 141.95 230.966 230.959C141.954 319.969 139.625 462.841 223.98 554.663C99.3808 559.935 0 662.608 0 788.478C0 914.348 99.3808 1017.02 223.98 1022.34C139.625 1114.16 141.954 1257.03 230.966 1346.04C319.978 1435.05 462.854 1437.38 554.678 1353.03C559.951 1477.62 662.626 1577 788.5 1577C914.374 1577 1017.05 1477.62 1022.32 1353.03C1114.15 1437.38 1257.02 1435.05 1346.03 1346.04C1435.05 1257.03 1437.37 1114.16 1353.02 1022.34C1477.62 1017.07 1577 914.392 1577 788.522C1577 662.652 1477.62 559.979 1353.02 554.663H1353.06ZM1175.3 210.618C1233.25 210.618 1289.18 219.185 1341.99 235.045C1357.85 287.81 1366.42 343.781 1366.42 401.73C1366.42 453.571 1359.57 503.832 1346.74 551.631C1309.08 467.982 1211.51 428.881 1126.23 464.247C1116.08 468.465 1106.54 473.561 1097.71 479.361C1103.56 470.486 1108.61 460.996 1112.83 450.848C1148.15 365.528 1109.05 267.952 1025.44 230.344C1073.24 217.516 1123.5 210.662 1175.35 210.662L1175.3 210.618ZM1095.78 922.608C1090.6 917.423 1085.02 912.898 1079.22 908.9C1086.16 910.174 1093.32 910.921 1100.61 910.921C1166.34 910.921 1219.98 859.123 1222.93 794.102C1277.72 856.487 1319.28 930.823 1343.22 1012.67C1343.27 1012.85 1343.31 1013.07 1343.4 1013.24C1343.97 1015.18 1344.5 1017.07 1345.02 1019C1343.31 1019.96 1341.55 1020.93 1339.8 1021.9C1339.62 1021.99 1339.44 1022.12 1339.27 1022.21C1264.4 1063.15 1182.42 1086.35 1099.47 1091.71C1143.41 1043.69 1142.26 969.133 1095.78 922.651V922.608ZM477.573 1091.66C394.623 1086.3 312.641 1063.15 237.776 1022.16C237.6 1022.07 237.424 1021.94 237.249 1021.85C235.491 1020.89 233.778 1019.92 232.02 1018.95C232.548 1017.07 233.075 1015.13 233.646 1013.24C233.69 1013.02 233.778 1012.85 233.822 1012.63C257.766 930.779 299.329 856.487 354.115 794.058C357.059 859.08 410.66 910.877 476.43 910.877C483.767 910.877 490.885 910.13 497.827 908.856C492.027 912.854 486.447 917.38 481.263 922.564C434.78 969.046 433.638 1043.6 477.573 1091.62V1091.66ZM481.263 654.392C486.447 659.577 492.027 664.102 497.827 668.1C490.885 666.826 483.723 666.079 476.43 666.079C410.704 666.079 357.059 717.877 354.115 782.898C299.329 720.513 257.766 646.177 233.822 564.372C233.778 564.153 233.69 563.933 233.646 563.713C233.075 561.824 232.548 559.935 232.02 558.002C233.734 557.035 235.491 556.069 237.249 555.102C237.424 555.014 237.6 554.883 237.776 554.795C312.641 513.848 394.623 490.651 477.573 485.292C433.638 533.311 434.78 607.867 481.263 654.348V654.392ZM1026.45 793.399C1021.27 791.246 1016.04 789.664 1010.77 788.566C1016.04 787.468 1021.31 785.886 1026.45 783.733C1069.86 765.764 1090.86 716.559 1074.25 672.976C1128.12 703.686 1176.49 742.787 1217.74 788.522C1176.53 834.213 1128.16 873.314 1074.34 904.024C1090.82 860.441 1069.82 811.367 1026.5 793.399H1026.45ZM944.689 856.707C942.053 854.071 939.241 851.787 936.253 849.722C939.768 850.381 943.415 850.732 947.149 850.732C980.54 850.732 1007.82 824.416 1009.32 791.378C1037.87 823.889 1059.36 862.814 1071.35 905.649C1032.51 927.484 989.81 939.786 946.534 942.597C968.853 918.17 968.282 880.299 944.645 856.663L944.689 856.707ZM630.51 942.641C587.278 939.874 544.529 927.528 505.691 905.693C517.685 862.858 539.169 823.932 567.727 791.422C569.221 824.46 596.46 850.776 629.895 850.776C633.629 850.776 637.232 850.381 640.791 849.766C637.847 851.786 634.991 854.115 632.355 856.751C608.718 880.387 608.147 918.258 630.466 942.685L630.51 942.641ZM502.791 904.024C448.927 873.314 400.555 834.213 359.3 788.478C400.555 742.743 448.971 703.598 502.835 672.932C486.184 716.559 507.229 765.764 550.636 783.733C555.821 785.886 561.049 787.468 566.321 788.566C561.049 789.664 555.777 791.246 550.636 793.399C507.273 811.367 486.272 860.485 502.791 904.024ZM632.399 720.425C635.035 723.061 637.847 725.345 640.835 727.41C637.32 726.751 633.673 726.4 629.939 726.4C596.548 726.4 569.265 752.716 567.771 785.754C539.213 753.243 517.729 714.318 505.735 671.483C544.573 649.648 587.278 637.346 630.554 634.534C608.235 658.961 608.806 696.832 632.443 720.469L632.399 720.425ZM946.578 634.49C989.81 637.302 1032.56 649.604 1071.4 671.439C1059.4 714.274 1037.92 753.199 1009.36 785.71C1007.87 752.672 980.627 726.356 947.193 726.356C943.458 726.356 939.856 726.751 936.297 727.366C939.241 725.345 942.096 723.017 944.733 720.381C968.37 696.744 968.941 658.874 946.622 634.447L946.578 634.49ZM909.497 791.026C906.861 789.928 904.181 789.137 901.501 788.566C904.181 787.995 906.861 787.204 909.497 786.106C931.552 776.967 942.228 752.013 933.837 729.871C961.164 745.467 985.768 765.325 1006.72 788.566C985.768 811.807 961.208 831.665 933.837 847.261C942.228 825.119 931.552 800.164 909.497 791.026ZM867.934 823.23C866.616 821.912 865.166 820.725 863.673 819.671C865.474 819.979 867.319 820.198 869.208 820.198C886.211 820.198 900.051 806.798 900.798 790.016C915.34 806.535 926.236 826.349 932.343 848.096C912.616 859.211 890.868 865.45 868.901 866.9C880.236 854.466 879.972 835.223 867.934 823.23ZM708.231 866.9C686.263 865.494 664.516 859.211 644.789 848.096C650.896 826.305 661.792 806.535 676.334 790.016C677.081 806.798 690.964 820.198 707.923 820.198C709.813 820.198 711.658 820.022 713.459 819.671C711.965 820.725 710.515 821.868 709.197 823.23C697.203 835.223 696.896 854.51 708.231 866.9ZM643.295 847.261C615.968 831.665 591.364 811.807 570.407 788.566C591.364 765.325 615.924 745.467 643.295 729.871C634.903 752.013 645.58 776.967 667.635 786.106C670.271 787.204 672.951 787.995 675.631 788.566C672.951 789.137 670.271 789.928 667.635 791.026C645.58 800.164 634.903 825.119 643.295 847.261ZM709.154 753.902C710.472 755.22 711.921 756.406 713.415 757.461C711.614 757.153 709.769 756.934 707.879 756.934C690.877 756.934 677.037 770.333 676.29 787.116C661.748 770.597 650.852 750.783 644.745 729.036C664.472 717.921 686.22 711.682 708.187 710.232C696.852 722.665 697.115 741.908 709.154 753.902ZM868.857 710.232C890.824 711.638 912.572 717.921 932.299 729.036C926.192 750.827 915.296 770.597 900.754 787.116C900.007 770.333 886.123 756.934 869.165 756.934C867.275 756.934 865.43 757.109 863.629 757.461C865.123 756.406 866.572 755.264 867.89 753.902C879.885 741.908 880.192 722.621 868.857 710.232ZM828.437 828.414C828.437 828.414 828.437 828.546 828.437 828.633C827.822 840.056 824.615 851.347 818.859 861.628C807.524 858.464 797.287 852.709 788.764 845.065C788.72 845.021 788.676 844.977 788.588 844.933C788.544 844.977 788.5 845.021 788.412 845.065C779.889 852.709 769.652 858.42 758.317 861.628C752.561 851.391 749.354 840.056 748.739 828.633C748.739 828.546 748.739 828.502 748.739 828.414C748.651 828.414 748.607 828.414 748.519 828.414C737.096 827.799 725.805 824.592 715.524 818.836C718.687 807.501 724.443 797.265 732.088 788.742C732.131 788.698 732.175 788.654 732.219 788.566C732.175 788.522 732.131 788.478 732.088 788.39C724.443 779.867 718.731 769.63 715.524 758.296C725.761 752.54 737.096 749.333 748.519 748.718C748.607 748.718 748.651 748.718 748.739 748.718C748.739 748.63 748.739 748.586 748.739 748.498C749.354 737.076 752.561 725.785 758.317 715.504C769.652 718.667 779.889 724.423 788.412 732.067C788.456 732.111 788.5 732.155 788.588 732.199C788.632 732.155 788.676 732.111 788.764 732.067C797.287 724.423 807.524 718.711 818.859 715.504C824.615 725.741 827.822 737.076 828.437 748.498C828.437 748.586 828.437 748.63 828.437 748.718C828.525 748.718 828.569 748.718 828.657 748.718C840.08 749.333 851.371 752.54 861.652 758.296C858.488 769.63 852.733 779.867 845.088 788.39C845.044 788.434 845 788.478 844.956 788.566C845 788.61 845.044 788.654 845.088 788.742C852.733 797.265 858.444 807.501 861.652 818.836C851.415 824.592 840.08 827.799 828.657 828.414C828.569 828.414 828.525 828.414 828.437 828.414ZM727.079 787.336C728.397 787.907 729.759 788.302 731.165 788.566C729.803 788.83 728.441 789.269 727.079 789.796C715.876 794.453 710.472 807.106 714.733 818.397C700.85 810.489 688.328 800.384 677.696 788.566C688.328 776.748 700.85 766.643 714.733 758.735C710.472 769.982 715.876 782.679 727.079 787.336ZM850.009 789.796C848.691 789.225 847.329 788.83 845.923 788.566C847.285 788.302 848.647 787.863 850.009 787.336C861.212 782.679 866.616 770.026 862.355 758.735C876.238 766.643 888.759 776.748 899.392 788.566C888.759 800.384 876.238 810.489 862.355 818.397C866.616 807.15 861.212 794.453 850.009 789.796ZM861.871 757.461C856.907 746.477 844.122 741.337 832.918 745.994C831.6 746.565 830.326 747.224 829.14 747.971C829.887 746.785 830.59 745.555 831.117 744.193C835.774 732.99 830.634 720.205 819.65 715.241C835.071 711.023 851.063 709.31 866.924 710.144C867.759 726.004 866.045 741.996 861.827 757.461H861.871ZM789.774 727.103C789.203 728.421 788.808 729.783 788.544 731.188C788.28 729.827 787.841 728.465 787.314 727.103C782.657 715.9 770.003 710.496 758.712 714.757C766.62 700.874 776.725 688.353 788.544 677.721C800.362 688.353 810.467 700.874 818.376 714.757C807.128 710.496 794.431 715.9 789.774 727.103ZM745.971 744.193C746.542 745.511 747.201 746.785 747.948 747.971C746.762 747.224 745.532 746.521 744.214 745.994C733.01 741.337 720.225 746.477 715.26 757.461C711.043 742.04 709.329 726.048 710.164 710.188C726.025 709.353 742.017 711.067 757.438 715.285C746.454 720.249 741.314 733.034 745.971 744.237V744.193ZM715.217 819.671C720.181 830.654 732.966 835.795 744.17 831.138C745.488 830.566 746.762 829.907 747.904 829.161C747.157 830.347 746.454 831.577 745.927 832.895C741.27 844.098 746.41 856.883 757.394 861.847C741.973 866.065 725.981 867.778 710.12 866.944C709.285 851.084 710.999 835.092 715.217 819.671ZM787.314 850.029C787.885 848.711 788.28 847.349 788.544 845.943C788.808 847.305 789.247 848.667 789.774 850.029C794.431 861.232 807.084 866.636 818.376 862.374C810.467 876.258 800.362 888.779 788.544 899.411C776.725 888.779 766.62 876.258 758.712 862.374C769.959 866.636 782.657 861.232 787.314 850.029ZM831.117 832.895C830.546 831.577 829.887 830.303 829.14 829.161C830.326 829.907 831.556 830.61 832.918 831.138C844.122 835.795 856.907 830.654 861.871 819.671C866.089 835.092 867.803 851.084 866.968 866.988C851.107 867.822 835.115 866.109 819.694 861.891C830.678 856.927 835.818 844.142 831.161 832.939L831.117 832.895ZM932.738 727.322C923.029 705.707 897.81 695.646 875.755 704.74C873.119 705.839 870.658 707.157 868.374 708.651C869.867 706.366 871.185 703.906 872.284 701.27C881.422 679.215 871.317 654.041 849.701 644.288C880.06 635.984 911.474 632.645 942.712 634.271C944.337 665.508 940.998 696.92 932.694 727.278L932.738 727.322ZM866.88 708.255C854.446 696.876 835.203 697.184 823.209 709.222C821.89 710.54 820.704 711.989 819.65 713.483C819.957 711.682 820.177 709.837 820.177 707.948C820.177 690.945 806.777 677.106 789.994 676.359C806.513 661.817 826.328 650.922 848.076 644.815C859.191 664.541 865.43 686.288 866.88 708.255ZM791.004 667.616C789.906 670.252 789.115 672.932 788.544 675.612C787.973 672.932 787.182 670.252 786.084 667.616C776.945 645.562 751.99 634.886 729.847 643.277C745.444 615.95 765.302 591.348 788.544 570.391C811.785 591.348 831.644 615.906 847.241 643.277C825.098 634.886 800.143 645.562 791.004 667.616ZM787.094 676.359C770.311 677.106 756.911 690.989 756.911 707.948C756.911 709.837 757.087 711.682 757.438 713.483C756.384 711.989 755.241 710.54 753.879 709.222C741.885 697.228 722.598 696.92 710.208 708.255C711.614 686.288 717.897 664.541 728.968 644.815C750.76 650.922 770.531 661.817 787.05 676.359H787.094ZM704.76 701.314C705.858 703.95 707.176 706.41 708.67 708.694C706.386 707.201 703.925 705.883 701.289 704.784C679.234 695.646 654.059 705.751 644.306 727.366C636.002 697.008 632.663 665.595 634.288 634.359C665.526 632.733 696.94 636.072 727.299 644.375C705.683 654.085 695.622 679.303 704.716 701.358L704.76 701.314ZM644.35 849.766C654.059 871.381 679.278 881.442 701.333 872.347C703.969 871.249 706.43 869.931 708.714 868.437C707.22 870.722 705.902 873.182 704.804 875.818C695.666 897.873 705.771 923.047 727.387 932.8C697.027 941.104 665.614 944.443 634.376 942.817C632.751 911.58 636.09 880.168 644.393 849.809L644.35 849.766ZM710.208 868.877C722.598 880.212 741.885 879.948 753.879 867.91C755.197 866.592 756.384 865.142 757.438 863.649C757.13 865.45 756.911 867.295 756.911 869.184C756.911 886.187 770.311 900.026 787.094 900.773C770.575 915.315 750.76 926.21 729.012 932.317C717.897 912.591 711.658 890.844 710.208 868.877ZM786.084 909.515C787.182 906.879 787.973 904.199 788.544 901.519C789.115 904.199 789.906 906.879 791.004 909.515C800.143 931.57 825.098 942.246 847.241 933.855C831.644 961.181 811.785 985.784 788.544 1006.74C765.302 985.784 745.444 961.225 729.847 933.855C751.99 942.246 776.945 931.57 786.084 909.515ZM789.994 900.773C806.777 900.026 820.177 886.143 820.177 869.184C820.177 867.295 820.001 865.45 819.65 863.649C820.704 865.142 821.847 866.592 823.209 867.91C835.203 879.904 854.49 880.212 866.88 868.877C865.474 890.844 859.191 912.591 848.076 932.317C826.284 926.21 806.513 915.315 789.994 900.773ZM872.328 875.818C871.229 873.182 869.911 870.722 868.418 868.437C870.702 869.931 873.163 871.249 875.799 872.347C897.854 881.486 923.029 871.381 932.782 849.766C941.086 880.124 944.425 911.536 942.799 942.773C911.562 944.399 880.148 941.06 849.789 932.756C871.405 923.047 881.466 897.829 872.372 875.774L872.328 875.818ZM1072.23 668.144C1053.12 625.66 1003.52 605.758 960.154 623.727C954.969 625.879 950.137 628.471 945.655 631.415C948.599 626.89 951.191 622.057 953.344 616.917C971.313 573.51 951.367 523.865 908.794 504.754C968.589 488.367 1030.49 481.777 1092 484.984C1095.17 546.491 1088.62 608.35 1072.23 668.144ZM942.624 630.536C918.196 608.218 880.324 608.789 856.687 632.426C854.051 635.062 851.766 637.873 849.701 640.861C850.36 637.346 850.712 633.7 850.712 629.965C850.712 596.576 824.395 569.293 791.356 567.799C823.868 539.242 862.794 517.759 905.631 505.765C927.466 544.602 939.768 587.306 942.58 630.58L942.624 630.536ZM793.377 550.665C791.224 555.849 789.642 561.077 788.544 566.349C787.446 561.077 785.864 555.805 783.711 550.665C765.742 507.258 716.535 486.258 672.907 502.865C703.618 448.958 742.72 400.543 788.5 359.29C834.236 400.543 873.382 448.958 904.049 502.821C860.465 486.258 811.302 507.258 793.333 550.621L793.377 550.665ZM785.688 567.799C752.649 569.293 726.332 596.532 726.332 629.965C726.332 633.7 726.728 637.302 727.343 640.861C725.322 637.917 722.993 635.062 720.357 632.426C696.72 608.789 658.848 608.218 634.42 630.536C637.232 587.306 649.534 544.558 671.369 505.721C714.206 517.715 753.132 539.198 785.644 567.755L785.688 567.799ZM623.744 616.917C625.897 622.101 628.489 626.934 631.433 631.415C626.907 628.428 622.075 625.835 616.934 623.727C573.57 605.758 523.924 625.66 504.812 668.188C488.424 608.394 481.834 546.491 485.042 484.984C546.55 481.821 608.499 488.367 668.294 504.754C625.677 523.821 605.775 573.467 623.744 616.873V616.917ZM504.768 908.856C523.88 951.428 573.482 971.374 616.89 953.405C622.075 951.252 626.907 948.66 631.389 945.717C628.401 950.242 625.809 955.075 623.7 960.215C605.731 1003.58 625.589 1053.13 668.074 1072.25C608.323 1088.59 546.463 1095.18 484.998 1091.97C481.834 1030.46 488.381 968.606 504.768 908.856ZM634.464 946.551C658.892 968.87 696.764 968.299 720.401 944.662C723.037 942.026 725.322 939.215 727.387 936.227C726.727 939.742 726.376 943.388 726.376 947.123C726.376 980.512 752.693 1007.79 785.732 1009.29C753.22 1037.85 714.294 1059.33 671.457 1071.32C649.622 1032.49 637.32 989.782 634.508 946.508L634.464 946.551ZM783.711 1026.47C785.864 1021.28 787.446 1016.05 788.544 1010.78C789.642 1016.05 791.224 1021.33 793.377 1026.47C811.346 1069.83 860.421 1090.83 904.005 1074.31C873.294 1128.13 834.236 1176.5 788.544 1217.71C742.852 1176.5 703.75 1128.13 673.039 1074.31C716.622 1090.87 765.786 1069.87 783.755 1026.47H783.711ZM791.4 1009.33C824.439 1007.84 850.756 980.6 850.756 947.166C850.756 943.432 850.36 939.83 849.745 936.271C851.766 939.215 854.095 942.07 856.731 944.706C880.368 968.343 918.24 968.914 942.668 946.595C939.9 989.826 927.554 1032.57 905.718 1071.41C862.882 1059.42 823.955 1037.93 791.444 1009.38L791.4 1009.33ZM953.344 960.171C951.191 954.987 948.599 950.154 945.655 945.673C950.181 948.616 955.013 951.208 960.154 953.361C1003.52 971.33 1053.12 951.428 1072.23 908.9C1088.58 968.65 1095.17 1030.51 1091.96 1091.97C1030.49 1095.14 968.677 1088.59 908.926 1072.25C951.411 1053.09 971.269 1003.53 953.3 960.171H953.344ZM1100.61 666.079C1093.28 666.079 1086.16 666.826 1079.22 668.1C1085.02 664.102 1090.6 659.577 1095.78 654.392C1142.26 607.911 1143.41 533.355 1099.47 485.336C1182.42 490.695 1264.4 513.892 1339.27 554.839C1339.44 554.927 1339.62 555.058 1339.8 555.146C1341.55 556.113 1343.27 557.079 1345.02 558.046C1344.5 559.979 1343.93 561.868 1343.4 563.801C1343.35 563.977 1343.27 564.197 1343.22 564.372C1319.28 646.221 1277.72 720.513 1222.93 782.942C1219.98 717.921 1166.38 666.123 1100.61 666.123V666.079ZM1021.93 237.242C1021.93 237.242 1022.15 237.593 1022.23 237.769C1063.18 312.632 1086.38 394.612 1091.74 477.559C1043.72 433.626 969.16 434.768 922.677 481.25C917.493 486.434 912.968 492.013 908.97 497.813C910.244 490.871 910.991 483.71 910.991 476.417C910.991 410.692 859.191 357.049 794.168 354.106C856.555 299.32 930.893 257.759 1012.74 233.815C1012.92 233.771 1013.14 233.727 1013.31 233.639C1015.25 233.068 1017.14 232.541 1019.07 232.014C1020.04 233.727 1021 235.485 1021.97 237.242H1021.93ZM653.356 106.363C694.348 65.3733 739.952 31.8959 788.5 5.79925C837.048 31.8959 882.653 65.3733 923.644 106.363C960.286 143.004 990.996 183.379 1015.73 226.259C929.97 193.748 833.314 235.089 797.99 320.408C793.772 330.557 790.653 340.882 788.5 351.294C786.347 340.925 783.228 330.601 779.01 320.408C743.686 235.089 647.03 193.748 561.269 226.259C586.004 183.379 616.671 143.004 653.356 106.363ZM554.81 237.813C554.81 237.813 555.03 237.462 555.118 237.286C556.084 235.529 557.051 233.815 558.017 232.058C559.951 232.585 561.84 233.156 563.773 233.683C563.949 233.727 564.168 233.815 564.344 233.859C646.195 257.803 720.489 299.364 782.92 354.15C717.897 357.093 666.097 410.692 666.097 476.461C666.097 483.798 666.844 490.915 668.118 497.857C664.12 492.057 659.595 486.478 654.411 481.294C607.927 434.812 533.37 433.669 485.349 477.603C490.709 394.656 513.863 312.676 554.854 237.813H554.81ZM210.624 401.73C210.624 343.781 219.191 287.854 235.052 235.045C287.818 219.185 343.791 210.618 401.741 210.618C453.584 210.618 503.846 217.472 551.647 230.3C467.995 267.952 428.893 365.528 464.26 450.804C468.478 460.952 473.575 470.486 479.374 479.317C470.499 473.473 461.009 468.421 450.86 464.203C365.539 428.881 267.959 467.982 230.351 551.588C217.522 503.788 210.668 453.528 210.668 401.686L210.624 401.73ZM106.366 923.618C65.3752 882.628 31.8968 837.025 5.79941 788.478C31.8968 739.931 65.3752 694.328 106.366 653.338C143.008 616.697 183.384 585.988 226.265 561.253C193.753 647.012 235.096 743.666 320.417 778.988C330.566 783.206 340.891 786.325 351.304 788.478C340.935 790.631 330.61 793.75 320.417 797.968C235.096 833.29 193.753 929.945 226.265 1015.7C183.384 990.968 143.008 960.303 106.366 923.618ZM401.741 1366.38C343.791 1366.38 287.862 1357.81 235.052 1341.95C219.191 1289.19 210.624 1233.22 210.624 1175.27C210.624 1123.43 217.478 1073.17 230.307 1025.37C267.959 1109.02 365.539 1148.12 450.816 1112.75C460.965 1108.54 470.499 1103.44 479.33 1097.64C473.487 1106.51 468.434 1116 464.216 1126.15C428.893 1211.47 467.995 1309.05 551.603 1346.66C503.802 1359.48 453.54 1366.34 401.697 1366.34L401.741 1366.38ZM555.118 1339.76C555.118 1339.76 554.898 1339.36 554.81 1339.19C513.863 1264.32 490.665 1182.34 485.305 1099.4C533.326 1143.33 607.884 1142.19 654.367 1095.71C659.551 1090.52 664.076 1084.94 668.074 1079.14C666.8 1086.08 666.053 1093.25 666.053 1100.54C666.053 1166.26 717.853 1219.91 782.876 1222.85C720.489 1277.64 646.151 1319.2 564.3 1343.14C564.124 1343.18 563.905 1343.27 563.729 1343.32C561.796 1343.89 559.907 1344.42 557.973 1344.94C557.007 1343.23 556.04 1341.47 555.074 1339.76H555.118ZM923.644 1470.59C882.653 1511.58 837.048 1545.06 788.5 1571.16C739.952 1545.06 694.348 1511.58 653.356 1470.59C616.714 1433.95 586.004 1393.58 561.269 1350.7C647.03 1383.21 743.686 1341.87 779.01 1256.55C783.228 1246.4 786.347 1236.07 788.5 1225.66C790.653 1236.03 793.772 1246.36 797.99 1256.55C833.314 1341.87 929.97 1383.21 1015.73 1350.7C990.996 1393.58 960.329 1433.95 923.644 1470.59ZM1022.23 1339.19C1022.23 1339.19 1022.01 1339.58 1021.93 1339.76C1020.96 1341.47 1019.99 1343.23 1019.03 1344.94C1017.09 1344.42 1015.16 1343.84 1013.27 1343.32C1013.1 1343.27 1012.88 1343.23 1012.7 1343.14C930.849 1319.2 856.555 1277.64 794.124 1222.85C859.147 1219.91 910.947 1166.31 910.947 1100.54C910.947 1093.2 910.2 1086.08 908.926 1079.14C912.924 1084.94 917.449 1090.52 922.633 1095.71C969.116 1142.19 1043.67 1143.33 1091.69 1099.4C1086.33 1182.34 1063.18 1264.32 1022.19 1339.19H1022.23ZM1366.42 1175.27C1366.42 1233.22 1357.85 1289.15 1341.99 1341.95C1289.23 1357.81 1233.25 1366.38 1175.3 1366.38C1123.46 1366.38 1073.2 1359.53 1025.4 1346.7C1109.05 1309.05 1148.15 1211.47 1112.78 1126.2C1108.57 1116.05 1103.47 1106.51 1097.67 1097.68C1106.54 1103.53 1116.03 1108.58 1126.18 1112.8C1211.51 1148.12 1309.08 1109.02 1346.69 1025.41C1359.52 1073.21 1366.38 1123.47 1366.38 1175.31L1366.42 1175.27ZM1470.63 923.618C1433.99 960.259 1393.62 990.968 1350.74 1015.7C1383.25 929.945 1341.9 833.29 1256.58 797.968C1246.43 793.75 1236.11 790.631 1225.7 788.478C1236.07 786.325 1246.39 783.206 1256.58 778.988C1341.9 743.666 1383.25 647.012 1350.74 561.253C1393.62 585.988 1433.99 616.653 1470.63 653.338C1511.62 694.328 1545.1 739.931 1571.2 788.478C1545.1 837.025 1511.62 882.628 1470.63 923.618Z" fill="url(#paint0_radial_0_730)"/>
<defs>
<radialGradient id="paint0_radial_0_730" cx="0" cy="0" r="1" gradientUnits="userSpaceOnUse" gradientTransform="translate(788.5 788.478) scale(996.576 996.548)">
<stop stop-color="#C59600" stop-opacity="0.5"/>
<stop offset="1" stop-color="white" stop-opacity="0"/>
</radialGradient>
</defs>
</svg>
