<svg width="280" height="66" overflow="visible" style="display: block;" viewBox="0 0 280 66" fill="none" xmlns="http://www.w3.org/2000/svg">
<g id="logo" clip-path="url(#clip0_0_666)">
<g id="Group">
<path id="Vector" d="M81.3965 59.3098V50.387H78.2109V48.5723H86.7353V50.387H83.5635V59.3098H81.3965Z" fill="var(--fill-0, #2D2A26)"/>
<path id="Vector_2" d="M89.667 53.9067L87.8008 53.5711C88.0127 52.8179 88.3682 52.2632 88.8809 51.9002C89.3936 51.5373 90.1523 51.3593 91.1641 51.3593C92.0801 51.3593 92.7637 51.4688 93.2148 51.688C93.666 51.9071 93.9805 52.181 94.165 52.5165C94.3496 52.8521 94.4385 53.4684 94.4385 54.3586L94.418 56.7622C94.418 57.447 94.4521 57.9538 94.5137 58.2756C94.582 58.5975 94.7051 58.9467 94.8828 59.3234H92.8457C92.791 59.1864 92.7227 58.981 92.6475 58.7139C92.6133 58.5906 92.5859 58.5085 92.5723 58.4742C92.2236 58.8166 91.8477 59.07 91.4443 59.2412C91.041 59.4124 90.6172 59.4946 90.166 59.4946C89.3662 59.4946 88.7373 59.2754 88.2725 58.844C87.8145 58.4126 87.582 57.8579 87.582 57.1937C87.582 56.7554 87.6846 56.3651 87.8965 56.0158C88.1084 55.6734 88.4023 55.4064 88.7783 55.2215C89.1543 55.0366 89.7012 54.8791 90.4121 54.7421C91.376 54.5641 92.0391 54.3929 92.4082 54.2354V54.0299C92.4082 53.6328 92.3125 53.352 92.1143 53.1808C91.916 53.0096 91.5537 52.9274 91.0068 52.9274C90.6377 52.9274 90.3574 53.0027 90.1524 53.1466C89.9473 53.2904 89.7832 53.5437 89.6533 53.9067H89.667ZM92.415 55.5776C92.1484 55.6666 91.7314 55.7693 91.1641 55.8926C90.5898 56.0158 90.2207 56.1322 90.043 56.2486C89.7764 56.4404 89.6397 56.6801 89.6397 56.9745C89.6397 57.269 89.749 57.5087 89.9609 57.7209C90.1729 57.9332 90.4463 58.036 90.7813 58.036C91.1504 58.036 91.5059 57.9127 91.8408 57.6662C92.0869 57.4813 92.251 57.2553 92.333 56.9814C92.3877 56.8033 92.415 56.4678 92.415 55.9747V55.5639V55.5776Z" fill="var(--fill-0, #2D2A26)"/>
<path id="Vector_3" d="M97.5898 50.476V48.5723H99.6475V50.476H97.5898ZM97.5898 59.3098V51.5237H99.6475V59.3098H97.5898Z" fill="var(--fill-0, #2D2A26)"/>
<path id="Vector_4" d="M104.324 59.3094L101.863 51.5233H103.859L105.315 56.625L106.655 51.5233H108.638L109.93 56.625L111.413 51.5233H113.437L110.941 59.3094H108.966L107.626 54.3035L106.307 59.3094H104.311H104.324Z" fill="var(--fill-0, #2D2A26)"/>
<path id="Vector_5" d="M117.187 53.9067L115.321 53.5711C115.533 52.8179 115.889 52.2632 116.401 51.9002C116.914 51.5373 117.673 51.3593 118.685 51.3593C119.601 51.3593 120.284 51.4688 120.735 51.688C121.187 51.9071 121.501 52.181 121.686 52.5165C121.87 52.8521 121.959 53.4684 121.959 54.3586L121.938 56.7622C121.938 57.447 121.973 57.9538 122.034 58.2756C122.103 58.5975 122.226 58.9467 122.403 59.3234H120.373C120.318 59.1864 120.25 58.981 120.175 58.7139C120.141 58.5906 120.12 58.5085 120.1 58.4742C119.751 58.8166 119.375 59.07 118.972 59.2412C118.575 59.4124 118.145 59.4946 117.693 59.4946C116.894 59.4946 116.265 59.2754 115.8 58.844C115.342 58.4126 115.109 57.8579 115.109 57.1937C115.109 56.7554 115.212 56.3651 115.424 56.0158C115.636 55.6734 115.93 55.4064 116.306 55.2215C116.682 55.0366 117.229 54.8791 117.939 54.7421C118.903 54.5641 119.566 54.3929 119.936 54.2354V54.0299C119.936 53.6328 119.84 53.352 119.642 53.1808C119.45 53.0096 119.081 52.9274 118.534 52.9274C118.172 52.9274 117.885 53.0027 117.68 53.1466C117.475 53.2904 117.311 53.5437 117.181 53.9067H117.187ZM119.936 55.5776C119.669 55.6666 119.252 55.7693 118.685 55.8926C118.117 56.0158 117.741 56.1322 117.563 56.2486C117.297 56.4404 117.16 56.6801 117.16 56.9745C117.16 57.269 117.27 57.5087 117.481 57.7209C117.693 57.9332 117.967 58.036 118.302 58.036C118.671 58.036 119.026 57.9127 119.361 57.6662C119.607 57.4813 119.771 57.2553 119.854 56.9814C119.908 56.8033 119.936 56.4678 119.936 55.9747V55.5639V55.5776Z" fill="var(--fill-0, #2D2A26)"/>
<path id="Vector_6" d="M132.172 59.3091H130.114V55.3373C130.114 54.495 130.073 53.954 129.984 53.7075C129.896 53.461 129.752 53.2692 129.554 53.1323C129.355 52.9953 129.116 52.9268 128.843 52.9268C128.487 52.9268 128.166 53.0227 127.886 53.2213C127.605 53.4199 127.407 53.6733 127.305 53.9951C127.202 54.317 127.147 54.9127 127.147 55.7824V59.3091H125.09V51.523H126.997V52.6666C127.674 51.7901 128.528 51.345 129.561 51.345C130.012 51.345 130.429 51.4271 130.805 51.5915C131.181 51.7558 131.461 51.9613 131.659 52.2147C131.851 52.468 131.987 52.7556 132.062 53.0775C132.138 53.3993 132.179 53.865 132.179 54.4608V59.2954L132.172 59.3091Z" fill="var(--fill-0, #2D2A26)"/>
<path id="Vector_7" d="M140.137 55.8169L142.242 55.6115C142.372 56.3168 142.625 56.8373 143.015 57.1728C143.404 57.5084 143.924 57.6727 144.58 57.6727C145.277 57.6727 145.804 57.522 146.159 57.2276C146.515 56.9331 146.692 56.5839 146.692 56.1936C146.692 55.9402 146.617 55.7211 146.467 55.543C146.316 55.365 146.057 55.2075 145.687 55.0774C145.435 54.9883 144.854 54.8308 143.951 54.6117C142.789 54.3241 141.976 53.968 141.511 53.5503C140.854 52.9614 140.526 52.2355 140.526 51.3863C140.526 50.8385 140.684 50.3249 140.991 49.8524C141.299 49.3731 141.75 49.0101 142.331 48.7636C142.912 48.5171 143.616 48.387 144.443 48.387C145.79 48.387 146.802 48.6814 147.485 49.2703C148.169 49.8593 148.524 50.6536 148.559 51.6397L146.392 51.7356C146.296 51.1809 146.098 50.7837 145.797 50.544C145.489 50.3044 145.038 50.1811 144.423 50.1811C143.808 50.1811 143.302 50.3112 142.946 50.5714C142.714 50.7358 142.604 50.9618 142.604 51.2357C142.604 51.4891 142.714 51.7082 142.926 51.8862C143.199 52.1191 143.862 52.3519 144.915 52.6053C145.968 52.8518 146.747 53.112 147.253 53.3791C147.759 53.6461 148.155 54.0091 148.436 54.4679C148.723 54.9267 148.866 55.5019 148.866 56.1799C148.866 56.7962 148.695 57.3714 148.354 57.9124C148.012 58.4534 147.526 58.8505 146.904 59.1108C146.282 59.371 145.503 59.5011 144.573 59.5011C143.22 59.5011 142.174 59.1861 141.449 58.5629C140.725 57.9329 140.287 57.0222 140.15 55.8169H140.137Z" fill="var(--fill-0, #2D2A26)"/>
<path id="Vector_8" d="M151.309 55.3099C151.309 54.6251 151.479 53.9609 151.814 53.324C152.149 52.6871 152.628 52.1941 153.243 51.8586C153.858 51.523 154.549 51.3518 155.308 51.3518C156.483 51.3518 157.447 51.7353 158.199 52.4954C158.951 53.2624 159.327 54.2279 159.327 55.3921C159.327 56.5562 158.951 57.5423 158.192 58.323C157.434 59.0968 156.477 59.4871 155.328 59.4871C154.617 59.4871 153.934 59.3228 153.291 59.0009C152.648 58.6791 152.156 58.2065 151.814 57.5834C151.479 56.9602 151.309 56.2001 151.309 55.3099ZM153.421 55.4195C153.421 56.1933 153.605 56.7822 153.968 57.1931C154.33 57.6039 154.781 57.8094 155.321 57.8094C155.861 57.8094 156.306 57.6039 156.668 57.1931C157.03 56.7822 157.215 56.1864 157.215 55.4058C157.215 54.6251 157.03 54.0567 156.668 53.6459C156.306 53.235 155.854 53.0295 155.321 53.0295C154.788 53.0295 154.337 53.235 153.968 53.6459C153.599 54.0567 153.421 54.6456 153.421 55.4195Z" fill="var(--fill-0, #2D2A26)"/>
<path id="Vector_9" d="M161.984 59.3098V48.5654H164.042V54.2697L166.448 51.5306H168.978L166.325 54.3724L169.169 59.3098H166.954L164.999 55.8105L164.042 56.8171V59.3098H161.984Z" fill="var(--fill-0, #2D2A26)"/>
<path id="Vector_10" d="M173.054 53.9067L171.187 53.5711C171.399 52.8179 171.755 52.2632 172.268 51.9002C172.78 51.5373 173.539 51.3593 174.551 51.3593C175.467 51.3593 176.15 51.4688 176.602 51.688C177.053 51.9071 177.367 52.181 177.552 52.5165C177.736 52.8521 177.825 53.4684 177.825 54.3586L177.805 56.7622C177.805 57.447 177.839 57.9538 177.9 58.2756C177.969 58.5975 178.092 58.9467 178.27 59.3234H176.232C176.178 59.1864 176.116 58.981 176.034 58.7139C176 58.5906 175.973 58.5085 175.959 58.4742C175.61 58.8166 175.234 59.07 174.831 59.2412C174.435 59.4124 174.004 59.4946 173.553 59.4946C172.753 59.4946 172.124 59.2754 171.659 58.844C171.201 58.4126 170.969 57.8579 170.969 57.1937C170.969 56.7554 171.071 56.3651 171.283 56.0158C171.495 55.6734 171.789 55.4064 172.165 55.2215C172.541 55.0366 173.088 54.8791 173.799 54.7421C174.763 54.5641 175.426 54.3929 175.795 54.2354V54.0299C175.795 53.6328 175.699 53.352 175.501 53.1808C175.303 53.0096 174.94 52.9274 174.394 52.9274C174.031 52.9274 173.744 53.0027 173.539 53.1466C173.334 53.2904 173.17 53.5437 173.04 53.9067H173.054ZM175.802 55.5776C175.542 55.6666 175.125 55.7693 174.551 55.8926C173.977 56.0158 173.607 56.1322 173.43 56.2486C173.163 56.4404 173.026 56.6801 173.026 56.9745C173.026 57.269 173.136 57.5087 173.348 57.7209C173.56 57.9332 173.833 58.036 174.168 58.036C174.537 58.036 174.893 57.9127 175.228 57.6662C175.474 57.4813 175.638 57.2553 175.72 56.9814C175.774 56.8033 175.802 56.4678 175.802 55.9747V55.5639V55.5776Z" fill="var(--fill-0, #2D2A26)"/>
<path id="Vector_11" d="M195.392 59.3098H193.033L192.097 56.8719H187.811L186.922 59.3098H184.625L188.802 48.5654H191.092L195.385 59.3098H195.392ZM191.399 55.0641L189.923 51.0786L188.474 55.0641H191.399Z" fill="var(--fill-0, #2D2A26)"/>
<path id="Vector_12" d="M196.926 57.0904L198.99 56.7754C199.079 57.1795 199.257 57.4808 199.523 57.6862C199.79 57.8916 200.166 57.9943 200.651 57.9943C201.185 57.9943 201.581 57.8985 201.848 57.6999C202.025 57.5629 202.121 57.378 202.121 57.1521C202.121 56.9946 202.073 56.8644 201.978 56.7617C201.875 56.6659 201.643 56.5768 201.287 56.4878C199.626 56.118 198.58 55.7893 198.136 55.4812C197.521 55.0634 197.213 54.4745 197.213 53.7281C197.213 53.057 197.479 52.4886 198.013 52.0298C198.546 51.571 199.366 51.3382 200.487 51.3382C201.608 51.3382 202.34 51.5094 202.859 51.8586C203.379 52.2079 203.734 52.7215 203.926 53.3994L201.984 53.7555C201.902 53.4542 201.745 53.2214 201.513 53.057C201.28 52.8927 200.952 52.8173 200.521 52.8173C199.981 52.8173 199.592 52.8927 199.359 53.0433C199.202 53.1529 199.127 53.2898 199.127 53.461C199.127 53.6048 199.195 53.735 199.332 53.8377C199.517 53.9746 200.159 54.1664 201.253 54.4197C202.347 54.6663 203.112 54.9744 203.55 55.3374C203.98 55.7071 204.192 56.2139 204.192 56.8713C204.192 57.5835 203.892 58.1998 203.297 58.7134C202.702 59.227 201.82 59.4803 200.658 59.4803C199.599 59.4803 198.765 59.2681 198.143 58.8366C197.527 58.4052 197.124 57.8232 196.933 57.0836L196.926 57.0904Z" fill="var(--fill-0, #2D2A26)"/>
<path id="Vector_13" d="M206.379 57.0904L208.443 56.7754C208.532 57.1795 208.71 57.4808 208.977 57.6862C209.243 57.8916 209.619 57.9943 210.104 57.9943C210.638 57.9943 211.034 57.8985 211.308 57.6999C211.485 57.5629 211.581 57.378 211.581 57.1521C211.581 56.9946 211.533 56.8644 211.437 56.7617C211.335 56.6659 211.103 56.5768 210.747 56.4878C209.086 56.118 208.04 55.7893 207.596 55.4812C206.98 55.0634 206.673 54.4745 206.673 53.7281C206.673 53.057 206.939 52.4886 207.473 52.0298C208.006 51.571 208.826 51.3382 209.947 51.3382C211.068 51.3382 211.8 51.5094 212.319 51.8586C212.839 52.2079 213.194 52.7215 213.386 53.3994L211.444 53.7555C211.362 53.4542 211.205 53.2214 210.973 53.057C210.74 52.8927 210.412 52.8173 209.981 52.8173C209.441 52.8173 209.052 52.8927 208.819 53.0433C208.662 53.1529 208.587 53.2898 208.587 53.461C208.587 53.6048 208.655 53.735 208.792 53.8377C208.977 53.9746 209.619 54.1664 210.713 54.4197C211.807 54.6663 212.572 54.9744 213.003 55.3374C213.434 55.7071 213.646 56.2139 213.646 56.8713C213.646 57.5835 213.345 58.1998 212.75 58.7134C212.155 59.227 211.273 59.4803 210.111 59.4803C209.052 59.4803 208.218 59.2681 207.596 58.8366C206.98 58.4052 206.577 57.8232 206.386 57.0836L206.379 57.0904Z" fill="var(--fill-0, #2D2A26)"/>
<path id="Vector_14" d="M216.086 55.3099C216.086 54.6251 216.257 53.9609 216.592 53.324C216.927 52.6871 217.405 52.1941 218.02 51.8586C218.636 51.523 219.326 51.3518 220.085 51.3518C221.261 51.3518 222.225 51.7353 222.977 52.4954C223.729 53.2624 224.104 54.2279 224.104 55.3921C224.104 56.5562 223.729 57.5423 222.97 58.323C222.211 59.0968 221.254 59.4871 220.105 59.4871C219.395 59.4871 218.711 59.3228 218.068 59.0009C217.419 58.6791 216.934 58.2065 216.592 57.5834C216.257 56.9602 216.086 56.2001 216.086 55.3099ZM218.191 55.4195C218.191 56.1933 218.376 56.7822 218.738 57.1931C219.107 57.6039 219.552 57.8094 220.092 57.8094C220.632 57.8094 221.076 57.6039 221.438 57.1931C221.801 56.7822 221.985 56.1864 221.985 55.4058C221.985 54.6251 221.801 54.0567 221.438 53.6459C221.076 53.235 220.625 53.0295 220.092 53.0295C219.559 53.0295 219.107 53.235 218.738 53.6459C218.369 54.0567 218.191 54.6456 218.191 55.4195Z" fill="var(--fill-0, #2D2A26)"/>
<path id="Vector_15" d="M233.604 53.8307L231.58 54.2005C231.512 53.7965 231.354 53.4883 231.115 53.2829C230.876 53.0775 230.562 52.9748 230.172 52.9748C229.659 52.9748 229.249 53.1528 228.948 53.5089C228.641 53.865 228.49 54.4539 228.49 55.2825C228.49 56.207 228.647 56.8575 228.955 57.241C229.263 57.6245 229.68 57.8094 230.206 57.8094C230.596 57.8094 230.917 57.6998 231.163 57.4738C231.409 57.2547 231.587 56.8712 231.689 56.3302L233.706 56.6726C233.494 57.6039 233.091 58.3024 232.496 58.7749C231.901 59.2474 231.102 59.4871 230.104 59.4871C228.969 59.4871 228.06 59.131 227.383 58.412C226.706 57.693 226.371 56.7 226.371 55.4263C226.371 54.1526 226.713 53.1391 227.39 52.4269C228.066 51.7079 228.982 51.3518 230.138 51.3518C231.081 51.3518 231.833 51.5572 232.394 51.9613C232.954 52.3721 233.351 52.9885 233.597 53.8239L233.604 53.8307Z" fill="var(--fill-0, #2D2A26)"/>
<path id="Vector_16" d="M236.293 50.476V48.5723H238.351V50.476H236.293ZM236.293 59.3098V51.5237H238.351V59.3098H236.293Z" fill="var(--fill-0, #2D2A26)"/>
<path id="Vector_17" d="M243.113 53.9067L241.247 53.5711C241.459 52.8179 241.814 52.2632 242.327 51.9002C242.84 51.5373 243.599 51.3593 244.61 51.3593C245.526 51.3593 246.21 51.4688 246.661 51.688C247.112 51.9071 247.427 52.181 247.611 52.5165C247.796 52.8521 247.885 53.4684 247.885 54.3586L247.864 56.7622C247.864 57.447 247.898 57.9538 247.96 58.2756C248.028 58.5975 248.151 58.9467 248.329 59.3234H246.299C246.244 59.1864 246.176 58.981 246.101 58.7139C246.066 58.5906 246.046 58.5085 246.025 58.4742C245.677 58.8166 245.301 59.07 244.897 59.2412C244.501 59.4124 244.07 59.4946 243.619 59.4946C242.819 59.4946 242.19 59.2754 241.726 58.844C241.268 58.4126 241.035 57.8579 241.035 57.1937C241.035 56.7554 241.138 56.3651 241.35 56.0158C241.562 55.6734 241.855 55.4064 242.231 55.2215C242.607 55.0366 243.154 54.8791 243.865 54.7421C244.829 54.5641 245.492 54.3929 245.861 54.2354V54.0299C245.861 53.6328 245.766 53.352 245.567 53.1808C245.376 53.0096 245.007 52.9274 244.46 52.9274C244.098 52.9274 243.811 53.0027 243.605 53.1466C243.4 53.2904 243.236 53.5437 243.106 53.9067H243.113ZM245.861 55.5776C245.595 55.6666 245.178 55.7693 244.61 55.8926C244.043 56.0158 243.667 56.1322 243.489 56.2486C243.223 56.4404 243.086 56.6801 243.086 56.9745C243.086 57.269 243.195 57.5087 243.407 57.7209C243.619 57.9332 243.893 58.036 244.228 58.036C244.597 58.036 244.952 57.9127 245.287 57.6662C245.533 57.4813 245.697 57.2553 245.779 56.9814C245.834 56.8033 245.861 56.4678 245.861 55.9747V55.5639V55.5776Z" fill="var(--fill-0, #2D2A26)"/>
<path id="Vector_18" d="M254.597 51.5302V53.1737H253.195V56.3101C253.195 56.9469 253.209 57.3167 253.236 57.4194C253.264 57.5222 253.325 57.6112 253.421 57.6797C253.517 57.7481 253.633 57.7824 253.77 57.7824C253.961 57.7824 254.234 57.7139 254.597 57.5838L254.774 59.1793C254.296 59.3848 253.756 59.4875 253.147 59.4875C252.778 59.4875 252.443 59.4259 252.143 59.3026C251.842 59.1793 251.63 59.015 251.486 58.8164C251.35 58.6178 251.254 58.3508 251.199 58.0152C251.158 57.7755 251.131 57.2893 251.131 56.5634V53.1737H250.188V51.5302H251.131V49.9826L253.195 48.7842V51.5302H254.597Z" fill="var(--fill-0, #2D2A26)"/>
<path id="Vector_19" d="M257.148 50.476V48.5723H259.206V50.476H257.148ZM257.148 59.3098V51.5237H259.206V59.3098H257.148Z" fill="var(--fill-0, #2D2A26)"/>
<path id="Vector_20" d="M261.953 55.3099C261.953 54.6251 262.124 53.9609 262.459 53.324C262.794 52.6871 263.272 52.1941 263.888 51.8586C264.503 51.523 265.193 51.3518 265.952 51.3518C267.128 51.3518 268.092 51.7353 268.844 52.4954C269.596 53.2624 269.972 54.2279 269.972 55.3921C269.972 56.5562 269.596 57.5423 268.837 58.323C268.078 59.0968 267.121 59.4871 265.973 59.4871C265.262 59.4871 264.578 59.3228 263.936 59.0009C263.293 58.6791 262.801 58.2065 262.459 57.5834C262.124 56.9602 261.953 56.2001 261.953 55.3099ZM264.065 55.4195C264.065 56.1933 264.25 56.7822 264.612 57.1931C264.981 57.6039 265.426 57.8094 265.966 57.8094C266.506 57.8094 266.95 57.6039 267.312 57.1931C267.675 56.7822 267.859 56.1864 267.859 55.4058C267.859 54.6251 267.675 54.0567 267.312 53.6459C266.95 53.235 266.499 53.0295 265.966 53.0295C265.433 53.0295 264.981 53.235 264.612 53.6459C264.243 54.0567 264.065 54.6456 264.065 55.4195Z" fill="var(--fill-0, #2D2A26)"/>
<path id="Vector_21" d="M279.773 59.3091H277.716V55.3373C277.716 54.495 277.675 53.954 277.586 53.7075C277.497 53.461 277.354 53.2692 277.155 53.1323C276.957 52.9953 276.718 52.9268 276.444 52.9268C276.089 52.9268 275.768 53.0227 275.487 53.2213C275.207 53.4199 275.009 53.6733 274.906 53.9951C274.804 54.317 274.749 54.9127 274.749 55.7824V59.3091H272.691V51.523H274.599V52.6666C275.275 51.7901 276.13 51.345 277.162 51.345C277.613 51.345 278.03 51.4271 278.406 51.5915C278.782 51.7558 279.062 51.9613 279.261 52.2147C279.452 52.468 279.589 52.7556 279.664 53.0775C279.739 53.3993 279.78 53.865 279.78 54.4608V59.2954L279.773 59.3091Z" fill="var(--fill-0, #2D2A26)"/>
</g>
<g id="Group_2">
<path id="Vector_22" d="M82.7354 39.7855H80.3359V26.6786H102.956V28.9658H82.7354V39.7855Z" fill="var(--fill-0, #2D2A26)"/>
<path id="Vector_23" d="M104.431 22.2009H82.7471C88.0244 18.0031 89.2822 12.9973 89.4873 12.0112H87.0195C86.835 12.6755 86.4316 13.9012 85.6045 15.353C83.998 18.1743 81.626 20.4821 78.5703 22.2146V24.4812H104.431V22.194" fill="var(--fill-0, #2D2A26)"/>
<path id="Vector_24" d="M99.7012 39.7855H81.5312C80.8682 39.7855 80.3281 39.2719 80.3281 38.6419C80.3281 38.0119 80.8682 37.4983 81.5312 37.4983H99.7012C100.166 37.4983 100.549 37.1354 100.549 36.6903V27.8222C100.549 27.1922 101.089 26.6786 101.752 26.6786C102.415 26.6786 102.955 27.1922 102.955 27.8222V36.6903C102.955 38.3954 101.499 39.7787 99.708 39.7787L99.7012 39.7855Z" fill="var(--fill-0, #2D2A26)"/>
<g id="Group_3">
<path id="Vector_25" d="M192.566 36.1639H195.984C195.075 36.9788 193.954 37.5745 192.566 37.7594V39.7727C195.068 39.5262 197.167 38.2936 198.773 36.157H203.395C205.001 38.2936 207.1 39.5194 209.602 39.7727V37.7594C208.221 37.5677 207.1 36.9788 206.184 36.1639H206.71C208.303 36.1639 209.602 34.9313 209.602 33.411V24.5567H192.566V36.1639ZM207.619 31.0896H194.549V29.7474H207.619V31.0896ZM206.71 34.2739H194.549V32.9728H207.619V33.4042C207.619 33.8835 207.209 34.2739 206.71 34.2739ZM207.619 26.4399V27.8574H194.549V26.4399H207.619Z" fill="var(--fill-0, #2D2A26)"/>
<path id="Vector_26" d="M209.602 15.8051V13.9219H192.566V15.8051H197.584V17.1884H192.566V23.3172H206.71C208.303 23.3172 209.602 22.0846 209.602 20.5644V17.1884H204.584V15.8051H209.602ZM194.549 19.0784H197.584V21.4409H194.549V19.0784ZM199.566 19.0784H202.602V21.4409H199.566V19.0784ZM207.619 19.0784V20.5712C207.619 21.0506 207.209 21.4409 206.71 21.4409H204.584V19.0784H207.619ZM202.602 17.1884H199.566V15.8051H202.602V17.1884Z" fill="var(--fill-0, #2D2A26)"/>
<path id="Vector_27" d="M188.874 12.9564C188.703 14.3876 187.78 20.5712 184.246 25.0018V28.0149C185.579 26.7823 186.762 25.2346 187.76 23.4268V39.6015H189.742V18.7497C190.645 15.9078 190.925 13.5658 190.986 12.9632H188.874V12.9564Z" fill="var(--fill-0, #2D2A26)"/>
</g>
<g id="Group_4">
<path id="Vector_28" d="M257.035 29.0903H269.422V29.1109C269.483 29.1109 269.538 29.0972 269.593 29.0903H275C276.593 29.0903 277.892 27.8577 277.892 26.3375V21.989H257.035V29.0903ZM269.258 27.2071H268.438V23.8791H272.231C271.377 25.9745 270.379 27.0907 269.251 27.2071H269.258ZM266.455 27.2071H264.172L262.641 23.8791H266.462V27.2071H266.455ZM275.909 26.3375C275.909 26.8168 275.499 27.2071 275 27.2071H272.635C273.462 26.1663 274.022 24.8926 274.385 23.8791H275.909V26.3443V26.3375ZM260.474 23.8722L262.005 27.2003H259.011V23.8722H260.474Z" fill="var(--fill-0, #2D2A26)"/>
<path id="Vector_29" d="M257.895 39.691H274.109C275.702 39.691 277.001 38.4584 277.001 36.9382V30.6518H257.895V39.691ZM274.109 37.8078H259.877V36.0411H275.019V36.9382C275.019 37.4175 274.608 37.8078 274.109 37.8078ZM275.019 32.535V34.1511H259.877V32.535H275.019Z" fill="var(--fill-0, #2D2A26)"/>
<path id="Vector_30" d="M268.725 12.8813H265.867C264.445 14.7577 261.26 17.8872 255.148 19.5238V21.5919C257.514 21.0098 259.503 20.2223 261.164 19.3458V20.6537H273.134V19.1746C274.979 20.1812 277.242 21.092 280.004 21.7151V19.6608C273.482 18.0584 270.181 14.8125 268.725 12.8813ZM262.367 18.6541C264.726 17.2161 266.305 15.641 267.303 14.3947C268.301 15.641 269.88 17.2161 272.238 18.6541H262.367Z" fill="var(--fill-0, #2D2A26)"/>
</g>
<g id="Group_5">
<path id="Vector_31" d="M154.464 39.7108H161.942C163.521 39.7108 164.807 38.485 164.807 36.9853V31.329H154.457V39.7176L154.464 39.7108ZM162.852 33.1916V36.9853C162.852 37.4578 162.448 37.8413 161.949 37.8413H156.433V33.1916H162.852Z" fill="var(--fill-0, #2D2A26)"/>
<path id="Vector_32" d="M172.683 12.9564V36.205C172.683 37.0541 171.958 37.7457 171.063 37.7457H168.082V39.7111H171.063C173.093 39.7111 174.747 38.1361 174.747 36.205V12.9564H172.683Z" fill="var(--fill-0, #2D2A26)"/>
<path id="Vector_33" d="M170.105 17.504H168.082V33.1926H170.105V17.504Z" fill="var(--fill-0, #2D2A26)"/>
<path id="Vector_34" d="M159.74 13.1003C159.74 13.1003 159.754 13.0729 159.761 13.066H157.341C157.341 13.066 157.348 13.0866 157.354 13.0934C156.35 14.6274 154.271 17.0378 150.457 18.7156V20.8726C152.467 20.092 154.087 19.1264 155.386 18.1266V19.4346H161.586V18.0239C162.687 18.8867 164.026 19.729 165.646 20.4549V18.243C162.447 16.6064 160.656 14.4904 159.747 13.1003H159.74ZM156.049 17.5857C157.122 16.6749 157.936 15.7573 158.544 14.9492C159.152 15.7573 159.973 16.6749 161.039 17.5857H156.042H156.049Z" fill="var(--fill-0, #2D2A26)"/>
<path id="Vector_35" d="M153.958 20.7909H152.379V25.694C152.379 25.694 152.427 28.1044 152.14 30.7956C151.784 34.0621 151.08 36.3972 149.617 37.4039V39.739C150.649 39.5746 151.121 39.287 151.545 38.883C153.479 36.9998 154.149 32.6103 154.368 29.385H161.956C163.535 29.385 164.82 28.1592 164.82 26.6595V20.7977H153.965L153.958 20.7909ZM161.949 27.5155H154.45C154.464 26.8786 154.471 26.3651 154.464 26.0227H162.852V26.6595C162.852 27.132 162.448 27.5155 161.949 27.5155ZM162.852 22.6603V24.1532H154.464V22.6603H162.852Z" fill="var(--fill-0, #2D2A26)"/>
</g>
<path id="Vector_36" d="M98.7354 14.7021H96.1445C96.6504 16.3046 97.4502 17.996 98.4551 19.5505C99.4189 21.0501 101.347 23.5633 103.801 24.4809H104.423V22.1937C102.222 21.1871 99.8906 17.8179 98.7285 14.7021H98.7354Z" fill="var(--fill-0, #2D2A26)"/>
<g id="Group_6">
<path id="Vector_37" d="M243.021 23.968V13.2031H237.061V15.0863H241.039V16.7914H237.17V18.6746H241.039V20.3797H237.17V22.2629H241.039V23.968H223.676V22.2629H227.107V20.3797H223.676V18.6746H227.107V16.7914H223.676V15.5588L227.477 14.5727V12.621L221.7 14.1207V23.968H219.684V30.09H221.666V25.858H243.104V30.09H245.079V23.968H243.021Z" fill="var(--fill-0, #2D2A26)"/>
<path id="Vector_38" d="M235.154 32.7816C237.909 32.1173 239.796 29.9739 239.994 28.0771L240.042 27.6046H224.805V29.4877H237.321C236.46 30.4053 235.038 31.1723 233.411 31.1723V31.1997L233.179 31.1723V33.5211H219.691V35.4043H233.179V37.0341C233.179 37.5135 232.769 37.9038 232.27 37.9038H229.152V39.787H232.27C233.862 39.787 235.161 38.5543 235.161 37.0341V35.4043H245.087V33.5211H235.161V32.7816H235.154Z" fill="var(--fill-0, #2D2A26)"/>
<path id="Vector_39" d="M235.242 23.4267V21.6325C234.641 21.5161 234.107 21.3244 233.643 21.0847C234.237 20.4204 234.771 19.6329 235.242 18.7153H233.287C232.966 19.2426 232.617 19.6946 232.241 20.0917C231.742 19.6192 231.366 19.1193 231.106 18.7153H229.145C229.356 19.1536 229.903 20.1602 230.895 21.1463C230.361 21.4476 229.78 21.6531 229.145 21.7558V23.4951C230.32 23.3445 231.373 22.9336 232.31 22.2762C233.109 22.7898 234.08 23.2144 235.242 23.4267Z" fill="var(--fill-0, #2D2A26)"/>
<path id="Vector_40" d="M235.242 18.2911V16.4969C234.641 16.3805 234.107 16.1888 233.643 15.9491C234.237 15.2849 234.771 14.4974 235.242 13.5797H233.287C232.966 14.107 232.617 14.559 232.241 14.9562C231.742 14.4837 231.366 13.9838 231.106 13.5797H229.145C229.356 14.018 229.903 15.0246 230.895 16.0107C230.361 16.312 229.78 16.5175 229.145 16.6202V18.3596C230.32 18.2089 231.373 17.798 232.31 17.1406C233.109 17.6542 234.08 18.0788 235.242 18.2911Z" fill="var(--fill-0, #2D2A26)"/>
</g>
<path id="Vector_41" d="M125.308 22.9268H123.797V25.6454H125.308V22.9268Z" fill="var(--fill-0, #2D2A26)"/>
<path id="Vector_42" d="M133.292 13.7989H130.277V12.8744H128.568V13.7989H125.547V15.2507H133.292V13.7989Z" fill="var(--fill-0, #2D2A26)"/>
<path id="Vector_43" d="M132.442 16.2019H126.406V17.6537H132.442V16.2019Z" fill="var(--fill-0, #2D2A26)"/>
<path id="Vector_44" d="M132.442 18.6059H126.406V20.0577H132.442V18.6059Z" fill="var(--fill-0, #2D2A26)"/>
<path id="Vector_45" d="M126.409 21.0093V25.6453H130.094C131.386 25.6453 132.438 24.6455 132.438 23.4129V21.0093H126.402H126.409ZM130.094 24.0224H128.118V22.461H130.729V23.4129C130.729 23.7484 130.442 24.0155 130.094 24.0155V24.0224Z" fill="var(--fill-0, #2D2A26)"/>
<path id="Vector_46" d="M120.366 28.4943H136.718V29.7954C136.718 30.172 136.396 30.4801 135.993 30.4801H121.132V36.0269H136.711V37.3349C136.711 37.7115 136.39 38.0197 135.986 38.0197H121.125V39.7727H135.986C137.326 39.7727 138.42 38.7319 138.42 37.4582V34.2807H122.841V32.2332H135.986C137.326 32.2332 138.42 31.1923 138.42 29.9186V26.748H120.359V28.5011L120.366 28.4943Z" fill="var(--fill-0, #2D2A26)" stroke="var(--stroke-0, #231815)" stroke-width="0.21" stroke-miterlimit="10"/>
<path id="Vector_47" d="M113.734 12.9147L115.908 18.7217H118.007L115.833 12.9147H113.734Z" fill="var(--fill-0, #2D2A26)"/>
<path id="Vector_48" d="M117.062 24.0355L114.888 18.2353H112.789L114.963 24.0355H117.062Z" fill="var(--fill-0, #2D2A26)"/>
<path id="Vector_49" d="M118.914 22.9268C118.914 23.4951 118.627 24.2005 118.285 24.3032V25.6933C119.181 25.6385 120.37 24.7757 120.37 22.9199H118.921L118.914 22.9268Z" fill="var(--fill-0, #2D2A26)"/>
<path id="Vector_50" d="M120.879 24.3032V25.6933C121.774 25.6385 122.964 24.7757 122.964 22.9199H121.515C121.515 23.4883 121.228 24.1936 120.886 24.2963L120.879 24.3032Z" fill="var(--fill-0, #2D2A26)"/>
<path id="Vector_51" d="M115.675 30.7948C115.319 34.0613 114.615 36.3964 113.152 37.403V39.7382C114.185 39.5738 114.656 39.2862 115.08 38.8822C117.726 36.3142 117.999 29.0829 118.006 26.6861H115.921C115.914 27.4257 115.866 29.0486 115.675 30.7948Z" fill="var(--fill-0, #2D2A26)"/>
<path id="Vector_52" d="M123.799 22.1119H124.455C124.927 22.1119 125.31 21.749 125.31 21.297V18.6126H123.799V20.6054H121.632C122.89 19.5371 124.38 17.9073 124.756 15.668V15.6406H123.143C123.02 16.209 122.808 16.7226 122.548 17.1951H120.962C121.871 16.1679 122.896 14.6477 123.184 12.833H121.57C121.167 14.7778 119.656 16.3391 118.918 17.0102V18.7017H119.027H121.413C120.463 19.6809 119.403 20.2972 118.925 20.5506V22.0982C118.959 22.0982 118.993 22.1051 119.034 22.1051H123.806L123.799 22.1119Z" fill="var(--fill-0, #2D2A26)"/>
<path id="Vector_53" d="M139.937 22.9268H138.426V25.6454H139.937V22.9268Z" fill="var(--fill-0, #2D2A26)"/>
<path id="Vector_54" d="M132.914 24.3032V25.6933C133.81 25.6385 134.999 24.7757 134.999 22.9199H133.55C133.55 23.4883 133.263 24.1936 132.921 24.2963L132.914 24.3032Z" fill="var(--fill-0, #2D2A26)"/>
<path id="Vector_55" d="M136.145 22.9268C136.145 23.4951 135.857 24.2005 135.516 24.3032V25.6933C136.411 25.6385 137.601 24.7757 137.601 22.9199H136.151L136.145 22.9268Z" fill="var(--fill-0, #2D2A26)"/>
<path id="Vector_56" d="M138.425 18.6058V20.5985H136.258C137.516 19.5303 139.006 17.9005 139.382 15.6612V15.6338H137.775C137.652 16.2022 137.44 16.7158 137.181 17.1883H135.595C136.504 16.1611 137.529 14.6409 137.816 12.8262H136.203C135.8 14.771 134.289 16.3323 133.551 17.0034V18.6948H133.66H136.046C135.096 19.6741 134.036 20.2904 133.558 20.5437V22.0914C133.592 22.0914 133.626 22.0982 133.667 22.0982H139.095C139.566 22.0982 139.949 21.7353 139.949 21.2833V18.5989H138.438L138.425 18.6058Z" fill="var(--fill-0, #2D2A26)"/>
</g>
<path id="Vector_57" d="M65.8848 33C65.8848 32.8493 65.8848 32.7055 65.8711 32.5549C65.6455 27.4874 61.585 23.4266 56.5195 23.2144C60.0332 19.3864 59.9512 13.4356 56.2734 9.71031C56.2598 9.69662 56.2461 9.68292 56.2324 9.66923C56.2324 9.66923 56.2051 9.64184 56.1914 9.62814C52.4658 5.94397 46.5322 5.8618 42.7109 9.38161C42.499 4.30733 38.4385 0.239676 33.3867 0.0136958C33.2432 0.0136958 33.0928 0 32.9424 0C32.792 0 32.6484 0 32.498 0.0136958C27.4395 0.239676 23.3857 4.30733 23.1738 9.38161C19.4482 5.95082 13.7061 5.94397 9.9668 9.36792C9.85742 9.46379 9.74805 9.56651 9.64551 9.67607C5.92676 13.4013 5.83105 19.3795 9.3584 23.2281C4.2998 23.4266 0.239258 27.4943 0.0136719 32.5549C0.0136719 32.6987 0 32.8493 0 33C0 33.1507 0 33.2945 0.0136719 33.4451C0.239258 38.5126 4.2998 42.5734 9.36523 42.7856C5.83789 46.6273 5.93359 52.6055 9.65234 56.3376C13.3711 60.0629 19.3389 60.1588 23.1807 56.6252C23.3926 61.6927 27.4531 65.7672 32.5049 65.9932C32.6484 65.9932 32.7988 66.0069 32.9492 66.0069C33.0996 66.0069 33.2432 66.0069 33.3936 65.9932C38.4521 65.7672 42.5059 61.6995 42.7178 56.6252C46.5527 60.1588 52.5205 60.0629 56.2461 56.3376C56.3486 56.2349 56.4512 56.1253 56.5537 56.0158C59.9717 52.2768 59.9648 46.5246 56.54 42.7856C61.5986 42.5734 65.666 38.5057 65.8916 33.4451C65.8916 33.3013 65.9053 33.1507 65.9053 33H65.8848ZM56.1641 42.5734C56.1641 42.5734 56.1777 42.6213 56.1846 42.6418C56.1641 42.6555 56.1436 42.6692 56.1162 42.6829C52.9443 44.4565 49.458 45.4563 45.9307 45.6892C47.7627 43.6759 47.7148 40.5601 45.7734 38.6153C45.5547 38.3961 45.3223 38.2112 45.083 38.0401C45.377 38.0948 45.6709 38.1222 45.9785 38.1222C48.7266 38.1222 50.9619 35.9514 51.0781 33.2328C53.4092 35.8967 55.1729 39.0741 56.1641 42.5734ZM42.6084 56.2144C42.6084 56.2144 42.5811 56.2555 42.5674 56.2828C42.5469 56.2828 42.5195 56.2691 42.499 56.2623C39.0059 55.2694 35.8271 53.5094 33.1748 51.1675C35.8887 51.0442 38.0557 48.8049 38.0557 46.0589C38.0557 45.7508 38.0215 45.4563 37.9736 45.1619C38.1445 45.4084 38.3291 45.6412 38.5479 45.8535C40.4893 47.7983 43.5996 47.8462 45.6094 46.011C45.3838 49.5445 44.3789 53.0369 42.6084 56.2144ZM23.3857 56.2623C23.3857 56.2623 23.3379 56.276 23.3174 56.2828C23.3037 56.2623 23.29 56.2418 23.2764 56.2144C21.5059 53.0369 20.5078 49.5445 20.2754 46.011C22.2852 47.8462 25.3955 47.7983 27.3369 45.8535C27.5557 45.6344 27.7402 45.4015 27.9111 45.1619C27.8564 45.4563 27.8291 45.7508 27.8291 46.0589C27.8291 48.8118 29.9961 51.0511 32.71 51.1675C30.0508 53.5026 26.8789 55.2694 23.3857 56.2623ZM9.76172 42.6829C9.76172 42.6829 9.7207 42.6555 9.69336 42.6418C9.69336 42.6213 9.70703 42.5939 9.71387 42.5734C10.7051 39.0741 12.4619 35.8898 14.7998 33.2328C14.9229 35.9514 17.1582 38.1222 19.9063 38.1222C20.2139 38.1222 20.5078 38.088 20.8018 38.0401C20.5557 38.2112 20.3232 38.3961 20.1113 38.6153C18.1699 40.5601 18.1221 43.6759 19.9541 45.6892C16.4268 45.4632 12.9404 44.4565 9.76855 42.6829H9.76172ZM9.71387 23.4266C9.71387 23.4266 9.7002 23.3787 9.69336 23.3582C9.71387 23.3445 9.73437 23.3308 9.76172 23.3171C12.9336 21.5435 16.4199 20.5437 19.9473 20.3109C18.1152 22.3241 18.1631 25.4399 20.1045 27.3847C20.3232 27.6039 20.5557 27.7888 20.7949 27.96C20.5078 27.9052 20.207 27.8778 19.8994 27.8778C17.1514 27.8778 14.916 30.0486 14.793 32.7672C12.4619 30.1033 10.6982 26.9259 9.70703 23.4266H9.71387ZM23.2764 9.77879C23.2764 9.77879 23.3037 9.73771 23.3174 9.71031C23.3379 9.71031 23.3652 9.72401 23.3857 9.73086C26.8789 10.7238 30.0576 12.4837 32.71 14.8257C29.9961 14.949 27.8291 17.1882 27.8291 19.9342C27.8291 20.2424 27.8633 20.5368 27.9111 20.8313C27.7402 20.5848 27.5557 20.3519 27.3369 20.1397C25.3955 18.1949 22.2852 18.1469 20.2754 19.9822C20.501 16.4486 21.5059 12.9562 23.2764 9.77879ZM42.499 9.73086C42.499 9.73086 42.5469 9.71716 42.5674 9.71031C42.5811 9.73086 42.5947 9.7514 42.6084 9.77879C44.3789 12.9562 45.377 16.4486 45.6094 19.9822C43.5996 18.1469 40.4893 18.1949 38.5479 20.1397C38.3291 20.3588 38.1445 20.5916 37.9736 20.8313C38.0283 20.5437 38.0557 20.2424 38.0557 19.9342C38.0557 17.1814 35.8887 14.9421 33.1748 14.8257C35.834 12.4906 39.0059 10.7238 42.499 9.73086ZM44.8232 28.1312C47.0928 29.4186 49.1367 31.0689 50.873 33C49.1367 34.9311 47.0928 36.5815 44.8232 37.8689C44.8027 37.8826 44.7822 37.8962 44.7617 37.9031C44.7617 37.9236 44.7754 37.951 44.7822 37.9716C45.4795 40.4916 45.7598 43.1075 45.623 45.7028C43.0322 45.8398 40.4277 45.559 37.9053 44.8606C37.8848 44.8606 37.8574 44.8469 37.8369 44.84C37.8232 44.8606 37.8096 44.8811 37.8027 44.9016C36.5176 47.1751 34.8701 49.2227 32.9424 50.962C31.0146 49.2227 29.3672 47.1751 28.082 44.9016C28.0684 44.8811 28.0547 44.8606 28.0479 44.84C28.0273 44.84 28 44.8537 27.9795 44.8606C25.4639 45.559 22.8525 45.8398 20.2617 45.7028C20.125 43.1075 20.4053 40.4984 21.1025 37.9716C21.1025 37.951 21.1162 37.9236 21.123 37.9031C21.1025 37.8894 21.082 37.8757 21.0615 37.8689C18.792 36.5815 16.748 34.9311 15.0117 33C16.748 31.0689 18.792 29.4254 21.0615 28.1312C21.082 28.1175 21.1025 28.1038 21.123 28.0969C21.123 28.0764 21.1094 28.049 21.1025 28.0284C20.4053 25.5084 20.125 22.8925 20.2617 20.2972C22.8525 20.1602 25.457 20.441 27.9795 21.1394C28 21.1394 28.0273 21.1531 28.0479 21.16C28.0615 21.1394 28.0752 21.1189 28.082 21.0984C29.3672 18.8249 31.0146 16.7773 32.9424 15.038C34.8701 16.7773 36.5176 18.8249 37.8027 21.0984C37.8164 21.1189 37.8301 21.1394 37.8369 21.16C37.8574 21.16 37.8848 21.1463 37.9053 21.1394C40.4209 20.441 43.0322 20.1602 45.623 20.2972C45.7598 22.8925 45.4795 25.5016 44.7822 28.0284C44.7822 28.049 44.7686 28.0764 44.7617 28.0969C44.7822 28.1106 44.8027 28.1243 44.8232 28.1312ZM45.9785 27.8778C45.6709 27.8778 45.377 27.912 45.083 27.96C45.3291 27.7888 45.5615 27.6039 45.7734 27.3847C47.7148 25.4399 47.7627 22.3241 45.9307 20.3109C49.458 20.5368 52.9443 21.5435 56.1162 23.3171C56.1367 23.3308 56.1572 23.3445 56.1846 23.3582C56.1846 23.3787 56.1709 23.4061 56.1641 23.4266C55.1729 26.9259 53.416 30.1102 51.0781 32.7672C50.9551 30.0486 48.7197 27.8778 45.9785 27.8778ZM56.0615 9.84042C56.7246 12.0454 57.0869 14.3874 57.0869 16.8116C57.0869 18.9824 56.7998 21.0847 56.2598 23.0843C54.6875 19.585 50.6133 17.9483 47.0518 19.4275C46.6279 19.6055 46.2246 19.8178 45.8555 20.0643C46.1016 19.6945 46.3135 19.2905 46.4912 18.8659C47.9678 15.2982 46.334 11.2169 42.8408 9.64183C44.8369 9.1077 46.9355 8.81324 49.1025 8.81324C51.5225 8.81324 53.8604 9.17618 56.0615 9.84042ZM27.2959 4.45113C29.0049 2.73916 30.9121 1.34219 32.9424 0.246524C34.9727 1.33534 36.8799 2.73916 38.5889 4.45113C40.1201 5.98506 41.3984 7.67649 42.4307 9.47064C38.8486 8.10791 34.8154 9.84042 33.3389 13.4082C33.1611 13.8327 33.0312 14.271 32.9424 14.7024C32.8535 14.2642 32.7236 13.8327 32.5459 13.4082C31.0693 9.84042 27.0361 8.10791 23.4541 9.47064C24.4863 7.67649 25.7646 5.98506 27.2959 4.45113ZM9.82324 9.84042C12.0244 9.17618 14.3623 8.81324 16.7822 8.81324C18.9492 8.81324 21.0479 9.10085 23.0439 9.64183C19.5508 11.2169 17.917 15.2982 19.3936 18.8659C19.5713 19.2905 19.7832 19.6945 20.0293 20.0643C19.6602 19.8178 19.2568 19.6055 18.833 19.4275C15.2715 17.9483 11.1973 19.585 9.625 23.0843C9.0918 21.0847 8.79785 18.9824 8.79785 16.8116C8.79785 14.3874 9.16016 12.0454 9.82324 9.84042ZM0.246094 33C1.33301 30.9662 2.73438 29.0556 4.44336 27.3436C5.97461 25.8097 7.66309 24.5292 9.4541 23.4951C8.09375 27.0834 9.82324 31.1237 13.3848 32.6028C13.8086 32.7809 14.2461 32.911 14.6768 33C14.2393 33.089 13.8086 33.2191 13.3848 33.3972C9.82324 34.8763 8.09375 38.9166 9.4541 42.5049C7.66309 41.4708 5.97461 40.1903 4.44336 38.6564C2.73438 36.9444 1.33984 35.0338 0.246094 33ZM9.82324 56.1596C9.16016 53.9546 8.79785 51.6126 8.79785 49.1884C8.79785 47.0176 9.08496 44.9153 9.625 42.9158C11.1973 46.415 15.2715 48.0517 18.833 46.5725C19.2568 46.3945 19.6602 46.1822 20.0293 45.9357C19.7832 46.3055 19.5713 46.7095 19.3936 47.1341C17.917 50.7018 19.5508 54.7832 23.0439 56.3582C21.0479 56.8923 18.9492 57.1868 16.7822 57.1868C14.3623 57.1868 12.0244 56.8238 9.82324 56.1596ZM38.5889 61.5489C36.8799 63.2608 34.9727 64.6578 32.9424 65.7535C30.9121 64.6647 29.0049 63.2608 27.2959 61.5489C25.7646 60.0149 24.4863 58.3235 23.4541 56.5294C27.0361 57.8921 31.0693 56.1596 32.5459 52.5918C32.7236 52.1673 32.8535 51.729 32.9424 51.2976C33.0312 51.7358 33.1611 52.1673 33.3389 52.5918C34.8154 56.1596 38.8486 57.8921 42.4307 56.5294C41.3984 58.3235 40.1201 60.0149 38.5889 61.5489ZM56.0615 56.1596C53.8604 56.8238 51.5225 57.1868 49.1025 57.1868C46.9355 57.1868 44.8369 56.8992 42.8408 56.3582C46.334 54.7832 47.9678 50.7018 46.4912 47.1341C46.3135 46.7095 46.1016 46.3055 45.8555 45.9357C46.2246 46.1822 46.6279 46.3945 47.0518 46.5725C50.6133 48.0517 54.6875 46.415 56.2598 42.9158C56.793 44.9153 57.0869 47.0176 57.0869 49.1884C57.0869 51.6126 56.7246 53.9546 56.0615 56.1596ZM61.4414 38.6564C59.9102 40.1903 58.2217 41.4708 56.4307 42.5049C57.791 38.9166 56.0615 34.8763 52.5 33.3972C52.0762 33.2191 51.6387 33.089 51.208 33C51.6455 32.911 52.0762 32.7809 52.5 32.6028C56.0615 31.1237 57.791 27.0834 56.4307 23.4951C58.2217 24.5292 59.9102 25.8097 61.4414 27.3436C63.1504 29.0556 64.5449 30.9662 65.6387 33C64.5518 35.0338 63.1504 36.9444 61.4414 38.6564Z" fill="var(--fill-0, #C59600)"/>
</g>
<defs>
<clipPath id="clip0_0_666">
<rect width="280" height="66" fill="white"/>
</clipPath>
</defs>
</svg>
