<svg preserveAspectRatio="none" width="100%" height="100%" overflow="visible" style="display: block;" viewBox="0 0 44 43" fill="none" xmlns="http://www.w3.org/2000/svg">
<g id="icon" clip-path="url(#clip0_0_12)">
<path id="Vector" d="M1.4123 43C0.633644 43 0 42.3794 0 41.6168C0 40.8542 0.633644 40.2336 1.4123 40.2336H2.96169V13.5469C2.96169 12.7843 3.59533 12.1637 4.37399 12.1637H9.74458V1.38318C9.74458 0.620581 10.3782 0 11.1569 0H32.6515C33.4302 0 34.0638 0.620581 34.0638 1.38318V12.1637H39.5302C40.3089 12.1637 40.9425 12.7843 40.9425 13.5469V40.2328H42.5868C43.3655 40.2328 43.9991 40.8534 43.9991 41.616C43.9991 42.3786 43.2943 42.9991 42.491 42.9991H1.4123V43ZM34.0647 40.2328H38.1179V14.9301H34.0647V40.2328ZM12.5692 40.2328H20.5394V34.5055C20.5394 33.7429 21.173 33.1223 21.9517 33.1223C22.7303 33.1223 23.364 33.7429 23.364 34.5055V40.2328H31.3342V2.67341H12.5683V40.2336L12.5692 40.2328ZM5.69049 40.2328H9.7437V14.9301H5.69049V40.2328ZM26.2325 11.0181C25.1419 11.0181 24.2551 10.1496 24.2551 9.08149C24.2551 8.01333 25.1427 7.14486 26.2325 7.14486H26.3661C27.4567 7.14486 28.3435 8.01333 28.3435 9.08149C28.3435 10.1496 27.2801 11.0181 26.3661 11.0181H26.2325ZM18.1146 11.0181C17.024 11.0181 16.1373 10.1496 16.1373 9.08149C16.1373 8.01333 17.0249 7.14486 18.1146 7.14486H18.2482C19.3389 7.14486 20.2256 8.01333 20.2256 9.08149C20.2256 10.1496 19.1622 11.0181 18.2482 11.0181H18.1146ZM26.2325 18.5675C25.1419 18.5675 24.2551 17.699 24.2551 16.6309C24.2551 15.5627 25.1427 14.6943 26.2325 14.6943H26.3661C27.4567 14.6943 28.3435 15.5627 28.3435 16.6309C28.3435 17.699 27.2801 18.5675 26.3661 18.5675H26.2325ZM18.1146 18.5675C17.024 18.5675 16.1373 17.699 16.1373 16.6309C16.1373 15.5627 17.0249 14.6943 18.1146 14.6943H18.2482C19.3389 14.6943 20.2256 15.5627 20.2256 16.6309C20.2256 17.699 19.1622 18.5675 18.2482 18.5675H18.1146ZM26.2325 26.1161C25.1419 26.1161 24.2551 25.2476 24.2551 24.1794C24.2551 23.1113 25.1427 22.2428 26.2325 22.2428H26.3661C27.4567 22.2428 28.3435 23.1113 28.3435 24.1794C28.3435 25.2476 27.2801 26.1161 26.3661 26.1161H26.2325ZM18.1146 26.1161C17.024 26.1161 16.1373 25.2476 16.1373 24.1794C16.1373 23.1113 17.0249 22.2428 18.1146 22.2428H18.2482C19.3389 22.2428 20.2256 23.1113 20.2256 24.1794C20.2256 25.2476 19.1622 26.1161 18.2482 26.1161H18.1146Z" fill="var(--fill-0, #C59600)"/>
</g>
<defs>
<clipPath id="clip0_0_12">
<rect width="44" height="43" fill="white"/>
</clipPath>
</defs>
</svg>
