<svg preserveAspectRatio="none" width="100%" height="100%" overflow="visible" style="display: block;" viewBox="0 0 44 43" fill="none" xmlns="http://www.w3.org/2000/svg">
<g id="icon">
<path id="Vector" d="M43.9985 14.3466C37.9425 8.64257 30.1289 5.5 21.9985 5.5C13.868 5.5 6.05592 8.64257 0 14.3466L1.59164 15.9985C2.14987 15.4723 2.72501 14.9703 3.31553 14.4912V38.5H40.6845V14.4927C41.2735 14.9718 41.8486 15.4738 42.4084 16.0001L44 14.3482L43.9985 14.3466ZM26.7149 27.7124V36.2184H17.2835V27.7124H26.7149ZM11.8704 24.1881V26.6477H5.62226V17.2747H38.3777V26.6477H32.1296V24.1881H11.8704ZM11.2599 9.83206C12.7423 9.24644 14.2663 8.78251 15.8226 8.44483V11.6239H11.2599V9.83358V9.83206ZM10.1834 11.6239H7.51531C8.38417 11.1311 9.27457 10.6839 10.1834 10.2838V11.6239ZM22.5367 16.21V12.6887H27.0994V16.21H22.5367ZM16.8991 16.21V12.6887H21.4618V16.21H16.8991ZM22.5367 11.6239V7.78772C24.0745 7.81662 25.5985 7.96568 27.0994 8.23339V11.6239H22.5367ZM21.4602 11.6239H16.8975V8.23339C18.3969 7.9672 19.9224 7.81662 21.4602 7.78772V11.6224V11.6239ZM15.8226 12.6887V16.21H11.2599V12.6887H15.8226ZM28.1759 16.21V12.6887H32.7386V16.21H28.1759ZM28.1759 11.6239V8.44483C29.7306 8.78251 31.2561 9.24644 32.7386 9.83206V11.6224H28.1759V11.6239ZM33.815 10.2823C34.7239 10.6823 35.6143 11.1295 36.4832 11.6224H33.815V10.2823ZM5.77604 12.6887H10.1834V16.21H5.62072V12.7906C5.67147 12.7556 5.72375 12.7221 5.77604 12.6887ZM5.62072 27.7124H14.9753V36.2184H5.62072V27.7124ZM29.0217 36.2184V27.7124H38.3762V36.2184H29.0217ZM38.3777 16.21H33.815V12.6887H38.2224C38.2747 12.7221 38.3255 12.7556 38.3777 12.7906V16.21Z" fill="var(--fill-0, #798F40)"/>
</g>
</svg>
