<svg width="44" height="39" viewBox="0 0 44 39" fill="none" xmlns="http://www.w3.org/2000/svg">
<g clip-path="url(#clip0_50296_2504)">
<path d="M25.2464 11.3477H13.7694V14.2568H25.2464C26.6632 14.2568 27.8158 15.4144 27.8158 16.8373V19.2156C27.8158 20.6386 26.6632 21.7961 25.2464 21.7961H13.4404C10.4269 21.7961 7.97434 24.2592 7.97434 27.2857V36.0746L2.89665 36.0854V4.85762C2.89665 3.93846 4.42859 2.90915 6.48016 2.90915C8.53173 2.90915 10.0637 3.93846 10.0637 4.85762H10.1014C10.3747 4.7276 10.666 4.60661 10.9825 4.49646C11.5668 4.29421 12.1997 4.1371 12.865 4.01611C12.3472 1.70649 9.72923 0 6.48016 0C2.93441 0 0.140248 2.03153 0.00719219 4.66079H0V37.5463C0 37.9328 0.152834 38.303 0.424339 38.5756C0.695844 38.8483 1.06444 39 1.44743 39H1.44923L9.42356 38.9837C10.2219 38.9837 10.8692 38.3319 10.8692 37.5283V27.2875C10.8692 25.8646 12.0217 24.707 13.4386 24.707H25.2446C28.2599 24.707 30.7106 22.2439 30.7106 19.2174V16.8391C30.7106 13.8126 28.2581 11.3477 25.2446 11.3477H25.2464Z" fill="#0081CC"/>
<path d="M43.4295 7.91084C43.0698 7.63636 42.6041 7.54427 42.169 7.66525C37.0194 9.08281 34.4158 8.32979 30.8126 7.28965C27.8943 6.44634 24.5859 5.48926 19.2637 5.48926C16.5271 5.48926 13.7113 5.58858 11.649 6.30548C8.58511 7.37271 7.94141 9.57941 7.94141 11.2408V13.9892C7.94141 17.0157 10.3939 19.4788 13.4075 19.4788H25.2818V16.5697H13.4075C11.9906 16.5697 10.8381 15.4122 10.8381 13.9892V11.2408C10.8381 9.39702 12.1812 8.39661 19.2637 8.39661C24.1778 8.39661 27.2758 9.29229 30.0106 10.0832C33.355 11.0493 36.293 11.8999 41.1028 10.9121V33.4919C41.1028 34.9149 39.9502 36.0724 38.5334 36.0724H33.1518V38.9815H38.5334C41.5469 38.9815 43.9994 36.5184 43.9994 33.4901V9.06837C43.9994 8.61511 43.7891 8.18713 43.4295 7.91084Z" fill="#004898"/>
<path d="M36.0607 16.5625H33.1641V30.1422H36.0607V16.5625Z" fill="#004898"/>
<path d="M28.5755 27.2334H15.4551C14.2936 27.2334 13.3496 28.1814 13.3496 29.348V36.8692C13.3496 38.0357 14.2936 38.9838 15.4551 38.9838H28.5755C29.737 38.9838 30.681 38.0357 30.681 36.8692V29.348C30.681 28.1814 29.737 27.2334 28.5755 27.2334ZM27.7843 36.0746H16.2463V30.1444H27.7843V36.0746Z" fill="#004898"/>
</g>
<defs>
<clipPath id="clip0_50296_2504">
<rect width="44" height="39" fill="white"/>
</clipPath>
</defs>
</svg>
