<svg width="323" height="646" viewBox="0 0 323 646" fill="none" xmlns="http://www.w3.org/2000/svg">

<g id="&#229;&#144;&#132;&#229;&#156;&#176;&#230;&#156;&#131;&#233;&#164;&#168;&#232;&#136;&#135;&#232;&#172;&#155;&#229;&#160;&#130;">

<g id="&#229;&#144;&#132;&#229;&#156;&#176;&#230;&#156;&#131;&#233;&#164;&#168;&#232;&#136;&#135;&#232;&#172;&#155;&#229;&#160;&#130;_1440px">

<g id="section">
<g id="section_2">
<g id="bg" opacity="0.4" clip-path="url(#clip0_48013_5738)">
<path id="Vector" d="M231.267 227.211C265.822 189.598 264.868 131.072 228.405 94.6099C191.943 58.1481 133.415 57.1943 95.8004 91.7484C93.6407 40.7091 51.5807 0 0 0C-51.5627 0 -93.6227 40.7091 -95.7824 91.7484C-133.397 57.1943 -191.925 58.1481 -228.387 94.6099C-264.85 131.072 -265.804 189.598 -231.249 227.211C-282.29 229.371 -323 271.43 -323 322.991C-323 374.552 -282.29 416.611 -231.249 418.789C-265.804 456.402 -264.85 514.928 -228.387 551.39C-191.925 587.852 -133.397 588.806 -95.7824 554.252C-93.6227 605.291 -51.5627 646 0 646C51.5627 646 93.6227 605.291 95.7824 554.252C133.397 588.806 191.925 587.852 228.387 551.39C264.85 514.928 265.804 456.402 231.249 418.789C282.29 416.629 323 374.57 323 323.009C323 271.448 282.29 229.389 231.249 227.211H231.267ZM158.449 86.2773C182.188 86.2773 205.099 89.7867 226.732 96.2836C233.229 117.898 236.738 140.826 236.738 164.564C236.738 185.8 233.931 206.389 228.675 225.97C213.252 191.703 173.279 175.686 138.346 190.174C134.189 191.901 130.283 193.989 126.666 196.365C129.06 192.729 131.129 188.842 132.857 184.685C147.327 149.735 131.309 109.763 97.0602 94.3579C116.641 89.1028 137.23 86.2953 158.467 86.2953L158.449 86.2773ZM125.874 377.936C123.75 375.812 121.465 373.958 119.089 372.321C121.933 372.843 124.866 373.148 127.854 373.148C154.778 373.148 176.753 351.93 177.959 325.295C200.401 350.85 217.427 381.301 227.236 414.829C227.254 414.901 227.272 414.991 227.308 415.063C227.542 415.855 227.758 416.629 227.974 417.421C227.272 417.817 226.552 418.213 225.832 418.609C225.76 418.645 225.688 418.699 225.616 418.735C194.948 435.508 161.365 445.01 127.386 447.206C145.383 427.535 144.915 396.994 125.874 377.954V377.936ZM-127.368 447.188C-161.347 444.992 -194.93 435.508 -225.598 418.717C-225.67 418.681 -225.742 418.627 -225.814 418.591C-226.534 418.195 -227.236 417.799 -227.956 417.403C-227.74 416.629 -227.524 415.837 -227.29 415.063C-227.272 414.973 -227.236 414.901 -227.218 414.811C-217.409 381.283 -200.383 350.85 -177.941 325.277C-176.735 351.912 -154.778 373.13 -127.836 373.13C-124.83 373.13 -121.915 372.825 -119.071 372.303C-121.447 373.94 -123.732 375.794 -125.856 377.918C-144.897 396.958 -145.365 427.499 -127.368 447.17V447.188ZM-125.856 268.064C-123.732 270.188 -121.447 272.042 -119.071 273.679C-121.915 273.158 -124.848 272.852 -127.836 272.852C-154.76 272.852 -176.735 294.07 -177.941 320.705C-200.383 295.15 -217.409 264.699 -227.218 231.189C-227.236 231.099 -227.272 231.009 -227.29 230.919C-227.524 230.145 -227.74 229.371 -227.956 228.579C-227.254 228.183 -226.534 227.787 -225.814 227.391C-225.742 227.355 -225.67 227.301 -225.598 227.265C-194.93 210.492 -161.347 200.99 -127.368 198.794C-145.365 218.465 -144.897 249.006 -125.856 268.046V268.064ZM97.4741 325.007C95.3504 324.125 93.2087 323.477 91.049 323.027C93.2087 322.577 95.3684 321.929 97.4741 321.047C115.256 313.687 123.858 293.53 117.055 275.677C139.12 288.257 158.935 304.274 175.835 323.009C158.953 341.726 139.138 357.743 117.091 370.323C123.84 352.47 115.238 332.367 97.4921 325.007H97.4741ZM63.9809 350.94C62.901 349.86 61.7492 348.925 60.5254 348.079C61.9652 348.349 63.459 348.493 64.9887 348.493C78.6668 348.493 89.8432 337.712 90.4551 324.179C102.153 337.497 110.954 353.442 115.868 370.989C99.9578 379.933 82.4643 384.972 64.7368 386.124C73.8795 376.118 73.6455 360.605 63.9629 350.922L63.9809 350.94ZM-64.7188 386.142C-82.4283 385.008 -99.9398 379.951 -115.85 371.007C-110.936 353.46 -102.135 337.515 -90.4371 324.197C-89.8252 337.73 -78.6668 348.511 -64.9707 348.511C-63.441 348.511 -61.9652 348.349 -60.5074 348.097C-61.7132 348.925 -62.8831 349.878 -63.9629 350.958C-73.6455 360.641 -73.8795 376.154 -64.7368 386.16L-64.7188 386.142ZM-117.037 370.323C-139.102 357.743 -158.917 341.726 -175.817 322.991C-158.917 304.256 -139.084 288.221 -117.019 275.659C-123.84 293.53 -115.22 313.687 -97.4381 321.047C-95.3144 321.929 -93.1727 322.577 -91.013 323.027C-93.1727 323.477 -95.3324 324.125 -97.4381 325.007C-115.202 332.367 -123.804 352.488 -117.037 370.323ZM-63.9449 295.114C-62.8651 296.194 -61.7132 297.129 -60.4894 297.975C-61.9292 297.705 -63.423 297.561 -64.9527 297.561C-78.6308 297.561 -89.8072 308.341 -90.4191 321.875C-102.117 308.557 -110.918 292.612 -115.831 275.065C-99.9218 266.121 -82.4283 261.082 -64.7008 259.93C-73.8435 269.936 -73.6095 285.449 -63.9269 295.132L-63.9449 295.114ZM64.7548 259.912C82.4642 261.064 99.9758 266.103 115.885 275.047C110.972 292.594 102.171 308.539 90.4731 321.857C89.8612 308.323 78.7028 297.543 65.0067 297.543C63.477 297.543 62.0012 297.705 60.5434 297.957C61.7492 297.129 62.919 296.176 63.9989 295.096C73.6815 285.413 73.9155 269.9 64.7728 259.894L64.7548 259.912ZM49.5649 324.035C48.4851 323.585 47.3872 323.261 46.2894 323.027C47.3872 322.793 48.4851 322.469 49.5649 322.019C58.5996 318.276 62.973 308.054 59.5355 298.983C70.7299 305.372 80.8085 313.507 89.3933 323.027C80.8085 332.547 70.7479 340.682 59.5355 347.071C62.973 338 58.5996 327.778 49.5649 324.035ZM32.5394 337.227C31.9995 336.687 31.4055 336.201 30.7936 335.769C31.5315 335.895 32.2874 335.985 33.0613 335.985C40.0263 335.985 45.6955 330.496 46.0014 323.621C51.9586 330.388 56.422 338.504 58.9236 347.413C50.8428 351.966 41.9341 354.522 32.9353 355.116C37.5787 350.022 37.4706 342.14 32.5394 337.227ZM-32.8813 355.116C-41.88 354.54 -50.7888 351.966 -58.8696 347.413C-56.368 338.486 -51.9046 330.388 -45.9474 323.621C-45.6415 330.496 -39.9543 335.985 -33.0073 335.985C-32.2334 335.985 -31.4775 335.913 -30.7396 335.769C-31.3515 336.201 -31.9455 336.669 -32.4854 337.227C-37.3987 342.14 -37.5247 350.04 -32.8813 355.116ZM-59.4815 347.071C-70.6759 340.682 -80.7545 332.547 -89.3393 323.027C-80.7545 313.507 -70.694 305.372 -59.4815 298.983C-62.9191 308.054 -58.5457 318.276 -49.5109 322.019C-48.4311 322.469 -47.3333 322.793 -46.2354 323.027C-47.3333 323.261 -48.4311 323.585 -49.5109 324.035C-58.5457 327.778 -62.9191 338 -59.4815 347.071ZM-32.5034 308.827C-31.9634 309.367 -31.3695 309.853 -30.7576 310.285C-31.4955 310.159 -32.2514 310.069 -33.0253 310.069C-39.9903 310.069 -45.6595 315.558 -45.9655 322.433C-51.9226 315.666 -56.386 307.55 -58.8876 298.641C-50.8068 294.088 -41.898 291.532 -32.8993 290.938C-37.5426 296.032 -37.4347 303.914 -32.5034 308.827ZM32.9173 290.938C41.916 291.514 50.8248 294.088 58.9056 298.641C56.404 307.568 51.9406 315.666 45.9835 322.433C45.6775 315.558 39.9903 310.069 33.0433 310.069C32.2694 310.069 31.5135 310.141 30.7756 310.285C31.3875 309.853 31.9814 309.385 32.5214 308.827C37.4347 303.914 37.5606 296.014 32.9173 290.938ZM16.3597 339.35C16.3597 339.35 16.3597 339.404 16.3597 339.44C16.1077 344.119 14.7939 348.745 12.4362 352.956C7.79291 351.66 3.59949 349.303 0.107971 346.171C0.0899963 346.153 0.0720215 346.135 0.0360107 346.117C0.0180054 346.135 0 346.153 -0.0360107 346.171C-3.5275 349.303 -7.72089 351.642 -12.3642 352.956C-14.7219 348.763 -16.0357 344.119 -16.2877 339.44C-16.2877 339.404 -16.2877 339.386 -16.2877 339.35C-16.3237 339.35 -16.3417 339.35 -16.3777 339.35C-21.057 339.098 -25.6823 337.784 -29.8937 335.427C-28.5979 330.784 -26.2403 326.59 -23.1087 323.099C-23.0907 323.081 -23.0727 323.063 -23.0547 323.027C-23.0727 323.009 -23.0907 322.991 -23.1087 322.955C-26.2403 319.464 -28.5799 315.27 -29.8937 310.627C-25.7003 308.27 -21.057 306.956 -16.3777 306.704C-16.3417 306.704 -16.3237 306.704 -16.2877 306.704C-16.2877 306.668 -16.2877 306.65 -16.2877 306.614C-16.0357 301.935 -14.7219 297.309 -12.3642 293.098C-7.72089 294.394 -3.5275 296.751 -0.0360107 299.883C-0.0180054 299.901 3.05176e-05 299.919 0.0360107 299.937C0.0540161 299.919 0.071991 299.901 0.107971 299.883C3.59949 296.751 7.79291 294.412 12.4362 293.098C14.7939 297.291 16.1077 301.935 16.3597 306.614C16.3597 306.65 16.3597 306.668 16.3597 306.704C16.3957 306.704 16.4137 306.704 16.4496 306.704C21.129 306.956 25.7543 308.27 29.9657 310.627C28.6699 315.27 26.3123 319.464 23.1807 322.955C23.1627 322.973 23.1447 322.991 23.1267 323.027C23.1447 323.045 23.1627 323.063 23.1807 323.099C26.3123 326.59 28.6519 330.784 29.9657 335.427C25.7723 337.784 21.129 339.098 16.4496 339.35C16.4137 339.35 16.3957 339.35 16.3597 339.35ZM-25.1604 322.523C-24.6205 322.757 -24.0626 322.919 -23.4867 323.027C-24.0446 323.135 -24.6025 323.315 -25.1604 323.531C-29.7498 325.439 -31.9634 330.622 -30.2177 335.247C-35.9049 332.007 -41.0341 327.868 -45.3896 323.027C-41.0341 318.186 -35.9049 314.047 -30.2177 310.807C-31.9634 315.414 -29.7498 320.615 -25.1604 322.523ZM25.1964 323.531C24.6565 323.297 24.0986 323.135 23.5226 323.027C24.0806 322.919 24.6385 322.739 25.1964 322.523C29.7858 320.615 31.9995 315.432 30.2537 310.807C35.9409 314.047 41.0702 318.186 45.4255 323.027C41.0702 327.868 35.9409 332.007 30.2537 335.247C31.9995 330.64 29.7858 325.439 25.1964 323.531ZM30.0557 310.285C28.022 305.786 22.7848 303.68 18.1954 305.588C17.6555 305.822 17.1336 306.092 16.6476 306.398C16.9536 305.912 17.2415 305.408 17.4575 304.85C19.3652 300.261 17.2596 295.024 12.7602 292.99C19.0773 291.262 25.6284 290.561 32.1254 290.902C32.4674 297.399 31.7655 303.95 30.0377 310.285H30.0557ZM0.521912 297.849C0.287964 298.389 0.125977 298.947 0.0179749 299.523C-0.0899963 298.965 -0.269958 298.407 -0.485931 297.849C-2.39365 293.26 -7.5769 291.046 -12.2022 292.792C-8.96271 287.105 -4.82333 281.976 0.0179749 277.621C4.85928 281.976 8.99872 287.105 12.2383 292.792C7.63092 291.046 2.42966 293.26 0.521912 297.849ZM-17.4215 304.85C-17.1876 305.39 -16.9176 305.912 -16.6116 306.398C-17.0976 306.092 -17.6015 305.804 -18.1414 305.588C-22.7308 303.68 -27.968 305.786 -30.0017 310.285C-31.7295 303.968 -32.4314 297.417 -32.0894 290.92C-25.5924 290.578 -19.0413 291.28 -12.7242 293.008C-17.2235 295.042 -19.3293 300.279 -17.4215 304.868V304.85ZM-30.0197 335.769C-27.986 340.268 -22.7487 342.374 -18.1594 340.466C-17.6195 340.232 -17.0976 339.962 -16.6296 339.656C-16.9356 340.142 -17.2235 340.646 -17.4395 341.186C-19.3473 345.775 -17.2415 351.012 -12.7422 353.046C-19.0593 354.774 -25.6104 355.475 -32.1074 355.134C-32.4494 348.637 -31.7475 342.086 -30.0197 335.769ZM-0.485931 348.205C-0.251953 347.665 -0.0899963 347.107 0.0179749 346.531C0.125977 347.089 0.305969 347.647 0.521912 348.205C2.42966 352.794 7.61292 355.008 12.2383 353.262C8.99872 358.949 4.85928 364.078 0.0179749 368.433C-4.82333 364.078 -8.96271 358.949 -12.2022 353.262C-7.59491 355.008 -2.39365 352.794 -0.485931 348.205ZM17.4575 341.186C17.2235 340.646 16.9536 340.124 16.6476 339.656C17.1336 339.962 17.6375 340.25 18.1954 340.466C22.7848 342.374 28.022 340.268 30.0557 335.769C31.7834 342.086 32.4854 348.637 32.1434 355.152C25.6463 355.493 19.0953 354.792 12.7782 353.064C17.2776 351.03 19.3832 345.793 17.4755 341.204L17.4575 341.186ZM59.0856 297.939C55.1082 289.085 44.7776 284.963 35.7429 288.689C34.6631 289.139 33.6552 289.679 32.7193 290.291C33.3312 289.355 33.8712 288.347 34.3211 287.267C38.0646 278.233 33.9251 267.92 25.0704 263.925C37.5067 260.524 50.3748 259.156 63.171 259.822C63.8369 272.618 62.4691 285.485 59.0676 297.921L59.0856 297.939ZM32.1074 290.129C27.0141 285.467 19.1313 285.593 14.218 290.525C13.678 291.064 13.1921 291.658 12.7602 292.27C12.8862 291.532 12.9761 290.776 12.9761 290.003C12.9761 283.038 7.48694 277.369 0.611908 277.063C7.37897 271.106 15.4958 266.643 24.4045 264.141C28.9579 272.222 31.5135 281.13 32.1074 290.129ZM1.02585 273.481C0.575897 274.561 0.251953 275.659 0.0179749 276.757C-0.215973 275.659 -0.539917 274.561 -0.989868 273.481C-4.73334 264.447 -14.9559 260.074 -24.0266 263.511C-17.6375 252.317 -9.50266 242.239 0.0179749 233.654C9.53864 242.239 17.6735 252.299 24.0626 263.511C14.9919 260.074 4.76932 264.447 1.02585 273.481ZM-0.575928 277.063C-7.45093 277.369 -12.9402 283.056 -12.9402 290.003C-12.9402 290.776 -12.8682 291.532 -12.7242 292.27C-13.1561 291.658 -13.6241 291.064 -14.182 290.525C-19.0953 285.611 -26.9962 285.485 -32.0714 290.129C-31.4955 281.13 -28.9219 272.222 -24.3865 264.141C-15.4598 266.643 -7.36096 271.106 -0.593933 277.063H-0.575928ZM-34.3031 287.285C-33.8532 288.365 -33.3132 289.373 -32.7013 290.309C-33.6372 289.697 -34.6451 289.157 -35.7249 288.707C-44.7596 284.963 -55.0722 289.103 -59.0676 297.957C-62.4691 285.521 -63.8369 272.654 -63.171 259.858C-50.3748 259.192 -37.5067 260.56 -25.0704 263.961C-33.9252 267.938 -38.0466 278.269 -34.3211 287.303L-34.3031 287.285ZM-59.0496 348.097C-55.0721 356.951 -44.7416 361.073 -35.7069 357.347C-34.627 356.897 -33.6192 356.357 -32.6833 355.745C-33.2953 356.681 -33.8352 357.689 -34.2851 358.769C-38.0286 367.803 -33.8892 378.116 -25.0345 382.111C-37.4707 385.512 -50.3388 386.88 -63.135 386.214C-63.8009 373.418 -62.4331 360.551 -59.0316 348.115L-59.0496 348.097ZM-32.0714 355.925C-26.9962 360.569 -19.0953 360.461 -14.182 355.529C-13.6421 354.99 -13.1561 354.396 -12.7242 353.784C-12.8502 354.522 -12.9402 355.277 -12.9402 356.051C-12.9402 363.016 -7.45093 368.685 -0.575928 368.991C-7.34296 374.948 -15.4598 379.411 -24.3685 381.913C-28.9219 373.832 -31.4775 364.924 -32.0714 355.925ZM-0.989868 372.573C-0.539917 371.493 -0.215973 370.395 0.0179749 369.297C0.251953 370.395 0.575897 371.493 1.02585 372.573C4.76932 381.607 14.9919 385.98 24.0626 382.543C17.6735 393.737 9.53864 403.815 0.0179749 412.4C-9.50266 403.815 -17.6375 393.755 -24.0266 382.543C-14.9559 385.98 -4.73334 381.607 -0.989868 372.573ZM0.611908 368.991C7.48694 368.685 12.9761 362.998 12.9761 356.051C12.9761 355.277 12.9042 354.522 12.7602 353.784C13.1921 354.396 13.66 354.99 14.218 355.529C19.1313 360.443 27.0321 360.569 32.1074 355.925C31.5315 364.924 28.9579 373.832 24.4045 381.913C15.4778 379.411 7.37897 374.948 0.611908 368.991ZM34.3391 358.769C33.8892 357.689 33.3493 356.681 32.7374 355.745C33.6732 356.357 34.6811 356.897 35.7609 357.347C44.7956 361.091 55.1082 356.951 59.1036 348.097C62.5051 360.533 63.8729 373.4 63.207 386.196C50.4108 386.862 37.5427 385.494 25.1064 382.093C33.9612 378.116 38.0826 367.785 34.3571 358.751L34.3391 358.769ZM116.227 273.697C108.399 256.294 88.0794 248.142 70.316 255.502C68.1923 256.384 66.2126 257.446 64.3769 258.652C65.5827 256.798 66.6445 254.819 67.5264 252.713C74.8873 234.932 66.7165 214.595 49.277 206.767C73.7715 200.054 99.1299 197.354 124.326 198.668C125.622 223.864 122.94 249.204 116.227 273.697ZM63.135 258.292C53.1284 249.15 37.6147 249.384 27.932 259.066C26.8522 260.146 25.9163 261.298 25.0704 262.521C25.3404 261.082 25.4844 259.588 25.4844 258.058C25.4844 244.38 14.7039 233.204 1.16983 232.592C14.4879 220.894 30.4337 212.094 47.9812 207.181C56.9259 223.09 61.9651 240.583 63.117 258.31L63.135 258.292ZM1.99774 225.574C1.11584 227.697 0.467926 229.839 0.0179749 231.998C-0.431946 229.839 -1.07983 227.679 -1.9617 225.574C-9.32266 207.793 -29.4798 199.19 -47.3513 205.993C-34.7711 183.911 -18.7533 164.078 0 147.179C18.7354 164.078 34.7711 183.911 47.3333 205.975C29.4798 199.19 9.34067 207.793 1.97974 225.556L1.99774 225.574ZM-1.15182 232.592C-14.6859 233.204 -25.4664 244.362 -25.4664 258.058C-25.4664 259.588 -25.3044 261.064 -25.0524 262.521C-25.8803 261.315 -26.8342 260.146 -27.914 259.066C-37.5966 249.384 -53.1104 249.15 -63.117 258.292C-61.9652 240.583 -56.9259 223.072 -47.9812 207.163C-30.4337 212.076 -14.4879 220.876 -1.16983 232.574L-1.15182 232.592ZM-67.4904 252.713C-66.6085 254.837 -65.5467 256.816 -64.3408 258.652C-66.1946 257.428 -68.1743 256.366 -70.28 255.502C-88.0435 248.142 -108.381 256.294 -116.209 273.715C-122.923 249.222 -125.622 223.864 -124.308 198.668C-99.1119 197.372 -73.7355 200.054 -49.241 206.767C-66.6985 214.577 -74.8513 234.914 -67.4904 252.695V252.713ZM-116.227 372.303C-108.399 389.742 -88.0795 397.912 -70.298 390.551C-68.1743 389.67 -66.1945 388.608 -64.3588 387.402C-65.5826 389.256 -66.6445 391.235 -67.5084 393.341C-74.8693 411.104 -66.7345 431.405 -49.331 439.233C-73.8075 445.928 -99.1479 448.628 -124.326 447.314C-125.622 422.118 -122.941 396.778 -116.227 372.303ZM-63.099 387.744C-53.0924 396.886 -37.5786 396.652 -27.896 386.97C-26.8162 385.89 -25.8803 384.738 -25.0345 383.515C-25.3044 384.954 -25.4484 386.448 -25.4484 387.978C-25.4484 401.656 -14.6679 412.832 -1.13385 413.444C-14.4519 425.142 -30.3977 433.942 -47.9452 438.855C-56.8899 422.946 -61.9292 405.453 -63.081 387.726L-63.099 387.744ZM-1.9617 420.48C-1.07983 418.357 -0.431946 416.215 0.0179749 414.056C0.467926 416.215 1.11584 418.375 1.99774 420.48C9.35867 438.243 29.4618 446.846 47.3152 440.079C34.735 462.125 18.7353 481.94 0.0179749 498.821C-18.6993 481.94 -34.7171 462.125 -47.2973 440.079C-29.4438 446.864 -9.30469 438.261 -1.94373 420.48H-1.9617ZM1.18784 413.462C14.7219 412.85 25.5023 401.692 25.5023 387.996C25.5023 386.466 25.3404 384.99 25.0884 383.533C25.9163 384.738 26.8701 385.908 27.95 386.988C37.6326 396.67 53.1464 396.904 63.153 387.762C62.0192 405.471 56.9619 422.982 48.0172 438.891C30.4696 433.978 14.5239 425.178 1.20584 413.48L1.18784 413.462ZM67.5264 393.323C66.6445 391.199 65.5827 389.22 64.3769 387.384C66.2306 388.59 68.2103 389.652 70.316 390.534C88.0794 397.894 108.399 389.742 116.227 372.321C122.922 396.796 125.622 422.136 124.308 447.314C99.1299 448.61 73.8075 445.928 49.331 439.233C66.7345 431.387 74.8693 411.086 67.5084 393.323H67.5264ZM127.854 272.852C124.848 272.852 121.933 273.158 119.089 273.679C121.465 272.042 123.75 270.188 125.874 268.064C144.915 249.024 145.383 218.483 127.386 198.812C161.365 201.008 194.948 210.51 225.616 227.283C225.688 227.319 225.76 227.373 225.832 227.409C226.552 227.805 227.254 228.201 227.974 228.597C227.758 229.389 227.524 230.163 227.308 230.955C227.29 231.027 227.254 231.117 227.236 231.189C217.427 264.717 200.401 295.15 177.959 320.723C176.753 294.088 154.796 272.87 127.854 272.87V272.852ZM95.6204 97.1834C95.6204 97.1834 95.7104 97.3274 95.7464 97.3994C112.52 128.066 122.023 161.648 124.218 195.627C104.547 177.63 74.0054 178.098 54.9641 197.138C52.8405 199.262 50.9867 201.548 49.349 203.923C49.8709 201.08 50.1768 198.146 50.1768 195.159C50.1768 168.235 28.9579 146.261 2.32166 145.055C27.878 122.613 58.3297 105.588 91.8589 95.7797C91.9309 95.7617 92.0209 95.7437 92.0929 95.7077C92.8848 95.4737 93.6586 95.2578 94.4505 95.0418C94.8465 95.7437 95.2425 96.4636 95.6384 97.1834H95.6204ZM-55.3601 43.5706C-38.5685 26.7794 -19.8871 13.0658 0 2.3756C19.8872 13.0658 38.5685 26.7794 55.3601 43.5706C70.37 58.58 82.9502 75.1192 93.0827 92.6842C57.9517 79.3665 18.3574 96.3016 3.88745 131.252C2.1597 135.409 0.881866 139.638 0 143.903C-0.881866 139.656 -2.1597 135.427 -3.88745 131.252C-18.3574 96.3016 -57.9518 79.3665 -93.0827 92.6842C-82.9502 75.1192 -70.388 58.58 -55.3601 43.5706ZM-95.7284 97.4174C-95.7284 97.4174 -95.6384 97.2734 -95.6024 97.2014C-95.2065 96.4816 -94.8105 95.7797 -94.4146 95.0598C-93.6227 95.2758 -92.8488 95.5097 -92.0569 95.7257C-91.9849 95.7437 -91.8949 95.7797 -91.8229 95.7977C-58.2937 105.606 -27.86 122.631 -2.28568 145.073C-28.9219 146.279 -50.1409 168.235 -50.1409 195.177C-50.1409 198.182 -49.8349 201.098 -49.313 203.941C-50.9507 201.566 -52.8045 199.28 -54.9282 197.156C-73.9695 178.116 -104.511 177.648 -124.182 195.645C-121.987 161.666 -112.502 128.084 -95.7104 97.4174H-95.7284ZM-236.72 164.564C-236.72 140.826 -233.211 117.916 -226.714 96.2836C-205.099 89.7867 -182.17 86.2773 -158.431 86.2773C-137.194 86.2773 -116.605 89.0848 -97.0242 94.3399C-131.291 109.763 -147.309 149.734 -132.821 184.667C-131.093 188.824 -129.006 192.729 -126.63 196.347C-130.265 193.953 -134.153 191.883 -138.31 190.156C-173.261 175.686 -213.234 191.703 -228.639 225.952C-233.895 206.371 -236.702 185.782 -236.702 164.546L-236.72 164.564ZM-279.428 378.35C-296.22 361.558 -309.934 342.878 -320.624 322.991C-309.934 303.104 -296.22 284.424 -279.428 267.632C-264.418 252.623 -247.879 240.043 -230.313 229.911C-243.631 265.041 -226.696 304.634 -191.745 319.104C-187.587 320.831 -183.358 322.109 -179.092 322.991C-183.34 323.873 -187.569 325.151 -191.745 326.878C-226.696 341.348 -243.631 380.941 -230.313 416.071C-247.879 405.939 -264.418 393.377 -279.428 378.35ZM-158.431 559.723C-182.17 559.723 -205.081 556.213 -226.714 549.716C-233.211 528.102 -236.72 505.174 -236.72 481.436C-236.72 460.2 -233.913 439.611 -228.657 420.03C-213.234 454.297 -173.261 470.314 -138.328 455.826C-134.171 454.099 -130.265 452.011 -126.648 449.635C-129.042 453.271 -131.111 457.158 -132.839 461.315C-147.309 496.265 -131.291 536.237 -97.0422 551.642C-116.623 556.897 -137.212 559.705 -158.449 559.705L-158.431 559.723ZM-95.6024 548.817C-95.6024 548.817 -95.6924 548.655 -95.7284 548.583C-112.502 517.916 -122.005 484.334 -124.2 450.355C-104.529 468.352 -73.9875 467.884 -54.9462 448.844C-52.8225 446.72 -50.9688 444.434 -49.331 442.059C-49.8529 444.902 -50.1588 447.836 -50.1588 450.823C-50.1588 477.747 -28.9399 499.721 -2.30365 500.927C-27.86 523.369 -58.3117 540.394 -91.8409 550.202C-91.9129 550.22 -92.0029 550.256 -92.0749 550.274C-92.8668 550.508 -93.6407 550.724 -94.4326 550.94C-94.8285 550.238 -95.2245 549.518 -95.6204 548.817H-95.6024ZM55.3601 602.411C38.5685 619.203 19.8872 632.916 0 643.606C-19.8871 632.916 -38.5685 619.203 -55.3601 602.411C-70.37 587.402 -82.9502 570.863 -93.0827 553.298C-57.9518 566.616 -18.3574 549.68 -3.88745 514.73C-2.1597 510.573 -0.881866 506.344 0 502.079C0.881866 506.326 2.1597 510.555 3.88745 514.73C18.3574 549.68 57.9517 566.616 93.0827 553.298C82.9502 570.863 70.388 587.402 55.3601 602.411ZM95.7464 548.583C95.7464 548.583 95.6564 548.745 95.6204 548.817C95.2245 549.518 94.8285 550.238 94.4326 550.94C93.6407 550.724 92.8488 550.49 92.0749 550.274C92.0029 550.256 91.9129 550.238 91.8409 550.202C58.3117 540.394 27.878 523.369 2.30368 500.927C28.9399 499.721 50.1588 477.765 50.1588 450.823C50.1588 447.818 49.8529 444.902 49.331 442.059C50.9688 444.434 52.8225 446.72 54.9462 448.844C73.9875 467.884 104.529 468.352 124.2 450.355C122.005 484.334 112.52 517.916 95.7284 548.583H95.7464ZM236.738 481.436C236.738 505.174 233.229 528.084 226.732 549.716C205.117 556.213 182.188 559.723 158.449 559.723C137.212 559.723 116.623 556.915 97.0422 551.66C131.309 536.237 147.327 496.265 132.839 461.333C131.111 457.176 129.024 453.271 126.648 449.653C130.283 452.047 134.171 454.117 138.328 455.844C173.279 470.314 213.252 454.297 228.657 420.048C233.913 439.629 236.72 460.218 236.72 481.454L236.738 481.436ZM279.428 378.35C264.418 393.359 247.879 405.939 230.313 416.071C243.631 380.941 226.696 341.348 191.745 326.878C187.587 325.151 183.358 323.873 179.093 322.991C183.34 322.109 187.569 320.831 191.745 319.104C226.696 304.634 243.631 265.041 230.313 229.911C247.879 240.043 264.418 252.605 279.428 267.632C296.22 284.424 309.934 303.104 320.624 322.991C309.934 342.878 296.22 361.558 279.428 378.35Z" fill="#FDF7E6"/>
</g>
</g>
</g>
</g>
</g>
<defs>
<clipPath id="clip0_48013_5738">

</clipPath>
</defs>
</svg>
