<svg width="623" height="877" viewBox="0 0 623 877" fill="none" xmlns="http://www.w3.org/2000/svg">
<path d="M446.066 438.243C512.716 365.695 510.876 252.81 440.547 182.483C370.218 112.156 257.33 110.316 184.779 176.964C180.613 78.5193 99.4883 0 0 0C-99.4537 0 -180.579 78.5193 -184.744 176.964C-257.295 110.316 -370.183 112.156 -440.512 182.483C-510.841 252.81 -512.681 365.695 -446.031 438.243C-544.478 442.409 -623 523.532 -623 622.983C-623 722.433 -544.478 803.556 -446.031 807.756C-512.681 880.305 -510.841 993.19 -440.512 1063.52C-370.183 1133.84 -257.295 1135.68 -184.744 1069.04C-180.579 1167.48 -99.4537 1246 0 1246C99.4537 1246 180.579 1167.48 184.744 1069.04C257.295 1135.68 370.183 1133.84 440.512 1063.52C510.841 993.19 512.681 880.305 446.031 807.756C544.478 803.591 623 722.468 623 623.017C623 523.566 544.478 442.444 446.031 438.243H446.066ZM305.616 166.411C351.403 166.411 395.593 173.18 437.318 185.711C449.85 227.401 456.619 271.624 456.619 317.41C456.619 358.37 451.204 398.081 441.068 435.848C411.318 369.756 334.22 338.862 266.841 366.805C258.822 370.138 251.29 374.164 244.312 378.746C248.929 371.735 252.921 364.237 256.254 356.218C284.163 288.807 253.268 211.711 187.209 181.997C224.977 171.861 264.689 166.446 305.651 166.446L305.616 166.411ZM242.785 728.959C238.689 724.863 234.28 721.288 229.698 718.129C235.183 719.136 240.841 719.726 246.603 719.726C298.535 719.726 340.919 678.8 343.245 627.426C386.533 676.717 419.372 735.451 438.29 800.12C438.325 800.259 438.36 800.432 438.429 800.571C438.88 802.098 439.297 803.591 439.714 805.118C438.36 805.882 436.971 806.646 435.583 807.409C435.444 807.479 435.305 807.583 435.166 807.652C376.015 840.004 311.24 858.332 245.701 862.567C280.414 824.627 279.512 765.72 242.785 728.994V728.959ZM-245.666 862.533C-311.205 858.298 -375.98 840.004 -435.132 807.618C-435.27 807.548 -435.409 807.444 -435.548 807.375C-436.937 806.611 -438.29 805.847 -439.679 805.084C-439.262 803.591 -438.846 802.064 -438.395 800.571C-438.36 800.397 -438.29 800.259 -438.256 800.085C-419.337 735.416 -386.498 676.717 -343.211 627.391C-340.885 678.765 -298.535 719.691 -246.569 719.691C-240.772 719.691 -235.148 719.101 -229.663 718.094C-234.246 721.253 -238.654 724.829 -242.75 728.925C-279.477 765.65 -280.38 824.557 -245.666 862.498V862.533ZM-242.75 517.04C-238.654 521.137 -234.246 524.712 -229.663 527.871C-235.148 526.864 -240.806 526.274 -246.569 526.274C-298.5 526.274 -340.885 567.2 -343.211 618.574C-386.498 569.283 -419.337 510.549 -438.256 445.915C-438.29 445.741 -438.36 445.568 -438.395 445.394C-438.846 443.902 -439.262 442.409 -439.679 440.882C-438.325 440.118 -436.937 439.354 -435.548 438.591C-435.409 438.521 -435.27 438.417 -435.132 438.348C-375.98 405.996 -311.205 387.668 -245.666 383.433C-280.38 421.373 -279.477 480.28 -242.75 517.006V517.04ZM188.007 626.87C183.911 625.169 179.78 623.92 175.615 623.052C179.78 622.184 183.946 620.935 188.007 619.234C222.304 605.036 238.897 566.158 225.775 531.724C268.334 555.988 306.553 586.882 339.149 623.017C306.588 659.118 268.369 690.012 225.845 714.276C238.862 679.841 222.269 641.068 188.042 626.87H188.007ZM123.406 676.891C121.323 674.808 119.101 673.003 116.741 671.372C119.518 671.892 122.399 672.17 125.35 672.17C151.732 672.17 173.289 651.377 174.469 625.274C197.033 650.961 214.008 681.716 223.484 715.56C192.798 732.812 159.056 742.532 124.864 744.754C142.498 725.453 142.047 695.531 123.371 676.856L123.406 676.891ZM-124.829 744.788C-158.987 742.601 -192.763 732.847 -223.45 715.595C-213.973 681.751 -196.998 650.995 -174.434 625.308C-173.254 651.412 -151.732 672.205 -125.315 672.205C-122.365 672.205 -119.518 671.892 -116.706 671.406C-119.032 673.003 -121.288 674.843 -123.371 676.926C-142.047 695.601 -142.498 725.523 -124.864 744.823L-124.829 744.788ZM-225.741 714.276C-268.299 690.012 -306.519 659.118 -339.114 622.983C-306.519 586.847 -268.265 555.918 -225.706 531.689C-238.862 566.158 -222.235 605.036 -187.938 619.234C-183.842 620.935 -179.711 622.184 -175.545 623.052C-179.711 623.92 -183.876 625.169 -187.938 626.87C-222.2 641.068 -238.793 679.876 -225.741 714.276ZM-123.336 569.213C-121.254 571.296 -119.032 573.101 -116.672 574.732C-119.449 574.212 -122.33 573.934 -125.28 573.934C-151.663 573.934 -173.22 594.727 -174.4 620.83C-196.963 595.143 -213.938 564.388 -223.415 530.544C-192.728 513.292 -158.987 503.572 -124.794 501.351C-142.429 520.651 -141.978 550.573 -123.302 569.248L-123.336 569.213ZM124.898 501.316C159.056 503.537 192.832 513.257 223.519 530.509C214.042 564.353 197.068 595.109 174.504 620.796C173.324 594.692 151.801 573.899 125.384 573.899C122.434 573.899 119.587 574.212 116.776 574.698C119.101 573.101 121.358 571.261 123.441 569.178C142.116 550.503 142.568 520.581 124.933 501.281L124.898 501.316ZM95.6005 624.996C93.5176 624.128 91.4001 623.503 89.2827 623.052C91.4001 622.601 93.5176 621.976 95.6005 621.108C113.027 613.888 121.462 594.171 114.832 576.676C136.423 588.999 155.863 604.689 172.421 623.052C155.863 641.415 136.458 657.105 114.832 669.428C121.462 651.933 113.027 632.216 95.6005 624.996ZM62.7617 650.44C61.7202 649.399 60.5747 648.462 59.3945 647.628C60.8177 647.871 62.2756 648.045 63.7683 648.045C77.2024 648.045 88.1371 637.458 88.7272 624.198C100.217 637.249 108.826 652.905 113.651 670.087C98.0651 678.869 80.882 683.799 63.5254 684.944C72.4814 675.121 72.2731 659.917 62.7617 650.44ZM-63.4213 684.944C-80.778 683.833 -97.9611 678.869 -113.547 670.087C-108.722 652.87 -100.113 637.249 -88.6231 624.198C-88.033 637.458 -77.0636 648.045 -63.6642 648.045C-62.1716 648.045 -60.7136 647.906 -59.2903 647.628C-60.4706 648.462 -61.6162 649.364 -62.6576 650.44C-72.1343 659.917 -72.3773 675.155 -63.4213 684.944ZM-114.728 669.428C-136.319 657.105 -155.759 641.415 -172.317 623.052C-155.759 604.689 -136.354 588.999 -114.728 576.676C-121.358 594.171 -112.922 613.888 -95.4963 621.108C-93.4136 621.976 -91.296 622.601 -89.1785 623.052C-91.296 623.503 -93.4136 624.128 -95.4963 624.996C-112.922 632.216 -121.358 651.933 -114.728 669.428ZM-62.6923 595.664C-61.6509 596.705 -60.5054 597.643 -59.3251 598.476C-60.7484 598.233 -62.2063 598.059 -63.699 598.059C-77.1331 598.059 -88.0677 608.646 -88.6579 621.906C-100.148 608.855 -108.757 593.199 -113.582 576.017C-97.9957 567.235 -80.8126 562.305 -63.4559 561.16C-72.412 570.984 -72.2037 586.188 -62.6923 595.664ZM63.4906 561.16C80.8472 562.271 98.0304 567.235 113.617 576.017C108.792 593.234 100.183 608.855 88.6925 621.906C88.1024 608.646 77.133 598.059 63.7336 598.059C62.241 598.059 60.783 598.198 59.3598 598.476C60.54 597.643 61.6855 596.74 62.7269 595.664C72.2037 586.188 72.4467 570.949 63.4906 561.16ZM31.5544 654.536C31.5544 654.536 31.5544 654.64 31.5544 654.71C31.0684 663.735 28.5344 672.656 23.9869 680.779C15.0309 678.279 6.94263 673.732 0.208252 667.692C0.173523 667.657 0.138855 667.623 0.069458 667.588C0.034729 667.623 -6.10352e-05 667.657 -0.069458 667.692C-6.80383 673.732 -14.892 678.245 -23.8481 680.779C-28.3955 672.691 -30.9296 663.735 -31.4156 654.71C-31.4156 654.64 -31.4156 654.606 -31.4156 654.536C-31.485 654.536 -31.5198 654.536 -31.5892 654.536C-40.6146 654.05 -49.5359 651.516 -57.6589 646.969C-55.1595 638.013 -50.6121 629.925 -44.572 623.191C-44.5372 623.156 -44.5025 623.121 -44.4678 623.052C-44.5025 623.017 -44.5372 622.983 -44.572 622.913C-50.6121 616.179 -55.1248 608.091 -57.6589 599.135C-49.5707 594.588 -40.6146 592.054 -31.5892 591.568C-31.5198 591.568 -31.485 591.568 -31.4156 591.568C-31.4156 591.498 -31.4156 591.464 -31.4156 591.394C-30.9296 582.369 -28.3955 573.448 -23.8481 565.325C-14.892 567.825 -6.80383 572.372 -0.069458 578.412C-0.034729 578.447 0 578.481 0.069458 578.516C0.104126 578.481 0.138794 578.447 0.208252 578.412C6.94263 572.372 15.0309 567.859 23.9869 565.325C28.5344 573.413 31.0684 582.369 31.5544 591.394C31.5544 591.464 31.5544 591.498 31.5544 591.568C31.6238 591.568 31.6585 591.568 31.728 591.568C40.7534 592.054 49.6747 594.588 57.7977 599.135C55.2983 608.091 50.7509 616.179 44.7108 622.913C44.676 622.948 44.6414 622.983 44.6066 623.052C44.6414 623.087 44.676 623.121 44.7108 623.191C50.7509 629.925 55.2635 638.013 57.7977 646.969C49.7095 651.516 40.7534 654.05 31.728 654.536C31.6585 654.536 31.6238 654.536 31.5544 654.536ZM-48.5292 622.08C-47.4879 622.531 -46.4117 622.844 -45.301 623.052C-46.3771 623.26 -47.4531 623.607 -48.5292 624.024C-57.3812 627.703 -61.6509 637.701 -58.2837 646.622C-69.2531 640.373 -79.1464 632.39 -87.5471 623.052C-79.1464 613.714 -69.2531 605.731 -58.2837 599.482C-61.6509 608.369 -57.3812 618.401 -48.5292 622.08ZM48.5986 624.024C47.5573 623.573 46.4811 623.26 45.3702 623.052C46.4464 622.844 47.5225 622.497 48.5986 622.08C57.4505 618.401 61.7203 608.403 58.3531 599.482C69.3225 605.731 79.2158 613.714 87.6164 623.052C79.2158 632.39 69.3225 640.373 58.3531 646.622C61.7203 637.735 57.4505 627.703 48.5986 624.024ZM57.9712 598.476C54.0486 589.798 43.947 585.736 35.0951 589.416C34.0537 589.867 33.0471 590.388 32.1098 590.978C32.6999 590.041 33.2553 589.069 33.6719 587.993C37.3515 579.141 33.29 569.04 24.6117 565.117C36.7961 561.785 49.4318 560.431 61.9633 561.09C62.6228 573.622 61.269 586.257 57.9365 598.476H57.9712ZM1.00665 574.489C0.555359 575.531 0.24292 576.607 0.034668 577.718C-0.173645 576.642 -0.520752 575.566 -0.937256 574.489C-4.61688 565.638 -14.6143 561.368 -23.5356 564.735C-17.2872 553.766 -9.30322 543.873 0.034668 535.473C9.37256 543.873 17.3566 553.766 23.605 564.735C14.7184 561.368 4.68628 565.638 1.00665 574.489ZM-33.6025 587.993C-33.1513 589.034 -32.6306 590.041 -32.0404 590.978C-32.9777 590.388 -33.9496 589.832 -34.9911 589.416C-43.843 585.736 -53.9445 589.798 -57.8671 598.476C-61.1996 586.292 -62.5535 573.656 -61.8939 561.125C-49.3624 560.466 -36.7267 561.819 -24.5424 565.152C-33.2207 569.074 -37.2822 579.176 -33.6025 588.027V587.993ZM-57.9019 647.628C-53.9792 656.307 -43.8776 660.368 -35.0258 656.688C-33.9844 656.237 -32.9777 655.716 -32.0751 655.126C-32.6653 656.063 -33.2207 657.035 -33.6373 658.077C-37.3168 666.928 -33.2554 677.03 -24.5771 680.952C-36.7615 684.285 -49.3971 685.638 -61.9286 684.979C-62.5881 672.448 -61.2343 659.812 -57.9019 647.628ZM-0.937256 671.615C-0.486023 670.573 -0.173645 669.497 0.034668 668.386C0.24292 669.462 0.590088 670.539 1.00665 671.615C4.68628 680.466 14.6837 684.736 23.605 681.369C17.3566 692.338 9.37256 702.231 0.034668 710.631C-9.30322 702.231 -17.2872 692.338 -23.5356 681.369C-14.649 684.736 -4.61688 680.466 -0.937256 671.615ZM33.6719 658.077C33.2206 657.035 32.6999 656.029 32.1098 655.126C33.0471 655.716 34.019 656.272 35.0951 656.688C43.947 660.368 54.0486 656.307 57.9712 647.628C61.3036 659.812 62.6575 672.448 61.998 685.014C49.4664 685.673 36.8308 684.319 24.6464 680.987C33.3248 677.064 37.3862 666.963 33.7065 658.112L33.6719 658.077ZM113.964 574.663C106.292 557.585 86.3667 549.635 68.9406 556.821C66.8578 557.689 64.9139 558.73 63.1088 559.91C64.289 558.105 65.3304 556.161 66.1982 554.079C73.4186 536.653 65.4346 516.763 48.3556 509.057C72.3425 502.496 97.1625 499.858 121.844 501.142C123.128 525.823 120.49 550.642 113.929 574.628L113.964 574.663ZM61.9285 559.598C52.1046 550.607 36.9002 550.85 27.4235 560.361C26.3821 561.403 25.4448 562.548 24.6117 563.729C24.8547 562.305 25.0283 560.847 25.0283 559.355C25.0283 545.921 14.4407 534.987 1.18024 534.397C14.2324 522.907 29.8881 514.298 47.0712 509.473C55.8537 525.059 60.783 542.242 61.9285 559.598ZM1.97858 527.489C1.11078 529.572 0.485962 531.689 0.034668 533.807C-0.416626 531.689 -1.04144 529.572 -1.9093 527.489C-9.12964 510.063 -28.8468 501.628 -46.3423 508.258C-34.0191 486.667 -18.3287 467.228 0.034668 450.671C18.398 467.228 34.0884 486.632 46.4117 508.258C28.9161 501.628 9.19897 510.063 1.97858 527.489ZM-1.11084 534.397C-14.3713 534.987 -24.9589 545.956 -24.9589 559.355C-24.9589 560.847 -24.8201 562.305 -24.5424 563.729C-25.3755 562.548 -26.278 561.403 -27.3541 560.361C-36.8309 550.885 -52.07 550.642 -61.8592 559.598C-60.7484 542.242 -55.7843 525.059 -47.0366 509.473C-29.8188 514.298 -14.1978 522.907 -1.14557 534.397H-1.11084ZM-66.1636 554.113C-65.2958 556.196 -64.2544 558.14 -63.0741 559.945C-64.8792 558.765 -66.8232 557.723 -68.906 556.856C-86.3321 549.635 -106.223 557.619 -113.929 574.698C-120.49 550.711 -123.128 525.892 -121.844 501.212C-97.1627 499.927 -72.3427 502.565 -48.3557 509.126C-65.4347 516.797 -73.384 536.722 -66.1984 554.148L-66.1636 554.113ZM-113.894 671.406C-106.223 688.485 -86.2973 696.434 -68.8712 689.249C-66.7885 688.381 -64.8445 687.339 -63.0394 686.159C-64.2197 687.964 -65.261 689.908 -66.1289 691.991C-73.3492 709.416 -65.3652 729.307 -48.2863 737.013C-72.2732 743.573 -97.0932 746.211 -121.774 744.927C-123.059 720.247 -120.421 695.427 -113.86 671.441L-113.894 671.406ZM-61.8592 686.506C-52.07 695.462 -36.8309 695.254 -27.3541 685.743C-26.3127 684.701 -25.3755 683.556 -24.5424 682.375C-24.7853 683.799 -24.9589 685.257 -24.9589 686.749C-24.9589 700.183 -14.3713 711.117 -1.11084 711.707C-14.1631 723.197 -29.8188 731.806 -47.0019 736.631C-55.7844 721.045 -60.7136 703.862 -61.8592 686.506ZM-1.9093 718.615C-1.04144 716.532 -0.416626 714.415 0.034668 712.297C0.485962 714.415 1.11078 716.532 1.97858 718.615C9.19897 736.041 28.9161 744.476 46.4117 737.846C34.0884 759.437 18.398 778.876 0.034668 795.434C-18.3287 778.876 -34.0191 759.472 -46.3423 737.846C-28.8468 744.476 -9.12964 736.041 -1.9093 718.615ZM1.18024 711.707C14.4407 711.117 25.0283 700.148 25.0283 686.749C25.0283 685.257 24.8894 683.799 24.6117 682.375C25.4448 683.556 26.3474 684.701 27.4235 685.743C36.9002 695.219 52.1393 695.462 61.9285 686.506C60.8177 703.862 55.8537 721.045 47.0712 736.631C29.8534 731.806 14.2324 723.197 1.18024 711.707ZM66.233 691.991C65.3652 689.908 64.3238 687.964 63.1436 686.159C64.9486 687.339 66.8925 688.381 68.9753 689.249C86.4014 696.469 106.292 688.485 113.998 671.406C120.559 695.393 123.198 720.212 121.913 744.892C97.232 746.177 72.4119 743.539 48.425 736.978C65.504 729.307 73.4533 709.382 66.2676 691.956L66.233 691.991ZM224.179 527.905C209.078 494.339 169.887 478.614 135.625 492.811C131.529 494.512 127.71 496.56 124.17 498.886C126.495 495.311 128.543 491.492 130.244 487.431C144.442 453.135 128.682 413.91 95.0451 398.81C142.29 385.863 191.201 380.656 239.8 383.19C242.299 431.787 237.127 480.662 224.179 527.905ZM121.774 498.192C102.474 480.558 72.5508 481.009 53.8751 499.684C51.7922 501.767 49.9871 503.989 48.3556 506.349C48.8763 503.572 49.1541 500.691 49.1541 497.74C49.1541 471.359 28.3607 449.803 2.25629 448.622C27.9442 426.059 58.7003 409.085 92.5457 399.609C109.798 430.294 119.518 464.035 121.74 498.226L121.774 498.192ZM3.85315 435.085C2.15222 439.181 0.902466 443.311 0.034668 447.477C-0.833191 443.311 -2.08282 439.146 -3.78375 435.085C-17.9815 400.789 -56.8605 384.196 -91.3307 397.318C-67.0662 354.726 -36.1713 316.473 0 283.878C36.1365 316.473 67.0661 354.726 91.296 397.283C56.8604 384.196 18.0162 400.789 3.81842 435.05L3.85315 435.085ZM-2.22168 448.622C-28.3261 449.803 -49.1194 471.324 -49.1194 497.74C-49.1194 500.691 -48.8069 503.537 -48.3209 506.349C-49.9178 504.023 -51.7576 501.767 -53.8404 499.684C-72.5161 481.009 -102.439 480.558 -121.74 498.192C-119.518 464.035 -109.798 430.26 -92.5458 399.574C-58.7003 409.05 -27.9443 426.025 -2.25641 448.588L-2.22168 448.622ZM-130.175 487.431C-128.474 491.527 -126.426 495.345 -124.1 498.886C-127.676 496.525 -131.494 494.477 -135.556 492.811C-169.818 478.614 -209.044 494.339 -224.144 527.94C-237.092 480.697 -242.299 431.787 -239.765 383.19C-191.166 380.69 -142.22 385.863 -94.9756 398.81C-128.648 413.875 -144.373 453.1 -130.175 487.396V487.431ZM-224.179 718.094C-209.078 751.731 -169.887 767.49 -135.59 753.293C-131.494 751.592 -127.676 749.544 -124.135 747.218C-126.495 750.794 -128.543 754.612 -130.21 758.673C-144.407 792.934 -128.717 832.09 -95.1492 847.19C-142.359 860.103 -191.236 865.31 -239.8 862.776C-242.299 814.178 -237.127 765.303 -224.179 718.094ZM-121.705 747.878C-102.404 765.511 -72.4814 765.06 -53.8057 746.385C-51.7229 744.302 -49.9178 742.081 -48.2863 739.72C-48.8069 742.497 -49.0847 745.378 -49.0847 748.329C-49.0847 774.71 -28.2914 796.267 -2.18701 797.447C-27.8748 820.01 -58.6308 836.984 -92.4763 846.461C-109.729 815.775 -119.449 782.035 -121.67 747.843L-121.705 747.878ZM-3.78375 811.019C-2.08282 806.923 -0.833191 802.793 0.034668 798.627C0.902466 802.793 2.15222 806.958 3.85315 811.019C18.0509 845.281 56.8256 861.873 91.2612 848.821C66.9966 891.344 36.1365 929.562 0.034668 962.122C-36.0672 929.562 -66.962 891.344 -91.2266 848.821C-56.791 861.908 -17.9468 845.315 -3.74908 811.019H-3.78375ZM2.29108 797.482C28.3955 796.301 49.1887 774.78 49.1887 748.364C49.1887 745.413 48.8763 742.567 48.3904 739.755C49.9872 742.081 51.8269 744.337 53.9097 746.42C72.5855 765.095 102.508 765.546 121.809 747.912C119.622 782.069 109.868 815.844 92.6151 846.53C58.7696 837.054 28.0136 820.079 2.32574 797.516L2.29108 797.482ZM130.244 758.638C128.543 754.542 126.495 750.724 124.17 747.183C127.745 749.509 131.563 751.557 135.625 753.258C169.887 767.455 209.078 751.731 224.179 718.129C237.092 765.338 242.299 814.213 239.765 862.776C191.201 865.275 142.359 860.103 95.1492 847.19C128.717 832.055 144.407 792.9 130.21 758.638H130.244ZM246.603 526.274C240.806 526.274 235.183 526.864 229.698 527.871C234.28 524.712 238.689 521.137 242.785 517.04C279.512 480.315 280.414 421.408 245.701 383.467C311.24 387.702 376.015 406.03 435.166 438.382C435.305 438.452 435.444 438.556 435.583 438.625C436.971 439.389 438.325 440.153 439.714 440.916C439.297 442.444 438.846 443.936 438.429 445.464C438.394 445.603 438.325 445.776 438.29 445.915C419.372 510.584 386.533 569.283 343.245 618.609C340.919 567.235 298.569 526.309 246.603 526.309V526.274ZM184.432 187.447C184.432 187.447 184.605 187.724 184.675 187.863C217.028 247.013 235.356 311.786 239.591 377.323C201.65 342.611 142.741 343.513 106.014 380.239C101.918 384.335 98.3428 388.744 95.1839 393.326C96.1906 387.841 96.7807 382.183 96.7807 376.421C96.7807 324.491 55.8537 282.107 4.47797 279.782C53.7709 236.495 112.506 203.657 177.177 184.739C177.316 184.704 177.489 184.67 177.628 184.6C179.155 184.149 180.648 183.732 182.175 183.316C182.939 184.67 183.703 186.058 184.467 187.447H184.432ZM-106.778 84.0386C-74.3906 51.652 -38.3582 25.2012 0 4.58203C38.3582 25.2012 74.3906 51.652 106.778 84.0386C135.729 112.989 159.994 144.889 179.537 178.769C111.777 153.081 35.4076 185.746 7.49805 253.157C4.16559 261.176 1.70093 269.333 0 277.56C-1.70099 269.368 -4.16565 261.21 -7.49811 253.157C-35.4077 185.746 -111.777 153.081 -179.537 178.769C-159.994 144.889 -135.764 112.989 -106.778 84.0386ZM-184.64 187.898C-184.64 187.898 -184.467 187.62 -184.397 187.481C-183.634 186.093 -182.87 184.739 -182.106 183.351C-180.579 183.767 -179.086 184.218 -177.559 184.635C-177.42 184.67 -177.246 184.739 -177.107 184.774C-112.436 203.692 -53.7363 236.53 -4.40863 279.816C-55.7844 282.142 -96.7114 324.491 -96.7114 376.455C-96.7114 382.252 -96.1212 387.876 -95.1145 393.36C-98.2734 388.778 -101.849 384.37 -105.945 380.274C-142.672 343.548 -201.58 342.646 -239.522 377.358C-235.287 311.821 -216.993 247.048 -184.605 187.898H-184.64ZM-456.584 317.41C-456.584 271.624 -449.815 227.435 -437.284 185.711C-395.593 173.18 -351.368 166.411 -305.581 166.411C-264.62 166.411 -224.908 171.826 -187.14 181.962C-253.234 211.711 -284.129 288.807 -256.184 356.183C-252.852 364.202 -248.825 371.735 -244.243 378.712C-251.255 374.095 -258.753 370.103 -266.772 366.771C-334.185 338.862 -411.283 369.756 -440.998 435.814C-451.134 398.047 -456.55 358.336 -456.55 317.375L-456.584 317.41ZM-538.959 729.758C-571.347 697.371 -597.798 661.34 -618.418 622.983C-597.798 584.625 -571.347 548.594 -538.959 516.207C-510.008 487.257 -478.107 462.993 -444.226 443.45C-469.914 511.209 -437.249 587.576 -369.836 615.485C-361.817 618.817 -353.659 621.282 -345.432 622.983C-353.625 624.683 -361.782 627.148 -369.836 630.48C-437.249 658.389 -469.914 734.756 -444.226 802.515C-478.107 782.972 -510.008 758.743 -538.959 729.758ZM-305.581 1079.59C-351.368 1079.59 -395.558 1072.82 -437.284 1060.29C-449.815 1018.6 -456.584 974.376 -456.584 928.59C-456.584 887.63 -451.169 847.919 -441.033 810.152C-411.283 876.244 -334.185 907.138 -266.807 879.195C-258.788 875.862 -251.255 871.836 -244.278 867.253C-248.895 874.265 -252.887 881.763 -256.219 889.782C-284.129 957.193 -253.234 1034.29 -187.174 1064C-224.942 1074.14 -264.654 1079.55 -305.616 1079.55L-305.581 1079.59ZM-184.397 1058.55C-184.397 1058.55 -184.571 1058.24 -184.64 1058.1C-216.993 998.952 -235.322 934.179 -239.557 868.642C-201.615 903.354 -142.707 902.452 -105.98 865.726C-101.884 861.63 -98.3082 857.222 -95.1492 852.64C-96.1559 858.124 -96.746 863.782 -96.746 869.544C-96.746 921.474 -55.819 963.858 -4.4433 966.184C-53.7362 1009.47 -112.471 1042.31 -177.142 1061.23C-177.281 1061.26 -177.455 1061.33 -177.593 1061.36C-179.121 1061.82 -180.613 1062.23 -182.141 1062.65C-182.905 1061.3 -183.668 1059.91 -184.432 1058.55H-184.397ZM106.778 1161.93C74.3906 1194.31 38.3582 1220.76 0 1241.38C-38.3582 1220.76 -74.3906 1194.31 -106.778 1161.93C-135.729 1132.98 -159.994 1101.08 -179.537 1067.2C-111.777 1092.88 -35.4077 1060.22 -7.49811 992.808C-4.16565 984.79 -1.70099 976.632 0 968.405C1.70093 976.597 4.16559 984.755 7.49805 992.808C35.4076 1060.22 111.777 1092.88 179.537 1067.2C159.994 1101.08 135.764 1132.98 106.778 1161.93ZM184.675 1058.1C184.675 1058.1 184.501 1058.41 184.432 1058.55C183.668 1059.91 182.904 1061.3 182.141 1062.65C180.613 1062.23 179.086 1061.78 177.593 1061.36C177.454 1061.33 177.281 1061.3 177.142 1061.23C112.471 1042.31 53.7709 1009.47 4.4433 966.184C55.819 963.858 96.746 921.509 96.746 869.544C96.746 863.747 96.1559 858.124 95.1492 852.64C98.3081 857.222 101.884 861.63 105.98 865.726C142.706 902.452 201.615 903.354 239.557 868.642C235.322 934.179 217.028 998.952 184.64 1058.1H184.675ZM456.619 928.59C456.619 974.376 449.85 1018.56 437.318 1060.29C395.628 1072.82 351.403 1079.59 305.616 1079.59C264.654 1079.59 224.942 1074.17 187.174 1064.04C253.268 1034.29 284.163 957.193 256.219 889.816C252.887 881.798 248.86 874.265 244.278 867.288C251.29 871.905 258.788 875.897 266.807 879.229C334.22 907.138 411.318 876.244 441.033 810.186C451.169 847.953 456.584 887.664 456.584 928.625L456.619 928.59ZM538.959 729.758C510.008 758.708 478.107 782.972 444.226 802.515C469.914 734.756 437.249 658.389 369.836 630.48C361.817 627.148 353.659 624.683 345.432 622.983C353.625 621.282 361.782 618.817 369.836 615.485C437.249 587.576 469.914 511.209 444.226 443.45C478.107 462.993 510.008 487.223 538.959 516.207C571.347 548.594 597.798 584.625 618.418 622.983C597.798 661.34 571.347 697.371 538.959 729.758Z" fill="#FDF7E6"/>
</svg>
